G04 #@! TF.GenerationSoftware,KiCad,Pcbnew,8.0.4*
G04 #@! TF.CreationDate,2024-11-17T23:13:56+01:00*
G04 #@! TF.ProjectId,TEF6687,54454636-3638-4372-9e6b-696361645f70,v1.1*
G04 #@! TF.SameCoordinates,Original*
G04 #@! TF.FileFunction,Other,User*
%FSLAX46Y46*%
G04 Gerber Fmt 4.6, Leading zero omitted, Abs format (unit mm)*
G04 Created by KiCad (PCBNEW 8.0.4) date 2024-11-17 23:13:56*
%MOMM*%
%LPD*%
G01*
G04 APERTURE LIST*
%ADD10C,0.050000*%
%ADD11C,0.100000*%
G04 APERTURE END LIST*
D10*
G04 #@! TO.C,FB5*
X146100000Y-47800000D02*
X148500000Y-47800000D01*
X146100000Y-53800000D02*
X146100000Y-47800000D01*
X148500000Y-47800000D02*
X148500000Y-53800000D01*
X148500000Y-53800000D02*
X146100000Y-53800000D01*
G04 #@! TO.C,C6*
X174620000Y-55670000D02*
X177580000Y-55670000D01*
X174620000Y-57130000D02*
X174620000Y-55670000D01*
X177580000Y-55670000D02*
X177580000Y-57130000D01*
X177580000Y-57130000D02*
X174620000Y-57130000D01*
G04 #@! TO.C,D5*
X183150000Y-51700000D02*
X185050000Y-51700000D01*
X183150000Y-55700000D02*
X183150000Y-51700000D01*
X183150000Y-55700000D02*
X185050000Y-55700000D01*
X185050000Y-55700000D02*
X185050000Y-51700000D01*
G04 #@! TO.C,D1*
X114450000Y-53310000D02*
X114450000Y-58160000D01*
X114450000Y-58160000D02*
X117550000Y-58160000D01*
X117550000Y-53310000D02*
X114450000Y-53310000D01*
X117550000Y-58160000D02*
X117550000Y-53310000D01*
G04 #@! TO.C,C43*
X142170000Y-52770000D02*
X145130000Y-52770000D01*
X142170000Y-54230000D02*
X142170000Y-52770000D01*
X145130000Y-52770000D02*
X145130000Y-54230000D01*
X145130000Y-54230000D02*
X142170000Y-54230000D01*
G04 #@! TO.C,R28*
X131020000Y-69870000D02*
X133980000Y-69870000D01*
X131020000Y-71330000D02*
X131020000Y-69870000D01*
X133980000Y-69870000D02*
X133980000Y-71330000D01*
X133980000Y-71330000D02*
X131020000Y-71330000D01*
G04 #@! TO.C,R12*
X151245000Y-57370000D02*
X154205000Y-57370000D01*
X151245000Y-58830000D02*
X151245000Y-57370000D01*
X154205000Y-57370000D02*
X154205000Y-58830000D01*
X154205000Y-58830000D02*
X151245000Y-58830000D01*
G04 #@! TO.C,C5*
X120795000Y-55020000D02*
X123755000Y-55020000D01*
X120795000Y-56480000D02*
X120795000Y-55020000D01*
X123755000Y-55020000D02*
X123755000Y-56480000D01*
X123755000Y-56480000D02*
X120795000Y-56480000D01*
G04 #@! TO.C,U5*
X136100000Y-47850000D02*
X136100000Y-51950000D01*
X136100000Y-51950000D02*
X139500000Y-51950000D01*
X139500000Y-47850000D02*
X136100000Y-47850000D01*
X139500000Y-51950000D02*
X139500000Y-47850000D01*
G04 #@! TO.C,D4*
X159717500Y-53050000D02*
X159717500Y-56450000D01*
X159717500Y-56450000D02*
X163557500Y-56450000D01*
X163557500Y-53050000D02*
X159717500Y-53050000D01*
X163557500Y-56450000D02*
X163557500Y-53050000D01*
G04 #@! TO.C,Y2*
X144950000Y-62700000D02*
X148450000Y-62700000D01*
X144950000Y-65100000D02*
X144950000Y-62700000D01*
X148450000Y-62700000D02*
X148450000Y-65100000D01*
X148450000Y-65100000D02*
X144950000Y-65100000D01*
G04 #@! TO.C,L4*
X168492000Y-66064000D02*
X173392000Y-66064000D01*
X168492000Y-69064000D02*
X168492000Y-66064000D01*
X173392000Y-66064000D02*
X173392000Y-69064000D01*
X173392000Y-69064000D02*
X168492000Y-69064000D01*
G04 #@! TO.C,D6*
X183150000Y-70150000D02*
X183150000Y-74150000D01*
X185050000Y-70150000D02*
X183150000Y-70150000D01*
X185050000Y-70150000D02*
X185050000Y-74150000D01*
X185050000Y-74150000D02*
X183150000Y-74150000D01*
G04 #@! TO.C,R4*
X120795000Y-56670000D02*
X123755000Y-56670000D01*
X120795000Y-58130000D02*
X120795000Y-56670000D01*
X123755000Y-56670000D02*
X123755000Y-58130000D01*
X123755000Y-58130000D02*
X120795000Y-58130000D01*
G04 #@! TO.C,C33*
X143570000Y-56620000D02*
X145030000Y-56620000D01*
X143570000Y-59580000D02*
X143570000Y-56620000D01*
X145030000Y-56620000D02*
X145030000Y-59580000D01*
X145030000Y-59580000D02*
X143570000Y-59580000D01*
G04 #@! TO.C,C26*
X161220000Y-66170000D02*
X164180000Y-66170000D01*
X161220000Y-67630000D02*
X161220000Y-66170000D01*
X164180000Y-66170000D02*
X164180000Y-67630000D01*
X164180000Y-67630000D02*
X161220000Y-67630000D01*
G04 #@! TO.C,R15*
X151245000Y-66670000D02*
X154205000Y-66670000D01*
X151245000Y-68130000D02*
X151245000Y-66670000D01*
X154205000Y-66670000D02*
X154205000Y-68130000D01*
X154205000Y-68130000D02*
X151245000Y-68130000D01*
G04 #@! TO.C,J9*
X188530000Y-64970000D02*
X188530000Y-75630000D01*
X188530000Y-64970000D02*
X194600000Y-64970000D01*
X194600000Y-64970000D02*
X194600000Y-66630000D01*
X194600000Y-66630000D02*
X196120000Y-66630000D01*
X194600000Y-73980000D02*
X196120000Y-73980000D01*
X194600000Y-75630000D02*
X188530000Y-75630000D01*
X194600000Y-75630000D02*
X194600000Y-73980000D01*
X196120000Y-66630000D02*
X196120000Y-67160000D01*
X196120000Y-67160000D02*
X207550000Y-67160000D01*
X196120000Y-73440000D02*
X207550000Y-73440000D01*
X196120000Y-73980000D02*
X196120000Y-73440000D01*
X207550000Y-67160000D02*
X207550000Y-73440000D01*
G04 #@! TO.C,C36*
X131020000Y-66770000D02*
X133980000Y-66770000D01*
X131020000Y-68230000D02*
X131020000Y-66770000D01*
X133980000Y-66770000D02*
X133980000Y-68230000D01*
X133980000Y-68230000D02*
X131020000Y-68230000D01*
G04 #@! TO.C,C22*
X163345000Y-64670000D02*
X166305000Y-64670000D01*
X163345000Y-66130000D02*
X163345000Y-64670000D01*
X166305000Y-64670000D02*
X166305000Y-66130000D01*
X166305000Y-66130000D02*
X163345000Y-66130000D01*
G04 #@! TO.C,C31*
X145070000Y-56620000D02*
X146530000Y-56620000D01*
X145070000Y-59580000D02*
X145070000Y-56620000D01*
X146530000Y-56620000D02*
X146530000Y-59580000D01*
X146530000Y-59580000D02*
X145070000Y-59580000D01*
G04 #@! TO.C,C12*
X151220000Y-55870000D02*
X154180000Y-55870000D01*
X151220000Y-57330000D02*
X151220000Y-55870000D01*
X154180000Y-55870000D02*
X154180000Y-57330000D01*
X154180000Y-57330000D02*
X151220000Y-57330000D01*
G04 #@! TO.C,R25*
X137670000Y-71370000D02*
X139130000Y-71370000D01*
X137670000Y-74330000D02*
X137670000Y-71370000D01*
X139130000Y-71370000D02*
X139130000Y-74330000D01*
X139130000Y-74330000D02*
X137670000Y-74330000D01*
D11*
G04 #@! TO.C,FL1*
X127550000Y-61950000D02*
X131050000Y-61950000D01*
X127550000Y-63650000D02*
X127550000Y-61950000D01*
X131050000Y-61950000D02*
X131050000Y-63650000D01*
X131050000Y-63650000D02*
X127550000Y-63650000D01*
D10*
G04 #@! TO.C,C18*
X173470000Y-66070000D02*
X174930000Y-66070000D01*
X173470000Y-69030000D02*
X173470000Y-66070000D01*
X174930000Y-66070000D02*
X174930000Y-69030000D01*
X174930000Y-69030000D02*
X173470000Y-69030000D01*
G04 #@! TO.C,C32*
X125720000Y-69870000D02*
X128680000Y-69870000D01*
X125720000Y-71330000D02*
X125720000Y-69870000D01*
X128680000Y-69870000D02*
X128680000Y-71330000D01*
X128680000Y-71330000D02*
X125720000Y-71330000D01*
G04 #@! TO.C,R8*
X177770000Y-52670000D02*
X179230000Y-52670000D01*
X177770000Y-55630000D02*
X177770000Y-52670000D01*
X179230000Y-52670000D02*
X179230000Y-55630000D01*
X179230000Y-55630000D02*
X177770000Y-55630000D01*
G04 #@! TO.C,D2*
X114450000Y-48375000D02*
X114450000Y-53225000D01*
X114450000Y-53225000D02*
X117550000Y-53225000D01*
X117550000Y-48375000D02*
X114450000Y-48375000D01*
X117550000Y-53225000D02*
X117550000Y-48375000D01*
G04 #@! TO.C,U4*
X132150000Y-58650000D02*
X132150000Y-61800000D01*
X132150000Y-64950000D02*
X132150000Y-61800000D01*
X133550000Y-58050000D02*
X133550000Y-58650000D01*
X133550000Y-58650000D02*
X132150000Y-58650000D01*
X133550000Y-64950000D02*
X132150000Y-64950000D01*
X133550000Y-65550000D02*
X133550000Y-64950000D01*
X134150000Y-56650000D02*
X134150000Y-58050000D01*
X134150000Y-58050000D02*
X133550000Y-58050000D01*
X134150000Y-65550000D02*
X133550000Y-65550000D01*
X134150000Y-66950000D02*
X134150000Y-65550000D01*
X137300000Y-56650000D02*
X134150000Y-56650000D01*
X137300000Y-56650000D02*
X140450000Y-56650000D01*
X137300000Y-66950000D02*
X134150000Y-66950000D01*
X137300000Y-66950000D02*
X140450000Y-66950000D01*
X140450000Y-56650000D02*
X140450000Y-58050000D01*
X140450000Y-58050000D02*
X141050000Y-58050000D01*
X140450000Y-65550000D02*
X141050000Y-65550000D01*
X140450000Y-66950000D02*
X140450000Y-65550000D01*
X141050000Y-58050000D02*
X141050000Y-58650000D01*
X141050000Y-58650000D02*
X142450000Y-58650000D01*
X141050000Y-64950000D02*
X142450000Y-64950000D01*
X141050000Y-65550000D02*
X141050000Y-64950000D01*
X142450000Y-58650000D02*
X142450000Y-61800000D01*
X142450000Y-64950000D02*
X142450000Y-61800000D01*
G04 #@! TO.C,C4*
X114720000Y-70120000D02*
X117680000Y-70120000D01*
X114720000Y-71580000D02*
X114720000Y-70120000D01*
X117680000Y-70120000D02*
X117680000Y-71580000D01*
X117680000Y-71580000D02*
X114720000Y-71580000D01*
G04 #@! TO.C,FB1*
X117900000Y-68550000D02*
X123900000Y-68550000D01*
X117900000Y-70950000D02*
X117900000Y-68550000D01*
X123900000Y-68550000D02*
X123900000Y-70950000D01*
X123900000Y-70950000D02*
X117900000Y-70950000D01*
G04 #@! TO.C,J8*
X183700000Y-47079000D02*
X183700000Y-52079000D01*
X183700000Y-52079000D02*
X188700000Y-52079000D01*
X188700000Y-47079000D02*
X183700000Y-47079000D01*
X188700000Y-52079000D02*
X188700000Y-47079000D01*
G04 #@! TO.C,U2*
X175600000Y-61500000D02*
X178800000Y-61500000D01*
X175600000Y-64700000D02*
X175600000Y-61500000D01*
X178800000Y-61500000D02*
X178800000Y-64700000D01*
X178800000Y-64700000D02*
X175600000Y-64700000D01*
G04 #@! TO.C,C40*
X132520000Y-48170000D02*
X135480000Y-48170000D01*
X132520000Y-49630000D02*
X132520000Y-48170000D01*
X135480000Y-48170000D02*
X135480000Y-49630000D01*
X135480000Y-49630000D02*
X132520000Y-49630000D01*
G04 #@! TO.C,R9*
X165070000Y-53520000D02*
X166530000Y-53520000D01*
X165070000Y-56480000D02*
X165070000Y-53520000D01*
X166530000Y-53520000D02*
X166530000Y-56480000D01*
X166530000Y-56480000D02*
X165070000Y-56480000D01*
G04 #@! TO.C,R16*
X151245000Y-58870000D02*
X154205000Y-58870000D01*
X151245000Y-60330000D02*
X151245000Y-58870000D01*
X154205000Y-58870000D02*
X154205000Y-60330000D01*
X154205000Y-60330000D02*
X151245000Y-60330000D01*
G04 #@! TO.C,R24*
X140620000Y-69370000D02*
X143580000Y-69370000D01*
X140620000Y-70830000D02*
X140620000Y-69370000D01*
X143580000Y-69370000D02*
X143580000Y-70830000D01*
X143580000Y-70830000D02*
X140620000Y-70830000D01*
G04 #@! TO.C,C8*
X171170000Y-51970000D02*
X172630000Y-51970000D01*
X171170000Y-54930000D02*
X171170000Y-51970000D01*
X172630000Y-51970000D02*
X172630000Y-54930000D01*
X172630000Y-54930000D02*
X171170000Y-54930000D01*
G04 #@! TO.C,C28*
X151245000Y-63370000D02*
X154205000Y-63370000D01*
X151245000Y-64830000D02*
X151245000Y-63370000D01*
X154205000Y-63370000D02*
X154205000Y-64830000D01*
X154205000Y-64830000D02*
X151245000Y-64830000D01*
G04 #@! TO.C,C2*
X125720000Y-58120000D02*
X128680000Y-58120000D01*
X125720000Y-59580000D02*
X125720000Y-58120000D01*
X128680000Y-58120000D02*
X128680000Y-59580000D01*
X128680000Y-59580000D02*
X125720000Y-59580000D01*
G04 #@! TO.C,J6*
X125073000Y-74950000D02*
X143873000Y-74950000D01*
X125073000Y-78500000D02*
X125073000Y-74950000D01*
X143873000Y-74950000D02*
X143873000Y-78500000D01*
X143873000Y-78500000D02*
X125073000Y-78500000D01*
G04 #@! TO.C,R6*
X121820000Y-76070000D02*
X124780000Y-76070000D01*
X121820000Y-77530000D02*
X121820000Y-76070000D01*
X124780000Y-76070000D02*
X124780000Y-77530000D01*
X124780000Y-77530000D02*
X121820000Y-77530000D01*
G04 #@! TO.C,C20*
X170770000Y-56220000D02*
X173730000Y-56220000D01*
X170770000Y-57680000D02*
X170770000Y-56220000D01*
X173730000Y-56220000D02*
X173730000Y-57680000D01*
X173730000Y-57680000D02*
X170770000Y-57680000D01*
G04 #@! TO.C,R29*
X125720000Y-68270000D02*
X128680000Y-68270000D01*
X125720000Y-69730000D02*
X125720000Y-68270000D01*
X128680000Y-68270000D02*
X128680000Y-69730000D01*
X128680000Y-69730000D02*
X125720000Y-69730000D01*
G04 #@! TO.C,R23*
X140620000Y-70920000D02*
X143580000Y-70920000D01*
X140620000Y-72380000D02*
X140620000Y-70920000D01*
X143580000Y-70920000D02*
X143580000Y-72380000D01*
X143580000Y-72380000D02*
X140620000Y-72380000D01*
G04 #@! TO.C,J3*
X118640000Y-47550000D02*
X132340000Y-47550000D01*
X118640000Y-51100000D02*
X118640000Y-47550000D01*
X132340000Y-47550000D02*
X132340000Y-51100000D01*
X132340000Y-51100000D02*
X118640000Y-51100000D01*
G04 #@! TO.C,C35*
X140620000Y-67770000D02*
X143580000Y-67770000D01*
X140620000Y-69230000D02*
X140620000Y-67770000D01*
X143580000Y-67770000D02*
X143580000Y-69230000D01*
X143580000Y-69230000D02*
X140620000Y-69230000D01*
G04 #@! TO.C,R30*
X128370000Y-61180000D02*
X130230000Y-61180000D01*
X128370000Y-62120000D02*
X128370000Y-61180000D01*
X130230000Y-61180000D02*
X130230000Y-62120000D01*
X130230000Y-62120000D02*
X128370000Y-62120000D01*
G04 #@! TO.C,R2*
X125720000Y-65070000D02*
X128680000Y-65070000D01*
X125720000Y-66530000D02*
X125720000Y-65070000D01*
X128680000Y-65070000D02*
X128680000Y-66530000D01*
X128680000Y-66530000D02*
X125720000Y-66530000D01*
G04 #@! TO.C,R18*
X157695000Y-68020000D02*
X159155000Y-68020000D01*
X157695000Y-70980000D02*
X157695000Y-68020000D01*
X159155000Y-68020000D02*
X159155000Y-70980000D01*
X159155000Y-70980000D02*
X157695000Y-70980000D01*
G04 #@! TO.C,C15*
X177087294Y-59930330D02*
X179180330Y-57837294D01*
X178119670Y-60962706D02*
X177087294Y-59930330D01*
X179180330Y-57837294D02*
X180212706Y-58869670D01*
X180212706Y-58869670D02*
X178119670Y-60962706D01*
G04 #@! TO.C,C42*
X132520000Y-49670000D02*
X135480000Y-49670000D01*
X132520000Y-51130000D02*
X132520000Y-49670000D01*
X135480000Y-49670000D02*
X135480000Y-51130000D01*
X135480000Y-51130000D02*
X132520000Y-51130000D01*
G04 #@! TO.C,R19*
X154495000Y-68020000D02*
X155955000Y-68020000D01*
X154495000Y-70980000D02*
X154495000Y-68020000D01*
X155955000Y-68020000D02*
X155955000Y-70980000D01*
X155955000Y-70980000D02*
X154495000Y-70980000D01*
G04 #@! TO.C,J1*
X112350000Y-58185000D02*
X112350000Y-68375000D01*
X112350000Y-68375000D02*
X120770000Y-68375000D01*
X120770000Y-58185000D02*
X112350000Y-58185000D01*
X120770000Y-68375000D02*
X120770000Y-58185000D01*
G04 #@! TO.C,L1*
X172700000Y-52650000D02*
X177600000Y-52650000D01*
X172700000Y-55650000D02*
X172700000Y-52650000D01*
X177600000Y-52650000D02*
X177600000Y-55650000D01*
X177600000Y-55650000D02*
X172700000Y-55650000D01*
G04 #@! TO.C,C30*
X151245000Y-65170000D02*
X154205000Y-65170000D01*
X151245000Y-66630000D02*
X151245000Y-65170000D01*
X154205000Y-65170000D02*
X154205000Y-66630000D01*
X154205000Y-66630000D02*
X151245000Y-66630000D01*
G04 #@! TO.C,R11*
X156095000Y-68020000D02*
X157555000Y-68020000D01*
X156095000Y-70980000D02*
X156095000Y-68020000D01*
X157555000Y-68020000D02*
X157555000Y-70980000D01*
X157555000Y-70980000D02*
X156095000Y-70980000D01*
G04 #@! TO.C,J10*
X188530000Y-50270000D02*
X188530000Y-60930000D01*
X188530000Y-50270000D02*
X194600000Y-50270000D01*
X194600000Y-50270000D02*
X194600000Y-51930000D01*
X194600000Y-51930000D02*
X196120000Y-51930000D01*
X194600000Y-59280000D02*
X196120000Y-59280000D01*
X194600000Y-60930000D02*
X188530000Y-60930000D01*
X194600000Y-60930000D02*
X194600000Y-59280000D01*
X196120000Y-51930000D02*
X196120000Y-52460000D01*
X196120000Y-52460000D02*
X207550000Y-52460000D01*
X196120000Y-58740000D02*
X207550000Y-58740000D01*
X196120000Y-59280000D02*
X196120000Y-58740000D01*
X207550000Y-52460000D02*
X207550000Y-58740000D01*
G04 #@! TO.C,R31*
X128370000Y-63530000D02*
X130230000Y-63530000D01*
X128370000Y-64470000D02*
X128370000Y-63530000D01*
X130230000Y-63530000D02*
X130230000Y-64470000D01*
X130230000Y-64470000D02*
X128370000Y-64470000D01*
G04 #@! TO.C,C23*
X163345000Y-63170000D02*
X166305000Y-63170000D01*
X163345000Y-64630000D02*
X163345000Y-63170000D01*
X166305000Y-63170000D02*
X166305000Y-64630000D01*
X166305000Y-64630000D02*
X163345000Y-64630000D01*
G04 #@! TO.C,C39*
X141070000Y-48220000D02*
X142530000Y-48220000D01*
X141070000Y-51180000D02*
X141070000Y-48220000D01*
X142530000Y-48220000D02*
X142530000Y-51180000D01*
X142530000Y-51180000D02*
X141070000Y-51180000D01*
G04 #@! TO.C,J7*
X146917000Y-74950000D02*
X155567000Y-74950000D01*
X146917000Y-78500000D02*
X146917000Y-74950000D01*
X155567000Y-74950000D02*
X155567000Y-78500000D01*
X155567000Y-78500000D02*
X146917000Y-78500000D01*
G04 #@! TO.C,J2*
X118600000Y-51450000D02*
X129800000Y-51450000D01*
X118600000Y-55000000D02*
X118600000Y-51450000D01*
X129800000Y-51450000D02*
X129800000Y-55000000D01*
X129800000Y-55000000D02*
X118600000Y-55000000D01*
G04 #@! TO.C,J4*
X121520000Y-71350000D02*
X135220000Y-71350000D01*
X121520000Y-74900000D02*
X121520000Y-71350000D01*
X135220000Y-71350000D02*
X135220000Y-74900000D01*
X135220000Y-74900000D02*
X121520000Y-74900000D01*
G04 #@! TO.C,U3*
X156055000Y-59110000D02*
X156055000Y-65350000D01*
X156055000Y-65350000D02*
X162295000Y-65350000D01*
X162295000Y-59110000D02*
X156055000Y-59110000D01*
X162295000Y-65350000D02*
X162295000Y-59110000D01*
G04 #@! TO.C,C21*
X159620000Y-68020000D02*
X161080000Y-68020000D01*
X159620000Y-70980000D02*
X159620000Y-68020000D01*
X161080000Y-68020000D02*
X161080000Y-70980000D01*
X161080000Y-70980000D02*
X159620000Y-70980000D01*
G04 #@! TO.C,C11*
X151682500Y-52120000D02*
X153142500Y-52120000D01*
X151682500Y-55080000D02*
X151682500Y-52120000D01*
X153142500Y-52120000D02*
X153142500Y-55080000D01*
X153142500Y-55080000D02*
X151682500Y-55080000D01*
G04 #@! TO.C,R13*
X151245000Y-60370000D02*
X154205000Y-60370000D01*
X151245000Y-61830000D02*
X151245000Y-60370000D01*
X154205000Y-60370000D02*
X154205000Y-61830000D01*
X154205000Y-61830000D02*
X151245000Y-61830000D01*
G04 #@! TO.C,C19*
X166859200Y-66420000D02*
X168319200Y-66420000D01*
X166859200Y-69380000D02*
X166859200Y-66420000D01*
X168319200Y-66420000D02*
X168319200Y-69380000D01*
X168319200Y-69380000D02*
X166859200Y-69380000D01*
G04 #@! TO.C,L2*
X166550000Y-52300000D02*
X169550000Y-52300000D01*
X166550000Y-57200000D02*
X166550000Y-52300000D01*
X169550000Y-52300000D02*
X169550000Y-57200000D01*
X169550000Y-57200000D02*
X166550000Y-57200000D01*
G04 #@! TO.C,R20*
X146570000Y-68520000D02*
X148030000Y-68520000D01*
X146570000Y-71480000D02*
X146570000Y-68520000D01*
X148030000Y-68520000D02*
X148030000Y-71480000D01*
X148030000Y-71480000D02*
X146570000Y-71480000D01*
G04 #@! TO.C,R7*
X174620000Y-57420000D02*
X177580000Y-57420000D01*
X174620000Y-58880000D02*
X174620000Y-57420000D01*
X177580000Y-57420000D02*
X177580000Y-58880000D01*
X177580000Y-58880000D02*
X174620000Y-58880000D01*
G04 #@! TO.C,C41*
X142170000Y-54320000D02*
X145130000Y-54320000D01*
X142170000Y-55780000D02*
X142170000Y-54320000D01*
X145130000Y-54320000D02*
X145130000Y-55780000D01*
X145130000Y-55780000D02*
X142170000Y-55780000D01*
G04 #@! TO.C,C7*
X169620000Y-51970000D02*
X171080000Y-51970000D01*
X169620000Y-54930000D02*
X169620000Y-51970000D01*
X171080000Y-51970000D02*
X171080000Y-54930000D01*
X171080000Y-54930000D02*
X169620000Y-54930000D01*
G04 #@! TO.C,C38*
X139570000Y-48220000D02*
X141030000Y-48220000D01*
X139570000Y-51180000D02*
X139570000Y-48220000D01*
X141030000Y-48220000D02*
X141030000Y-51180000D01*
X141030000Y-51180000D02*
X139570000Y-51180000D01*
G04 #@! TO.C,C29*
X151245000Y-61870000D02*
X154205000Y-61870000D01*
X151245000Y-63330000D02*
X151245000Y-61870000D01*
X154205000Y-61870000D02*
X154205000Y-63330000D01*
X154205000Y-63330000D02*
X151245000Y-63330000D01*
G04 #@! TO.C,D3*
X114450000Y-71650000D02*
X114450000Y-76500000D01*
X114450000Y-76500000D02*
X117550000Y-76500000D01*
X117550000Y-71650000D02*
X114450000Y-71650000D01*
X117550000Y-76500000D02*
X117550000Y-71650000D01*
G04 #@! TO.C,C34*
X132520000Y-52870000D02*
X135480000Y-52870000D01*
X132520000Y-54330000D02*
X132520000Y-52870000D01*
X135480000Y-52870000D02*
X135480000Y-54330000D01*
X135480000Y-54330000D02*
X132520000Y-54330000D01*
G04 #@! TO.C,FB3*
X132520000Y-51270000D02*
X135480000Y-51270000D01*
X132520000Y-52730000D02*
X132520000Y-51270000D01*
X135480000Y-51270000D02*
X135480000Y-52730000D01*
X135480000Y-52730000D02*
X132520000Y-52730000D01*
G04 #@! TO.C,R21*
X145070000Y-68520000D02*
X146530000Y-68520000D01*
X145070000Y-71480000D02*
X145070000Y-68520000D01*
X146530000Y-68520000D02*
X146530000Y-71480000D01*
X146530000Y-71480000D02*
X145070000Y-71480000D01*
G04 #@! TO.C,R1*
X125720000Y-59670000D02*
X128680000Y-59670000D01*
X125720000Y-61130000D02*
X125720000Y-59670000D01*
X128680000Y-59670000D02*
X128680000Y-61130000D01*
X128680000Y-61130000D02*
X125720000Y-61130000D01*
G04 #@! TO.C,C10*
X163570000Y-53520000D02*
X165030000Y-53520000D01*
X163570000Y-56480000D02*
X163570000Y-53520000D01*
X165030000Y-53520000D02*
X165030000Y-56480000D01*
X165030000Y-56480000D02*
X163570000Y-56480000D01*
G04 #@! TO.C,Y1*
X161100000Y-67800000D02*
X161100000Y-71200000D01*
X161100000Y-71200000D02*
X165300000Y-71200000D01*
X165300000Y-67800000D02*
X161100000Y-67800000D01*
X165300000Y-71200000D02*
X165300000Y-67800000D01*
G04 #@! TO.C,L3*
X154662500Y-52100000D02*
X159562500Y-52100000D01*
X154662500Y-55100000D02*
X154662500Y-52100000D01*
X159562500Y-52100000D02*
X159562500Y-55100000D01*
X159562500Y-55100000D02*
X154662500Y-55100000D01*
G04 #@! TO.C,FB2*
X145120000Y-66420000D02*
X148080000Y-66420000D01*
X145120000Y-67880000D02*
X145120000Y-66420000D01*
X148080000Y-66420000D02*
X148080000Y-67880000D01*
X148080000Y-67880000D02*
X145120000Y-67880000D01*
G04 #@! TO.C,C14*
X177137294Y-66319670D02*
X178169670Y-65287294D01*
X178169670Y-65287294D02*
X180262706Y-67380330D01*
X179230330Y-68412706D02*
X177137294Y-66319670D01*
X180262706Y-67380330D02*
X179230330Y-68412706D01*
G04 #@! TO.C,R22*
X143470000Y-62470000D02*
X144930000Y-62470000D01*
X143470000Y-65430000D02*
X143470000Y-62470000D01*
X144930000Y-62470000D02*
X144930000Y-65430000D01*
X144930000Y-65430000D02*
X143470000Y-65430000D01*
G04 #@! TO.C,R3*
X117720000Y-56670000D02*
X120680000Y-56670000D01*
X117720000Y-58130000D02*
X117720000Y-56670000D01*
X120680000Y-56670000D02*
X120680000Y-58130000D01*
X120680000Y-58130000D02*
X117720000Y-58130000D01*
G04 #@! TO.C,R5*
X117720000Y-55020000D02*
X120680000Y-55020000D01*
X117720000Y-56480000D02*
X117720000Y-55020000D01*
X120680000Y-55020000D02*
X120680000Y-56480000D01*
X120680000Y-56480000D02*
X117720000Y-56480000D01*
G04 #@! TO.C,R10*
X140670000Y-73470000D02*
X143630000Y-73470000D01*
X140670000Y-74930000D02*
X140670000Y-73470000D01*
X143630000Y-73470000D02*
X143630000Y-74930000D01*
X143630000Y-74930000D02*
X140670000Y-74930000D01*
G04 #@! TO.C,C24*
X157220000Y-57170000D02*
X160180000Y-57170000D01*
X157220000Y-58630000D02*
X157220000Y-57170000D01*
X160180000Y-57170000D02*
X160180000Y-58630000D01*
X160180000Y-58630000D02*
X157220000Y-58630000D01*
G04 #@! TO.C,R14*
X151245000Y-68170000D02*
X154205000Y-68170000D01*
X151245000Y-69630000D02*
X151245000Y-68170000D01*
X154205000Y-68170000D02*
X154205000Y-69630000D01*
X154205000Y-69630000D02*
X151245000Y-69630000D01*
D11*
G04 #@! TO.C,TR1*
X166375000Y-57730000D02*
X174375000Y-57730000D01*
X166375000Y-65730000D02*
X166375000Y-57730000D01*
X174375000Y-57730000D02*
X174375000Y-65730000D01*
X174375000Y-65730000D02*
X166375000Y-65730000D01*
D10*
G04 #@! TO.C,C9*
X153182500Y-52120000D02*
X154642500Y-52120000D01*
X153182500Y-55080000D02*
X153182500Y-52120000D01*
X154642500Y-52120000D02*
X154642500Y-55080000D01*
X154642500Y-55080000D02*
X153182500Y-55080000D01*
G04 #@! TO.C,FB4*
X146570000Y-56620000D02*
X148030000Y-56620000D01*
X146570000Y-59580000D02*
X146570000Y-56620000D01*
X148030000Y-56620000D02*
X148030000Y-59580000D01*
X148030000Y-59580000D02*
X146570000Y-59580000D01*
G04 #@! TO.C,C1*
X114720000Y-68612000D02*
X117680000Y-68612000D01*
X114720000Y-70072000D02*
X114720000Y-68612000D01*
X117680000Y-68612000D02*
X117680000Y-70072000D01*
X117680000Y-70072000D02*
X114720000Y-70072000D01*
G04 #@! TO.C,C17*
X179170000Y-63320000D02*
X180630000Y-63320000D01*
X179170000Y-66280000D02*
X179170000Y-63320000D01*
X180630000Y-63320000D02*
X180630000Y-66280000D01*
X180630000Y-66280000D02*
X179170000Y-66280000D01*
G04 #@! TO.C,C37*
X131020000Y-68370000D02*
X133980000Y-68370000D01*
X131020000Y-69830000D02*
X131020000Y-68370000D01*
X133980000Y-68370000D02*
X133980000Y-69830000D01*
X133980000Y-69830000D02*
X131020000Y-69830000D01*
G04 #@! TO.C,C3*
X125720000Y-66670000D02*
X128680000Y-66670000D01*
X125720000Y-68130000D02*
X125720000Y-66670000D01*
X128680000Y-66670000D02*
X128680000Y-68130000D01*
X128680000Y-68130000D02*
X125720000Y-68130000D01*
G04 #@! TO.C,R17*
X151270000Y-69670000D02*
X154230000Y-69670000D01*
X151270000Y-71130000D02*
X151270000Y-69670000D01*
X154230000Y-69670000D02*
X154230000Y-71130000D01*
X154230000Y-71130000D02*
X151270000Y-71130000D01*
G04 #@! TO.C,U6*
X142600000Y-47850000D02*
X142600000Y-51950000D01*
X142600000Y-51950000D02*
X146000000Y-51950000D01*
X146000000Y-47850000D02*
X142600000Y-47850000D01*
X146000000Y-51950000D02*
X146000000Y-47850000D01*
G04 #@! TO.C,C25*
X165370000Y-66420000D02*
X166830000Y-66420000D01*
X165370000Y-69380000D02*
X165370000Y-66420000D01*
X166830000Y-66420000D02*
X166830000Y-69380000D01*
X166830000Y-69380000D02*
X165370000Y-69380000D01*
G04 #@! TO.C,R26*
X125720000Y-55020000D02*
X128680000Y-55020000D01*
X125720000Y-56480000D02*
X125720000Y-55020000D01*
X128680000Y-55020000D02*
X128680000Y-56480000D01*
X128680000Y-56480000D02*
X125720000Y-56480000D01*
G04 #@! TO.C,C13*
X160320000Y-57170000D02*
X163280000Y-57170000D01*
X160320000Y-58630000D02*
X160320000Y-57170000D01*
X163280000Y-57170000D02*
X163280000Y-58630000D01*
X163280000Y-58630000D02*
X160320000Y-58630000D01*
G04 #@! TO.C,U1*
X123625000Y-61700000D02*
X123625000Y-63900000D01*
X123625000Y-61700000D02*
X126625000Y-61700000D01*
X123625000Y-63900000D02*
X126625000Y-63900000D01*
X126625000Y-63900000D02*
X126625000Y-61700000D01*
G04 #@! TO.C,C16*
X179170000Y-59920000D02*
X180630000Y-59920000D01*
X179170000Y-62880000D02*
X179170000Y-59920000D01*
X180630000Y-59920000D02*
X180630000Y-62880000D01*
X180630000Y-62880000D02*
X179170000Y-62880000D01*
G04 #@! TO.C,C27*
X163370000Y-58120000D02*
X164830000Y-58120000D01*
X163370000Y-61080000D02*
X163370000Y-58120000D01*
X164830000Y-58120000D02*
X164830000Y-61080000D01*
X164830000Y-61080000D02*
X163370000Y-61080000D01*
G04 #@! TO.C,R27*
X125720000Y-56520000D02*
X128680000Y-56520000D01*
X125720000Y-57980000D02*
X125720000Y-56520000D01*
X128680000Y-56520000D02*
X128680000Y-57980000D01*
X128680000Y-57980000D02*
X125720000Y-57980000D01*
G04 #@! TD*
M02*
