G04 #@! TF.GenerationSoftware,KiCad,Pcbnew,8.0.4*
G04 #@! TF.CreationDate,2024-11-17T23:13:56+01:00*
G04 #@! TF.ProjectId,TEF6687,54454636-3638-4372-9e6b-696361645f70,v1.1*
G04 #@! TF.SameCoordinates,Original*
G04 #@! TF.FileFunction,AssemblyDrawing,Top*
%FSLAX46Y46*%
G04 Gerber Fmt 4.6, Leading zero omitted, Abs format (unit mm)*
G04 Created by KiCad (PCBNEW 8.0.4) date 2024-11-17 23:13:56*
%MOMM*%
%LPD*%
G01*
G04 APERTURE LIST*
%ADD10C,0.150000*%
%ADD11C,0.060000*%
%ADD12C,0.050000*%
%ADD13C,0.080000*%
%ADD14C,0.040000*%
%ADD15C,0.105000*%
%ADD16C,0.075000*%
%ADD17C,0.100000*%
%ADD18C,0.200000*%
%ADD19C,0.127000*%
G04 APERTURE END LIST*
D10*
X147231009Y-51633333D02*
X147231009Y-51966666D01*
X147754819Y-51966666D02*
X146754819Y-51966666D01*
X146754819Y-51966666D02*
X146754819Y-51490476D01*
X147231009Y-50776190D02*
X147278628Y-50633333D01*
X147278628Y-50633333D02*
X147326247Y-50585714D01*
X147326247Y-50585714D02*
X147421485Y-50538095D01*
X147421485Y-50538095D02*
X147564342Y-50538095D01*
X147564342Y-50538095D02*
X147659580Y-50585714D01*
X147659580Y-50585714D02*
X147707200Y-50633333D01*
X147707200Y-50633333D02*
X147754819Y-50728571D01*
X147754819Y-50728571D02*
X147754819Y-51109523D01*
X147754819Y-51109523D02*
X146754819Y-51109523D01*
X146754819Y-51109523D02*
X146754819Y-50776190D01*
X146754819Y-50776190D02*
X146802438Y-50680952D01*
X146802438Y-50680952D02*
X146850057Y-50633333D01*
X146850057Y-50633333D02*
X146945295Y-50585714D01*
X146945295Y-50585714D02*
X147040533Y-50585714D01*
X147040533Y-50585714D02*
X147135771Y-50633333D01*
X147135771Y-50633333D02*
X147183390Y-50680952D01*
X147183390Y-50680952D02*
X147231009Y-50776190D01*
X147231009Y-50776190D02*
X147231009Y-51109523D01*
X146754819Y-49633333D02*
X146754819Y-50109523D01*
X146754819Y-50109523D02*
X147231009Y-50157142D01*
X147231009Y-50157142D02*
X147183390Y-50109523D01*
X147183390Y-50109523D02*
X147135771Y-50014285D01*
X147135771Y-50014285D02*
X147135771Y-49776190D01*
X147135771Y-49776190D02*
X147183390Y-49680952D01*
X147183390Y-49680952D02*
X147231009Y-49633333D01*
X147231009Y-49633333D02*
X147326247Y-49585714D01*
X147326247Y-49585714D02*
X147564342Y-49585714D01*
X147564342Y-49585714D02*
X147659580Y-49633333D01*
X147659580Y-49633333D02*
X147707200Y-49680952D01*
X147707200Y-49680952D02*
X147754819Y-49776190D01*
X147754819Y-49776190D02*
X147754819Y-50014285D01*
X147754819Y-50014285D02*
X147707200Y-50109523D01*
X147707200Y-50109523D02*
X147659580Y-50157142D01*
D11*
X176033333Y-56543832D02*
X176014285Y-56562880D01*
X176014285Y-56562880D02*
X175957143Y-56581927D01*
X175957143Y-56581927D02*
X175919047Y-56581927D01*
X175919047Y-56581927D02*
X175861904Y-56562880D01*
X175861904Y-56562880D02*
X175823809Y-56524784D01*
X175823809Y-56524784D02*
X175804762Y-56486689D01*
X175804762Y-56486689D02*
X175785714Y-56410499D01*
X175785714Y-56410499D02*
X175785714Y-56353356D01*
X175785714Y-56353356D02*
X175804762Y-56277165D01*
X175804762Y-56277165D02*
X175823809Y-56239070D01*
X175823809Y-56239070D02*
X175861904Y-56200975D01*
X175861904Y-56200975D02*
X175919047Y-56181927D01*
X175919047Y-56181927D02*
X175957143Y-56181927D01*
X175957143Y-56181927D02*
X176014285Y-56200975D01*
X176014285Y-56200975D02*
X176033333Y-56220022D01*
X176376190Y-56181927D02*
X176300000Y-56181927D01*
X176300000Y-56181927D02*
X176261904Y-56200975D01*
X176261904Y-56200975D02*
X176242857Y-56220022D01*
X176242857Y-56220022D02*
X176204762Y-56277165D01*
X176204762Y-56277165D02*
X176185714Y-56353356D01*
X176185714Y-56353356D02*
X176185714Y-56505737D01*
X176185714Y-56505737D02*
X176204762Y-56543832D01*
X176204762Y-56543832D02*
X176223809Y-56562880D01*
X176223809Y-56562880D02*
X176261904Y-56581927D01*
X176261904Y-56581927D02*
X176338095Y-56581927D01*
X176338095Y-56581927D02*
X176376190Y-56562880D01*
X176376190Y-56562880D02*
X176395238Y-56543832D01*
X176395238Y-56543832D02*
X176414285Y-56505737D01*
X176414285Y-56505737D02*
X176414285Y-56410499D01*
X176414285Y-56410499D02*
X176395238Y-56372403D01*
X176395238Y-56372403D02*
X176376190Y-56353356D01*
X176376190Y-56353356D02*
X176338095Y-56334308D01*
X176338095Y-56334308D02*
X176261904Y-56334308D01*
X176261904Y-56334308D02*
X176223809Y-56353356D01*
X176223809Y-56353356D02*
X176204762Y-56372403D01*
X176204762Y-56372403D02*
X176185714Y-56410499D01*
X143392857Y-53643832D02*
X143373809Y-53662880D01*
X143373809Y-53662880D02*
X143316667Y-53681927D01*
X143316667Y-53681927D02*
X143278571Y-53681927D01*
X143278571Y-53681927D02*
X143221428Y-53662880D01*
X143221428Y-53662880D02*
X143183333Y-53624784D01*
X143183333Y-53624784D02*
X143164286Y-53586689D01*
X143164286Y-53586689D02*
X143145238Y-53510499D01*
X143145238Y-53510499D02*
X143145238Y-53453356D01*
X143145238Y-53453356D02*
X143164286Y-53377165D01*
X143164286Y-53377165D02*
X143183333Y-53339070D01*
X143183333Y-53339070D02*
X143221428Y-53300975D01*
X143221428Y-53300975D02*
X143278571Y-53281927D01*
X143278571Y-53281927D02*
X143316667Y-53281927D01*
X143316667Y-53281927D02*
X143373809Y-53300975D01*
X143373809Y-53300975D02*
X143392857Y-53320022D01*
X143735714Y-53415260D02*
X143735714Y-53681927D01*
X143640476Y-53262880D02*
X143545238Y-53548594D01*
X143545238Y-53548594D02*
X143792857Y-53548594D01*
X143907142Y-53281927D02*
X144154761Y-53281927D01*
X144154761Y-53281927D02*
X144021428Y-53434308D01*
X144021428Y-53434308D02*
X144078571Y-53434308D01*
X144078571Y-53434308D02*
X144116666Y-53453356D01*
X144116666Y-53453356D02*
X144135714Y-53472403D01*
X144135714Y-53472403D02*
X144154761Y-53510499D01*
X144154761Y-53510499D02*
X144154761Y-53605737D01*
X144154761Y-53605737D02*
X144135714Y-53643832D01*
X144135714Y-53643832D02*
X144116666Y-53662880D01*
X144116666Y-53662880D02*
X144078571Y-53681927D01*
X144078571Y-53681927D02*
X143964285Y-53681927D01*
X143964285Y-53681927D02*
X143926190Y-53662880D01*
X143926190Y-53662880D02*
X143907142Y-53643832D01*
X132242857Y-70781927D02*
X132109524Y-70591451D01*
X132014286Y-70781927D02*
X132014286Y-70381927D01*
X132014286Y-70381927D02*
X132166667Y-70381927D01*
X132166667Y-70381927D02*
X132204762Y-70400975D01*
X132204762Y-70400975D02*
X132223809Y-70420022D01*
X132223809Y-70420022D02*
X132242857Y-70458118D01*
X132242857Y-70458118D02*
X132242857Y-70515260D01*
X132242857Y-70515260D02*
X132223809Y-70553356D01*
X132223809Y-70553356D02*
X132204762Y-70572403D01*
X132204762Y-70572403D02*
X132166667Y-70591451D01*
X132166667Y-70591451D02*
X132014286Y-70591451D01*
X132395238Y-70420022D02*
X132414286Y-70400975D01*
X132414286Y-70400975D02*
X132452381Y-70381927D01*
X132452381Y-70381927D02*
X132547619Y-70381927D01*
X132547619Y-70381927D02*
X132585714Y-70400975D01*
X132585714Y-70400975D02*
X132604762Y-70420022D01*
X132604762Y-70420022D02*
X132623809Y-70458118D01*
X132623809Y-70458118D02*
X132623809Y-70496213D01*
X132623809Y-70496213D02*
X132604762Y-70553356D01*
X132604762Y-70553356D02*
X132376190Y-70781927D01*
X132376190Y-70781927D02*
X132623809Y-70781927D01*
X132852380Y-70553356D02*
X132814285Y-70534308D01*
X132814285Y-70534308D02*
X132795238Y-70515260D01*
X132795238Y-70515260D02*
X132776190Y-70477165D01*
X132776190Y-70477165D02*
X132776190Y-70458118D01*
X132776190Y-70458118D02*
X132795238Y-70420022D01*
X132795238Y-70420022D02*
X132814285Y-70400975D01*
X132814285Y-70400975D02*
X132852380Y-70381927D01*
X132852380Y-70381927D02*
X132928571Y-70381927D01*
X132928571Y-70381927D02*
X132966666Y-70400975D01*
X132966666Y-70400975D02*
X132985714Y-70420022D01*
X132985714Y-70420022D02*
X133004761Y-70458118D01*
X133004761Y-70458118D02*
X133004761Y-70477165D01*
X133004761Y-70477165D02*
X132985714Y-70515260D01*
X132985714Y-70515260D02*
X132966666Y-70534308D01*
X132966666Y-70534308D02*
X132928571Y-70553356D01*
X132928571Y-70553356D02*
X132852380Y-70553356D01*
X132852380Y-70553356D02*
X132814285Y-70572403D01*
X132814285Y-70572403D02*
X132795238Y-70591451D01*
X132795238Y-70591451D02*
X132776190Y-70629546D01*
X132776190Y-70629546D02*
X132776190Y-70705737D01*
X132776190Y-70705737D02*
X132795238Y-70743832D01*
X132795238Y-70743832D02*
X132814285Y-70762880D01*
X132814285Y-70762880D02*
X132852380Y-70781927D01*
X132852380Y-70781927D02*
X132928571Y-70781927D01*
X132928571Y-70781927D02*
X132966666Y-70762880D01*
X132966666Y-70762880D02*
X132985714Y-70743832D01*
X132985714Y-70743832D02*
X133004761Y-70705737D01*
X133004761Y-70705737D02*
X133004761Y-70629546D01*
X133004761Y-70629546D02*
X132985714Y-70591451D01*
X132985714Y-70591451D02*
X132966666Y-70572403D01*
X132966666Y-70572403D02*
X132928571Y-70553356D01*
X152467857Y-58281927D02*
X152334524Y-58091451D01*
X152239286Y-58281927D02*
X152239286Y-57881927D01*
X152239286Y-57881927D02*
X152391667Y-57881927D01*
X152391667Y-57881927D02*
X152429762Y-57900975D01*
X152429762Y-57900975D02*
X152448809Y-57920022D01*
X152448809Y-57920022D02*
X152467857Y-57958118D01*
X152467857Y-57958118D02*
X152467857Y-58015260D01*
X152467857Y-58015260D02*
X152448809Y-58053356D01*
X152448809Y-58053356D02*
X152429762Y-58072403D01*
X152429762Y-58072403D02*
X152391667Y-58091451D01*
X152391667Y-58091451D02*
X152239286Y-58091451D01*
X152848809Y-58281927D02*
X152620238Y-58281927D01*
X152734524Y-58281927D02*
X152734524Y-57881927D01*
X152734524Y-57881927D02*
X152696428Y-57939070D01*
X152696428Y-57939070D02*
X152658333Y-57977165D01*
X152658333Y-57977165D02*
X152620238Y-57996213D01*
X153001190Y-57920022D02*
X153020238Y-57900975D01*
X153020238Y-57900975D02*
X153058333Y-57881927D01*
X153058333Y-57881927D02*
X153153571Y-57881927D01*
X153153571Y-57881927D02*
X153191666Y-57900975D01*
X153191666Y-57900975D02*
X153210714Y-57920022D01*
X153210714Y-57920022D02*
X153229761Y-57958118D01*
X153229761Y-57958118D02*
X153229761Y-57996213D01*
X153229761Y-57996213D02*
X153210714Y-58053356D01*
X153210714Y-58053356D02*
X152982142Y-58281927D01*
X152982142Y-58281927D02*
X153229761Y-58281927D01*
X122208333Y-55893832D02*
X122189285Y-55912880D01*
X122189285Y-55912880D02*
X122132143Y-55931927D01*
X122132143Y-55931927D02*
X122094047Y-55931927D01*
X122094047Y-55931927D02*
X122036904Y-55912880D01*
X122036904Y-55912880D02*
X121998809Y-55874784D01*
X121998809Y-55874784D02*
X121979762Y-55836689D01*
X121979762Y-55836689D02*
X121960714Y-55760499D01*
X121960714Y-55760499D02*
X121960714Y-55703356D01*
X121960714Y-55703356D02*
X121979762Y-55627165D01*
X121979762Y-55627165D02*
X121998809Y-55589070D01*
X121998809Y-55589070D02*
X122036904Y-55550975D01*
X122036904Y-55550975D02*
X122094047Y-55531927D01*
X122094047Y-55531927D02*
X122132143Y-55531927D01*
X122132143Y-55531927D02*
X122189285Y-55550975D01*
X122189285Y-55550975D02*
X122208333Y-55570022D01*
X122570238Y-55531927D02*
X122379762Y-55531927D01*
X122379762Y-55531927D02*
X122360714Y-55722403D01*
X122360714Y-55722403D02*
X122379762Y-55703356D01*
X122379762Y-55703356D02*
X122417857Y-55684308D01*
X122417857Y-55684308D02*
X122513095Y-55684308D01*
X122513095Y-55684308D02*
X122551190Y-55703356D01*
X122551190Y-55703356D02*
X122570238Y-55722403D01*
X122570238Y-55722403D02*
X122589285Y-55760499D01*
X122589285Y-55760499D02*
X122589285Y-55855737D01*
X122589285Y-55855737D02*
X122570238Y-55893832D01*
X122570238Y-55893832D02*
X122551190Y-55912880D01*
X122551190Y-55912880D02*
X122513095Y-55931927D01*
X122513095Y-55931927D02*
X122417857Y-55931927D01*
X122417857Y-55931927D02*
X122379762Y-55912880D01*
X122379762Y-55912880D02*
X122360714Y-55893832D01*
X137581927Y-50204761D02*
X137905737Y-50204761D01*
X137905737Y-50204761D02*
X137943832Y-50185714D01*
X137943832Y-50185714D02*
X137962880Y-50166666D01*
X137962880Y-50166666D02*
X137981927Y-50128571D01*
X137981927Y-50128571D02*
X137981927Y-50052380D01*
X137981927Y-50052380D02*
X137962880Y-50014285D01*
X137962880Y-50014285D02*
X137943832Y-49995238D01*
X137943832Y-49995238D02*
X137905737Y-49976190D01*
X137905737Y-49976190D02*
X137581927Y-49976190D01*
X137581927Y-49595237D02*
X137581927Y-49785713D01*
X137581927Y-49785713D02*
X137772403Y-49804761D01*
X137772403Y-49804761D02*
X137753356Y-49785713D01*
X137753356Y-49785713D02*
X137734308Y-49747618D01*
X137734308Y-49747618D02*
X137734308Y-49652380D01*
X137734308Y-49652380D02*
X137753356Y-49614285D01*
X137753356Y-49614285D02*
X137772403Y-49595237D01*
X137772403Y-49595237D02*
X137810499Y-49576190D01*
X137810499Y-49576190D02*
X137905737Y-49576190D01*
X137905737Y-49576190D02*
X137943832Y-49595237D01*
X137943832Y-49595237D02*
X137962880Y-49614285D01*
X137962880Y-49614285D02*
X137981927Y-49652380D01*
X137981927Y-49652380D02*
X137981927Y-49747618D01*
X137981927Y-49747618D02*
X137962880Y-49785713D01*
X137962880Y-49785713D02*
X137943832Y-49804761D01*
D12*
X161401309Y-54895438D02*
X161401309Y-54575438D01*
X161401309Y-54575438D02*
X161477499Y-54575438D01*
X161477499Y-54575438D02*
X161523214Y-54590676D01*
X161523214Y-54590676D02*
X161553690Y-54621152D01*
X161553690Y-54621152D02*
X161568928Y-54651628D01*
X161568928Y-54651628D02*
X161584166Y-54712580D01*
X161584166Y-54712580D02*
X161584166Y-54758295D01*
X161584166Y-54758295D02*
X161568928Y-54819247D01*
X161568928Y-54819247D02*
X161553690Y-54849723D01*
X161553690Y-54849723D02*
X161523214Y-54880200D01*
X161523214Y-54880200D02*
X161477499Y-54895438D01*
X161477499Y-54895438D02*
X161401309Y-54895438D01*
X161858452Y-54682104D02*
X161858452Y-54895438D01*
X161782261Y-54560200D02*
X161706071Y-54788771D01*
X161706071Y-54788771D02*
X161904166Y-54788771D01*
D13*
X146514285Y-63837697D02*
X146514285Y-64123411D01*
X146314285Y-63523411D02*
X146514285Y-63837697D01*
X146514285Y-63837697D02*
X146714285Y-63523411D01*
X146885714Y-63580554D02*
X146914286Y-63551982D01*
X146914286Y-63551982D02*
X146971429Y-63523411D01*
X146971429Y-63523411D02*
X147114286Y-63523411D01*
X147114286Y-63523411D02*
X147171429Y-63551982D01*
X147171429Y-63551982D02*
X147200000Y-63580554D01*
X147200000Y-63580554D02*
X147228571Y-63637697D01*
X147228571Y-63637697D02*
X147228571Y-63694840D01*
X147228571Y-63694840D02*
X147200000Y-63780554D01*
X147200000Y-63780554D02*
X146857143Y-64123411D01*
X146857143Y-64123411D02*
X147228571Y-64123411D01*
X170858666Y-67791149D02*
X170620571Y-67791149D01*
X170620571Y-67791149D02*
X170620571Y-67291149D01*
X171239619Y-67457816D02*
X171239619Y-67791149D01*
X171120571Y-67267340D02*
X171001524Y-67624482D01*
X171001524Y-67624482D02*
X171311047Y-67624482D01*
D11*
X122208333Y-57581927D02*
X122075000Y-57391451D01*
X121979762Y-57581927D02*
X121979762Y-57181927D01*
X121979762Y-57181927D02*
X122132143Y-57181927D01*
X122132143Y-57181927D02*
X122170238Y-57200975D01*
X122170238Y-57200975D02*
X122189285Y-57220022D01*
X122189285Y-57220022D02*
X122208333Y-57258118D01*
X122208333Y-57258118D02*
X122208333Y-57315260D01*
X122208333Y-57315260D02*
X122189285Y-57353356D01*
X122189285Y-57353356D02*
X122170238Y-57372403D01*
X122170238Y-57372403D02*
X122132143Y-57391451D01*
X122132143Y-57391451D02*
X121979762Y-57391451D01*
X122551190Y-57315260D02*
X122551190Y-57581927D01*
X122455952Y-57162880D02*
X122360714Y-57448594D01*
X122360714Y-57448594D02*
X122608333Y-57448594D01*
X144443832Y-58357142D02*
X144462880Y-58376190D01*
X144462880Y-58376190D02*
X144481927Y-58433332D01*
X144481927Y-58433332D02*
X144481927Y-58471428D01*
X144481927Y-58471428D02*
X144462880Y-58528571D01*
X144462880Y-58528571D02*
X144424784Y-58566666D01*
X144424784Y-58566666D02*
X144386689Y-58585713D01*
X144386689Y-58585713D02*
X144310499Y-58604761D01*
X144310499Y-58604761D02*
X144253356Y-58604761D01*
X144253356Y-58604761D02*
X144177165Y-58585713D01*
X144177165Y-58585713D02*
X144139070Y-58566666D01*
X144139070Y-58566666D02*
X144100975Y-58528571D01*
X144100975Y-58528571D02*
X144081927Y-58471428D01*
X144081927Y-58471428D02*
X144081927Y-58433332D01*
X144081927Y-58433332D02*
X144100975Y-58376190D01*
X144100975Y-58376190D02*
X144120022Y-58357142D01*
X144081927Y-58223809D02*
X144081927Y-57976190D01*
X144081927Y-57976190D02*
X144234308Y-58109523D01*
X144234308Y-58109523D02*
X144234308Y-58052380D01*
X144234308Y-58052380D02*
X144253356Y-58014285D01*
X144253356Y-58014285D02*
X144272403Y-57995237D01*
X144272403Y-57995237D02*
X144310499Y-57976190D01*
X144310499Y-57976190D02*
X144405737Y-57976190D01*
X144405737Y-57976190D02*
X144443832Y-57995237D01*
X144443832Y-57995237D02*
X144462880Y-58014285D01*
X144462880Y-58014285D02*
X144481927Y-58052380D01*
X144481927Y-58052380D02*
X144481927Y-58166666D01*
X144481927Y-58166666D02*
X144462880Y-58204761D01*
X144462880Y-58204761D02*
X144443832Y-58223809D01*
X144081927Y-57842857D02*
X144081927Y-57595238D01*
X144081927Y-57595238D02*
X144234308Y-57728571D01*
X144234308Y-57728571D02*
X144234308Y-57671428D01*
X144234308Y-57671428D02*
X144253356Y-57633333D01*
X144253356Y-57633333D02*
X144272403Y-57614285D01*
X144272403Y-57614285D02*
X144310499Y-57595238D01*
X144310499Y-57595238D02*
X144405737Y-57595238D01*
X144405737Y-57595238D02*
X144443832Y-57614285D01*
X144443832Y-57614285D02*
X144462880Y-57633333D01*
X144462880Y-57633333D02*
X144481927Y-57671428D01*
X144481927Y-57671428D02*
X144481927Y-57785714D01*
X144481927Y-57785714D02*
X144462880Y-57823809D01*
X144462880Y-57823809D02*
X144443832Y-57842857D01*
X162442857Y-67043832D02*
X162423809Y-67062880D01*
X162423809Y-67062880D02*
X162366667Y-67081927D01*
X162366667Y-67081927D02*
X162328571Y-67081927D01*
X162328571Y-67081927D02*
X162271428Y-67062880D01*
X162271428Y-67062880D02*
X162233333Y-67024784D01*
X162233333Y-67024784D02*
X162214286Y-66986689D01*
X162214286Y-66986689D02*
X162195238Y-66910499D01*
X162195238Y-66910499D02*
X162195238Y-66853356D01*
X162195238Y-66853356D02*
X162214286Y-66777165D01*
X162214286Y-66777165D02*
X162233333Y-66739070D01*
X162233333Y-66739070D02*
X162271428Y-66700975D01*
X162271428Y-66700975D02*
X162328571Y-66681927D01*
X162328571Y-66681927D02*
X162366667Y-66681927D01*
X162366667Y-66681927D02*
X162423809Y-66700975D01*
X162423809Y-66700975D02*
X162442857Y-66720022D01*
X162595238Y-66720022D02*
X162614286Y-66700975D01*
X162614286Y-66700975D02*
X162652381Y-66681927D01*
X162652381Y-66681927D02*
X162747619Y-66681927D01*
X162747619Y-66681927D02*
X162785714Y-66700975D01*
X162785714Y-66700975D02*
X162804762Y-66720022D01*
X162804762Y-66720022D02*
X162823809Y-66758118D01*
X162823809Y-66758118D02*
X162823809Y-66796213D01*
X162823809Y-66796213D02*
X162804762Y-66853356D01*
X162804762Y-66853356D02*
X162576190Y-67081927D01*
X162576190Y-67081927D02*
X162823809Y-67081927D01*
X163166666Y-66681927D02*
X163090476Y-66681927D01*
X163090476Y-66681927D02*
X163052380Y-66700975D01*
X163052380Y-66700975D02*
X163033333Y-66720022D01*
X163033333Y-66720022D02*
X162995238Y-66777165D01*
X162995238Y-66777165D02*
X162976190Y-66853356D01*
X162976190Y-66853356D02*
X162976190Y-67005737D01*
X162976190Y-67005737D02*
X162995238Y-67043832D01*
X162995238Y-67043832D02*
X163014285Y-67062880D01*
X163014285Y-67062880D02*
X163052380Y-67081927D01*
X163052380Y-67081927D02*
X163128571Y-67081927D01*
X163128571Y-67081927D02*
X163166666Y-67062880D01*
X163166666Y-67062880D02*
X163185714Y-67043832D01*
X163185714Y-67043832D02*
X163204761Y-67005737D01*
X163204761Y-67005737D02*
X163204761Y-66910499D01*
X163204761Y-66910499D02*
X163185714Y-66872403D01*
X163185714Y-66872403D02*
X163166666Y-66853356D01*
X163166666Y-66853356D02*
X163128571Y-66834308D01*
X163128571Y-66834308D02*
X163052380Y-66834308D01*
X163052380Y-66834308D02*
X163014285Y-66853356D01*
X163014285Y-66853356D02*
X162995238Y-66872403D01*
X162995238Y-66872403D02*
X162976190Y-66910499D01*
X152467857Y-67581927D02*
X152334524Y-67391451D01*
X152239286Y-67581927D02*
X152239286Y-67181927D01*
X152239286Y-67181927D02*
X152391667Y-67181927D01*
X152391667Y-67181927D02*
X152429762Y-67200975D01*
X152429762Y-67200975D02*
X152448809Y-67220022D01*
X152448809Y-67220022D02*
X152467857Y-67258118D01*
X152467857Y-67258118D02*
X152467857Y-67315260D01*
X152467857Y-67315260D02*
X152448809Y-67353356D01*
X152448809Y-67353356D02*
X152429762Y-67372403D01*
X152429762Y-67372403D02*
X152391667Y-67391451D01*
X152391667Y-67391451D02*
X152239286Y-67391451D01*
X152848809Y-67581927D02*
X152620238Y-67581927D01*
X152734524Y-67581927D02*
X152734524Y-67181927D01*
X152734524Y-67181927D02*
X152696428Y-67239070D01*
X152696428Y-67239070D02*
X152658333Y-67277165D01*
X152658333Y-67277165D02*
X152620238Y-67296213D01*
X153210714Y-67181927D02*
X153020238Y-67181927D01*
X153020238Y-67181927D02*
X153001190Y-67372403D01*
X153001190Y-67372403D02*
X153020238Y-67353356D01*
X153020238Y-67353356D02*
X153058333Y-67334308D01*
X153058333Y-67334308D02*
X153153571Y-67334308D01*
X153153571Y-67334308D02*
X153191666Y-67353356D01*
X153191666Y-67353356D02*
X153210714Y-67372403D01*
X153210714Y-67372403D02*
X153229761Y-67410499D01*
X153229761Y-67410499D02*
X153229761Y-67505737D01*
X153229761Y-67505737D02*
X153210714Y-67543832D01*
X153210714Y-67543832D02*
X153191666Y-67562880D01*
X153191666Y-67562880D02*
X153153571Y-67581927D01*
X153153571Y-67581927D02*
X153058333Y-67581927D01*
X153058333Y-67581927D02*
X153020238Y-67562880D01*
X153020238Y-67562880D02*
X153001190Y-67543832D01*
D10*
X201261666Y-69754819D02*
X201261666Y-70469104D01*
X201261666Y-70469104D02*
X201214047Y-70611961D01*
X201214047Y-70611961D02*
X201118809Y-70707200D01*
X201118809Y-70707200D02*
X200975952Y-70754819D01*
X200975952Y-70754819D02*
X200880714Y-70754819D01*
X201785476Y-70754819D02*
X201975952Y-70754819D01*
X201975952Y-70754819D02*
X202071190Y-70707200D01*
X202071190Y-70707200D02*
X202118809Y-70659580D01*
X202118809Y-70659580D02*
X202214047Y-70516723D01*
X202214047Y-70516723D02*
X202261666Y-70326247D01*
X202261666Y-70326247D02*
X202261666Y-69945295D01*
X202261666Y-69945295D02*
X202214047Y-69850057D01*
X202214047Y-69850057D02*
X202166428Y-69802438D01*
X202166428Y-69802438D02*
X202071190Y-69754819D01*
X202071190Y-69754819D02*
X201880714Y-69754819D01*
X201880714Y-69754819D02*
X201785476Y-69802438D01*
X201785476Y-69802438D02*
X201737857Y-69850057D01*
X201737857Y-69850057D02*
X201690238Y-69945295D01*
X201690238Y-69945295D02*
X201690238Y-70183390D01*
X201690238Y-70183390D02*
X201737857Y-70278628D01*
X201737857Y-70278628D02*
X201785476Y-70326247D01*
X201785476Y-70326247D02*
X201880714Y-70373866D01*
X201880714Y-70373866D02*
X202071190Y-70373866D01*
X202071190Y-70373866D02*
X202166428Y-70326247D01*
X202166428Y-70326247D02*
X202214047Y-70278628D01*
X202214047Y-70278628D02*
X202261666Y-70183390D01*
D11*
X132242857Y-67643832D02*
X132223809Y-67662880D01*
X132223809Y-67662880D02*
X132166667Y-67681927D01*
X132166667Y-67681927D02*
X132128571Y-67681927D01*
X132128571Y-67681927D02*
X132071428Y-67662880D01*
X132071428Y-67662880D02*
X132033333Y-67624784D01*
X132033333Y-67624784D02*
X132014286Y-67586689D01*
X132014286Y-67586689D02*
X131995238Y-67510499D01*
X131995238Y-67510499D02*
X131995238Y-67453356D01*
X131995238Y-67453356D02*
X132014286Y-67377165D01*
X132014286Y-67377165D02*
X132033333Y-67339070D01*
X132033333Y-67339070D02*
X132071428Y-67300975D01*
X132071428Y-67300975D02*
X132128571Y-67281927D01*
X132128571Y-67281927D02*
X132166667Y-67281927D01*
X132166667Y-67281927D02*
X132223809Y-67300975D01*
X132223809Y-67300975D02*
X132242857Y-67320022D01*
X132376190Y-67281927D02*
X132623809Y-67281927D01*
X132623809Y-67281927D02*
X132490476Y-67434308D01*
X132490476Y-67434308D02*
X132547619Y-67434308D01*
X132547619Y-67434308D02*
X132585714Y-67453356D01*
X132585714Y-67453356D02*
X132604762Y-67472403D01*
X132604762Y-67472403D02*
X132623809Y-67510499D01*
X132623809Y-67510499D02*
X132623809Y-67605737D01*
X132623809Y-67605737D02*
X132604762Y-67643832D01*
X132604762Y-67643832D02*
X132585714Y-67662880D01*
X132585714Y-67662880D02*
X132547619Y-67681927D01*
X132547619Y-67681927D02*
X132433333Y-67681927D01*
X132433333Y-67681927D02*
X132395238Y-67662880D01*
X132395238Y-67662880D02*
X132376190Y-67643832D01*
X132966666Y-67281927D02*
X132890476Y-67281927D01*
X132890476Y-67281927D02*
X132852380Y-67300975D01*
X132852380Y-67300975D02*
X132833333Y-67320022D01*
X132833333Y-67320022D02*
X132795238Y-67377165D01*
X132795238Y-67377165D02*
X132776190Y-67453356D01*
X132776190Y-67453356D02*
X132776190Y-67605737D01*
X132776190Y-67605737D02*
X132795238Y-67643832D01*
X132795238Y-67643832D02*
X132814285Y-67662880D01*
X132814285Y-67662880D02*
X132852380Y-67681927D01*
X132852380Y-67681927D02*
X132928571Y-67681927D01*
X132928571Y-67681927D02*
X132966666Y-67662880D01*
X132966666Y-67662880D02*
X132985714Y-67643832D01*
X132985714Y-67643832D02*
X133004761Y-67605737D01*
X133004761Y-67605737D02*
X133004761Y-67510499D01*
X133004761Y-67510499D02*
X132985714Y-67472403D01*
X132985714Y-67472403D02*
X132966666Y-67453356D01*
X132966666Y-67453356D02*
X132928571Y-67434308D01*
X132928571Y-67434308D02*
X132852380Y-67434308D01*
X132852380Y-67434308D02*
X132814285Y-67453356D01*
X132814285Y-67453356D02*
X132795238Y-67472403D01*
X132795238Y-67472403D02*
X132776190Y-67510499D01*
X164567857Y-65543832D02*
X164548809Y-65562880D01*
X164548809Y-65562880D02*
X164491667Y-65581927D01*
X164491667Y-65581927D02*
X164453571Y-65581927D01*
X164453571Y-65581927D02*
X164396428Y-65562880D01*
X164396428Y-65562880D02*
X164358333Y-65524784D01*
X164358333Y-65524784D02*
X164339286Y-65486689D01*
X164339286Y-65486689D02*
X164320238Y-65410499D01*
X164320238Y-65410499D02*
X164320238Y-65353356D01*
X164320238Y-65353356D02*
X164339286Y-65277165D01*
X164339286Y-65277165D02*
X164358333Y-65239070D01*
X164358333Y-65239070D02*
X164396428Y-65200975D01*
X164396428Y-65200975D02*
X164453571Y-65181927D01*
X164453571Y-65181927D02*
X164491667Y-65181927D01*
X164491667Y-65181927D02*
X164548809Y-65200975D01*
X164548809Y-65200975D02*
X164567857Y-65220022D01*
X164720238Y-65220022D02*
X164739286Y-65200975D01*
X164739286Y-65200975D02*
X164777381Y-65181927D01*
X164777381Y-65181927D02*
X164872619Y-65181927D01*
X164872619Y-65181927D02*
X164910714Y-65200975D01*
X164910714Y-65200975D02*
X164929762Y-65220022D01*
X164929762Y-65220022D02*
X164948809Y-65258118D01*
X164948809Y-65258118D02*
X164948809Y-65296213D01*
X164948809Y-65296213D02*
X164929762Y-65353356D01*
X164929762Y-65353356D02*
X164701190Y-65581927D01*
X164701190Y-65581927D02*
X164948809Y-65581927D01*
X165101190Y-65220022D02*
X165120238Y-65200975D01*
X165120238Y-65200975D02*
X165158333Y-65181927D01*
X165158333Y-65181927D02*
X165253571Y-65181927D01*
X165253571Y-65181927D02*
X165291666Y-65200975D01*
X165291666Y-65200975D02*
X165310714Y-65220022D01*
X165310714Y-65220022D02*
X165329761Y-65258118D01*
X165329761Y-65258118D02*
X165329761Y-65296213D01*
X165329761Y-65296213D02*
X165310714Y-65353356D01*
X165310714Y-65353356D02*
X165082142Y-65581927D01*
X165082142Y-65581927D02*
X165329761Y-65581927D01*
X145943832Y-58357142D02*
X145962880Y-58376190D01*
X145962880Y-58376190D02*
X145981927Y-58433332D01*
X145981927Y-58433332D02*
X145981927Y-58471428D01*
X145981927Y-58471428D02*
X145962880Y-58528571D01*
X145962880Y-58528571D02*
X145924784Y-58566666D01*
X145924784Y-58566666D02*
X145886689Y-58585713D01*
X145886689Y-58585713D02*
X145810499Y-58604761D01*
X145810499Y-58604761D02*
X145753356Y-58604761D01*
X145753356Y-58604761D02*
X145677165Y-58585713D01*
X145677165Y-58585713D02*
X145639070Y-58566666D01*
X145639070Y-58566666D02*
X145600975Y-58528571D01*
X145600975Y-58528571D02*
X145581927Y-58471428D01*
X145581927Y-58471428D02*
X145581927Y-58433332D01*
X145581927Y-58433332D02*
X145600975Y-58376190D01*
X145600975Y-58376190D02*
X145620022Y-58357142D01*
X145581927Y-58223809D02*
X145581927Y-57976190D01*
X145581927Y-57976190D02*
X145734308Y-58109523D01*
X145734308Y-58109523D02*
X145734308Y-58052380D01*
X145734308Y-58052380D02*
X145753356Y-58014285D01*
X145753356Y-58014285D02*
X145772403Y-57995237D01*
X145772403Y-57995237D02*
X145810499Y-57976190D01*
X145810499Y-57976190D02*
X145905737Y-57976190D01*
X145905737Y-57976190D02*
X145943832Y-57995237D01*
X145943832Y-57995237D02*
X145962880Y-58014285D01*
X145962880Y-58014285D02*
X145981927Y-58052380D01*
X145981927Y-58052380D02*
X145981927Y-58166666D01*
X145981927Y-58166666D02*
X145962880Y-58204761D01*
X145962880Y-58204761D02*
X145943832Y-58223809D01*
X145981927Y-57595238D02*
X145981927Y-57823809D01*
X145981927Y-57709523D02*
X145581927Y-57709523D01*
X145581927Y-57709523D02*
X145639070Y-57747619D01*
X145639070Y-57747619D02*
X145677165Y-57785714D01*
X145677165Y-57785714D02*
X145696213Y-57823809D01*
X152442857Y-56743832D02*
X152423809Y-56762880D01*
X152423809Y-56762880D02*
X152366667Y-56781927D01*
X152366667Y-56781927D02*
X152328571Y-56781927D01*
X152328571Y-56781927D02*
X152271428Y-56762880D01*
X152271428Y-56762880D02*
X152233333Y-56724784D01*
X152233333Y-56724784D02*
X152214286Y-56686689D01*
X152214286Y-56686689D02*
X152195238Y-56610499D01*
X152195238Y-56610499D02*
X152195238Y-56553356D01*
X152195238Y-56553356D02*
X152214286Y-56477165D01*
X152214286Y-56477165D02*
X152233333Y-56439070D01*
X152233333Y-56439070D02*
X152271428Y-56400975D01*
X152271428Y-56400975D02*
X152328571Y-56381927D01*
X152328571Y-56381927D02*
X152366667Y-56381927D01*
X152366667Y-56381927D02*
X152423809Y-56400975D01*
X152423809Y-56400975D02*
X152442857Y-56420022D01*
X152823809Y-56781927D02*
X152595238Y-56781927D01*
X152709524Y-56781927D02*
X152709524Y-56381927D01*
X152709524Y-56381927D02*
X152671428Y-56439070D01*
X152671428Y-56439070D02*
X152633333Y-56477165D01*
X152633333Y-56477165D02*
X152595238Y-56496213D01*
X152976190Y-56420022D02*
X152995238Y-56400975D01*
X152995238Y-56400975D02*
X153033333Y-56381927D01*
X153033333Y-56381927D02*
X153128571Y-56381927D01*
X153128571Y-56381927D02*
X153166666Y-56400975D01*
X153166666Y-56400975D02*
X153185714Y-56420022D01*
X153185714Y-56420022D02*
X153204761Y-56458118D01*
X153204761Y-56458118D02*
X153204761Y-56496213D01*
X153204761Y-56496213D02*
X153185714Y-56553356D01*
X153185714Y-56553356D02*
X152957142Y-56781927D01*
X152957142Y-56781927D02*
X153204761Y-56781927D01*
X138581927Y-73107142D02*
X138391451Y-73240475D01*
X138581927Y-73335713D02*
X138181927Y-73335713D01*
X138181927Y-73335713D02*
X138181927Y-73183332D01*
X138181927Y-73183332D02*
X138200975Y-73145237D01*
X138200975Y-73145237D02*
X138220022Y-73126190D01*
X138220022Y-73126190D02*
X138258118Y-73107142D01*
X138258118Y-73107142D02*
X138315260Y-73107142D01*
X138315260Y-73107142D02*
X138353356Y-73126190D01*
X138353356Y-73126190D02*
X138372403Y-73145237D01*
X138372403Y-73145237D02*
X138391451Y-73183332D01*
X138391451Y-73183332D02*
X138391451Y-73335713D01*
X138220022Y-72954761D02*
X138200975Y-72935713D01*
X138200975Y-72935713D02*
X138181927Y-72897618D01*
X138181927Y-72897618D02*
X138181927Y-72802380D01*
X138181927Y-72802380D02*
X138200975Y-72764285D01*
X138200975Y-72764285D02*
X138220022Y-72745237D01*
X138220022Y-72745237D02*
X138258118Y-72726190D01*
X138258118Y-72726190D02*
X138296213Y-72726190D01*
X138296213Y-72726190D02*
X138353356Y-72745237D01*
X138353356Y-72745237D02*
X138581927Y-72973809D01*
X138581927Y-72973809D02*
X138581927Y-72726190D01*
X138181927Y-72364285D02*
X138181927Y-72554761D01*
X138181927Y-72554761D02*
X138372403Y-72573809D01*
X138372403Y-72573809D02*
X138353356Y-72554761D01*
X138353356Y-72554761D02*
X138334308Y-72516666D01*
X138334308Y-72516666D02*
X138334308Y-72421428D01*
X138334308Y-72421428D02*
X138353356Y-72383333D01*
X138353356Y-72383333D02*
X138372403Y-72364285D01*
X138372403Y-72364285D02*
X138410499Y-72345238D01*
X138410499Y-72345238D02*
X138505737Y-72345238D01*
X138505737Y-72345238D02*
X138543832Y-72364285D01*
X138543832Y-72364285D02*
X138562880Y-72383333D01*
X138562880Y-72383333D02*
X138581927Y-72421428D01*
X138581927Y-72421428D02*
X138581927Y-72516666D01*
X138581927Y-72516666D02*
X138562880Y-72554761D01*
X138562880Y-72554761D02*
X138543832Y-72573809D01*
X174343832Y-67807142D02*
X174362880Y-67826190D01*
X174362880Y-67826190D02*
X174381927Y-67883332D01*
X174381927Y-67883332D02*
X174381927Y-67921428D01*
X174381927Y-67921428D02*
X174362880Y-67978571D01*
X174362880Y-67978571D02*
X174324784Y-68016666D01*
X174324784Y-68016666D02*
X174286689Y-68035713D01*
X174286689Y-68035713D02*
X174210499Y-68054761D01*
X174210499Y-68054761D02*
X174153356Y-68054761D01*
X174153356Y-68054761D02*
X174077165Y-68035713D01*
X174077165Y-68035713D02*
X174039070Y-68016666D01*
X174039070Y-68016666D02*
X174000975Y-67978571D01*
X174000975Y-67978571D02*
X173981927Y-67921428D01*
X173981927Y-67921428D02*
X173981927Y-67883332D01*
X173981927Y-67883332D02*
X174000975Y-67826190D01*
X174000975Y-67826190D02*
X174020022Y-67807142D01*
X174381927Y-67426190D02*
X174381927Y-67654761D01*
X174381927Y-67540475D02*
X173981927Y-67540475D01*
X173981927Y-67540475D02*
X174039070Y-67578571D01*
X174039070Y-67578571D02*
X174077165Y-67616666D01*
X174077165Y-67616666D02*
X174096213Y-67654761D01*
X174153356Y-67197619D02*
X174134308Y-67235714D01*
X174134308Y-67235714D02*
X174115260Y-67254761D01*
X174115260Y-67254761D02*
X174077165Y-67273809D01*
X174077165Y-67273809D02*
X174058118Y-67273809D01*
X174058118Y-67273809D02*
X174020022Y-67254761D01*
X174020022Y-67254761D02*
X174000975Y-67235714D01*
X174000975Y-67235714D02*
X173981927Y-67197619D01*
X173981927Y-67197619D02*
X173981927Y-67121428D01*
X173981927Y-67121428D02*
X174000975Y-67083333D01*
X174000975Y-67083333D02*
X174020022Y-67064285D01*
X174020022Y-67064285D02*
X174058118Y-67045238D01*
X174058118Y-67045238D02*
X174077165Y-67045238D01*
X174077165Y-67045238D02*
X174115260Y-67064285D01*
X174115260Y-67064285D02*
X174134308Y-67083333D01*
X174134308Y-67083333D02*
X174153356Y-67121428D01*
X174153356Y-67121428D02*
X174153356Y-67197619D01*
X174153356Y-67197619D02*
X174172403Y-67235714D01*
X174172403Y-67235714D02*
X174191451Y-67254761D01*
X174191451Y-67254761D02*
X174229546Y-67273809D01*
X174229546Y-67273809D02*
X174305737Y-67273809D01*
X174305737Y-67273809D02*
X174343832Y-67254761D01*
X174343832Y-67254761D02*
X174362880Y-67235714D01*
X174362880Y-67235714D02*
X174381927Y-67197619D01*
X174381927Y-67197619D02*
X174381927Y-67121428D01*
X174381927Y-67121428D02*
X174362880Y-67083333D01*
X174362880Y-67083333D02*
X174343832Y-67064285D01*
X174343832Y-67064285D02*
X174305737Y-67045238D01*
X174305737Y-67045238D02*
X174229546Y-67045238D01*
X174229546Y-67045238D02*
X174191451Y-67064285D01*
X174191451Y-67064285D02*
X174172403Y-67083333D01*
X174172403Y-67083333D02*
X174153356Y-67121428D01*
X126942857Y-70743832D02*
X126923809Y-70762880D01*
X126923809Y-70762880D02*
X126866667Y-70781927D01*
X126866667Y-70781927D02*
X126828571Y-70781927D01*
X126828571Y-70781927D02*
X126771428Y-70762880D01*
X126771428Y-70762880D02*
X126733333Y-70724784D01*
X126733333Y-70724784D02*
X126714286Y-70686689D01*
X126714286Y-70686689D02*
X126695238Y-70610499D01*
X126695238Y-70610499D02*
X126695238Y-70553356D01*
X126695238Y-70553356D02*
X126714286Y-70477165D01*
X126714286Y-70477165D02*
X126733333Y-70439070D01*
X126733333Y-70439070D02*
X126771428Y-70400975D01*
X126771428Y-70400975D02*
X126828571Y-70381927D01*
X126828571Y-70381927D02*
X126866667Y-70381927D01*
X126866667Y-70381927D02*
X126923809Y-70400975D01*
X126923809Y-70400975D02*
X126942857Y-70420022D01*
X127076190Y-70381927D02*
X127323809Y-70381927D01*
X127323809Y-70381927D02*
X127190476Y-70534308D01*
X127190476Y-70534308D02*
X127247619Y-70534308D01*
X127247619Y-70534308D02*
X127285714Y-70553356D01*
X127285714Y-70553356D02*
X127304762Y-70572403D01*
X127304762Y-70572403D02*
X127323809Y-70610499D01*
X127323809Y-70610499D02*
X127323809Y-70705737D01*
X127323809Y-70705737D02*
X127304762Y-70743832D01*
X127304762Y-70743832D02*
X127285714Y-70762880D01*
X127285714Y-70762880D02*
X127247619Y-70781927D01*
X127247619Y-70781927D02*
X127133333Y-70781927D01*
X127133333Y-70781927D02*
X127095238Y-70762880D01*
X127095238Y-70762880D02*
X127076190Y-70743832D01*
X127476190Y-70420022D02*
X127495238Y-70400975D01*
X127495238Y-70400975D02*
X127533333Y-70381927D01*
X127533333Y-70381927D02*
X127628571Y-70381927D01*
X127628571Y-70381927D02*
X127666666Y-70400975D01*
X127666666Y-70400975D02*
X127685714Y-70420022D01*
X127685714Y-70420022D02*
X127704761Y-70458118D01*
X127704761Y-70458118D02*
X127704761Y-70496213D01*
X127704761Y-70496213D02*
X127685714Y-70553356D01*
X127685714Y-70553356D02*
X127457142Y-70781927D01*
X127457142Y-70781927D02*
X127704761Y-70781927D01*
X178681927Y-54216666D02*
X178491451Y-54349999D01*
X178681927Y-54445237D02*
X178281927Y-54445237D01*
X178281927Y-54445237D02*
X178281927Y-54292856D01*
X178281927Y-54292856D02*
X178300975Y-54254761D01*
X178300975Y-54254761D02*
X178320022Y-54235714D01*
X178320022Y-54235714D02*
X178358118Y-54216666D01*
X178358118Y-54216666D02*
X178415260Y-54216666D01*
X178415260Y-54216666D02*
X178453356Y-54235714D01*
X178453356Y-54235714D02*
X178472403Y-54254761D01*
X178472403Y-54254761D02*
X178491451Y-54292856D01*
X178491451Y-54292856D02*
X178491451Y-54445237D01*
X178453356Y-53988095D02*
X178434308Y-54026190D01*
X178434308Y-54026190D02*
X178415260Y-54045237D01*
X178415260Y-54045237D02*
X178377165Y-54064285D01*
X178377165Y-54064285D02*
X178358118Y-54064285D01*
X178358118Y-54064285D02*
X178320022Y-54045237D01*
X178320022Y-54045237D02*
X178300975Y-54026190D01*
X178300975Y-54026190D02*
X178281927Y-53988095D01*
X178281927Y-53988095D02*
X178281927Y-53911904D01*
X178281927Y-53911904D02*
X178300975Y-53873809D01*
X178300975Y-53873809D02*
X178320022Y-53854761D01*
X178320022Y-53854761D02*
X178358118Y-53835714D01*
X178358118Y-53835714D02*
X178377165Y-53835714D01*
X178377165Y-53835714D02*
X178415260Y-53854761D01*
X178415260Y-53854761D02*
X178434308Y-53873809D01*
X178434308Y-53873809D02*
X178453356Y-53911904D01*
X178453356Y-53911904D02*
X178453356Y-53988095D01*
X178453356Y-53988095D02*
X178472403Y-54026190D01*
X178472403Y-54026190D02*
X178491451Y-54045237D01*
X178491451Y-54045237D02*
X178529546Y-54064285D01*
X178529546Y-54064285D02*
X178605737Y-54064285D01*
X178605737Y-54064285D02*
X178643832Y-54045237D01*
X178643832Y-54045237D02*
X178662880Y-54026190D01*
X178662880Y-54026190D02*
X178681927Y-53988095D01*
X178681927Y-53988095D02*
X178681927Y-53911904D01*
X178681927Y-53911904D02*
X178662880Y-53873809D01*
X178662880Y-53873809D02*
X178643832Y-53854761D01*
X178643832Y-53854761D02*
X178605737Y-53835714D01*
X178605737Y-53835714D02*
X178529546Y-53835714D01*
X178529546Y-53835714D02*
X178491451Y-53854761D01*
X178491451Y-53854761D02*
X178472403Y-53873809D01*
X178472403Y-53873809D02*
X178453356Y-53911904D01*
D10*
X136538095Y-61254819D02*
X136538095Y-62064342D01*
X136538095Y-62064342D02*
X136585714Y-62159580D01*
X136585714Y-62159580D02*
X136633333Y-62207200D01*
X136633333Y-62207200D02*
X136728571Y-62254819D01*
X136728571Y-62254819D02*
X136919047Y-62254819D01*
X136919047Y-62254819D02*
X137014285Y-62207200D01*
X137014285Y-62207200D02*
X137061904Y-62159580D01*
X137061904Y-62159580D02*
X137109523Y-62064342D01*
X137109523Y-62064342D02*
X137109523Y-61254819D01*
X138014285Y-61588152D02*
X138014285Y-62254819D01*
X137776190Y-61207200D02*
X137538095Y-61921485D01*
X137538095Y-61921485D02*
X138157142Y-61921485D01*
D11*
X116133333Y-70993832D02*
X116114285Y-71012880D01*
X116114285Y-71012880D02*
X116057143Y-71031927D01*
X116057143Y-71031927D02*
X116019047Y-71031927D01*
X116019047Y-71031927D02*
X115961904Y-71012880D01*
X115961904Y-71012880D02*
X115923809Y-70974784D01*
X115923809Y-70974784D02*
X115904762Y-70936689D01*
X115904762Y-70936689D02*
X115885714Y-70860499D01*
X115885714Y-70860499D02*
X115885714Y-70803356D01*
X115885714Y-70803356D02*
X115904762Y-70727165D01*
X115904762Y-70727165D02*
X115923809Y-70689070D01*
X115923809Y-70689070D02*
X115961904Y-70650975D01*
X115961904Y-70650975D02*
X116019047Y-70631927D01*
X116019047Y-70631927D02*
X116057143Y-70631927D01*
X116057143Y-70631927D02*
X116114285Y-70650975D01*
X116114285Y-70650975D02*
X116133333Y-70670022D01*
X116476190Y-70765260D02*
X116476190Y-71031927D01*
X116380952Y-70612880D02*
X116285714Y-70898594D01*
X116285714Y-70898594D02*
X116533333Y-70898594D01*
D10*
X120066666Y-69681009D02*
X119733333Y-69681009D01*
X119733333Y-70204819D02*
X119733333Y-69204819D01*
X119733333Y-69204819D02*
X120209523Y-69204819D01*
X120923809Y-69681009D02*
X121066666Y-69728628D01*
X121066666Y-69728628D02*
X121114285Y-69776247D01*
X121114285Y-69776247D02*
X121161904Y-69871485D01*
X121161904Y-69871485D02*
X121161904Y-70014342D01*
X121161904Y-70014342D02*
X121114285Y-70109580D01*
X121114285Y-70109580D02*
X121066666Y-70157200D01*
X121066666Y-70157200D02*
X120971428Y-70204819D01*
X120971428Y-70204819D02*
X120590476Y-70204819D01*
X120590476Y-70204819D02*
X120590476Y-69204819D01*
X120590476Y-69204819D02*
X120923809Y-69204819D01*
X120923809Y-69204819D02*
X121019047Y-69252438D01*
X121019047Y-69252438D02*
X121066666Y-69300057D01*
X121066666Y-69300057D02*
X121114285Y-69395295D01*
X121114285Y-69395295D02*
X121114285Y-69490533D01*
X121114285Y-69490533D02*
X121066666Y-69585771D01*
X121066666Y-69585771D02*
X121019047Y-69633390D01*
X121019047Y-69633390D02*
X120923809Y-69681009D01*
X120923809Y-69681009D02*
X120590476Y-69681009D01*
X122114285Y-70204819D02*
X121542857Y-70204819D01*
X121828571Y-70204819D02*
X121828571Y-69204819D01*
X121828571Y-69204819D02*
X121733333Y-69347676D01*
X121733333Y-69347676D02*
X121638095Y-69442914D01*
X121638095Y-69442914D02*
X121542857Y-69490533D01*
D11*
X133742857Y-49043832D02*
X133723809Y-49062880D01*
X133723809Y-49062880D02*
X133666667Y-49081927D01*
X133666667Y-49081927D02*
X133628571Y-49081927D01*
X133628571Y-49081927D02*
X133571428Y-49062880D01*
X133571428Y-49062880D02*
X133533333Y-49024784D01*
X133533333Y-49024784D02*
X133514286Y-48986689D01*
X133514286Y-48986689D02*
X133495238Y-48910499D01*
X133495238Y-48910499D02*
X133495238Y-48853356D01*
X133495238Y-48853356D02*
X133514286Y-48777165D01*
X133514286Y-48777165D02*
X133533333Y-48739070D01*
X133533333Y-48739070D02*
X133571428Y-48700975D01*
X133571428Y-48700975D02*
X133628571Y-48681927D01*
X133628571Y-48681927D02*
X133666667Y-48681927D01*
X133666667Y-48681927D02*
X133723809Y-48700975D01*
X133723809Y-48700975D02*
X133742857Y-48720022D01*
X134085714Y-48815260D02*
X134085714Y-49081927D01*
X133990476Y-48662880D02*
X133895238Y-48948594D01*
X133895238Y-48948594D02*
X134142857Y-48948594D01*
X134371428Y-48681927D02*
X134409523Y-48681927D01*
X134409523Y-48681927D02*
X134447619Y-48700975D01*
X134447619Y-48700975D02*
X134466666Y-48720022D01*
X134466666Y-48720022D02*
X134485714Y-48758118D01*
X134485714Y-48758118D02*
X134504761Y-48834308D01*
X134504761Y-48834308D02*
X134504761Y-48929546D01*
X134504761Y-48929546D02*
X134485714Y-49005737D01*
X134485714Y-49005737D02*
X134466666Y-49043832D01*
X134466666Y-49043832D02*
X134447619Y-49062880D01*
X134447619Y-49062880D02*
X134409523Y-49081927D01*
X134409523Y-49081927D02*
X134371428Y-49081927D01*
X134371428Y-49081927D02*
X134333333Y-49062880D01*
X134333333Y-49062880D02*
X134314285Y-49043832D01*
X134314285Y-49043832D02*
X134295238Y-49005737D01*
X134295238Y-49005737D02*
X134276190Y-48929546D01*
X134276190Y-48929546D02*
X134276190Y-48834308D01*
X134276190Y-48834308D02*
X134295238Y-48758118D01*
X134295238Y-48758118D02*
X134314285Y-48720022D01*
X134314285Y-48720022D02*
X134333333Y-48700975D01*
X134333333Y-48700975D02*
X134371428Y-48681927D01*
X165981927Y-55066666D02*
X165791451Y-55199999D01*
X165981927Y-55295237D02*
X165581927Y-55295237D01*
X165581927Y-55295237D02*
X165581927Y-55142856D01*
X165581927Y-55142856D02*
X165600975Y-55104761D01*
X165600975Y-55104761D02*
X165620022Y-55085714D01*
X165620022Y-55085714D02*
X165658118Y-55066666D01*
X165658118Y-55066666D02*
X165715260Y-55066666D01*
X165715260Y-55066666D02*
X165753356Y-55085714D01*
X165753356Y-55085714D02*
X165772403Y-55104761D01*
X165772403Y-55104761D02*
X165791451Y-55142856D01*
X165791451Y-55142856D02*
X165791451Y-55295237D01*
X165981927Y-54876190D02*
X165981927Y-54799999D01*
X165981927Y-54799999D02*
X165962880Y-54761904D01*
X165962880Y-54761904D02*
X165943832Y-54742856D01*
X165943832Y-54742856D02*
X165886689Y-54704761D01*
X165886689Y-54704761D02*
X165810499Y-54685714D01*
X165810499Y-54685714D02*
X165658118Y-54685714D01*
X165658118Y-54685714D02*
X165620022Y-54704761D01*
X165620022Y-54704761D02*
X165600975Y-54723809D01*
X165600975Y-54723809D02*
X165581927Y-54761904D01*
X165581927Y-54761904D02*
X165581927Y-54838095D01*
X165581927Y-54838095D02*
X165600975Y-54876190D01*
X165600975Y-54876190D02*
X165620022Y-54895237D01*
X165620022Y-54895237D02*
X165658118Y-54914285D01*
X165658118Y-54914285D02*
X165753356Y-54914285D01*
X165753356Y-54914285D02*
X165791451Y-54895237D01*
X165791451Y-54895237D02*
X165810499Y-54876190D01*
X165810499Y-54876190D02*
X165829546Y-54838095D01*
X165829546Y-54838095D02*
X165829546Y-54761904D01*
X165829546Y-54761904D02*
X165810499Y-54723809D01*
X165810499Y-54723809D02*
X165791451Y-54704761D01*
X165791451Y-54704761D02*
X165753356Y-54685714D01*
X152467857Y-59781927D02*
X152334524Y-59591451D01*
X152239286Y-59781927D02*
X152239286Y-59381927D01*
X152239286Y-59381927D02*
X152391667Y-59381927D01*
X152391667Y-59381927D02*
X152429762Y-59400975D01*
X152429762Y-59400975D02*
X152448809Y-59420022D01*
X152448809Y-59420022D02*
X152467857Y-59458118D01*
X152467857Y-59458118D02*
X152467857Y-59515260D01*
X152467857Y-59515260D02*
X152448809Y-59553356D01*
X152448809Y-59553356D02*
X152429762Y-59572403D01*
X152429762Y-59572403D02*
X152391667Y-59591451D01*
X152391667Y-59591451D02*
X152239286Y-59591451D01*
X152848809Y-59781927D02*
X152620238Y-59781927D01*
X152734524Y-59781927D02*
X152734524Y-59381927D01*
X152734524Y-59381927D02*
X152696428Y-59439070D01*
X152696428Y-59439070D02*
X152658333Y-59477165D01*
X152658333Y-59477165D02*
X152620238Y-59496213D01*
X153191666Y-59381927D02*
X153115476Y-59381927D01*
X153115476Y-59381927D02*
X153077380Y-59400975D01*
X153077380Y-59400975D02*
X153058333Y-59420022D01*
X153058333Y-59420022D02*
X153020238Y-59477165D01*
X153020238Y-59477165D02*
X153001190Y-59553356D01*
X153001190Y-59553356D02*
X153001190Y-59705737D01*
X153001190Y-59705737D02*
X153020238Y-59743832D01*
X153020238Y-59743832D02*
X153039285Y-59762880D01*
X153039285Y-59762880D02*
X153077380Y-59781927D01*
X153077380Y-59781927D02*
X153153571Y-59781927D01*
X153153571Y-59781927D02*
X153191666Y-59762880D01*
X153191666Y-59762880D02*
X153210714Y-59743832D01*
X153210714Y-59743832D02*
X153229761Y-59705737D01*
X153229761Y-59705737D02*
X153229761Y-59610499D01*
X153229761Y-59610499D02*
X153210714Y-59572403D01*
X153210714Y-59572403D02*
X153191666Y-59553356D01*
X153191666Y-59553356D02*
X153153571Y-59534308D01*
X153153571Y-59534308D02*
X153077380Y-59534308D01*
X153077380Y-59534308D02*
X153039285Y-59553356D01*
X153039285Y-59553356D02*
X153020238Y-59572403D01*
X153020238Y-59572403D02*
X153001190Y-59610499D01*
X141842857Y-70281927D02*
X141709524Y-70091451D01*
X141614286Y-70281927D02*
X141614286Y-69881927D01*
X141614286Y-69881927D02*
X141766667Y-69881927D01*
X141766667Y-69881927D02*
X141804762Y-69900975D01*
X141804762Y-69900975D02*
X141823809Y-69920022D01*
X141823809Y-69920022D02*
X141842857Y-69958118D01*
X141842857Y-69958118D02*
X141842857Y-70015260D01*
X141842857Y-70015260D02*
X141823809Y-70053356D01*
X141823809Y-70053356D02*
X141804762Y-70072403D01*
X141804762Y-70072403D02*
X141766667Y-70091451D01*
X141766667Y-70091451D02*
X141614286Y-70091451D01*
X141995238Y-69920022D02*
X142014286Y-69900975D01*
X142014286Y-69900975D02*
X142052381Y-69881927D01*
X142052381Y-69881927D02*
X142147619Y-69881927D01*
X142147619Y-69881927D02*
X142185714Y-69900975D01*
X142185714Y-69900975D02*
X142204762Y-69920022D01*
X142204762Y-69920022D02*
X142223809Y-69958118D01*
X142223809Y-69958118D02*
X142223809Y-69996213D01*
X142223809Y-69996213D02*
X142204762Y-70053356D01*
X142204762Y-70053356D02*
X141976190Y-70281927D01*
X141976190Y-70281927D02*
X142223809Y-70281927D01*
X142566666Y-70015260D02*
X142566666Y-70281927D01*
X142471428Y-69862880D02*
X142376190Y-70148594D01*
X142376190Y-70148594D02*
X142623809Y-70148594D01*
X172043832Y-53516666D02*
X172062880Y-53535714D01*
X172062880Y-53535714D02*
X172081927Y-53592856D01*
X172081927Y-53592856D02*
X172081927Y-53630952D01*
X172081927Y-53630952D02*
X172062880Y-53688095D01*
X172062880Y-53688095D02*
X172024784Y-53726190D01*
X172024784Y-53726190D02*
X171986689Y-53745237D01*
X171986689Y-53745237D02*
X171910499Y-53764285D01*
X171910499Y-53764285D02*
X171853356Y-53764285D01*
X171853356Y-53764285D02*
X171777165Y-53745237D01*
X171777165Y-53745237D02*
X171739070Y-53726190D01*
X171739070Y-53726190D02*
X171700975Y-53688095D01*
X171700975Y-53688095D02*
X171681927Y-53630952D01*
X171681927Y-53630952D02*
X171681927Y-53592856D01*
X171681927Y-53592856D02*
X171700975Y-53535714D01*
X171700975Y-53535714D02*
X171720022Y-53516666D01*
X171853356Y-53288095D02*
X171834308Y-53326190D01*
X171834308Y-53326190D02*
X171815260Y-53345237D01*
X171815260Y-53345237D02*
X171777165Y-53364285D01*
X171777165Y-53364285D02*
X171758118Y-53364285D01*
X171758118Y-53364285D02*
X171720022Y-53345237D01*
X171720022Y-53345237D02*
X171700975Y-53326190D01*
X171700975Y-53326190D02*
X171681927Y-53288095D01*
X171681927Y-53288095D02*
X171681927Y-53211904D01*
X171681927Y-53211904D02*
X171700975Y-53173809D01*
X171700975Y-53173809D02*
X171720022Y-53154761D01*
X171720022Y-53154761D02*
X171758118Y-53135714D01*
X171758118Y-53135714D02*
X171777165Y-53135714D01*
X171777165Y-53135714D02*
X171815260Y-53154761D01*
X171815260Y-53154761D02*
X171834308Y-53173809D01*
X171834308Y-53173809D02*
X171853356Y-53211904D01*
X171853356Y-53211904D02*
X171853356Y-53288095D01*
X171853356Y-53288095D02*
X171872403Y-53326190D01*
X171872403Y-53326190D02*
X171891451Y-53345237D01*
X171891451Y-53345237D02*
X171929546Y-53364285D01*
X171929546Y-53364285D02*
X172005737Y-53364285D01*
X172005737Y-53364285D02*
X172043832Y-53345237D01*
X172043832Y-53345237D02*
X172062880Y-53326190D01*
X172062880Y-53326190D02*
X172081927Y-53288095D01*
X172081927Y-53288095D02*
X172081927Y-53211904D01*
X172081927Y-53211904D02*
X172062880Y-53173809D01*
X172062880Y-53173809D02*
X172043832Y-53154761D01*
X172043832Y-53154761D02*
X172005737Y-53135714D01*
X172005737Y-53135714D02*
X171929546Y-53135714D01*
X171929546Y-53135714D02*
X171891451Y-53154761D01*
X171891451Y-53154761D02*
X171872403Y-53173809D01*
X171872403Y-53173809D02*
X171853356Y-53211904D01*
X152467857Y-64243832D02*
X152448809Y-64262880D01*
X152448809Y-64262880D02*
X152391667Y-64281927D01*
X152391667Y-64281927D02*
X152353571Y-64281927D01*
X152353571Y-64281927D02*
X152296428Y-64262880D01*
X152296428Y-64262880D02*
X152258333Y-64224784D01*
X152258333Y-64224784D02*
X152239286Y-64186689D01*
X152239286Y-64186689D02*
X152220238Y-64110499D01*
X152220238Y-64110499D02*
X152220238Y-64053356D01*
X152220238Y-64053356D02*
X152239286Y-63977165D01*
X152239286Y-63977165D02*
X152258333Y-63939070D01*
X152258333Y-63939070D02*
X152296428Y-63900975D01*
X152296428Y-63900975D02*
X152353571Y-63881927D01*
X152353571Y-63881927D02*
X152391667Y-63881927D01*
X152391667Y-63881927D02*
X152448809Y-63900975D01*
X152448809Y-63900975D02*
X152467857Y-63920022D01*
X152620238Y-63920022D02*
X152639286Y-63900975D01*
X152639286Y-63900975D02*
X152677381Y-63881927D01*
X152677381Y-63881927D02*
X152772619Y-63881927D01*
X152772619Y-63881927D02*
X152810714Y-63900975D01*
X152810714Y-63900975D02*
X152829762Y-63920022D01*
X152829762Y-63920022D02*
X152848809Y-63958118D01*
X152848809Y-63958118D02*
X152848809Y-63996213D01*
X152848809Y-63996213D02*
X152829762Y-64053356D01*
X152829762Y-64053356D02*
X152601190Y-64281927D01*
X152601190Y-64281927D02*
X152848809Y-64281927D01*
X153077380Y-64053356D02*
X153039285Y-64034308D01*
X153039285Y-64034308D02*
X153020238Y-64015260D01*
X153020238Y-64015260D02*
X153001190Y-63977165D01*
X153001190Y-63977165D02*
X153001190Y-63958118D01*
X153001190Y-63958118D02*
X153020238Y-63920022D01*
X153020238Y-63920022D02*
X153039285Y-63900975D01*
X153039285Y-63900975D02*
X153077380Y-63881927D01*
X153077380Y-63881927D02*
X153153571Y-63881927D01*
X153153571Y-63881927D02*
X153191666Y-63900975D01*
X153191666Y-63900975D02*
X153210714Y-63920022D01*
X153210714Y-63920022D02*
X153229761Y-63958118D01*
X153229761Y-63958118D02*
X153229761Y-63977165D01*
X153229761Y-63977165D02*
X153210714Y-64015260D01*
X153210714Y-64015260D02*
X153191666Y-64034308D01*
X153191666Y-64034308D02*
X153153571Y-64053356D01*
X153153571Y-64053356D02*
X153077380Y-64053356D01*
X153077380Y-64053356D02*
X153039285Y-64072403D01*
X153039285Y-64072403D02*
X153020238Y-64091451D01*
X153020238Y-64091451D02*
X153001190Y-64129546D01*
X153001190Y-64129546D02*
X153001190Y-64205737D01*
X153001190Y-64205737D02*
X153020238Y-64243832D01*
X153020238Y-64243832D02*
X153039285Y-64262880D01*
X153039285Y-64262880D02*
X153077380Y-64281927D01*
X153077380Y-64281927D02*
X153153571Y-64281927D01*
X153153571Y-64281927D02*
X153191666Y-64262880D01*
X153191666Y-64262880D02*
X153210714Y-64243832D01*
X153210714Y-64243832D02*
X153229761Y-64205737D01*
X153229761Y-64205737D02*
X153229761Y-64129546D01*
X153229761Y-64129546D02*
X153210714Y-64091451D01*
X153210714Y-64091451D02*
X153191666Y-64072403D01*
X153191666Y-64072403D02*
X153153571Y-64053356D01*
X127133333Y-58993832D02*
X127114285Y-59012880D01*
X127114285Y-59012880D02*
X127057143Y-59031927D01*
X127057143Y-59031927D02*
X127019047Y-59031927D01*
X127019047Y-59031927D02*
X126961904Y-59012880D01*
X126961904Y-59012880D02*
X126923809Y-58974784D01*
X126923809Y-58974784D02*
X126904762Y-58936689D01*
X126904762Y-58936689D02*
X126885714Y-58860499D01*
X126885714Y-58860499D02*
X126885714Y-58803356D01*
X126885714Y-58803356D02*
X126904762Y-58727165D01*
X126904762Y-58727165D02*
X126923809Y-58689070D01*
X126923809Y-58689070D02*
X126961904Y-58650975D01*
X126961904Y-58650975D02*
X127019047Y-58631927D01*
X127019047Y-58631927D02*
X127057143Y-58631927D01*
X127057143Y-58631927D02*
X127114285Y-58650975D01*
X127114285Y-58650975D02*
X127133333Y-58670022D01*
X127285714Y-58670022D02*
X127304762Y-58650975D01*
X127304762Y-58650975D02*
X127342857Y-58631927D01*
X127342857Y-58631927D02*
X127438095Y-58631927D01*
X127438095Y-58631927D02*
X127476190Y-58650975D01*
X127476190Y-58650975D02*
X127495238Y-58670022D01*
X127495238Y-58670022D02*
X127514285Y-58708118D01*
X127514285Y-58708118D02*
X127514285Y-58746213D01*
X127514285Y-58746213D02*
X127495238Y-58803356D01*
X127495238Y-58803356D02*
X127266666Y-59031927D01*
X127266666Y-59031927D02*
X127514285Y-59031927D01*
D10*
X134159666Y-76154819D02*
X134159666Y-76869104D01*
X134159666Y-76869104D02*
X134112047Y-77011961D01*
X134112047Y-77011961D02*
X134016809Y-77107200D01*
X134016809Y-77107200D02*
X133873952Y-77154819D01*
X133873952Y-77154819D02*
X133778714Y-77154819D01*
X135064428Y-76154819D02*
X134873952Y-76154819D01*
X134873952Y-76154819D02*
X134778714Y-76202438D01*
X134778714Y-76202438D02*
X134731095Y-76250057D01*
X134731095Y-76250057D02*
X134635857Y-76392914D01*
X134635857Y-76392914D02*
X134588238Y-76583390D01*
X134588238Y-76583390D02*
X134588238Y-76964342D01*
X134588238Y-76964342D02*
X134635857Y-77059580D01*
X134635857Y-77059580D02*
X134683476Y-77107200D01*
X134683476Y-77107200D02*
X134778714Y-77154819D01*
X134778714Y-77154819D02*
X134969190Y-77154819D01*
X134969190Y-77154819D02*
X135064428Y-77107200D01*
X135064428Y-77107200D02*
X135112047Y-77059580D01*
X135112047Y-77059580D02*
X135159666Y-76964342D01*
X135159666Y-76964342D02*
X135159666Y-76726247D01*
X135159666Y-76726247D02*
X135112047Y-76631009D01*
X135112047Y-76631009D02*
X135064428Y-76583390D01*
X135064428Y-76583390D02*
X134969190Y-76535771D01*
X134969190Y-76535771D02*
X134778714Y-76535771D01*
X134778714Y-76535771D02*
X134683476Y-76583390D01*
X134683476Y-76583390D02*
X134635857Y-76631009D01*
X134635857Y-76631009D02*
X134588238Y-76726247D01*
D11*
X123233333Y-76981927D02*
X123100000Y-76791451D01*
X123004762Y-76981927D02*
X123004762Y-76581927D01*
X123004762Y-76581927D02*
X123157143Y-76581927D01*
X123157143Y-76581927D02*
X123195238Y-76600975D01*
X123195238Y-76600975D02*
X123214285Y-76620022D01*
X123214285Y-76620022D02*
X123233333Y-76658118D01*
X123233333Y-76658118D02*
X123233333Y-76715260D01*
X123233333Y-76715260D02*
X123214285Y-76753356D01*
X123214285Y-76753356D02*
X123195238Y-76772403D01*
X123195238Y-76772403D02*
X123157143Y-76791451D01*
X123157143Y-76791451D02*
X123004762Y-76791451D01*
X123576190Y-76581927D02*
X123500000Y-76581927D01*
X123500000Y-76581927D02*
X123461904Y-76600975D01*
X123461904Y-76600975D02*
X123442857Y-76620022D01*
X123442857Y-76620022D02*
X123404762Y-76677165D01*
X123404762Y-76677165D02*
X123385714Y-76753356D01*
X123385714Y-76753356D02*
X123385714Y-76905737D01*
X123385714Y-76905737D02*
X123404762Y-76943832D01*
X123404762Y-76943832D02*
X123423809Y-76962880D01*
X123423809Y-76962880D02*
X123461904Y-76981927D01*
X123461904Y-76981927D02*
X123538095Y-76981927D01*
X123538095Y-76981927D02*
X123576190Y-76962880D01*
X123576190Y-76962880D02*
X123595238Y-76943832D01*
X123595238Y-76943832D02*
X123614285Y-76905737D01*
X123614285Y-76905737D02*
X123614285Y-76810499D01*
X123614285Y-76810499D02*
X123595238Y-76772403D01*
X123595238Y-76772403D02*
X123576190Y-76753356D01*
X123576190Y-76753356D02*
X123538095Y-76734308D01*
X123538095Y-76734308D02*
X123461904Y-76734308D01*
X123461904Y-76734308D02*
X123423809Y-76753356D01*
X123423809Y-76753356D02*
X123404762Y-76772403D01*
X123404762Y-76772403D02*
X123385714Y-76810499D01*
X171992857Y-57093832D02*
X171973809Y-57112880D01*
X171973809Y-57112880D02*
X171916667Y-57131927D01*
X171916667Y-57131927D02*
X171878571Y-57131927D01*
X171878571Y-57131927D02*
X171821428Y-57112880D01*
X171821428Y-57112880D02*
X171783333Y-57074784D01*
X171783333Y-57074784D02*
X171764286Y-57036689D01*
X171764286Y-57036689D02*
X171745238Y-56960499D01*
X171745238Y-56960499D02*
X171745238Y-56903356D01*
X171745238Y-56903356D02*
X171764286Y-56827165D01*
X171764286Y-56827165D02*
X171783333Y-56789070D01*
X171783333Y-56789070D02*
X171821428Y-56750975D01*
X171821428Y-56750975D02*
X171878571Y-56731927D01*
X171878571Y-56731927D02*
X171916667Y-56731927D01*
X171916667Y-56731927D02*
X171973809Y-56750975D01*
X171973809Y-56750975D02*
X171992857Y-56770022D01*
X172145238Y-56770022D02*
X172164286Y-56750975D01*
X172164286Y-56750975D02*
X172202381Y-56731927D01*
X172202381Y-56731927D02*
X172297619Y-56731927D01*
X172297619Y-56731927D02*
X172335714Y-56750975D01*
X172335714Y-56750975D02*
X172354762Y-56770022D01*
X172354762Y-56770022D02*
X172373809Y-56808118D01*
X172373809Y-56808118D02*
X172373809Y-56846213D01*
X172373809Y-56846213D02*
X172354762Y-56903356D01*
X172354762Y-56903356D02*
X172126190Y-57131927D01*
X172126190Y-57131927D02*
X172373809Y-57131927D01*
X172621428Y-56731927D02*
X172659523Y-56731927D01*
X172659523Y-56731927D02*
X172697619Y-56750975D01*
X172697619Y-56750975D02*
X172716666Y-56770022D01*
X172716666Y-56770022D02*
X172735714Y-56808118D01*
X172735714Y-56808118D02*
X172754761Y-56884308D01*
X172754761Y-56884308D02*
X172754761Y-56979546D01*
X172754761Y-56979546D02*
X172735714Y-57055737D01*
X172735714Y-57055737D02*
X172716666Y-57093832D01*
X172716666Y-57093832D02*
X172697619Y-57112880D01*
X172697619Y-57112880D02*
X172659523Y-57131927D01*
X172659523Y-57131927D02*
X172621428Y-57131927D01*
X172621428Y-57131927D02*
X172583333Y-57112880D01*
X172583333Y-57112880D02*
X172564285Y-57093832D01*
X172564285Y-57093832D02*
X172545238Y-57055737D01*
X172545238Y-57055737D02*
X172526190Y-56979546D01*
X172526190Y-56979546D02*
X172526190Y-56884308D01*
X172526190Y-56884308D02*
X172545238Y-56808118D01*
X172545238Y-56808118D02*
X172564285Y-56770022D01*
X172564285Y-56770022D02*
X172583333Y-56750975D01*
X172583333Y-56750975D02*
X172621428Y-56731927D01*
X126942857Y-69181927D02*
X126809524Y-68991451D01*
X126714286Y-69181927D02*
X126714286Y-68781927D01*
X126714286Y-68781927D02*
X126866667Y-68781927D01*
X126866667Y-68781927D02*
X126904762Y-68800975D01*
X126904762Y-68800975D02*
X126923809Y-68820022D01*
X126923809Y-68820022D02*
X126942857Y-68858118D01*
X126942857Y-68858118D02*
X126942857Y-68915260D01*
X126942857Y-68915260D02*
X126923809Y-68953356D01*
X126923809Y-68953356D02*
X126904762Y-68972403D01*
X126904762Y-68972403D02*
X126866667Y-68991451D01*
X126866667Y-68991451D02*
X126714286Y-68991451D01*
X127095238Y-68820022D02*
X127114286Y-68800975D01*
X127114286Y-68800975D02*
X127152381Y-68781927D01*
X127152381Y-68781927D02*
X127247619Y-68781927D01*
X127247619Y-68781927D02*
X127285714Y-68800975D01*
X127285714Y-68800975D02*
X127304762Y-68820022D01*
X127304762Y-68820022D02*
X127323809Y-68858118D01*
X127323809Y-68858118D02*
X127323809Y-68896213D01*
X127323809Y-68896213D02*
X127304762Y-68953356D01*
X127304762Y-68953356D02*
X127076190Y-69181927D01*
X127076190Y-69181927D02*
X127323809Y-69181927D01*
X127514285Y-69181927D02*
X127590476Y-69181927D01*
X127590476Y-69181927D02*
X127628571Y-69162880D01*
X127628571Y-69162880D02*
X127647619Y-69143832D01*
X127647619Y-69143832D02*
X127685714Y-69086689D01*
X127685714Y-69086689D02*
X127704761Y-69010499D01*
X127704761Y-69010499D02*
X127704761Y-68858118D01*
X127704761Y-68858118D02*
X127685714Y-68820022D01*
X127685714Y-68820022D02*
X127666666Y-68800975D01*
X127666666Y-68800975D02*
X127628571Y-68781927D01*
X127628571Y-68781927D02*
X127552380Y-68781927D01*
X127552380Y-68781927D02*
X127514285Y-68800975D01*
X127514285Y-68800975D02*
X127495238Y-68820022D01*
X127495238Y-68820022D02*
X127476190Y-68858118D01*
X127476190Y-68858118D02*
X127476190Y-68953356D01*
X127476190Y-68953356D02*
X127495238Y-68991451D01*
X127495238Y-68991451D02*
X127514285Y-69010499D01*
X127514285Y-69010499D02*
X127552380Y-69029546D01*
X127552380Y-69029546D02*
X127628571Y-69029546D01*
X127628571Y-69029546D02*
X127666666Y-69010499D01*
X127666666Y-69010499D02*
X127685714Y-68991451D01*
X127685714Y-68991451D02*
X127704761Y-68953356D01*
X141842857Y-71831927D02*
X141709524Y-71641451D01*
X141614286Y-71831927D02*
X141614286Y-71431927D01*
X141614286Y-71431927D02*
X141766667Y-71431927D01*
X141766667Y-71431927D02*
X141804762Y-71450975D01*
X141804762Y-71450975D02*
X141823809Y-71470022D01*
X141823809Y-71470022D02*
X141842857Y-71508118D01*
X141842857Y-71508118D02*
X141842857Y-71565260D01*
X141842857Y-71565260D02*
X141823809Y-71603356D01*
X141823809Y-71603356D02*
X141804762Y-71622403D01*
X141804762Y-71622403D02*
X141766667Y-71641451D01*
X141766667Y-71641451D02*
X141614286Y-71641451D01*
X141995238Y-71470022D02*
X142014286Y-71450975D01*
X142014286Y-71450975D02*
X142052381Y-71431927D01*
X142052381Y-71431927D02*
X142147619Y-71431927D01*
X142147619Y-71431927D02*
X142185714Y-71450975D01*
X142185714Y-71450975D02*
X142204762Y-71470022D01*
X142204762Y-71470022D02*
X142223809Y-71508118D01*
X142223809Y-71508118D02*
X142223809Y-71546213D01*
X142223809Y-71546213D02*
X142204762Y-71603356D01*
X142204762Y-71603356D02*
X141976190Y-71831927D01*
X141976190Y-71831927D02*
X142223809Y-71831927D01*
X142357142Y-71431927D02*
X142604761Y-71431927D01*
X142604761Y-71431927D02*
X142471428Y-71584308D01*
X142471428Y-71584308D02*
X142528571Y-71584308D01*
X142528571Y-71584308D02*
X142566666Y-71603356D01*
X142566666Y-71603356D02*
X142585714Y-71622403D01*
X142585714Y-71622403D02*
X142604761Y-71660499D01*
X142604761Y-71660499D02*
X142604761Y-71755737D01*
X142604761Y-71755737D02*
X142585714Y-71793832D01*
X142585714Y-71793832D02*
X142566666Y-71812880D01*
X142566666Y-71812880D02*
X142528571Y-71831927D01*
X142528571Y-71831927D02*
X142414285Y-71831927D01*
X142414285Y-71831927D02*
X142376190Y-71812880D01*
X142376190Y-71812880D02*
X142357142Y-71793832D01*
D10*
X125126666Y-48804819D02*
X125126666Y-49519104D01*
X125126666Y-49519104D02*
X125079047Y-49661961D01*
X125079047Y-49661961D02*
X124983809Y-49757200D01*
X124983809Y-49757200D02*
X124840952Y-49804819D01*
X124840952Y-49804819D02*
X124745714Y-49804819D01*
X125507619Y-48804819D02*
X126126666Y-48804819D01*
X126126666Y-48804819D02*
X125793333Y-49185771D01*
X125793333Y-49185771D02*
X125936190Y-49185771D01*
X125936190Y-49185771D02*
X126031428Y-49233390D01*
X126031428Y-49233390D02*
X126079047Y-49281009D01*
X126079047Y-49281009D02*
X126126666Y-49376247D01*
X126126666Y-49376247D02*
X126126666Y-49614342D01*
X126126666Y-49614342D02*
X126079047Y-49709580D01*
X126079047Y-49709580D02*
X126031428Y-49757200D01*
X126031428Y-49757200D02*
X125936190Y-49804819D01*
X125936190Y-49804819D02*
X125650476Y-49804819D01*
X125650476Y-49804819D02*
X125555238Y-49757200D01*
X125555238Y-49757200D02*
X125507619Y-49709580D01*
D11*
X141842857Y-68643832D02*
X141823809Y-68662880D01*
X141823809Y-68662880D02*
X141766667Y-68681927D01*
X141766667Y-68681927D02*
X141728571Y-68681927D01*
X141728571Y-68681927D02*
X141671428Y-68662880D01*
X141671428Y-68662880D02*
X141633333Y-68624784D01*
X141633333Y-68624784D02*
X141614286Y-68586689D01*
X141614286Y-68586689D02*
X141595238Y-68510499D01*
X141595238Y-68510499D02*
X141595238Y-68453356D01*
X141595238Y-68453356D02*
X141614286Y-68377165D01*
X141614286Y-68377165D02*
X141633333Y-68339070D01*
X141633333Y-68339070D02*
X141671428Y-68300975D01*
X141671428Y-68300975D02*
X141728571Y-68281927D01*
X141728571Y-68281927D02*
X141766667Y-68281927D01*
X141766667Y-68281927D02*
X141823809Y-68300975D01*
X141823809Y-68300975D02*
X141842857Y-68320022D01*
X141976190Y-68281927D02*
X142223809Y-68281927D01*
X142223809Y-68281927D02*
X142090476Y-68434308D01*
X142090476Y-68434308D02*
X142147619Y-68434308D01*
X142147619Y-68434308D02*
X142185714Y-68453356D01*
X142185714Y-68453356D02*
X142204762Y-68472403D01*
X142204762Y-68472403D02*
X142223809Y-68510499D01*
X142223809Y-68510499D02*
X142223809Y-68605737D01*
X142223809Y-68605737D02*
X142204762Y-68643832D01*
X142204762Y-68643832D02*
X142185714Y-68662880D01*
X142185714Y-68662880D02*
X142147619Y-68681927D01*
X142147619Y-68681927D02*
X142033333Y-68681927D01*
X142033333Y-68681927D02*
X141995238Y-68662880D01*
X141995238Y-68662880D02*
X141976190Y-68643832D01*
X142585714Y-68281927D02*
X142395238Y-68281927D01*
X142395238Y-68281927D02*
X142376190Y-68472403D01*
X142376190Y-68472403D02*
X142395238Y-68453356D01*
X142395238Y-68453356D02*
X142433333Y-68434308D01*
X142433333Y-68434308D02*
X142528571Y-68434308D01*
X142528571Y-68434308D02*
X142566666Y-68453356D01*
X142566666Y-68453356D02*
X142585714Y-68472403D01*
X142585714Y-68472403D02*
X142604761Y-68510499D01*
X142604761Y-68510499D02*
X142604761Y-68605737D01*
X142604761Y-68605737D02*
X142585714Y-68643832D01*
X142585714Y-68643832D02*
X142566666Y-68662880D01*
X142566666Y-68662880D02*
X142528571Y-68681927D01*
X142528571Y-68681927D02*
X142433333Y-68681927D01*
X142433333Y-68681927D02*
X142395238Y-68662880D01*
X142395238Y-68662880D02*
X142376190Y-68643832D01*
D14*
X129132857Y-61768200D02*
X129046190Y-61644391D01*
X128984285Y-61768200D02*
X128984285Y-61508200D01*
X128984285Y-61508200D02*
X129083333Y-61508200D01*
X129083333Y-61508200D02*
X129108095Y-61520581D01*
X129108095Y-61520581D02*
X129120476Y-61532962D01*
X129120476Y-61532962D02*
X129132857Y-61557724D01*
X129132857Y-61557724D02*
X129132857Y-61594867D01*
X129132857Y-61594867D02*
X129120476Y-61619629D01*
X129120476Y-61619629D02*
X129108095Y-61632010D01*
X129108095Y-61632010D02*
X129083333Y-61644391D01*
X129083333Y-61644391D02*
X128984285Y-61644391D01*
X129219523Y-61508200D02*
X129380476Y-61508200D01*
X129380476Y-61508200D02*
X129293809Y-61607248D01*
X129293809Y-61607248D02*
X129330952Y-61607248D01*
X129330952Y-61607248D02*
X129355714Y-61619629D01*
X129355714Y-61619629D02*
X129368095Y-61632010D01*
X129368095Y-61632010D02*
X129380476Y-61656772D01*
X129380476Y-61656772D02*
X129380476Y-61718677D01*
X129380476Y-61718677D02*
X129368095Y-61743439D01*
X129368095Y-61743439D02*
X129355714Y-61755820D01*
X129355714Y-61755820D02*
X129330952Y-61768200D01*
X129330952Y-61768200D02*
X129256666Y-61768200D01*
X129256666Y-61768200D02*
X129231904Y-61755820D01*
X129231904Y-61755820D02*
X129219523Y-61743439D01*
X129541428Y-61508200D02*
X129566190Y-61508200D01*
X129566190Y-61508200D02*
X129590952Y-61520581D01*
X129590952Y-61520581D02*
X129603333Y-61532962D01*
X129603333Y-61532962D02*
X129615714Y-61557724D01*
X129615714Y-61557724D02*
X129628095Y-61607248D01*
X129628095Y-61607248D02*
X129628095Y-61669153D01*
X129628095Y-61669153D02*
X129615714Y-61718677D01*
X129615714Y-61718677D02*
X129603333Y-61743439D01*
X129603333Y-61743439D02*
X129590952Y-61755820D01*
X129590952Y-61755820D02*
X129566190Y-61768200D01*
X129566190Y-61768200D02*
X129541428Y-61768200D01*
X129541428Y-61768200D02*
X129516666Y-61755820D01*
X129516666Y-61755820D02*
X129504285Y-61743439D01*
X129504285Y-61743439D02*
X129491904Y-61718677D01*
X129491904Y-61718677D02*
X129479523Y-61669153D01*
X129479523Y-61669153D02*
X129479523Y-61607248D01*
X129479523Y-61607248D02*
X129491904Y-61557724D01*
X129491904Y-61557724D02*
X129504285Y-61532962D01*
X129504285Y-61532962D02*
X129516666Y-61520581D01*
X129516666Y-61520581D02*
X129541428Y-61508200D01*
D11*
X127133333Y-65981927D02*
X127000000Y-65791451D01*
X126904762Y-65981927D02*
X126904762Y-65581927D01*
X126904762Y-65581927D02*
X127057143Y-65581927D01*
X127057143Y-65581927D02*
X127095238Y-65600975D01*
X127095238Y-65600975D02*
X127114285Y-65620022D01*
X127114285Y-65620022D02*
X127133333Y-65658118D01*
X127133333Y-65658118D02*
X127133333Y-65715260D01*
X127133333Y-65715260D02*
X127114285Y-65753356D01*
X127114285Y-65753356D02*
X127095238Y-65772403D01*
X127095238Y-65772403D02*
X127057143Y-65791451D01*
X127057143Y-65791451D02*
X126904762Y-65791451D01*
X127285714Y-65620022D02*
X127304762Y-65600975D01*
X127304762Y-65600975D02*
X127342857Y-65581927D01*
X127342857Y-65581927D02*
X127438095Y-65581927D01*
X127438095Y-65581927D02*
X127476190Y-65600975D01*
X127476190Y-65600975D02*
X127495238Y-65620022D01*
X127495238Y-65620022D02*
X127514285Y-65658118D01*
X127514285Y-65658118D02*
X127514285Y-65696213D01*
X127514285Y-65696213D02*
X127495238Y-65753356D01*
X127495238Y-65753356D02*
X127266666Y-65981927D01*
X127266666Y-65981927D02*
X127514285Y-65981927D01*
X158606927Y-69757142D02*
X158416451Y-69890475D01*
X158606927Y-69985713D02*
X158206927Y-69985713D01*
X158206927Y-69985713D02*
X158206927Y-69833332D01*
X158206927Y-69833332D02*
X158225975Y-69795237D01*
X158225975Y-69795237D02*
X158245022Y-69776190D01*
X158245022Y-69776190D02*
X158283118Y-69757142D01*
X158283118Y-69757142D02*
X158340260Y-69757142D01*
X158340260Y-69757142D02*
X158378356Y-69776190D01*
X158378356Y-69776190D02*
X158397403Y-69795237D01*
X158397403Y-69795237D02*
X158416451Y-69833332D01*
X158416451Y-69833332D02*
X158416451Y-69985713D01*
X158606927Y-69376190D02*
X158606927Y-69604761D01*
X158606927Y-69490475D02*
X158206927Y-69490475D01*
X158206927Y-69490475D02*
X158264070Y-69528571D01*
X158264070Y-69528571D02*
X158302165Y-69566666D01*
X158302165Y-69566666D02*
X158321213Y-69604761D01*
X158378356Y-69147619D02*
X158359308Y-69185714D01*
X158359308Y-69185714D02*
X158340260Y-69204761D01*
X158340260Y-69204761D02*
X158302165Y-69223809D01*
X158302165Y-69223809D02*
X158283118Y-69223809D01*
X158283118Y-69223809D02*
X158245022Y-69204761D01*
X158245022Y-69204761D02*
X158225975Y-69185714D01*
X158225975Y-69185714D02*
X158206927Y-69147619D01*
X158206927Y-69147619D02*
X158206927Y-69071428D01*
X158206927Y-69071428D02*
X158225975Y-69033333D01*
X158225975Y-69033333D02*
X158245022Y-69014285D01*
X158245022Y-69014285D02*
X158283118Y-68995238D01*
X158283118Y-68995238D02*
X158302165Y-68995238D01*
X158302165Y-68995238D02*
X158340260Y-69014285D01*
X158340260Y-69014285D02*
X158359308Y-69033333D01*
X158359308Y-69033333D02*
X158378356Y-69071428D01*
X158378356Y-69071428D02*
X158378356Y-69147619D01*
X158378356Y-69147619D02*
X158397403Y-69185714D01*
X158397403Y-69185714D02*
X158416451Y-69204761D01*
X158416451Y-69204761D02*
X158454546Y-69223809D01*
X158454546Y-69223809D02*
X158530737Y-69223809D01*
X158530737Y-69223809D02*
X158568832Y-69204761D01*
X158568832Y-69204761D02*
X158587880Y-69185714D01*
X158587880Y-69185714D02*
X158606927Y-69147619D01*
X158606927Y-69147619D02*
X158606927Y-69071428D01*
X158606927Y-69071428D02*
X158587880Y-69033333D01*
X158587880Y-69033333D02*
X158568832Y-69014285D01*
X158568832Y-69014285D02*
X158530737Y-68995238D01*
X158530737Y-68995238D02*
X158454546Y-68995238D01*
X158454546Y-68995238D02*
X158416451Y-69014285D01*
X158416451Y-69014285D02*
X158397403Y-69033333D01*
X158397403Y-69033333D02*
X158378356Y-69071428D01*
X178569877Y-59683532D02*
X178569877Y-59710469D01*
X178569877Y-59710469D02*
X178542940Y-59764344D01*
X178542940Y-59764344D02*
X178516002Y-59791281D01*
X178516002Y-59791281D02*
X178462128Y-59818219D01*
X178462128Y-59818219D02*
X178408253Y-59818219D01*
X178408253Y-59818219D02*
X178367847Y-59804750D01*
X178367847Y-59804750D02*
X178300503Y-59764344D01*
X178300503Y-59764344D02*
X178260097Y-59723938D01*
X178260097Y-59723938D02*
X178219691Y-59656594D01*
X178219691Y-59656594D02*
X178206222Y-59616188D01*
X178206222Y-59616188D02*
X178206222Y-59562313D01*
X178206222Y-59562313D02*
X178233160Y-59508438D01*
X178233160Y-59508438D02*
X178260097Y-59481501D01*
X178260097Y-59481501D02*
X178313972Y-59454564D01*
X178313972Y-59454564D02*
X178340909Y-59454564D01*
X178866189Y-59441095D02*
X178704564Y-59602719D01*
X178785376Y-59521907D02*
X178502534Y-59239064D01*
X178502534Y-59239064D02*
X178516002Y-59306408D01*
X178516002Y-59306408D02*
X178516002Y-59360283D01*
X178516002Y-59360283D02*
X178502534Y-59400689D01*
X178839251Y-58902347D02*
X178704564Y-59037034D01*
X178704564Y-59037034D02*
X178825782Y-59185190D01*
X178825782Y-59185190D02*
X178825782Y-59158252D01*
X178825782Y-59158252D02*
X178839251Y-59117846D01*
X178839251Y-59117846D02*
X178906594Y-59050503D01*
X178906594Y-59050503D02*
X178947001Y-59037034D01*
X178947001Y-59037034D02*
X178973938Y-59037034D01*
X178973938Y-59037034D02*
X179014344Y-59050503D01*
X179014344Y-59050503D02*
X179081688Y-59117846D01*
X179081688Y-59117846D02*
X179095156Y-59158252D01*
X179095156Y-59158252D02*
X179095156Y-59185190D01*
X179095156Y-59185190D02*
X179081688Y-59225596D01*
X179081688Y-59225596D02*
X179014344Y-59292939D01*
X179014344Y-59292939D02*
X178973938Y-59306408D01*
X178973938Y-59306408D02*
X178947001Y-59306408D01*
X133742857Y-50543832D02*
X133723809Y-50562880D01*
X133723809Y-50562880D02*
X133666667Y-50581927D01*
X133666667Y-50581927D02*
X133628571Y-50581927D01*
X133628571Y-50581927D02*
X133571428Y-50562880D01*
X133571428Y-50562880D02*
X133533333Y-50524784D01*
X133533333Y-50524784D02*
X133514286Y-50486689D01*
X133514286Y-50486689D02*
X133495238Y-50410499D01*
X133495238Y-50410499D02*
X133495238Y-50353356D01*
X133495238Y-50353356D02*
X133514286Y-50277165D01*
X133514286Y-50277165D02*
X133533333Y-50239070D01*
X133533333Y-50239070D02*
X133571428Y-50200975D01*
X133571428Y-50200975D02*
X133628571Y-50181927D01*
X133628571Y-50181927D02*
X133666667Y-50181927D01*
X133666667Y-50181927D02*
X133723809Y-50200975D01*
X133723809Y-50200975D02*
X133742857Y-50220022D01*
X134085714Y-50315260D02*
X134085714Y-50581927D01*
X133990476Y-50162880D02*
X133895238Y-50448594D01*
X133895238Y-50448594D02*
X134142857Y-50448594D01*
X134276190Y-50220022D02*
X134295238Y-50200975D01*
X134295238Y-50200975D02*
X134333333Y-50181927D01*
X134333333Y-50181927D02*
X134428571Y-50181927D01*
X134428571Y-50181927D02*
X134466666Y-50200975D01*
X134466666Y-50200975D02*
X134485714Y-50220022D01*
X134485714Y-50220022D02*
X134504761Y-50258118D01*
X134504761Y-50258118D02*
X134504761Y-50296213D01*
X134504761Y-50296213D02*
X134485714Y-50353356D01*
X134485714Y-50353356D02*
X134257142Y-50581927D01*
X134257142Y-50581927D02*
X134504761Y-50581927D01*
X155406927Y-69757142D02*
X155216451Y-69890475D01*
X155406927Y-69985713D02*
X155006927Y-69985713D01*
X155006927Y-69985713D02*
X155006927Y-69833332D01*
X155006927Y-69833332D02*
X155025975Y-69795237D01*
X155025975Y-69795237D02*
X155045022Y-69776190D01*
X155045022Y-69776190D02*
X155083118Y-69757142D01*
X155083118Y-69757142D02*
X155140260Y-69757142D01*
X155140260Y-69757142D02*
X155178356Y-69776190D01*
X155178356Y-69776190D02*
X155197403Y-69795237D01*
X155197403Y-69795237D02*
X155216451Y-69833332D01*
X155216451Y-69833332D02*
X155216451Y-69985713D01*
X155406927Y-69376190D02*
X155406927Y-69604761D01*
X155406927Y-69490475D02*
X155006927Y-69490475D01*
X155006927Y-69490475D02*
X155064070Y-69528571D01*
X155064070Y-69528571D02*
X155102165Y-69566666D01*
X155102165Y-69566666D02*
X155121213Y-69604761D01*
X155406927Y-69185714D02*
X155406927Y-69109523D01*
X155406927Y-69109523D02*
X155387880Y-69071428D01*
X155387880Y-69071428D02*
X155368832Y-69052380D01*
X155368832Y-69052380D02*
X155311689Y-69014285D01*
X155311689Y-69014285D02*
X155235499Y-68995238D01*
X155235499Y-68995238D02*
X155083118Y-68995238D01*
X155083118Y-68995238D02*
X155045022Y-69014285D01*
X155045022Y-69014285D02*
X155025975Y-69033333D01*
X155025975Y-69033333D02*
X155006927Y-69071428D01*
X155006927Y-69071428D02*
X155006927Y-69147619D01*
X155006927Y-69147619D02*
X155025975Y-69185714D01*
X155025975Y-69185714D02*
X155045022Y-69204761D01*
X155045022Y-69204761D02*
X155083118Y-69223809D01*
X155083118Y-69223809D02*
X155178356Y-69223809D01*
X155178356Y-69223809D02*
X155216451Y-69204761D01*
X155216451Y-69204761D02*
X155235499Y-69185714D01*
X155235499Y-69185714D02*
X155254546Y-69147619D01*
X155254546Y-69147619D02*
X155254546Y-69071428D01*
X155254546Y-69071428D02*
X155235499Y-69033333D01*
X155235499Y-69033333D02*
X155216451Y-69014285D01*
X155216451Y-69014285D02*
X155178356Y-68995238D01*
D13*
X175066666Y-54377149D02*
X174828571Y-54377149D01*
X174828571Y-54377149D02*
X174828571Y-53877149D01*
X175495238Y-54377149D02*
X175209524Y-54377149D01*
X175352381Y-54377149D02*
X175352381Y-53877149D01*
X175352381Y-53877149D02*
X175304762Y-53948578D01*
X175304762Y-53948578D02*
X175257143Y-53996197D01*
X175257143Y-53996197D02*
X175209524Y-54020006D01*
D10*
X148366666Y-53354819D02*
X148033333Y-52878628D01*
X147795238Y-53354819D02*
X147795238Y-52354819D01*
X147795238Y-52354819D02*
X148176190Y-52354819D01*
X148176190Y-52354819D02*
X148271428Y-52402438D01*
X148271428Y-52402438D02*
X148319047Y-52450057D01*
X148319047Y-52450057D02*
X148366666Y-52545295D01*
X148366666Y-52545295D02*
X148366666Y-52688152D01*
X148366666Y-52688152D02*
X148319047Y-52783390D01*
X148319047Y-52783390D02*
X148271428Y-52831009D01*
X148271428Y-52831009D02*
X148176190Y-52878628D01*
X148176190Y-52878628D02*
X147795238Y-52878628D01*
X148795238Y-52831009D02*
X149128571Y-52831009D01*
X149271428Y-53354819D02*
X148795238Y-53354819D01*
X148795238Y-53354819D02*
X148795238Y-52354819D01*
X148795238Y-52354819D02*
X149271428Y-52354819D01*
X150033333Y-52831009D02*
X149700000Y-52831009D01*
X149700000Y-53354819D02*
X149700000Y-52354819D01*
X149700000Y-52354819D02*
X150176190Y-52354819D01*
X150700000Y-52354819D02*
X150700000Y-52592914D01*
X150461905Y-52497676D02*
X150700000Y-52592914D01*
X150700000Y-52592914D02*
X150938095Y-52497676D01*
X150557143Y-52783390D02*
X150700000Y-52592914D01*
X150700000Y-52592914D02*
X150842857Y-52783390D01*
X151461905Y-52354819D02*
X151461905Y-52592914D01*
X151223810Y-52497676D02*
X151461905Y-52592914D01*
X151461905Y-52592914D02*
X151700000Y-52497676D01*
X151319048Y-52783390D02*
X151461905Y-52592914D01*
X151461905Y-52592914D02*
X151604762Y-52783390D01*
D11*
X152467857Y-66043832D02*
X152448809Y-66062880D01*
X152448809Y-66062880D02*
X152391667Y-66081927D01*
X152391667Y-66081927D02*
X152353571Y-66081927D01*
X152353571Y-66081927D02*
X152296428Y-66062880D01*
X152296428Y-66062880D02*
X152258333Y-66024784D01*
X152258333Y-66024784D02*
X152239286Y-65986689D01*
X152239286Y-65986689D02*
X152220238Y-65910499D01*
X152220238Y-65910499D02*
X152220238Y-65853356D01*
X152220238Y-65853356D02*
X152239286Y-65777165D01*
X152239286Y-65777165D02*
X152258333Y-65739070D01*
X152258333Y-65739070D02*
X152296428Y-65700975D01*
X152296428Y-65700975D02*
X152353571Y-65681927D01*
X152353571Y-65681927D02*
X152391667Y-65681927D01*
X152391667Y-65681927D02*
X152448809Y-65700975D01*
X152448809Y-65700975D02*
X152467857Y-65720022D01*
X152601190Y-65681927D02*
X152848809Y-65681927D01*
X152848809Y-65681927D02*
X152715476Y-65834308D01*
X152715476Y-65834308D02*
X152772619Y-65834308D01*
X152772619Y-65834308D02*
X152810714Y-65853356D01*
X152810714Y-65853356D02*
X152829762Y-65872403D01*
X152829762Y-65872403D02*
X152848809Y-65910499D01*
X152848809Y-65910499D02*
X152848809Y-66005737D01*
X152848809Y-66005737D02*
X152829762Y-66043832D01*
X152829762Y-66043832D02*
X152810714Y-66062880D01*
X152810714Y-66062880D02*
X152772619Y-66081927D01*
X152772619Y-66081927D02*
X152658333Y-66081927D01*
X152658333Y-66081927D02*
X152620238Y-66062880D01*
X152620238Y-66062880D02*
X152601190Y-66043832D01*
X153096428Y-65681927D02*
X153134523Y-65681927D01*
X153134523Y-65681927D02*
X153172619Y-65700975D01*
X153172619Y-65700975D02*
X153191666Y-65720022D01*
X153191666Y-65720022D02*
X153210714Y-65758118D01*
X153210714Y-65758118D02*
X153229761Y-65834308D01*
X153229761Y-65834308D02*
X153229761Y-65929546D01*
X153229761Y-65929546D02*
X153210714Y-66005737D01*
X153210714Y-66005737D02*
X153191666Y-66043832D01*
X153191666Y-66043832D02*
X153172619Y-66062880D01*
X153172619Y-66062880D02*
X153134523Y-66081927D01*
X153134523Y-66081927D02*
X153096428Y-66081927D01*
X153096428Y-66081927D02*
X153058333Y-66062880D01*
X153058333Y-66062880D02*
X153039285Y-66043832D01*
X153039285Y-66043832D02*
X153020238Y-66005737D01*
X153020238Y-66005737D02*
X153001190Y-65929546D01*
X153001190Y-65929546D02*
X153001190Y-65834308D01*
X153001190Y-65834308D02*
X153020238Y-65758118D01*
X153020238Y-65758118D02*
X153039285Y-65720022D01*
X153039285Y-65720022D02*
X153058333Y-65700975D01*
X153058333Y-65700975D02*
X153096428Y-65681927D01*
X157006927Y-69757142D02*
X156816451Y-69890475D01*
X157006927Y-69985713D02*
X156606927Y-69985713D01*
X156606927Y-69985713D02*
X156606927Y-69833332D01*
X156606927Y-69833332D02*
X156625975Y-69795237D01*
X156625975Y-69795237D02*
X156645022Y-69776190D01*
X156645022Y-69776190D02*
X156683118Y-69757142D01*
X156683118Y-69757142D02*
X156740260Y-69757142D01*
X156740260Y-69757142D02*
X156778356Y-69776190D01*
X156778356Y-69776190D02*
X156797403Y-69795237D01*
X156797403Y-69795237D02*
X156816451Y-69833332D01*
X156816451Y-69833332D02*
X156816451Y-69985713D01*
X157006927Y-69376190D02*
X157006927Y-69604761D01*
X157006927Y-69490475D02*
X156606927Y-69490475D01*
X156606927Y-69490475D02*
X156664070Y-69528571D01*
X156664070Y-69528571D02*
X156702165Y-69566666D01*
X156702165Y-69566666D02*
X156721213Y-69604761D01*
X157006927Y-68995238D02*
X157006927Y-69223809D01*
X157006927Y-69109523D02*
X156606927Y-69109523D01*
X156606927Y-69109523D02*
X156664070Y-69147619D01*
X156664070Y-69147619D02*
X156702165Y-69185714D01*
X156702165Y-69185714D02*
X156721213Y-69223809D01*
D10*
X200785476Y-55054819D02*
X200785476Y-55769104D01*
X200785476Y-55769104D02*
X200737857Y-55911961D01*
X200737857Y-55911961D02*
X200642619Y-56007200D01*
X200642619Y-56007200D02*
X200499762Y-56054819D01*
X200499762Y-56054819D02*
X200404524Y-56054819D01*
X201785476Y-56054819D02*
X201214048Y-56054819D01*
X201499762Y-56054819D02*
X201499762Y-55054819D01*
X201499762Y-55054819D02*
X201404524Y-55197676D01*
X201404524Y-55197676D02*
X201309286Y-55292914D01*
X201309286Y-55292914D02*
X201214048Y-55340533D01*
X202404524Y-55054819D02*
X202499762Y-55054819D01*
X202499762Y-55054819D02*
X202595000Y-55102438D01*
X202595000Y-55102438D02*
X202642619Y-55150057D01*
X202642619Y-55150057D02*
X202690238Y-55245295D01*
X202690238Y-55245295D02*
X202737857Y-55435771D01*
X202737857Y-55435771D02*
X202737857Y-55673866D01*
X202737857Y-55673866D02*
X202690238Y-55864342D01*
X202690238Y-55864342D02*
X202642619Y-55959580D01*
X202642619Y-55959580D02*
X202595000Y-56007200D01*
X202595000Y-56007200D02*
X202499762Y-56054819D01*
X202499762Y-56054819D02*
X202404524Y-56054819D01*
X202404524Y-56054819D02*
X202309286Y-56007200D01*
X202309286Y-56007200D02*
X202261667Y-55959580D01*
X202261667Y-55959580D02*
X202214048Y-55864342D01*
X202214048Y-55864342D02*
X202166429Y-55673866D01*
X202166429Y-55673866D02*
X202166429Y-55435771D01*
X202166429Y-55435771D02*
X202214048Y-55245295D01*
X202214048Y-55245295D02*
X202261667Y-55150057D01*
X202261667Y-55150057D02*
X202309286Y-55102438D01*
X202309286Y-55102438D02*
X202404524Y-55054819D01*
D14*
X129132857Y-64118200D02*
X129046190Y-63994391D01*
X128984285Y-64118200D02*
X128984285Y-63858200D01*
X128984285Y-63858200D02*
X129083333Y-63858200D01*
X129083333Y-63858200D02*
X129108095Y-63870581D01*
X129108095Y-63870581D02*
X129120476Y-63882962D01*
X129120476Y-63882962D02*
X129132857Y-63907724D01*
X129132857Y-63907724D02*
X129132857Y-63944867D01*
X129132857Y-63944867D02*
X129120476Y-63969629D01*
X129120476Y-63969629D02*
X129108095Y-63982010D01*
X129108095Y-63982010D02*
X129083333Y-63994391D01*
X129083333Y-63994391D02*
X128984285Y-63994391D01*
X129219523Y-63858200D02*
X129380476Y-63858200D01*
X129380476Y-63858200D02*
X129293809Y-63957248D01*
X129293809Y-63957248D02*
X129330952Y-63957248D01*
X129330952Y-63957248D02*
X129355714Y-63969629D01*
X129355714Y-63969629D02*
X129368095Y-63982010D01*
X129368095Y-63982010D02*
X129380476Y-64006772D01*
X129380476Y-64006772D02*
X129380476Y-64068677D01*
X129380476Y-64068677D02*
X129368095Y-64093439D01*
X129368095Y-64093439D02*
X129355714Y-64105820D01*
X129355714Y-64105820D02*
X129330952Y-64118200D01*
X129330952Y-64118200D02*
X129256666Y-64118200D01*
X129256666Y-64118200D02*
X129231904Y-64105820D01*
X129231904Y-64105820D02*
X129219523Y-64093439D01*
X129628095Y-64118200D02*
X129479523Y-64118200D01*
X129553809Y-64118200D02*
X129553809Y-63858200D01*
X129553809Y-63858200D02*
X129529047Y-63895343D01*
X129529047Y-63895343D02*
X129504285Y-63920105D01*
X129504285Y-63920105D02*
X129479523Y-63932486D01*
D11*
X164567857Y-64043832D02*
X164548809Y-64062880D01*
X164548809Y-64062880D02*
X164491667Y-64081927D01*
X164491667Y-64081927D02*
X164453571Y-64081927D01*
X164453571Y-64081927D02*
X164396428Y-64062880D01*
X164396428Y-64062880D02*
X164358333Y-64024784D01*
X164358333Y-64024784D02*
X164339286Y-63986689D01*
X164339286Y-63986689D02*
X164320238Y-63910499D01*
X164320238Y-63910499D02*
X164320238Y-63853356D01*
X164320238Y-63853356D02*
X164339286Y-63777165D01*
X164339286Y-63777165D02*
X164358333Y-63739070D01*
X164358333Y-63739070D02*
X164396428Y-63700975D01*
X164396428Y-63700975D02*
X164453571Y-63681927D01*
X164453571Y-63681927D02*
X164491667Y-63681927D01*
X164491667Y-63681927D02*
X164548809Y-63700975D01*
X164548809Y-63700975D02*
X164567857Y-63720022D01*
X164720238Y-63720022D02*
X164739286Y-63700975D01*
X164739286Y-63700975D02*
X164777381Y-63681927D01*
X164777381Y-63681927D02*
X164872619Y-63681927D01*
X164872619Y-63681927D02*
X164910714Y-63700975D01*
X164910714Y-63700975D02*
X164929762Y-63720022D01*
X164929762Y-63720022D02*
X164948809Y-63758118D01*
X164948809Y-63758118D02*
X164948809Y-63796213D01*
X164948809Y-63796213D02*
X164929762Y-63853356D01*
X164929762Y-63853356D02*
X164701190Y-64081927D01*
X164701190Y-64081927D02*
X164948809Y-64081927D01*
X165082142Y-63681927D02*
X165329761Y-63681927D01*
X165329761Y-63681927D02*
X165196428Y-63834308D01*
X165196428Y-63834308D02*
X165253571Y-63834308D01*
X165253571Y-63834308D02*
X165291666Y-63853356D01*
X165291666Y-63853356D02*
X165310714Y-63872403D01*
X165310714Y-63872403D02*
X165329761Y-63910499D01*
X165329761Y-63910499D02*
X165329761Y-64005737D01*
X165329761Y-64005737D02*
X165310714Y-64043832D01*
X165310714Y-64043832D02*
X165291666Y-64062880D01*
X165291666Y-64062880D02*
X165253571Y-64081927D01*
X165253571Y-64081927D02*
X165139285Y-64081927D01*
X165139285Y-64081927D02*
X165101190Y-64062880D01*
X165101190Y-64062880D02*
X165082142Y-64043832D01*
X141943832Y-49957142D02*
X141962880Y-49976190D01*
X141962880Y-49976190D02*
X141981927Y-50033332D01*
X141981927Y-50033332D02*
X141981927Y-50071428D01*
X141981927Y-50071428D02*
X141962880Y-50128571D01*
X141962880Y-50128571D02*
X141924784Y-50166666D01*
X141924784Y-50166666D02*
X141886689Y-50185713D01*
X141886689Y-50185713D02*
X141810499Y-50204761D01*
X141810499Y-50204761D02*
X141753356Y-50204761D01*
X141753356Y-50204761D02*
X141677165Y-50185713D01*
X141677165Y-50185713D02*
X141639070Y-50166666D01*
X141639070Y-50166666D02*
X141600975Y-50128571D01*
X141600975Y-50128571D02*
X141581927Y-50071428D01*
X141581927Y-50071428D02*
X141581927Y-50033332D01*
X141581927Y-50033332D02*
X141600975Y-49976190D01*
X141600975Y-49976190D02*
X141620022Y-49957142D01*
X141581927Y-49823809D02*
X141581927Y-49576190D01*
X141581927Y-49576190D02*
X141734308Y-49709523D01*
X141734308Y-49709523D02*
X141734308Y-49652380D01*
X141734308Y-49652380D02*
X141753356Y-49614285D01*
X141753356Y-49614285D02*
X141772403Y-49595237D01*
X141772403Y-49595237D02*
X141810499Y-49576190D01*
X141810499Y-49576190D02*
X141905737Y-49576190D01*
X141905737Y-49576190D02*
X141943832Y-49595237D01*
X141943832Y-49595237D02*
X141962880Y-49614285D01*
X141962880Y-49614285D02*
X141981927Y-49652380D01*
X141981927Y-49652380D02*
X141981927Y-49766666D01*
X141981927Y-49766666D02*
X141962880Y-49804761D01*
X141962880Y-49804761D02*
X141943832Y-49823809D01*
X141981927Y-49385714D02*
X141981927Y-49309523D01*
X141981927Y-49309523D02*
X141962880Y-49271428D01*
X141962880Y-49271428D02*
X141943832Y-49252380D01*
X141943832Y-49252380D02*
X141886689Y-49214285D01*
X141886689Y-49214285D02*
X141810499Y-49195238D01*
X141810499Y-49195238D02*
X141658118Y-49195238D01*
X141658118Y-49195238D02*
X141620022Y-49214285D01*
X141620022Y-49214285D02*
X141600975Y-49233333D01*
X141600975Y-49233333D02*
X141581927Y-49271428D01*
X141581927Y-49271428D02*
X141581927Y-49347619D01*
X141581927Y-49347619D02*
X141600975Y-49385714D01*
X141600975Y-49385714D02*
X141620022Y-49404761D01*
X141620022Y-49404761D02*
X141658118Y-49423809D01*
X141658118Y-49423809D02*
X141753356Y-49423809D01*
X141753356Y-49423809D02*
X141791451Y-49404761D01*
X141791451Y-49404761D02*
X141810499Y-49385714D01*
X141810499Y-49385714D02*
X141829546Y-49347619D01*
X141829546Y-49347619D02*
X141829546Y-49271428D01*
X141829546Y-49271428D02*
X141810499Y-49233333D01*
X141810499Y-49233333D02*
X141791451Y-49214285D01*
X141791451Y-49214285D02*
X141753356Y-49195238D01*
D10*
X150923666Y-76154819D02*
X150923666Y-76869104D01*
X150923666Y-76869104D02*
X150876047Y-77011961D01*
X150876047Y-77011961D02*
X150780809Y-77107200D01*
X150780809Y-77107200D02*
X150637952Y-77154819D01*
X150637952Y-77154819D02*
X150542714Y-77154819D01*
X151304619Y-76154819D02*
X151971285Y-76154819D01*
X151971285Y-76154819D02*
X151542714Y-77154819D01*
X123856666Y-52704819D02*
X123856666Y-53419104D01*
X123856666Y-53419104D02*
X123809047Y-53561961D01*
X123809047Y-53561961D02*
X123713809Y-53657200D01*
X123713809Y-53657200D02*
X123570952Y-53704819D01*
X123570952Y-53704819D02*
X123475714Y-53704819D01*
X124285238Y-52800057D02*
X124332857Y-52752438D01*
X124332857Y-52752438D02*
X124428095Y-52704819D01*
X124428095Y-52704819D02*
X124666190Y-52704819D01*
X124666190Y-52704819D02*
X124761428Y-52752438D01*
X124761428Y-52752438D02*
X124809047Y-52800057D01*
X124809047Y-52800057D02*
X124856666Y-52895295D01*
X124856666Y-52895295D02*
X124856666Y-52990533D01*
X124856666Y-52990533D02*
X124809047Y-53133390D01*
X124809047Y-53133390D02*
X124237619Y-53704819D01*
X124237619Y-53704819D02*
X124856666Y-53704819D01*
X128066666Y-72554819D02*
X128066666Y-73269104D01*
X128066666Y-73269104D02*
X128019047Y-73411961D01*
X128019047Y-73411961D02*
X127923809Y-73507200D01*
X127923809Y-73507200D02*
X127780952Y-73554819D01*
X127780952Y-73554819D02*
X127685714Y-73554819D01*
X128971428Y-72888152D02*
X128971428Y-73554819D01*
X128733333Y-72507200D02*
X128495238Y-73221485D01*
X128495238Y-73221485D02*
X129114285Y-73221485D01*
X158413095Y-61684819D02*
X158413095Y-62494342D01*
X158413095Y-62494342D02*
X158460714Y-62589580D01*
X158460714Y-62589580D02*
X158508333Y-62637200D01*
X158508333Y-62637200D02*
X158603571Y-62684819D01*
X158603571Y-62684819D02*
X158794047Y-62684819D01*
X158794047Y-62684819D02*
X158889285Y-62637200D01*
X158889285Y-62637200D02*
X158936904Y-62589580D01*
X158936904Y-62589580D02*
X158984523Y-62494342D01*
X158984523Y-62494342D02*
X158984523Y-61684819D01*
X159365476Y-61684819D02*
X159984523Y-61684819D01*
X159984523Y-61684819D02*
X159651190Y-62065771D01*
X159651190Y-62065771D02*
X159794047Y-62065771D01*
X159794047Y-62065771D02*
X159889285Y-62113390D01*
X159889285Y-62113390D02*
X159936904Y-62161009D01*
X159936904Y-62161009D02*
X159984523Y-62256247D01*
X159984523Y-62256247D02*
X159984523Y-62494342D01*
X159984523Y-62494342D02*
X159936904Y-62589580D01*
X159936904Y-62589580D02*
X159889285Y-62637200D01*
X159889285Y-62637200D02*
X159794047Y-62684819D01*
X159794047Y-62684819D02*
X159508333Y-62684819D01*
X159508333Y-62684819D02*
X159413095Y-62637200D01*
X159413095Y-62637200D02*
X159365476Y-62589580D01*
D11*
X160493832Y-69757142D02*
X160512880Y-69776190D01*
X160512880Y-69776190D02*
X160531927Y-69833332D01*
X160531927Y-69833332D02*
X160531927Y-69871428D01*
X160531927Y-69871428D02*
X160512880Y-69928571D01*
X160512880Y-69928571D02*
X160474784Y-69966666D01*
X160474784Y-69966666D02*
X160436689Y-69985713D01*
X160436689Y-69985713D02*
X160360499Y-70004761D01*
X160360499Y-70004761D02*
X160303356Y-70004761D01*
X160303356Y-70004761D02*
X160227165Y-69985713D01*
X160227165Y-69985713D02*
X160189070Y-69966666D01*
X160189070Y-69966666D02*
X160150975Y-69928571D01*
X160150975Y-69928571D02*
X160131927Y-69871428D01*
X160131927Y-69871428D02*
X160131927Y-69833332D01*
X160131927Y-69833332D02*
X160150975Y-69776190D01*
X160150975Y-69776190D02*
X160170022Y-69757142D01*
X160170022Y-69604761D02*
X160150975Y-69585713D01*
X160150975Y-69585713D02*
X160131927Y-69547618D01*
X160131927Y-69547618D02*
X160131927Y-69452380D01*
X160131927Y-69452380D02*
X160150975Y-69414285D01*
X160150975Y-69414285D02*
X160170022Y-69395237D01*
X160170022Y-69395237D02*
X160208118Y-69376190D01*
X160208118Y-69376190D02*
X160246213Y-69376190D01*
X160246213Y-69376190D02*
X160303356Y-69395237D01*
X160303356Y-69395237D02*
X160531927Y-69623809D01*
X160531927Y-69623809D02*
X160531927Y-69376190D01*
X160531927Y-68995238D02*
X160531927Y-69223809D01*
X160531927Y-69109523D02*
X160131927Y-69109523D01*
X160131927Y-69109523D02*
X160189070Y-69147619D01*
X160189070Y-69147619D02*
X160227165Y-69185714D01*
X160227165Y-69185714D02*
X160246213Y-69223809D01*
X152556332Y-53857142D02*
X152575380Y-53876190D01*
X152575380Y-53876190D02*
X152594427Y-53933332D01*
X152594427Y-53933332D02*
X152594427Y-53971428D01*
X152594427Y-53971428D02*
X152575380Y-54028571D01*
X152575380Y-54028571D02*
X152537284Y-54066666D01*
X152537284Y-54066666D02*
X152499189Y-54085713D01*
X152499189Y-54085713D02*
X152422999Y-54104761D01*
X152422999Y-54104761D02*
X152365856Y-54104761D01*
X152365856Y-54104761D02*
X152289665Y-54085713D01*
X152289665Y-54085713D02*
X152251570Y-54066666D01*
X152251570Y-54066666D02*
X152213475Y-54028571D01*
X152213475Y-54028571D02*
X152194427Y-53971428D01*
X152194427Y-53971428D02*
X152194427Y-53933332D01*
X152194427Y-53933332D02*
X152213475Y-53876190D01*
X152213475Y-53876190D02*
X152232522Y-53857142D01*
X152594427Y-53476190D02*
X152594427Y-53704761D01*
X152594427Y-53590475D02*
X152194427Y-53590475D01*
X152194427Y-53590475D02*
X152251570Y-53628571D01*
X152251570Y-53628571D02*
X152289665Y-53666666D01*
X152289665Y-53666666D02*
X152308713Y-53704761D01*
X152594427Y-53095238D02*
X152594427Y-53323809D01*
X152594427Y-53209523D02*
X152194427Y-53209523D01*
X152194427Y-53209523D02*
X152251570Y-53247619D01*
X152251570Y-53247619D02*
X152289665Y-53285714D01*
X152289665Y-53285714D02*
X152308713Y-53323809D01*
X152467857Y-61281927D02*
X152334524Y-61091451D01*
X152239286Y-61281927D02*
X152239286Y-60881927D01*
X152239286Y-60881927D02*
X152391667Y-60881927D01*
X152391667Y-60881927D02*
X152429762Y-60900975D01*
X152429762Y-60900975D02*
X152448809Y-60920022D01*
X152448809Y-60920022D02*
X152467857Y-60958118D01*
X152467857Y-60958118D02*
X152467857Y-61015260D01*
X152467857Y-61015260D02*
X152448809Y-61053356D01*
X152448809Y-61053356D02*
X152429762Y-61072403D01*
X152429762Y-61072403D02*
X152391667Y-61091451D01*
X152391667Y-61091451D02*
X152239286Y-61091451D01*
X152848809Y-61281927D02*
X152620238Y-61281927D01*
X152734524Y-61281927D02*
X152734524Y-60881927D01*
X152734524Y-60881927D02*
X152696428Y-60939070D01*
X152696428Y-60939070D02*
X152658333Y-60977165D01*
X152658333Y-60977165D02*
X152620238Y-60996213D01*
X152982142Y-60881927D02*
X153229761Y-60881927D01*
X153229761Y-60881927D02*
X153096428Y-61034308D01*
X153096428Y-61034308D02*
X153153571Y-61034308D01*
X153153571Y-61034308D02*
X153191666Y-61053356D01*
X153191666Y-61053356D02*
X153210714Y-61072403D01*
X153210714Y-61072403D02*
X153229761Y-61110499D01*
X153229761Y-61110499D02*
X153229761Y-61205737D01*
X153229761Y-61205737D02*
X153210714Y-61243832D01*
X153210714Y-61243832D02*
X153191666Y-61262880D01*
X153191666Y-61262880D02*
X153153571Y-61281927D01*
X153153571Y-61281927D02*
X153039285Y-61281927D01*
X153039285Y-61281927D02*
X153001190Y-61262880D01*
X153001190Y-61262880D02*
X152982142Y-61243832D01*
X167733032Y-68157142D02*
X167752080Y-68176190D01*
X167752080Y-68176190D02*
X167771127Y-68233332D01*
X167771127Y-68233332D02*
X167771127Y-68271428D01*
X167771127Y-68271428D02*
X167752080Y-68328571D01*
X167752080Y-68328571D02*
X167713984Y-68366666D01*
X167713984Y-68366666D02*
X167675889Y-68385713D01*
X167675889Y-68385713D02*
X167599699Y-68404761D01*
X167599699Y-68404761D02*
X167542556Y-68404761D01*
X167542556Y-68404761D02*
X167466365Y-68385713D01*
X167466365Y-68385713D02*
X167428270Y-68366666D01*
X167428270Y-68366666D02*
X167390175Y-68328571D01*
X167390175Y-68328571D02*
X167371127Y-68271428D01*
X167371127Y-68271428D02*
X167371127Y-68233332D01*
X167371127Y-68233332D02*
X167390175Y-68176190D01*
X167390175Y-68176190D02*
X167409222Y-68157142D01*
X167771127Y-67776190D02*
X167771127Y-68004761D01*
X167771127Y-67890475D02*
X167371127Y-67890475D01*
X167371127Y-67890475D02*
X167428270Y-67928571D01*
X167428270Y-67928571D02*
X167466365Y-67966666D01*
X167466365Y-67966666D02*
X167485413Y-68004761D01*
X167771127Y-67585714D02*
X167771127Y-67509523D01*
X167771127Y-67509523D02*
X167752080Y-67471428D01*
X167752080Y-67471428D02*
X167733032Y-67452380D01*
X167733032Y-67452380D02*
X167675889Y-67414285D01*
X167675889Y-67414285D02*
X167599699Y-67395238D01*
X167599699Y-67395238D02*
X167447318Y-67395238D01*
X167447318Y-67395238D02*
X167409222Y-67414285D01*
X167409222Y-67414285D02*
X167390175Y-67433333D01*
X167390175Y-67433333D02*
X167371127Y-67471428D01*
X167371127Y-67471428D02*
X167371127Y-67547619D01*
X167371127Y-67547619D02*
X167390175Y-67585714D01*
X167390175Y-67585714D02*
X167409222Y-67604761D01*
X167409222Y-67604761D02*
X167447318Y-67623809D01*
X167447318Y-67623809D02*
X167542556Y-67623809D01*
X167542556Y-67623809D02*
X167580651Y-67604761D01*
X167580651Y-67604761D02*
X167599699Y-67585714D01*
X167599699Y-67585714D02*
X167618746Y-67547619D01*
X167618746Y-67547619D02*
X167618746Y-67471428D01*
X167618746Y-67471428D02*
X167599699Y-67433333D01*
X167599699Y-67433333D02*
X167580651Y-67414285D01*
X167580651Y-67414285D02*
X167542556Y-67395238D01*
D13*
X168277149Y-54833333D02*
X168277149Y-55071428D01*
X168277149Y-55071428D02*
X167777149Y-55071428D01*
X167824768Y-54690475D02*
X167800959Y-54666666D01*
X167800959Y-54666666D02*
X167777149Y-54619047D01*
X167777149Y-54619047D02*
X167777149Y-54499999D01*
X167777149Y-54499999D02*
X167800959Y-54452380D01*
X167800959Y-54452380D02*
X167824768Y-54428571D01*
X167824768Y-54428571D02*
X167872387Y-54404761D01*
X167872387Y-54404761D02*
X167920006Y-54404761D01*
X167920006Y-54404761D02*
X167991435Y-54428571D01*
X167991435Y-54428571D02*
X168277149Y-54714285D01*
X168277149Y-54714285D02*
X168277149Y-54404761D01*
D11*
X147481927Y-70257142D02*
X147291451Y-70390475D01*
X147481927Y-70485713D02*
X147081927Y-70485713D01*
X147081927Y-70485713D02*
X147081927Y-70333332D01*
X147081927Y-70333332D02*
X147100975Y-70295237D01*
X147100975Y-70295237D02*
X147120022Y-70276190D01*
X147120022Y-70276190D02*
X147158118Y-70257142D01*
X147158118Y-70257142D02*
X147215260Y-70257142D01*
X147215260Y-70257142D02*
X147253356Y-70276190D01*
X147253356Y-70276190D02*
X147272403Y-70295237D01*
X147272403Y-70295237D02*
X147291451Y-70333332D01*
X147291451Y-70333332D02*
X147291451Y-70485713D01*
X147120022Y-70104761D02*
X147100975Y-70085713D01*
X147100975Y-70085713D02*
X147081927Y-70047618D01*
X147081927Y-70047618D02*
X147081927Y-69952380D01*
X147081927Y-69952380D02*
X147100975Y-69914285D01*
X147100975Y-69914285D02*
X147120022Y-69895237D01*
X147120022Y-69895237D02*
X147158118Y-69876190D01*
X147158118Y-69876190D02*
X147196213Y-69876190D01*
X147196213Y-69876190D02*
X147253356Y-69895237D01*
X147253356Y-69895237D02*
X147481927Y-70123809D01*
X147481927Y-70123809D02*
X147481927Y-69876190D01*
X147081927Y-69628571D02*
X147081927Y-69590476D01*
X147081927Y-69590476D02*
X147100975Y-69552380D01*
X147100975Y-69552380D02*
X147120022Y-69533333D01*
X147120022Y-69533333D02*
X147158118Y-69514285D01*
X147158118Y-69514285D02*
X147234308Y-69495238D01*
X147234308Y-69495238D02*
X147329546Y-69495238D01*
X147329546Y-69495238D02*
X147405737Y-69514285D01*
X147405737Y-69514285D02*
X147443832Y-69533333D01*
X147443832Y-69533333D02*
X147462880Y-69552380D01*
X147462880Y-69552380D02*
X147481927Y-69590476D01*
X147481927Y-69590476D02*
X147481927Y-69628571D01*
X147481927Y-69628571D02*
X147462880Y-69666666D01*
X147462880Y-69666666D02*
X147443832Y-69685714D01*
X147443832Y-69685714D02*
X147405737Y-69704761D01*
X147405737Y-69704761D02*
X147329546Y-69723809D01*
X147329546Y-69723809D02*
X147234308Y-69723809D01*
X147234308Y-69723809D02*
X147158118Y-69704761D01*
X147158118Y-69704761D02*
X147120022Y-69685714D01*
X147120022Y-69685714D02*
X147100975Y-69666666D01*
X147100975Y-69666666D02*
X147081927Y-69628571D01*
X176033333Y-58331927D02*
X175900000Y-58141451D01*
X175804762Y-58331927D02*
X175804762Y-57931927D01*
X175804762Y-57931927D02*
X175957143Y-57931927D01*
X175957143Y-57931927D02*
X175995238Y-57950975D01*
X175995238Y-57950975D02*
X176014285Y-57970022D01*
X176014285Y-57970022D02*
X176033333Y-58008118D01*
X176033333Y-58008118D02*
X176033333Y-58065260D01*
X176033333Y-58065260D02*
X176014285Y-58103356D01*
X176014285Y-58103356D02*
X175995238Y-58122403D01*
X175995238Y-58122403D02*
X175957143Y-58141451D01*
X175957143Y-58141451D02*
X175804762Y-58141451D01*
X176166666Y-57931927D02*
X176433333Y-57931927D01*
X176433333Y-57931927D02*
X176261904Y-58331927D01*
X143392857Y-55193832D02*
X143373809Y-55212880D01*
X143373809Y-55212880D02*
X143316667Y-55231927D01*
X143316667Y-55231927D02*
X143278571Y-55231927D01*
X143278571Y-55231927D02*
X143221428Y-55212880D01*
X143221428Y-55212880D02*
X143183333Y-55174784D01*
X143183333Y-55174784D02*
X143164286Y-55136689D01*
X143164286Y-55136689D02*
X143145238Y-55060499D01*
X143145238Y-55060499D02*
X143145238Y-55003356D01*
X143145238Y-55003356D02*
X143164286Y-54927165D01*
X143164286Y-54927165D02*
X143183333Y-54889070D01*
X143183333Y-54889070D02*
X143221428Y-54850975D01*
X143221428Y-54850975D02*
X143278571Y-54831927D01*
X143278571Y-54831927D02*
X143316667Y-54831927D01*
X143316667Y-54831927D02*
X143373809Y-54850975D01*
X143373809Y-54850975D02*
X143392857Y-54870022D01*
X143735714Y-54965260D02*
X143735714Y-55231927D01*
X143640476Y-54812880D02*
X143545238Y-55098594D01*
X143545238Y-55098594D02*
X143792857Y-55098594D01*
X144154761Y-55231927D02*
X143926190Y-55231927D01*
X144040476Y-55231927D02*
X144040476Y-54831927D01*
X144040476Y-54831927D02*
X144002380Y-54889070D01*
X144002380Y-54889070D02*
X143964285Y-54927165D01*
X143964285Y-54927165D02*
X143926190Y-54946213D01*
X170493832Y-53516666D02*
X170512880Y-53535714D01*
X170512880Y-53535714D02*
X170531927Y-53592856D01*
X170531927Y-53592856D02*
X170531927Y-53630952D01*
X170531927Y-53630952D02*
X170512880Y-53688095D01*
X170512880Y-53688095D02*
X170474784Y-53726190D01*
X170474784Y-53726190D02*
X170436689Y-53745237D01*
X170436689Y-53745237D02*
X170360499Y-53764285D01*
X170360499Y-53764285D02*
X170303356Y-53764285D01*
X170303356Y-53764285D02*
X170227165Y-53745237D01*
X170227165Y-53745237D02*
X170189070Y-53726190D01*
X170189070Y-53726190D02*
X170150975Y-53688095D01*
X170150975Y-53688095D02*
X170131927Y-53630952D01*
X170131927Y-53630952D02*
X170131927Y-53592856D01*
X170131927Y-53592856D02*
X170150975Y-53535714D01*
X170150975Y-53535714D02*
X170170022Y-53516666D01*
X170131927Y-53383333D02*
X170131927Y-53116666D01*
X170131927Y-53116666D02*
X170531927Y-53288095D01*
X140443832Y-49957142D02*
X140462880Y-49976190D01*
X140462880Y-49976190D02*
X140481927Y-50033332D01*
X140481927Y-50033332D02*
X140481927Y-50071428D01*
X140481927Y-50071428D02*
X140462880Y-50128571D01*
X140462880Y-50128571D02*
X140424784Y-50166666D01*
X140424784Y-50166666D02*
X140386689Y-50185713D01*
X140386689Y-50185713D02*
X140310499Y-50204761D01*
X140310499Y-50204761D02*
X140253356Y-50204761D01*
X140253356Y-50204761D02*
X140177165Y-50185713D01*
X140177165Y-50185713D02*
X140139070Y-50166666D01*
X140139070Y-50166666D02*
X140100975Y-50128571D01*
X140100975Y-50128571D02*
X140081927Y-50071428D01*
X140081927Y-50071428D02*
X140081927Y-50033332D01*
X140081927Y-50033332D02*
X140100975Y-49976190D01*
X140100975Y-49976190D02*
X140120022Y-49957142D01*
X140081927Y-49823809D02*
X140081927Y-49576190D01*
X140081927Y-49576190D02*
X140234308Y-49709523D01*
X140234308Y-49709523D02*
X140234308Y-49652380D01*
X140234308Y-49652380D02*
X140253356Y-49614285D01*
X140253356Y-49614285D02*
X140272403Y-49595237D01*
X140272403Y-49595237D02*
X140310499Y-49576190D01*
X140310499Y-49576190D02*
X140405737Y-49576190D01*
X140405737Y-49576190D02*
X140443832Y-49595237D01*
X140443832Y-49595237D02*
X140462880Y-49614285D01*
X140462880Y-49614285D02*
X140481927Y-49652380D01*
X140481927Y-49652380D02*
X140481927Y-49766666D01*
X140481927Y-49766666D02*
X140462880Y-49804761D01*
X140462880Y-49804761D02*
X140443832Y-49823809D01*
X140253356Y-49347619D02*
X140234308Y-49385714D01*
X140234308Y-49385714D02*
X140215260Y-49404761D01*
X140215260Y-49404761D02*
X140177165Y-49423809D01*
X140177165Y-49423809D02*
X140158118Y-49423809D01*
X140158118Y-49423809D02*
X140120022Y-49404761D01*
X140120022Y-49404761D02*
X140100975Y-49385714D01*
X140100975Y-49385714D02*
X140081927Y-49347619D01*
X140081927Y-49347619D02*
X140081927Y-49271428D01*
X140081927Y-49271428D02*
X140100975Y-49233333D01*
X140100975Y-49233333D02*
X140120022Y-49214285D01*
X140120022Y-49214285D02*
X140158118Y-49195238D01*
X140158118Y-49195238D02*
X140177165Y-49195238D01*
X140177165Y-49195238D02*
X140215260Y-49214285D01*
X140215260Y-49214285D02*
X140234308Y-49233333D01*
X140234308Y-49233333D02*
X140253356Y-49271428D01*
X140253356Y-49271428D02*
X140253356Y-49347619D01*
X140253356Y-49347619D02*
X140272403Y-49385714D01*
X140272403Y-49385714D02*
X140291451Y-49404761D01*
X140291451Y-49404761D02*
X140329546Y-49423809D01*
X140329546Y-49423809D02*
X140405737Y-49423809D01*
X140405737Y-49423809D02*
X140443832Y-49404761D01*
X140443832Y-49404761D02*
X140462880Y-49385714D01*
X140462880Y-49385714D02*
X140481927Y-49347619D01*
X140481927Y-49347619D02*
X140481927Y-49271428D01*
X140481927Y-49271428D02*
X140462880Y-49233333D01*
X140462880Y-49233333D02*
X140443832Y-49214285D01*
X140443832Y-49214285D02*
X140405737Y-49195238D01*
X140405737Y-49195238D02*
X140329546Y-49195238D01*
X140329546Y-49195238D02*
X140291451Y-49214285D01*
X140291451Y-49214285D02*
X140272403Y-49233333D01*
X140272403Y-49233333D02*
X140253356Y-49271428D01*
X152467857Y-62743832D02*
X152448809Y-62762880D01*
X152448809Y-62762880D02*
X152391667Y-62781927D01*
X152391667Y-62781927D02*
X152353571Y-62781927D01*
X152353571Y-62781927D02*
X152296428Y-62762880D01*
X152296428Y-62762880D02*
X152258333Y-62724784D01*
X152258333Y-62724784D02*
X152239286Y-62686689D01*
X152239286Y-62686689D02*
X152220238Y-62610499D01*
X152220238Y-62610499D02*
X152220238Y-62553356D01*
X152220238Y-62553356D02*
X152239286Y-62477165D01*
X152239286Y-62477165D02*
X152258333Y-62439070D01*
X152258333Y-62439070D02*
X152296428Y-62400975D01*
X152296428Y-62400975D02*
X152353571Y-62381927D01*
X152353571Y-62381927D02*
X152391667Y-62381927D01*
X152391667Y-62381927D02*
X152448809Y-62400975D01*
X152448809Y-62400975D02*
X152467857Y-62420022D01*
X152620238Y-62420022D02*
X152639286Y-62400975D01*
X152639286Y-62400975D02*
X152677381Y-62381927D01*
X152677381Y-62381927D02*
X152772619Y-62381927D01*
X152772619Y-62381927D02*
X152810714Y-62400975D01*
X152810714Y-62400975D02*
X152829762Y-62420022D01*
X152829762Y-62420022D02*
X152848809Y-62458118D01*
X152848809Y-62458118D02*
X152848809Y-62496213D01*
X152848809Y-62496213D02*
X152829762Y-62553356D01*
X152829762Y-62553356D02*
X152601190Y-62781927D01*
X152601190Y-62781927D02*
X152848809Y-62781927D01*
X153039285Y-62781927D02*
X153115476Y-62781927D01*
X153115476Y-62781927D02*
X153153571Y-62762880D01*
X153153571Y-62762880D02*
X153172619Y-62743832D01*
X153172619Y-62743832D02*
X153210714Y-62686689D01*
X153210714Y-62686689D02*
X153229761Y-62610499D01*
X153229761Y-62610499D02*
X153229761Y-62458118D01*
X153229761Y-62458118D02*
X153210714Y-62420022D01*
X153210714Y-62420022D02*
X153191666Y-62400975D01*
X153191666Y-62400975D02*
X153153571Y-62381927D01*
X153153571Y-62381927D02*
X153077380Y-62381927D01*
X153077380Y-62381927D02*
X153039285Y-62400975D01*
X153039285Y-62400975D02*
X153020238Y-62420022D01*
X153020238Y-62420022D02*
X153001190Y-62458118D01*
X153001190Y-62458118D02*
X153001190Y-62553356D01*
X153001190Y-62553356D02*
X153020238Y-62591451D01*
X153020238Y-62591451D02*
X153039285Y-62610499D01*
X153039285Y-62610499D02*
X153077380Y-62629546D01*
X153077380Y-62629546D02*
X153153571Y-62629546D01*
X153153571Y-62629546D02*
X153191666Y-62610499D01*
X153191666Y-62610499D02*
X153210714Y-62591451D01*
X153210714Y-62591451D02*
X153229761Y-62553356D01*
X133742857Y-53743832D02*
X133723809Y-53762880D01*
X133723809Y-53762880D02*
X133666667Y-53781927D01*
X133666667Y-53781927D02*
X133628571Y-53781927D01*
X133628571Y-53781927D02*
X133571428Y-53762880D01*
X133571428Y-53762880D02*
X133533333Y-53724784D01*
X133533333Y-53724784D02*
X133514286Y-53686689D01*
X133514286Y-53686689D02*
X133495238Y-53610499D01*
X133495238Y-53610499D02*
X133495238Y-53553356D01*
X133495238Y-53553356D02*
X133514286Y-53477165D01*
X133514286Y-53477165D02*
X133533333Y-53439070D01*
X133533333Y-53439070D02*
X133571428Y-53400975D01*
X133571428Y-53400975D02*
X133628571Y-53381927D01*
X133628571Y-53381927D02*
X133666667Y-53381927D01*
X133666667Y-53381927D02*
X133723809Y-53400975D01*
X133723809Y-53400975D02*
X133742857Y-53420022D01*
X133876190Y-53381927D02*
X134123809Y-53381927D01*
X134123809Y-53381927D02*
X133990476Y-53534308D01*
X133990476Y-53534308D02*
X134047619Y-53534308D01*
X134047619Y-53534308D02*
X134085714Y-53553356D01*
X134085714Y-53553356D02*
X134104762Y-53572403D01*
X134104762Y-53572403D02*
X134123809Y-53610499D01*
X134123809Y-53610499D02*
X134123809Y-53705737D01*
X134123809Y-53705737D02*
X134104762Y-53743832D01*
X134104762Y-53743832D02*
X134085714Y-53762880D01*
X134085714Y-53762880D02*
X134047619Y-53781927D01*
X134047619Y-53781927D02*
X133933333Y-53781927D01*
X133933333Y-53781927D02*
X133895238Y-53762880D01*
X133895238Y-53762880D02*
X133876190Y-53743832D01*
X134466666Y-53515260D02*
X134466666Y-53781927D01*
X134371428Y-53362880D02*
X134276190Y-53648594D01*
X134276190Y-53648594D02*
X134523809Y-53648594D01*
X133666667Y-51972403D02*
X133533334Y-51972403D01*
X133533334Y-52181927D02*
X133533334Y-51781927D01*
X133533334Y-51781927D02*
X133723810Y-51781927D01*
X134009524Y-51972403D02*
X134066667Y-51991451D01*
X134066667Y-51991451D02*
X134085714Y-52010499D01*
X134085714Y-52010499D02*
X134104762Y-52048594D01*
X134104762Y-52048594D02*
X134104762Y-52105737D01*
X134104762Y-52105737D02*
X134085714Y-52143832D01*
X134085714Y-52143832D02*
X134066667Y-52162880D01*
X134066667Y-52162880D02*
X134028572Y-52181927D01*
X134028572Y-52181927D02*
X133876191Y-52181927D01*
X133876191Y-52181927D02*
X133876191Y-51781927D01*
X133876191Y-51781927D02*
X134009524Y-51781927D01*
X134009524Y-51781927D02*
X134047619Y-51800975D01*
X134047619Y-51800975D02*
X134066667Y-51820022D01*
X134066667Y-51820022D02*
X134085714Y-51858118D01*
X134085714Y-51858118D02*
X134085714Y-51896213D01*
X134085714Y-51896213D02*
X134066667Y-51934308D01*
X134066667Y-51934308D02*
X134047619Y-51953356D01*
X134047619Y-51953356D02*
X134009524Y-51972403D01*
X134009524Y-51972403D02*
X133876191Y-51972403D01*
X134238095Y-51781927D02*
X134485714Y-51781927D01*
X134485714Y-51781927D02*
X134352381Y-51934308D01*
X134352381Y-51934308D02*
X134409524Y-51934308D01*
X134409524Y-51934308D02*
X134447619Y-51953356D01*
X134447619Y-51953356D02*
X134466667Y-51972403D01*
X134466667Y-51972403D02*
X134485714Y-52010499D01*
X134485714Y-52010499D02*
X134485714Y-52105737D01*
X134485714Y-52105737D02*
X134466667Y-52143832D01*
X134466667Y-52143832D02*
X134447619Y-52162880D01*
X134447619Y-52162880D02*
X134409524Y-52181927D01*
X134409524Y-52181927D02*
X134295238Y-52181927D01*
X134295238Y-52181927D02*
X134257143Y-52162880D01*
X134257143Y-52162880D02*
X134238095Y-52143832D01*
X145981927Y-70257142D02*
X145791451Y-70390475D01*
X145981927Y-70485713D02*
X145581927Y-70485713D01*
X145581927Y-70485713D02*
X145581927Y-70333332D01*
X145581927Y-70333332D02*
X145600975Y-70295237D01*
X145600975Y-70295237D02*
X145620022Y-70276190D01*
X145620022Y-70276190D02*
X145658118Y-70257142D01*
X145658118Y-70257142D02*
X145715260Y-70257142D01*
X145715260Y-70257142D02*
X145753356Y-70276190D01*
X145753356Y-70276190D02*
X145772403Y-70295237D01*
X145772403Y-70295237D02*
X145791451Y-70333332D01*
X145791451Y-70333332D02*
X145791451Y-70485713D01*
X145620022Y-70104761D02*
X145600975Y-70085713D01*
X145600975Y-70085713D02*
X145581927Y-70047618D01*
X145581927Y-70047618D02*
X145581927Y-69952380D01*
X145581927Y-69952380D02*
X145600975Y-69914285D01*
X145600975Y-69914285D02*
X145620022Y-69895237D01*
X145620022Y-69895237D02*
X145658118Y-69876190D01*
X145658118Y-69876190D02*
X145696213Y-69876190D01*
X145696213Y-69876190D02*
X145753356Y-69895237D01*
X145753356Y-69895237D02*
X145981927Y-70123809D01*
X145981927Y-70123809D02*
X145981927Y-69876190D01*
X145981927Y-69495238D02*
X145981927Y-69723809D01*
X145981927Y-69609523D02*
X145581927Y-69609523D01*
X145581927Y-69609523D02*
X145639070Y-69647619D01*
X145639070Y-69647619D02*
X145677165Y-69685714D01*
X145677165Y-69685714D02*
X145696213Y-69723809D01*
X127133333Y-60581927D02*
X127000000Y-60391451D01*
X126904762Y-60581927D02*
X126904762Y-60181927D01*
X126904762Y-60181927D02*
X127057143Y-60181927D01*
X127057143Y-60181927D02*
X127095238Y-60200975D01*
X127095238Y-60200975D02*
X127114285Y-60220022D01*
X127114285Y-60220022D02*
X127133333Y-60258118D01*
X127133333Y-60258118D02*
X127133333Y-60315260D01*
X127133333Y-60315260D02*
X127114285Y-60353356D01*
X127114285Y-60353356D02*
X127095238Y-60372403D01*
X127095238Y-60372403D02*
X127057143Y-60391451D01*
X127057143Y-60391451D02*
X126904762Y-60391451D01*
X127514285Y-60581927D02*
X127285714Y-60581927D01*
X127400000Y-60581927D02*
X127400000Y-60181927D01*
X127400000Y-60181927D02*
X127361904Y-60239070D01*
X127361904Y-60239070D02*
X127323809Y-60277165D01*
X127323809Y-60277165D02*
X127285714Y-60296213D01*
X164443832Y-55257142D02*
X164462880Y-55276190D01*
X164462880Y-55276190D02*
X164481927Y-55333332D01*
X164481927Y-55333332D02*
X164481927Y-55371428D01*
X164481927Y-55371428D02*
X164462880Y-55428571D01*
X164462880Y-55428571D02*
X164424784Y-55466666D01*
X164424784Y-55466666D02*
X164386689Y-55485713D01*
X164386689Y-55485713D02*
X164310499Y-55504761D01*
X164310499Y-55504761D02*
X164253356Y-55504761D01*
X164253356Y-55504761D02*
X164177165Y-55485713D01*
X164177165Y-55485713D02*
X164139070Y-55466666D01*
X164139070Y-55466666D02*
X164100975Y-55428571D01*
X164100975Y-55428571D02*
X164081927Y-55371428D01*
X164081927Y-55371428D02*
X164081927Y-55333332D01*
X164081927Y-55333332D02*
X164100975Y-55276190D01*
X164100975Y-55276190D02*
X164120022Y-55257142D01*
X164481927Y-54876190D02*
X164481927Y-55104761D01*
X164481927Y-54990475D02*
X164081927Y-54990475D01*
X164081927Y-54990475D02*
X164139070Y-55028571D01*
X164139070Y-55028571D02*
X164177165Y-55066666D01*
X164177165Y-55066666D02*
X164196213Y-55104761D01*
X164081927Y-54628571D02*
X164081927Y-54590476D01*
X164081927Y-54590476D02*
X164100975Y-54552380D01*
X164100975Y-54552380D02*
X164120022Y-54533333D01*
X164120022Y-54533333D02*
X164158118Y-54514285D01*
X164158118Y-54514285D02*
X164234308Y-54495238D01*
X164234308Y-54495238D02*
X164329546Y-54495238D01*
X164329546Y-54495238D02*
X164405737Y-54514285D01*
X164405737Y-54514285D02*
X164443832Y-54533333D01*
X164443832Y-54533333D02*
X164462880Y-54552380D01*
X164462880Y-54552380D02*
X164481927Y-54590476D01*
X164481927Y-54590476D02*
X164481927Y-54628571D01*
X164481927Y-54628571D02*
X164462880Y-54666666D01*
X164462880Y-54666666D02*
X164443832Y-54685714D01*
X164443832Y-54685714D02*
X164405737Y-54704761D01*
X164405737Y-54704761D02*
X164329546Y-54723809D01*
X164329546Y-54723809D02*
X164234308Y-54723809D01*
X164234308Y-54723809D02*
X164158118Y-54704761D01*
X164158118Y-54704761D02*
X164120022Y-54685714D01*
X164120022Y-54685714D02*
X164100975Y-54666666D01*
X164100975Y-54666666D02*
X164081927Y-54628571D01*
D15*
X162866667Y-69485040D02*
X162866667Y-69818373D01*
X162633333Y-69118373D02*
X162866667Y-69485040D01*
X162866667Y-69485040D02*
X163100000Y-69118373D01*
X163700000Y-69818373D02*
X163300000Y-69818373D01*
X163500000Y-69818373D02*
X163500000Y-69118373D01*
X163500000Y-69118373D02*
X163433333Y-69218373D01*
X163433333Y-69218373D02*
X163366667Y-69285040D01*
X163366667Y-69285040D02*
X163300000Y-69318373D01*
D13*
X157029166Y-53827149D02*
X156791071Y-53827149D01*
X156791071Y-53827149D02*
X156791071Y-53327149D01*
X157148214Y-53327149D02*
X157457738Y-53327149D01*
X157457738Y-53327149D02*
X157291071Y-53517625D01*
X157291071Y-53517625D02*
X157362500Y-53517625D01*
X157362500Y-53517625D02*
X157410119Y-53541435D01*
X157410119Y-53541435D02*
X157433928Y-53565244D01*
X157433928Y-53565244D02*
X157457738Y-53612863D01*
X157457738Y-53612863D02*
X157457738Y-53731911D01*
X157457738Y-53731911D02*
X157433928Y-53779530D01*
X157433928Y-53779530D02*
X157410119Y-53803340D01*
X157410119Y-53803340D02*
X157362500Y-53827149D01*
X157362500Y-53827149D02*
X157219643Y-53827149D01*
X157219643Y-53827149D02*
X157172024Y-53803340D01*
X157172024Y-53803340D02*
X157148214Y-53779530D01*
D11*
X146266667Y-67122403D02*
X146133334Y-67122403D01*
X146133334Y-67331927D02*
X146133334Y-66931927D01*
X146133334Y-66931927D02*
X146323810Y-66931927D01*
X146609524Y-67122403D02*
X146666667Y-67141451D01*
X146666667Y-67141451D02*
X146685714Y-67160499D01*
X146685714Y-67160499D02*
X146704762Y-67198594D01*
X146704762Y-67198594D02*
X146704762Y-67255737D01*
X146704762Y-67255737D02*
X146685714Y-67293832D01*
X146685714Y-67293832D02*
X146666667Y-67312880D01*
X146666667Y-67312880D02*
X146628572Y-67331927D01*
X146628572Y-67331927D02*
X146476191Y-67331927D01*
X146476191Y-67331927D02*
X146476191Y-66931927D01*
X146476191Y-66931927D02*
X146609524Y-66931927D01*
X146609524Y-66931927D02*
X146647619Y-66950975D01*
X146647619Y-66950975D02*
X146666667Y-66970022D01*
X146666667Y-66970022D02*
X146685714Y-67008118D01*
X146685714Y-67008118D02*
X146685714Y-67046213D01*
X146685714Y-67046213D02*
X146666667Y-67084308D01*
X146666667Y-67084308D02*
X146647619Y-67103356D01*
X146647619Y-67103356D02*
X146609524Y-67122403D01*
X146609524Y-67122403D02*
X146476191Y-67122403D01*
X146857143Y-66970022D02*
X146876191Y-66950975D01*
X146876191Y-66950975D02*
X146914286Y-66931927D01*
X146914286Y-66931927D02*
X147009524Y-66931927D01*
X147009524Y-66931927D02*
X147047619Y-66950975D01*
X147047619Y-66950975D02*
X147066667Y-66970022D01*
X147066667Y-66970022D02*
X147085714Y-67008118D01*
X147085714Y-67008118D02*
X147085714Y-67046213D01*
X147085714Y-67046213D02*
X147066667Y-67103356D01*
X147066667Y-67103356D02*
X146838095Y-67331927D01*
X146838095Y-67331927D02*
X147085714Y-67331927D01*
X178416467Y-66769877D02*
X178389530Y-66769877D01*
X178389530Y-66769877D02*
X178335655Y-66742940D01*
X178335655Y-66742940D02*
X178308718Y-66716002D01*
X178308718Y-66716002D02*
X178281780Y-66662128D01*
X178281780Y-66662128D02*
X178281780Y-66608253D01*
X178281780Y-66608253D02*
X178295249Y-66567847D01*
X178295249Y-66567847D02*
X178335655Y-66500503D01*
X178335655Y-66500503D02*
X178376061Y-66460097D01*
X178376061Y-66460097D02*
X178443405Y-66419691D01*
X178443405Y-66419691D02*
X178483811Y-66406222D01*
X178483811Y-66406222D02*
X178537686Y-66406222D01*
X178537686Y-66406222D02*
X178591561Y-66433160D01*
X178591561Y-66433160D02*
X178618498Y-66460097D01*
X178618498Y-66460097D02*
X178645435Y-66513972D01*
X178645435Y-66513972D02*
X178645435Y-66540909D01*
X178658904Y-67066189D02*
X178497280Y-66904564D01*
X178578092Y-66985376D02*
X178860935Y-66702534D01*
X178860935Y-66702534D02*
X178793591Y-66716002D01*
X178793591Y-66716002D02*
X178739716Y-66716002D01*
X178739716Y-66716002D02*
X178699310Y-66702534D01*
X179089902Y-67120063D02*
X178901340Y-67308625D01*
X179130308Y-66944970D02*
X178860934Y-67079657D01*
X178860934Y-67079657D02*
X179036027Y-67254750D01*
X144381927Y-64207142D02*
X144191451Y-64340475D01*
X144381927Y-64435713D02*
X143981927Y-64435713D01*
X143981927Y-64435713D02*
X143981927Y-64283332D01*
X143981927Y-64283332D02*
X144000975Y-64245237D01*
X144000975Y-64245237D02*
X144020022Y-64226190D01*
X144020022Y-64226190D02*
X144058118Y-64207142D01*
X144058118Y-64207142D02*
X144115260Y-64207142D01*
X144115260Y-64207142D02*
X144153356Y-64226190D01*
X144153356Y-64226190D02*
X144172403Y-64245237D01*
X144172403Y-64245237D02*
X144191451Y-64283332D01*
X144191451Y-64283332D02*
X144191451Y-64435713D01*
X144020022Y-64054761D02*
X144000975Y-64035713D01*
X144000975Y-64035713D02*
X143981927Y-63997618D01*
X143981927Y-63997618D02*
X143981927Y-63902380D01*
X143981927Y-63902380D02*
X144000975Y-63864285D01*
X144000975Y-63864285D02*
X144020022Y-63845237D01*
X144020022Y-63845237D02*
X144058118Y-63826190D01*
X144058118Y-63826190D02*
X144096213Y-63826190D01*
X144096213Y-63826190D02*
X144153356Y-63845237D01*
X144153356Y-63845237D02*
X144381927Y-64073809D01*
X144381927Y-64073809D02*
X144381927Y-63826190D01*
X144020022Y-63673809D02*
X144000975Y-63654761D01*
X144000975Y-63654761D02*
X143981927Y-63616666D01*
X143981927Y-63616666D02*
X143981927Y-63521428D01*
X143981927Y-63521428D02*
X144000975Y-63483333D01*
X144000975Y-63483333D02*
X144020022Y-63464285D01*
X144020022Y-63464285D02*
X144058118Y-63445238D01*
X144058118Y-63445238D02*
X144096213Y-63445238D01*
X144096213Y-63445238D02*
X144153356Y-63464285D01*
X144153356Y-63464285D02*
X144381927Y-63692857D01*
X144381927Y-63692857D02*
X144381927Y-63445238D01*
X119133333Y-57581927D02*
X119000000Y-57391451D01*
X118904762Y-57581927D02*
X118904762Y-57181927D01*
X118904762Y-57181927D02*
X119057143Y-57181927D01*
X119057143Y-57181927D02*
X119095238Y-57200975D01*
X119095238Y-57200975D02*
X119114285Y-57220022D01*
X119114285Y-57220022D02*
X119133333Y-57258118D01*
X119133333Y-57258118D02*
X119133333Y-57315260D01*
X119133333Y-57315260D02*
X119114285Y-57353356D01*
X119114285Y-57353356D02*
X119095238Y-57372403D01*
X119095238Y-57372403D02*
X119057143Y-57391451D01*
X119057143Y-57391451D02*
X118904762Y-57391451D01*
X119266666Y-57181927D02*
X119514285Y-57181927D01*
X119514285Y-57181927D02*
X119380952Y-57334308D01*
X119380952Y-57334308D02*
X119438095Y-57334308D01*
X119438095Y-57334308D02*
X119476190Y-57353356D01*
X119476190Y-57353356D02*
X119495238Y-57372403D01*
X119495238Y-57372403D02*
X119514285Y-57410499D01*
X119514285Y-57410499D02*
X119514285Y-57505737D01*
X119514285Y-57505737D02*
X119495238Y-57543832D01*
X119495238Y-57543832D02*
X119476190Y-57562880D01*
X119476190Y-57562880D02*
X119438095Y-57581927D01*
X119438095Y-57581927D02*
X119323809Y-57581927D01*
X119323809Y-57581927D02*
X119285714Y-57562880D01*
X119285714Y-57562880D02*
X119266666Y-57543832D01*
X119133333Y-55931927D02*
X119000000Y-55741451D01*
X118904762Y-55931927D02*
X118904762Y-55531927D01*
X118904762Y-55531927D02*
X119057143Y-55531927D01*
X119057143Y-55531927D02*
X119095238Y-55550975D01*
X119095238Y-55550975D02*
X119114285Y-55570022D01*
X119114285Y-55570022D02*
X119133333Y-55608118D01*
X119133333Y-55608118D02*
X119133333Y-55665260D01*
X119133333Y-55665260D02*
X119114285Y-55703356D01*
X119114285Y-55703356D02*
X119095238Y-55722403D01*
X119095238Y-55722403D02*
X119057143Y-55741451D01*
X119057143Y-55741451D02*
X118904762Y-55741451D01*
X119495238Y-55531927D02*
X119304762Y-55531927D01*
X119304762Y-55531927D02*
X119285714Y-55722403D01*
X119285714Y-55722403D02*
X119304762Y-55703356D01*
X119304762Y-55703356D02*
X119342857Y-55684308D01*
X119342857Y-55684308D02*
X119438095Y-55684308D01*
X119438095Y-55684308D02*
X119476190Y-55703356D01*
X119476190Y-55703356D02*
X119495238Y-55722403D01*
X119495238Y-55722403D02*
X119514285Y-55760499D01*
X119514285Y-55760499D02*
X119514285Y-55855737D01*
X119514285Y-55855737D02*
X119495238Y-55893832D01*
X119495238Y-55893832D02*
X119476190Y-55912880D01*
X119476190Y-55912880D02*
X119438095Y-55931927D01*
X119438095Y-55931927D02*
X119342857Y-55931927D01*
X119342857Y-55931927D02*
X119304762Y-55912880D01*
X119304762Y-55912880D02*
X119285714Y-55893832D01*
X141892857Y-74381927D02*
X141759524Y-74191451D01*
X141664286Y-74381927D02*
X141664286Y-73981927D01*
X141664286Y-73981927D02*
X141816667Y-73981927D01*
X141816667Y-73981927D02*
X141854762Y-74000975D01*
X141854762Y-74000975D02*
X141873809Y-74020022D01*
X141873809Y-74020022D02*
X141892857Y-74058118D01*
X141892857Y-74058118D02*
X141892857Y-74115260D01*
X141892857Y-74115260D02*
X141873809Y-74153356D01*
X141873809Y-74153356D02*
X141854762Y-74172403D01*
X141854762Y-74172403D02*
X141816667Y-74191451D01*
X141816667Y-74191451D02*
X141664286Y-74191451D01*
X142273809Y-74381927D02*
X142045238Y-74381927D01*
X142159524Y-74381927D02*
X142159524Y-73981927D01*
X142159524Y-73981927D02*
X142121428Y-74039070D01*
X142121428Y-74039070D02*
X142083333Y-74077165D01*
X142083333Y-74077165D02*
X142045238Y-74096213D01*
X142521428Y-73981927D02*
X142559523Y-73981927D01*
X142559523Y-73981927D02*
X142597619Y-74000975D01*
X142597619Y-74000975D02*
X142616666Y-74020022D01*
X142616666Y-74020022D02*
X142635714Y-74058118D01*
X142635714Y-74058118D02*
X142654761Y-74134308D01*
X142654761Y-74134308D02*
X142654761Y-74229546D01*
X142654761Y-74229546D02*
X142635714Y-74305737D01*
X142635714Y-74305737D02*
X142616666Y-74343832D01*
X142616666Y-74343832D02*
X142597619Y-74362880D01*
X142597619Y-74362880D02*
X142559523Y-74381927D01*
X142559523Y-74381927D02*
X142521428Y-74381927D01*
X142521428Y-74381927D02*
X142483333Y-74362880D01*
X142483333Y-74362880D02*
X142464285Y-74343832D01*
X142464285Y-74343832D02*
X142445238Y-74305737D01*
X142445238Y-74305737D02*
X142426190Y-74229546D01*
X142426190Y-74229546D02*
X142426190Y-74134308D01*
X142426190Y-74134308D02*
X142445238Y-74058118D01*
X142445238Y-74058118D02*
X142464285Y-74020022D01*
X142464285Y-74020022D02*
X142483333Y-74000975D01*
X142483333Y-74000975D02*
X142521428Y-73981927D01*
X158442857Y-58043832D02*
X158423809Y-58062880D01*
X158423809Y-58062880D02*
X158366667Y-58081927D01*
X158366667Y-58081927D02*
X158328571Y-58081927D01*
X158328571Y-58081927D02*
X158271428Y-58062880D01*
X158271428Y-58062880D02*
X158233333Y-58024784D01*
X158233333Y-58024784D02*
X158214286Y-57986689D01*
X158214286Y-57986689D02*
X158195238Y-57910499D01*
X158195238Y-57910499D02*
X158195238Y-57853356D01*
X158195238Y-57853356D02*
X158214286Y-57777165D01*
X158214286Y-57777165D02*
X158233333Y-57739070D01*
X158233333Y-57739070D02*
X158271428Y-57700975D01*
X158271428Y-57700975D02*
X158328571Y-57681927D01*
X158328571Y-57681927D02*
X158366667Y-57681927D01*
X158366667Y-57681927D02*
X158423809Y-57700975D01*
X158423809Y-57700975D02*
X158442857Y-57720022D01*
X158595238Y-57720022D02*
X158614286Y-57700975D01*
X158614286Y-57700975D02*
X158652381Y-57681927D01*
X158652381Y-57681927D02*
X158747619Y-57681927D01*
X158747619Y-57681927D02*
X158785714Y-57700975D01*
X158785714Y-57700975D02*
X158804762Y-57720022D01*
X158804762Y-57720022D02*
X158823809Y-57758118D01*
X158823809Y-57758118D02*
X158823809Y-57796213D01*
X158823809Y-57796213D02*
X158804762Y-57853356D01*
X158804762Y-57853356D02*
X158576190Y-58081927D01*
X158576190Y-58081927D02*
X158823809Y-58081927D01*
X159166666Y-57815260D02*
X159166666Y-58081927D01*
X159071428Y-57662880D02*
X158976190Y-57948594D01*
X158976190Y-57948594D02*
X159223809Y-57948594D01*
X152467857Y-69081927D02*
X152334524Y-68891451D01*
X152239286Y-69081927D02*
X152239286Y-68681927D01*
X152239286Y-68681927D02*
X152391667Y-68681927D01*
X152391667Y-68681927D02*
X152429762Y-68700975D01*
X152429762Y-68700975D02*
X152448809Y-68720022D01*
X152448809Y-68720022D02*
X152467857Y-68758118D01*
X152467857Y-68758118D02*
X152467857Y-68815260D01*
X152467857Y-68815260D02*
X152448809Y-68853356D01*
X152448809Y-68853356D02*
X152429762Y-68872403D01*
X152429762Y-68872403D02*
X152391667Y-68891451D01*
X152391667Y-68891451D02*
X152239286Y-68891451D01*
X152848809Y-69081927D02*
X152620238Y-69081927D01*
X152734524Y-69081927D02*
X152734524Y-68681927D01*
X152734524Y-68681927D02*
X152696428Y-68739070D01*
X152696428Y-68739070D02*
X152658333Y-68777165D01*
X152658333Y-68777165D02*
X152620238Y-68796213D01*
X153191666Y-68815260D02*
X153191666Y-69081927D01*
X153096428Y-68662880D02*
X153001190Y-68948594D01*
X153001190Y-68948594D02*
X153248809Y-68948594D01*
X154056332Y-53666666D02*
X154075380Y-53685714D01*
X154075380Y-53685714D02*
X154094427Y-53742856D01*
X154094427Y-53742856D02*
X154094427Y-53780952D01*
X154094427Y-53780952D02*
X154075380Y-53838095D01*
X154075380Y-53838095D02*
X154037284Y-53876190D01*
X154037284Y-53876190D02*
X153999189Y-53895237D01*
X153999189Y-53895237D02*
X153922999Y-53914285D01*
X153922999Y-53914285D02*
X153865856Y-53914285D01*
X153865856Y-53914285D02*
X153789665Y-53895237D01*
X153789665Y-53895237D02*
X153751570Y-53876190D01*
X153751570Y-53876190D02*
X153713475Y-53838095D01*
X153713475Y-53838095D02*
X153694427Y-53780952D01*
X153694427Y-53780952D02*
X153694427Y-53742856D01*
X153694427Y-53742856D02*
X153713475Y-53685714D01*
X153713475Y-53685714D02*
X153732522Y-53666666D01*
X154094427Y-53476190D02*
X154094427Y-53399999D01*
X154094427Y-53399999D02*
X154075380Y-53361904D01*
X154075380Y-53361904D02*
X154056332Y-53342856D01*
X154056332Y-53342856D02*
X153999189Y-53304761D01*
X153999189Y-53304761D02*
X153922999Y-53285714D01*
X153922999Y-53285714D02*
X153770618Y-53285714D01*
X153770618Y-53285714D02*
X153732522Y-53304761D01*
X153732522Y-53304761D02*
X153713475Y-53323809D01*
X153713475Y-53323809D02*
X153694427Y-53361904D01*
X153694427Y-53361904D02*
X153694427Y-53438095D01*
X153694427Y-53438095D02*
X153713475Y-53476190D01*
X153713475Y-53476190D02*
X153732522Y-53495237D01*
X153732522Y-53495237D02*
X153770618Y-53514285D01*
X153770618Y-53514285D02*
X153865856Y-53514285D01*
X153865856Y-53514285D02*
X153903951Y-53495237D01*
X153903951Y-53495237D02*
X153922999Y-53476190D01*
X153922999Y-53476190D02*
X153942046Y-53438095D01*
X153942046Y-53438095D02*
X153942046Y-53361904D01*
X153942046Y-53361904D02*
X153922999Y-53323809D01*
X153922999Y-53323809D02*
X153903951Y-53304761D01*
X153903951Y-53304761D02*
X153865856Y-53285714D01*
X147272403Y-58433332D02*
X147272403Y-58566665D01*
X147481927Y-58566665D02*
X147081927Y-58566665D01*
X147081927Y-58566665D02*
X147081927Y-58376189D01*
X147272403Y-58090475D02*
X147291451Y-58033332D01*
X147291451Y-58033332D02*
X147310499Y-58014285D01*
X147310499Y-58014285D02*
X147348594Y-57995237D01*
X147348594Y-57995237D02*
X147405737Y-57995237D01*
X147405737Y-57995237D02*
X147443832Y-58014285D01*
X147443832Y-58014285D02*
X147462880Y-58033332D01*
X147462880Y-58033332D02*
X147481927Y-58071427D01*
X147481927Y-58071427D02*
X147481927Y-58223808D01*
X147481927Y-58223808D02*
X147081927Y-58223808D01*
X147081927Y-58223808D02*
X147081927Y-58090475D01*
X147081927Y-58090475D02*
X147100975Y-58052380D01*
X147100975Y-58052380D02*
X147120022Y-58033332D01*
X147120022Y-58033332D02*
X147158118Y-58014285D01*
X147158118Y-58014285D02*
X147196213Y-58014285D01*
X147196213Y-58014285D02*
X147234308Y-58033332D01*
X147234308Y-58033332D02*
X147253356Y-58052380D01*
X147253356Y-58052380D02*
X147272403Y-58090475D01*
X147272403Y-58090475D02*
X147272403Y-58223808D01*
X147215260Y-57652380D02*
X147481927Y-57652380D01*
X147062880Y-57747618D02*
X147348594Y-57842856D01*
X147348594Y-57842856D02*
X147348594Y-57595237D01*
X116133333Y-69485832D02*
X116114285Y-69504880D01*
X116114285Y-69504880D02*
X116057143Y-69523927D01*
X116057143Y-69523927D02*
X116019047Y-69523927D01*
X116019047Y-69523927D02*
X115961904Y-69504880D01*
X115961904Y-69504880D02*
X115923809Y-69466784D01*
X115923809Y-69466784D02*
X115904762Y-69428689D01*
X115904762Y-69428689D02*
X115885714Y-69352499D01*
X115885714Y-69352499D02*
X115885714Y-69295356D01*
X115885714Y-69295356D02*
X115904762Y-69219165D01*
X115904762Y-69219165D02*
X115923809Y-69181070D01*
X115923809Y-69181070D02*
X115961904Y-69142975D01*
X115961904Y-69142975D02*
X116019047Y-69123927D01*
X116019047Y-69123927D02*
X116057143Y-69123927D01*
X116057143Y-69123927D02*
X116114285Y-69142975D01*
X116114285Y-69142975D02*
X116133333Y-69162022D01*
X116514285Y-69523927D02*
X116285714Y-69523927D01*
X116400000Y-69523927D02*
X116400000Y-69123927D01*
X116400000Y-69123927D02*
X116361904Y-69181070D01*
X116361904Y-69181070D02*
X116323809Y-69219165D01*
X116323809Y-69219165D02*
X116285714Y-69238213D01*
X180043832Y-65057142D02*
X180062880Y-65076190D01*
X180062880Y-65076190D02*
X180081927Y-65133332D01*
X180081927Y-65133332D02*
X180081927Y-65171428D01*
X180081927Y-65171428D02*
X180062880Y-65228571D01*
X180062880Y-65228571D02*
X180024784Y-65266666D01*
X180024784Y-65266666D02*
X179986689Y-65285713D01*
X179986689Y-65285713D02*
X179910499Y-65304761D01*
X179910499Y-65304761D02*
X179853356Y-65304761D01*
X179853356Y-65304761D02*
X179777165Y-65285713D01*
X179777165Y-65285713D02*
X179739070Y-65266666D01*
X179739070Y-65266666D02*
X179700975Y-65228571D01*
X179700975Y-65228571D02*
X179681927Y-65171428D01*
X179681927Y-65171428D02*
X179681927Y-65133332D01*
X179681927Y-65133332D02*
X179700975Y-65076190D01*
X179700975Y-65076190D02*
X179720022Y-65057142D01*
X180081927Y-64676190D02*
X180081927Y-64904761D01*
X180081927Y-64790475D02*
X179681927Y-64790475D01*
X179681927Y-64790475D02*
X179739070Y-64828571D01*
X179739070Y-64828571D02*
X179777165Y-64866666D01*
X179777165Y-64866666D02*
X179796213Y-64904761D01*
X179681927Y-64542857D02*
X179681927Y-64276190D01*
X179681927Y-64276190D02*
X180081927Y-64447619D01*
X132242857Y-69243832D02*
X132223809Y-69262880D01*
X132223809Y-69262880D02*
X132166667Y-69281927D01*
X132166667Y-69281927D02*
X132128571Y-69281927D01*
X132128571Y-69281927D02*
X132071428Y-69262880D01*
X132071428Y-69262880D02*
X132033333Y-69224784D01*
X132033333Y-69224784D02*
X132014286Y-69186689D01*
X132014286Y-69186689D02*
X131995238Y-69110499D01*
X131995238Y-69110499D02*
X131995238Y-69053356D01*
X131995238Y-69053356D02*
X132014286Y-68977165D01*
X132014286Y-68977165D02*
X132033333Y-68939070D01*
X132033333Y-68939070D02*
X132071428Y-68900975D01*
X132071428Y-68900975D02*
X132128571Y-68881927D01*
X132128571Y-68881927D02*
X132166667Y-68881927D01*
X132166667Y-68881927D02*
X132223809Y-68900975D01*
X132223809Y-68900975D02*
X132242857Y-68920022D01*
X132376190Y-68881927D02*
X132623809Y-68881927D01*
X132623809Y-68881927D02*
X132490476Y-69034308D01*
X132490476Y-69034308D02*
X132547619Y-69034308D01*
X132547619Y-69034308D02*
X132585714Y-69053356D01*
X132585714Y-69053356D02*
X132604762Y-69072403D01*
X132604762Y-69072403D02*
X132623809Y-69110499D01*
X132623809Y-69110499D02*
X132623809Y-69205737D01*
X132623809Y-69205737D02*
X132604762Y-69243832D01*
X132604762Y-69243832D02*
X132585714Y-69262880D01*
X132585714Y-69262880D02*
X132547619Y-69281927D01*
X132547619Y-69281927D02*
X132433333Y-69281927D01*
X132433333Y-69281927D02*
X132395238Y-69262880D01*
X132395238Y-69262880D02*
X132376190Y-69243832D01*
X132757142Y-68881927D02*
X133023809Y-68881927D01*
X133023809Y-68881927D02*
X132852380Y-69281927D01*
X127133333Y-67543832D02*
X127114285Y-67562880D01*
X127114285Y-67562880D02*
X127057143Y-67581927D01*
X127057143Y-67581927D02*
X127019047Y-67581927D01*
X127019047Y-67581927D02*
X126961904Y-67562880D01*
X126961904Y-67562880D02*
X126923809Y-67524784D01*
X126923809Y-67524784D02*
X126904762Y-67486689D01*
X126904762Y-67486689D02*
X126885714Y-67410499D01*
X126885714Y-67410499D02*
X126885714Y-67353356D01*
X126885714Y-67353356D02*
X126904762Y-67277165D01*
X126904762Y-67277165D02*
X126923809Y-67239070D01*
X126923809Y-67239070D02*
X126961904Y-67200975D01*
X126961904Y-67200975D02*
X127019047Y-67181927D01*
X127019047Y-67181927D02*
X127057143Y-67181927D01*
X127057143Y-67181927D02*
X127114285Y-67200975D01*
X127114285Y-67200975D02*
X127133333Y-67220022D01*
X127266666Y-67181927D02*
X127514285Y-67181927D01*
X127514285Y-67181927D02*
X127380952Y-67334308D01*
X127380952Y-67334308D02*
X127438095Y-67334308D01*
X127438095Y-67334308D02*
X127476190Y-67353356D01*
X127476190Y-67353356D02*
X127495238Y-67372403D01*
X127495238Y-67372403D02*
X127514285Y-67410499D01*
X127514285Y-67410499D02*
X127514285Y-67505737D01*
X127514285Y-67505737D02*
X127495238Y-67543832D01*
X127495238Y-67543832D02*
X127476190Y-67562880D01*
X127476190Y-67562880D02*
X127438095Y-67581927D01*
X127438095Y-67581927D02*
X127323809Y-67581927D01*
X127323809Y-67581927D02*
X127285714Y-67562880D01*
X127285714Y-67562880D02*
X127266666Y-67543832D01*
X152492857Y-70581927D02*
X152359524Y-70391451D01*
X152264286Y-70581927D02*
X152264286Y-70181927D01*
X152264286Y-70181927D02*
X152416667Y-70181927D01*
X152416667Y-70181927D02*
X152454762Y-70200975D01*
X152454762Y-70200975D02*
X152473809Y-70220022D01*
X152473809Y-70220022D02*
X152492857Y-70258118D01*
X152492857Y-70258118D02*
X152492857Y-70315260D01*
X152492857Y-70315260D02*
X152473809Y-70353356D01*
X152473809Y-70353356D02*
X152454762Y-70372403D01*
X152454762Y-70372403D02*
X152416667Y-70391451D01*
X152416667Y-70391451D02*
X152264286Y-70391451D01*
X152873809Y-70581927D02*
X152645238Y-70581927D01*
X152759524Y-70581927D02*
X152759524Y-70181927D01*
X152759524Y-70181927D02*
X152721428Y-70239070D01*
X152721428Y-70239070D02*
X152683333Y-70277165D01*
X152683333Y-70277165D02*
X152645238Y-70296213D01*
X153007142Y-70181927D02*
X153273809Y-70181927D01*
X153273809Y-70181927D02*
X153102380Y-70581927D01*
X144081927Y-50204761D02*
X144405737Y-50204761D01*
X144405737Y-50204761D02*
X144443832Y-50185714D01*
X144443832Y-50185714D02*
X144462880Y-50166666D01*
X144462880Y-50166666D02*
X144481927Y-50128571D01*
X144481927Y-50128571D02*
X144481927Y-50052380D01*
X144481927Y-50052380D02*
X144462880Y-50014285D01*
X144462880Y-50014285D02*
X144443832Y-49995238D01*
X144443832Y-49995238D02*
X144405737Y-49976190D01*
X144405737Y-49976190D02*
X144081927Y-49976190D01*
X144081927Y-49614285D02*
X144081927Y-49690475D01*
X144081927Y-49690475D02*
X144100975Y-49728571D01*
X144100975Y-49728571D02*
X144120022Y-49747618D01*
X144120022Y-49747618D02*
X144177165Y-49785713D01*
X144177165Y-49785713D02*
X144253356Y-49804761D01*
X144253356Y-49804761D02*
X144405737Y-49804761D01*
X144405737Y-49804761D02*
X144443832Y-49785713D01*
X144443832Y-49785713D02*
X144462880Y-49766666D01*
X144462880Y-49766666D02*
X144481927Y-49728571D01*
X144481927Y-49728571D02*
X144481927Y-49652380D01*
X144481927Y-49652380D02*
X144462880Y-49614285D01*
X144462880Y-49614285D02*
X144443832Y-49595237D01*
X144443832Y-49595237D02*
X144405737Y-49576190D01*
X144405737Y-49576190D02*
X144310499Y-49576190D01*
X144310499Y-49576190D02*
X144272403Y-49595237D01*
X144272403Y-49595237D02*
X144253356Y-49614285D01*
X144253356Y-49614285D02*
X144234308Y-49652380D01*
X144234308Y-49652380D02*
X144234308Y-49728571D01*
X144234308Y-49728571D02*
X144253356Y-49766666D01*
X144253356Y-49766666D02*
X144272403Y-49785713D01*
X144272403Y-49785713D02*
X144310499Y-49804761D01*
X166243832Y-68157142D02*
X166262880Y-68176190D01*
X166262880Y-68176190D02*
X166281927Y-68233332D01*
X166281927Y-68233332D02*
X166281927Y-68271428D01*
X166281927Y-68271428D02*
X166262880Y-68328571D01*
X166262880Y-68328571D02*
X166224784Y-68366666D01*
X166224784Y-68366666D02*
X166186689Y-68385713D01*
X166186689Y-68385713D02*
X166110499Y-68404761D01*
X166110499Y-68404761D02*
X166053356Y-68404761D01*
X166053356Y-68404761D02*
X165977165Y-68385713D01*
X165977165Y-68385713D02*
X165939070Y-68366666D01*
X165939070Y-68366666D02*
X165900975Y-68328571D01*
X165900975Y-68328571D02*
X165881927Y-68271428D01*
X165881927Y-68271428D02*
X165881927Y-68233332D01*
X165881927Y-68233332D02*
X165900975Y-68176190D01*
X165900975Y-68176190D02*
X165920022Y-68157142D01*
X165920022Y-68004761D02*
X165900975Y-67985713D01*
X165900975Y-67985713D02*
X165881927Y-67947618D01*
X165881927Y-67947618D02*
X165881927Y-67852380D01*
X165881927Y-67852380D02*
X165900975Y-67814285D01*
X165900975Y-67814285D02*
X165920022Y-67795237D01*
X165920022Y-67795237D02*
X165958118Y-67776190D01*
X165958118Y-67776190D02*
X165996213Y-67776190D01*
X165996213Y-67776190D02*
X166053356Y-67795237D01*
X166053356Y-67795237D02*
X166281927Y-68023809D01*
X166281927Y-68023809D02*
X166281927Y-67776190D01*
X165881927Y-67414285D02*
X165881927Y-67604761D01*
X165881927Y-67604761D02*
X166072403Y-67623809D01*
X166072403Y-67623809D02*
X166053356Y-67604761D01*
X166053356Y-67604761D02*
X166034308Y-67566666D01*
X166034308Y-67566666D02*
X166034308Y-67471428D01*
X166034308Y-67471428D02*
X166053356Y-67433333D01*
X166053356Y-67433333D02*
X166072403Y-67414285D01*
X166072403Y-67414285D02*
X166110499Y-67395238D01*
X166110499Y-67395238D02*
X166205737Y-67395238D01*
X166205737Y-67395238D02*
X166243832Y-67414285D01*
X166243832Y-67414285D02*
X166262880Y-67433333D01*
X166262880Y-67433333D02*
X166281927Y-67471428D01*
X166281927Y-67471428D02*
X166281927Y-67566666D01*
X166281927Y-67566666D02*
X166262880Y-67604761D01*
X166262880Y-67604761D02*
X166243832Y-67623809D01*
X126942857Y-55931927D02*
X126809524Y-55741451D01*
X126714286Y-55931927D02*
X126714286Y-55531927D01*
X126714286Y-55531927D02*
X126866667Y-55531927D01*
X126866667Y-55531927D02*
X126904762Y-55550975D01*
X126904762Y-55550975D02*
X126923809Y-55570022D01*
X126923809Y-55570022D02*
X126942857Y-55608118D01*
X126942857Y-55608118D02*
X126942857Y-55665260D01*
X126942857Y-55665260D02*
X126923809Y-55703356D01*
X126923809Y-55703356D02*
X126904762Y-55722403D01*
X126904762Y-55722403D02*
X126866667Y-55741451D01*
X126866667Y-55741451D02*
X126714286Y-55741451D01*
X127095238Y-55570022D02*
X127114286Y-55550975D01*
X127114286Y-55550975D02*
X127152381Y-55531927D01*
X127152381Y-55531927D02*
X127247619Y-55531927D01*
X127247619Y-55531927D02*
X127285714Y-55550975D01*
X127285714Y-55550975D02*
X127304762Y-55570022D01*
X127304762Y-55570022D02*
X127323809Y-55608118D01*
X127323809Y-55608118D02*
X127323809Y-55646213D01*
X127323809Y-55646213D02*
X127304762Y-55703356D01*
X127304762Y-55703356D02*
X127076190Y-55931927D01*
X127076190Y-55931927D02*
X127323809Y-55931927D01*
X127666666Y-55531927D02*
X127590476Y-55531927D01*
X127590476Y-55531927D02*
X127552380Y-55550975D01*
X127552380Y-55550975D02*
X127533333Y-55570022D01*
X127533333Y-55570022D02*
X127495238Y-55627165D01*
X127495238Y-55627165D02*
X127476190Y-55703356D01*
X127476190Y-55703356D02*
X127476190Y-55855737D01*
X127476190Y-55855737D02*
X127495238Y-55893832D01*
X127495238Y-55893832D02*
X127514285Y-55912880D01*
X127514285Y-55912880D02*
X127552380Y-55931927D01*
X127552380Y-55931927D02*
X127628571Y-55931927D01*
X127628571Y-55931927D02*
X127666666Y-55912880D01*
X127666666Y-55912880D02*
X127685714Y-55893832D01*
X127685714Y-55893832D02*
X127704761Y-55855737D01*
X127704761Y-55855737D02*
X127704761Y-55760499D01*
X127704761Y-55760499D02*
X127685714Y-55722403D01*
X127685714Y-55722403D02*
X127666666Y-55703356D01*
X127666666Y-55703356D02*
X127628571Y-55684308D01*
X127628571Y-55684308D02*
X127552380Y-55684308D01*
X127552380Y-55684308D02*
X127514285Y-55703356D01*
X127514285Y-55703356D02*
X127495238Y-55722403D01*
X127495238Y-55722403D02*
X127476190Y-55760499D01*
X161542857Y-58043832D02*
X161523809Y-58062880D01*
X161523809Y-58062880D02*
X161466667Y-58081927D01*
X161466667Y-58081927D02*
X161428571Y-58081927D01*
X161428571Y-58081927D02*
X161371428Y-58062880D01*
X161371428Y-58062880D02*
X161333333Y-58024784D01*
X161333333Y-58024784D02*
X161314286Y-57986689D01*
X161314286Y-57986689D02*
X161295238Y-57910499D01*
X161295238Y-57910499D02*
X161295238Y-57853356D01*
X161295238Y-57853356D02*
X161314286Y-57777165D01*
X161314286Y-57777165D02*
X161333333Y-57739070D01*
X161333333Y-57739070D02*
X161371428Y-57700975D01*
X161371428Y-57700975D02*
X161428571Y-57681927D01*
X161428571Y-57681927D02*
X161466667Y-57681927D01*
X161466667Y-57681927D02*
X161523809Y-57700975D01*
X161523809Y-57700975D02*
X161542857Y-57720022D01*
X161923809Y-58081927D02*
X161695238Y-58081927D01*
X161809524Y-58081927D02*
X161809524Y-57681927D01*
X161809524Y-57681927D02*
X161771428Y-57739070D01*
X161771428Y-57739070D02*
X161733333Y-57777165D01*
X161733333Y-57777165D02*
X161695238Y-57796213D01*
X162057142Y-57681927D02*
X162304761Y-57681927D01*
X162304761Y-57681927D02*
X162171428Y-57834308D01*
X162171428Y-57834308D02*
X162228571Y-57834308D01*
X162228571Y-57834308D02*
X162266666Y-57853356D01*
X162266666Y-57853356D02*
X162285714Y-57872403D01*
X162285714Y-57872403D02*
X162304761Y-57910499D01*
X162304761Y-57910499D02*
X162304761Y-58005737D01*
X162304761Y-58005737D02*
X162285714Y-58043832D01*
X162285714Y-58043832D02*
X162266666Y-58062880D01*
X162266666Y-58062880D02*
X162228571Y-58081927D01*
X162228571Y-58081927D02*
X162114285Y-58081927D01*
X162114285Y-58081927D02*
X162076190Y-58062880D01*
X162076190Y-58062880D02*
X162057142Y-58043832D01*
D16*
X124852409Y-63180952D02*
X125257171Y-63180952D01*
X125257171Y-63180952D02*
X125304790Y-63157142D01*
X125304790Y-63157142D02*
X125328600Y-63133333D01*
X125328600Y-63133333D02*
X125352409Y-63085714D01*
X125352409Y-63085714D02*
X125352409Y-62990476D01*
X125352409Y-62990476D02*
X125328600Y-62942857D01*
X125328600Y-62942857D02*
X125304790Y-62919047D01*
X125304790Y-62919047D02*
X125257171Y-62895238D01*
X125257171Y-62895238D02*
X124852409Y-62895238D01*
X125352409Y-62395237D02*
X125352409Y-62680951D01*
X125352409Y-62538094D02*
X124852409Y-62538094D01*
X124852409Y-62538094D02*
X124923838Y-62585713D01*
X124923838Y-62585713D02*
X124971457Y-62633332D01*
X124971457Y-62633332D02*
X124995266Y-62680951D01*
D11*
X180043832Y-61657142D02*
X180062880Y-61676190D01*
X180062880Y-61676190D02*
X180081927Y-61733332D01*
X180081927Y-61733332D02*
X180081927Y-61771428D01*
X180081927Y-61771428D02*
X180062880Y-61828571D01*
X180062880Y-61828571D02*
X180024784Y-61866666D01*
X180024784Y-61866666D02*
X179986689Y-61885713D01*
X179986689Y-61885713D02*
X179910499Y-61904761D01*
X179910499Y-61904761D02*
X179853356Y-61904761D01*
X179853356Y-61904761D02*
X179777165Y-61885713D01*
X179777165Y-61885713D02*
X179739070Y-61866666D01*
X179739070Y-61866666D02*
X179700975Y-61828571D01*
X179700975Y-61828571D02*
X179681927Y-61771428D01*
X179681927Y-61771428D02*
X179681927Y-61733332D01*
X179681927Y-61733332D02*
X179700975Y-61676190D01*
X179700975Y-61676190D02*
X179720022Y-61657142D01*
X180081927Y-61276190D02*
X180081927Y-61504761D01*
X180081927Y-61390475D02*
X179681927Y-61390475D01*
X179681927Y-61390475D02*
X179739070Y-61428571D01*
X179739070Y-61428571D02*
X179777165Y-61466666D01*
X179777165Y-61466666D02*
X179796213Y-61504761D01*
X179681927Y-60933333D02*
X179681927Y-61009523D01*
X179681927Y-61009523D02*
X179700975Y-61047619D01*
X179700975Y-61047619D02*
X179720022Y-61066666D01*
X179720022Y-61066666D02*
X179777165Y-61104761D01*
X179777165Y-61104761D02*
X179853356Y-61123809D01*
X179853356Y-61123809D02*
X180005737Y-61123809D01*
X180005737Y-61123809D02*
X180043832Y-61104761D01*
X180043832Y-61104761D02*
X180062880Y-61085714D01*
X180062880Y-61085714D02*
X180081927Y-61047619D01*
X180081927Y-61047619D02*
X180081927Y-60971428D01*
X180081927Y-60971428D02*
X180062880Y-60933333D01*
X180062880Y-60933333D02*
X180043832Y-60914285D01*
X180043832Y-60914285D02*
X180005737Y-60895238D01*
X180005737Y-60895238D02*
X179910499Y-60895238D01*
X179910499Y-60895238D02*
X179872403Y-60914285D01*
X179872403Y-60914285D02*
X179853356Y-60933333D01*
X179853356Y-60933333D02*
X179834308Y-60971428D01*
X179834308Y-60971428D02*
X179834308Y-61047619D01*
X179834308Y-61047619D02*
X179853356Y-61085714D01*
X179853356Y-61085714D02*
X179872403Y-61104761D01*
X179872403Y-61104761D02*
X179910499Y-61123809D01*
X164243832Y-59857142D02*
X164262880Y-59876190D01*
X164262880Y-59876190D02*
X164281927Y-59933332D01*
X164281927Y-59933332D02*
X164281927Y-59971428D01*
X164281927Y-59971428D02*
X164262880Y-60028571D01*
X164262880Y-60028571D02*
X164224784Y-60066666D01*
X164224784Y-60066666D02*
X164186689Y-60085713D01*
X164186689Y-60085713D02*
X164110499Y-60104761D01*
X164110499Y-60104761D02*
X164053356Y-60104761D01*
X164053356Y-60104761D02*
X163977165Y-60085713D01*
X163977165Y-60085713D02*
X163939070Y-60066666D01*
X163939070Y-60066666D02*
X163900975Y-60028571D01*
X163900975Y-60028571D02*
X163881927Y-59971428D01*
X163881927Y-59971428D02*
X163881927Y-59933332D01*
X163881927Y-59933332D02*
X163900975Y-59876190D01*
X163900975Y-59876190D02*
X163920022Y-59857142D01*
X163920022Y-59704761D02*
X163900975Y-59685713D01*
X163900975Y-59685713D02*
X163881927Y-59647618D01*
X163881927Y-59647618D02*
X163881927Y-59552380D01*
X163881927Y-59552380D02*
X163900975Y-59514285D01*
X163900975Y-59514285D02*
X163920022Y-59495237D01*
X163920022Y-59495237D02*
X163958118Y-59476190D01*
X163958118Y-59476190D02*
X163996213Y-59476190D01*
X163996213Y-59476190D02*
X164053356Y-59495237D01*
X164053356Y-59495237D02*
X164281927Y-59723809D01*
X164281927Y-59723809D02*
X164281927Y-59476190D01*
X163881927Y-59342857D02*
X163881927Y-59076190D01*
X163881927Y-59076190D02*
X164281927Y-59247619D01*
X126942857Y-57431927D02*
X126809524Y-57241451D01*
X126714286Y-57431927D02*
X126714286Y-57031927D01*
X126714286Y-57031927D02*
X126866667Y-57031927D01*
X126866667Y-57031927D02*
X126904762Y-57050975D01*
X126904762Y-57050975D02*
X126923809Y-57070022D01*
X126923809Y-57070022D02*
X126942857Y-57108118D01*
X126942857Y-57108118D02*
X126942857Y-57165260D01*
X126942857Y-57165260D02*
X126923809Y-57203356D01*
X126923809Y-57203356D02*
X126904762Y-57222403D01*
X126904762Y-57222403D02*
X126866667Y-57241451D01*
X126866667Y-57241451D02*
X126714286Y-57241451D01*
X127095238Y-57070022D02*
X127114286Y-57050975D01*
X127114286Y-57050975D02*
X127152381Y-57031927D01*
X127152381Y-57031927D02*
X127247619Y-57031927D01*
X127247619Y-57031927D02*
X127285714Y-57050975D01*
X127285714Y-57050975D02*
X127304762Y-57070022D01*
X127304762Y-57070022D02*
X127323809Y-57108118D01*
X127323809Y-57108118D02*
X127323809Y-57146213D01*
X127323809Y-57146213D02*
X127304762Y-57203356D01*
X127304762Y-57203356D02*
X127076190Y-57431927D01*
X127076190Y-57431927D02*
X127323809Y-57431927D01*
X127457142Y-57031927D02*
X127723809Y-57031927D01*
X127723809Y-57031927D02*
X127552380Y-57431927D01*
D17*
G04 #@! TO.C,FB5*
X146500000Y-48550000D02*
X148100000Y-48550000D01*
X146500000Y-53050000D02*
X146500000Y-48550000D01*
X148100000Y-48550000D02*
X148100000Y-53050000D01*
X148100000Y-53050000D02*
X146500000Y-53050000D01*
G04 #@! TO.C,C6*
X175300000Y-56000000D02*
X176900000Y-56000000D01*
X175300000Y-56800000D02*
X175300000Y-56000000D01*
X176900000Y-56000000D02*
X176900000Y-56800000D01*
X176900000Y-56800000D02*
X175300000Y-56800000D01*
G04 #@! TO.C,D5*
X183400000Y-52800000D02*
X184800000Y-52800000D01*
X183400000Y-54600000D02*
X183400000Y-52800000D01*
X183750000Y-53500000D02*
X184450000Y-53500000D01*
X183750000Y-54000000D02*
X184450000Y-54000000D01*
X184100000Y-53500000D02*
X184100000Y-53250000D01*
X184100000Y-54000000D02*
X183750000Y-53500000D01*
X184100000Y-54000000D02*
X184100000Y-54200000D01*
X184450000Y-53500000D02*
X184100000Y-54000000D01*
X184800000Y-52800000D02*
X184800000Y-54600000D01*
X184800000Y-54600000D02*
X183400000Y-54600000D01*
G04 #@! TO.C,D1*
X114800000Y-54080000D02*
X114800000Y-57380000D01*
X114800000Y-57380000D02*
X117200000Y-57380000D01*
X117200000Y-54080000D02*
X114800000Y-54080000D01*
X117200000Y-57380000D02*
X117200000Y-54080000D01*
X116900000Y-55730000D02*
G75*
G02*
X115100000Y-55730000I-900000J0D01*
G01*
X115100000Y-55730000D02*
G75*
G02*
X116900000Y-55730000I900000J0D01*
G01*
G04 #@! TO.C,C43*
X142850000Y-53100000D02*
X144450000Y-53100000D01*
X142850000Y-53900000D02*
X142850000Y-53100000D01*
X144450000Y-53100000D02*
X144450000Y-53900000D01*
X144450000Y-53900000D02*
X142850000Y-53900000D01*
G04 #@! TO.C,R28*
X131700000Y-70187500D02*
X133300000Y-70187500D01*
X131700000Y-71012500D02*
X131700000Y-70187500D01*
X133300000Y-70187500D02*
X133300000Y-71012500D01*
X133300000Y-71012500D02*
X131700000Y-71012500D01*
G04 #@! TO.C,R12*
X151925000Y-57687500D02*
X153525000Y-57687500D01*
X151925000Y-58512500D02*
X151925000Y-57687500D01*
X153525000Y-57687500D02*
X153525000Y-58512500D01*
X153525000Y-58512500D02*
X151925000Y-58512500D01*
G04 #@! TO.C,C5*
X121475000Y-55350000D02*
X123075000Y-55350000D01*
X121475000Y-56150000D02*
X121475000Y-55350000D01*
X123075000Y-55350000D02*
X123075000Y-56150000D01*
X123075000Y-56150000D02*
X121475000Y-56150000D01*
G04 #@! TO.C,U5*
X136350000Y-49100000D02*
X138850000Y-49100000D01*
X136350000Y-50700000D02*
X136350000Y-49100000D01*
X138850000Y-49100000D02*
X139250000Y-49500000D01*
X139250000Y-49500000D02*
X139250000Y-50700000D01*
X139250000Y-50700000D02*
X136350000Y-50700000D01*
G04 #@! TO.C,D4*
X160987500Y-53625000D02*
X161312500Y-53300000D01*
X160987500Y-56200000D02*
X160987500Y-53625000D01*
X161312500Y-53300000D02*
X162287500Y-53300000D01*
X162287500Y-53300000D02*
X162287500Y-56200000D01*
X162287500Y-56200000D02*
X160987500Y-56200000D01*
G04 #@! TO.C,Y2*
X145200000Y-64200000D02*
X145200000Y-63100000D01*
X145700000Y-64700000D02*
X145200000Y-64200000D01*
X145700000Y-64700000D02*
X148200000Y-64700000D01*
X148200000Y-63100000D02*
X145200000Y-63100000D01*
X148200000Y-64700000D02*
X148200000Y-63100000D01*
G04 #@! TO.C,L4*
X169342000Y-66314000D02*
X172542000Y-66314000D01*
X169342000Y-68814000D02*
X169342000Y-66314000D01*
X172542000Y-66314000D02*
X172542000Y-68814000D01*
X172542000Y-68814000D02*
X169342000Y-68814000D01*
G04 #@! TO.C,D6*
X183400000Y-71250000D02*
X184800000Y-71250000D01*
X183400000Y-73050000D02*
X183400000Y-71250000D01*
X183750000Y-72350000D02*
X184100000Y-71850000D01*
X184100000Y-71850000D02*
X184100000Y-71650000D01*
X184100000Y-71850000D02*
X184450000Y-72350000D01*
X184100000Y-72350000D02*
X184100000Y-72600000D01*
X184450000Y-71850000D02*
X183750000Y-71850000D01*
X184450000Y-72350000D02*
X183750000Y-72350000D01*
X184800000Y-71250000D02*
X184800000Y-73050000D01*
X184800000Y-73050000D02*
X183400000Y-73050000D01*
G04 #@! TO.C,R4*
X121475000Y-56987500D02*
X123075000Y-56987500D01*
X121475000Y-57812500D02*
X121475000Y-56987500D01*
X123075000Y-56987500D02*
X123075000Y-57812500D01*
X123075000Y-57812500D02*
X121475000Y-57812500D01*
G04 #@! TO.C,C33*
X143900000Y-57300000D02*
X144700000Y-57300000D01*
X143900000Y-58900000D02*
X143900000Y-57300000D01*
X144700000Y-57300000D02*
X144700000Y-58900000D01*
X144700000Y-58900000D02*
X143900000Y-58900000D01*
G04 #@! TO.C,C26*
X161900000Y-66500000D02*
X163500000Y-66500000D01*
X161900000Y-67300000D02*
X161900000Y-66500000D01*
X163500000Y-66500000D02*
X163500000Y-67300000D01*
X163500000Y-67300000D02*
X161900000Y-67300000D01*
G04 #@! TO.C,R15*
X151925000Y-66987500D02*
X153525000Y-66987500D01*
X151925000Y-67812500D02*
X151925000Y-66987500D01*
X153525000Y-66987500D02*
X153525000Y-67812500D01*
X153525000Y-67812500D02*
X151925000Y-67812500D01*
G04 #@! TO.C,J9*
X189600000Y-70050000D02*
X190100000Y-70300000D01*
X189600000Y-70550000D02*
X189600000Y-70050000D01*
X190100000Y-70300000D02*
X189600000Y-70550000D01*
X190785000Y-67125000D02*
X190785000Y-68145000D01*
X190785000Y-67125000D02*
X195615000Y-67125000D01*
X190785000Y-69665000D02*
X190785000Y-70935000D01*
X190785000Y-73475000D02*
X190785000Y-72455000D01*
X194595000Y-68145000D02*
X190785000Y-68145000D01*
X194595000Y-68145000D02*
X194595000Y-72455000D01*
X194595000Y-69665000D02*
X190785000Y-69665000D01*
X194595000Y-69665000D02*
X195400000Y-70300000D01*
X194595000Y-70935000D02*
X190785000Y-70935000D01*
X194595000Y-72455000D02*
X190785000Y-72455000D01*
X195400000Y-70300000D02*
X194595000Y-70935000D01*
X195615000Y-67125000D02*
X195615000Y-73475000D01*
X195615000Y-73475000D02*
X190785000Y-73475000D01*
X207045000Y-67660000D02*
X195615000Y-67660000D01*
X207045000Y-67660000D02*
X207045000Y-72940000D01*
X207045000Y-72940000D02*
X195615000Y-72940000D01*
G04 #@! TO.C,C36*
X131700000Y-67100000D02*
X133300000Y-67100000D01*
X131700000Y-67900000D02*
X131700000Y-67100000D01*
X133300000Y-67100000D02*
X133300000Y-67900000D01*
X133300000Y-67900000D02*
X131700000Y-67900000D01*
G04 #@! TO.C,C22*
X164025000Y-65000000D02*
X165625000Y-65000000D01*
X164025000Y-65800000D02*
X164025000Y-65000000D01*
X165625000Y-65000000D02*
X165625000Y-65800000D01*
X165625000Y-65800000D02*
X164025000Y-65800000D01*
G04 #@! TO.C,C31*
X145400000Y-57300000D02*
X146200000Y-57300000D01*
X145400000Y-58900000D02*
X145400000Y-57300000D01*
X146200000Y-57300000D02*
X146200000Y-58900000D01*
X146200000Y-58900000D02*
X145400000Y-58900000D01*
G04 #@! TO.C,C12*
X151900000Y-56200000D02*
X153500000Y-56200000D01*
X151900000Y-57000000D02*
X151900000Y-56200000D01*
X153500000Y-56200000D02*
X153500000Y-57000000D01*
X153500000Y-57000000D02*
X151900000Y-57000000D01*
G04 #@! TO.C,R25*
X137987500Y-72050000D02*
X138812500Y-72050000D01*
X137987500Y-73650000D02*
X137987500Y-72050000D01*
X138812500Y-72050000D02*
X138812500Y-73650000D01*
X138812500Y-73650000D02*
X137987500Y-73650000D01*
D18*
G04 #@! TO.C,FL1*
X128300000Y-62200000D02*
X130300000Y-62200000D01*
X128300000Y-63400000D02*
X128300000Y-62200000D01*
X130300000Y-62200000D02*
X130300000Y-63400000D01*
X130300000Y-63400000D02*
X128300000Y-63400000D01*
D17*
G04 #@! TO.C,C18*
X173800000Y-66750000D02*
X174600000Y-66750000D01*
X173800000Y-68350000D02*
X173800000Y-66750000D01*
X174600000Y-66750000D02*
X174600000Y-68350000D01*
X174600000Y-68350000D02*
X173800000Y-68350000D01*
G04 #@! TO.C,C32*
X126400000Y-70200000D02*
X128000000Y-70200000D01*
X126400000Y-71000000D02*
X126400000Y-70200000D01*
X128000000Y-70200000D02*
X128000000Y-71000000D01*
X128000000Y-71000000D02*
X126400000Y-71000000D01*
G04 #@! TO.C,R8*
X178087500Y-53350000D02*
X178912500Y-53350000D01*
X178087500Y-54950000D02*
X178087500Y-53350000D01*
X178912500Y-53350000D02*
X178912500Y-54950000D01*
X178912500Y-54950000D02*
X178087500Y-54950000D01*
G04 #@! TO.C,D2*
X114800000Y-49145000D02*
X114800000Y-52445000D01*
X114800000Y-52445000D02*
X117200000Y-52445000D01*
X117200000Y-49145000D02*
X114800000Y-49145000D01*
X117200000Y-52445000D02*
X117200000Y-49145000D01*
X116900000Y-50795000D02*
G75*
G02*
X115100000Y-50795000I-900000J0D01*
G01*
X115100000Y-50795000D02*
G75*
G02*
X116900000Y-50795000I900000J0D01*
G01*
G04 #@! TO.C,U4*
X133800000Y-58300000D02*
X140800000Y-58300000D01*
X133800000Y-65300000D02*
X133800000Y-58300000D01*
X139800000Y-65300000D02*
X133800000Y-65300000D01*
X140800000Y-58300000D02*
X140800000Y-64300000D01*
X140800000Y-64300000D02*
X139800000Y-65300000D01*
G04 #@! TO.C,C4*
X115400000Y-70450000D02*
X117000000Y-70450000D01*
X115400000Y-71250000D02*
X115400000Y-70450000D01*
X117000000Y-70450000D02*
X117000000Y-71250000D01*
X117000000Y-71250000D02*
X115400000Y-71250000D01*
G04 #@! TO.C,FB1*
X118650000Y-68950000D02*
X123150000Y-68950000D01*
X118650000Y-70550000D02*
X118650000Y-68950000D01*
X123150000Y-68950000D02*
X123150000Y-70550000D01*
X123150000Y-70550000D02*
X118650000Y-70550000D01*
G04 #@! TO.C,J8*
X184900000Y-48579000D02*
X184900000Y-50879000D01*
X184900000Y-49279000D02*
X185200000Y-49579000D01*
X185200000Y-48279000D02*
X184900000Y-48579000D01*
X185200000Y-49579000D02*
X184900000Y-49879000D01*
X187500000Y-48279000D02*
X185200000Y-48279000D01*
X187500000Y-48279000D02*
X187500000Y-50879000D01*
X187500000Y-50879000D02*
X184900000Y-50879000D01*
X186400000Y-49579000D02*
G75*
G02*
X186000000Y-49579000I-200000J0D01*
G01*
X186000000Y-49579000D02*
G75*
G02*
X186400000Y-49579000I200000J0D01*
G01*
X186325000Y-49579000D02*
G75*
G02*
X186075000Y-49579000I-125000J0D01*
G01*
X186075000Y-49579000D02*
G75*
G02*
X186325000Y-49579000I125000J0D01*
G01*
X186250000Y-49579000D02*
G75*
G02*
X186150000Y-49579000I-50000J0D01*
G01*
X186150000Y-49579000D02*
G75*
G02*
X186250000Y-49579000I50000J0D01*
G01*
X187100000Y-49579000D02*
G75*
G02*
X185300000Y-49579000I-900000J0D01*
G01*
X185300000Y-49579000D02*
G75*
G02*
X187100000Y-49579000I900000J0D01*
G01*
G04 #@! TO.C,U2*
X176200000Y-62100000D02*
X178200000Y-62100000D01*
X176200000Y-62600000D02*
X176700000Y-62100000D01*
X176200000Y-64100000D02*
X176200000Y-62100000D01*
X178200000Y-62100000D02*
X178200000Y-64100000D01*
X178200000Y-64100000D02*
X176200000Y-64100000D01*
G04 #@! TO.C,C40*
X133200000Y-48500000D02*
X134800000Y-48500000D01*
X133200000Y-49300000D02*
X133200000Y-48500000D01*
X134800000Y-48500000D02*
X134800000Y-49300000D01*
X134800000Y-49300000D02*
X133200000Y-49300000D01*
G04 #@! TO.C,R9*
X165387500Y-54200000D02*
X166212500Y-54200000D01*
X165387500Y-55800000D02*
X165387500Y-54200000D01*
X166212500Y-54200000D02*
X166212500Y-55800000D01*
X166212500Y-55800000D02*
X165387500Y-55800000D01*
G04 #@! TO.C,R16*
X151925000Y-59187500D02*
X153525000Y-59187500D01*
X151925000Y-60012500D02*
X151925000Y-59187500D01*
X153525000Y-59187500D02*
X153525000Y-60012500D01*
X153525000Y-60012500D02*
X151925000Y-60012500D01*
G04 #@! TO.C,R24*
X141300000Y-69687500D02*
X142900000Y-69687500D01*
X141300000Y-70512500D02*
X141300000Y-69687500D01*
X142900000Y-69687500D02*
X142900000Y-70512500D01*
X142900000Y-70512500D02*
X141300000Y-70512500D01*
G04 #@! TO.C,C8*
X171500000Y-52650000D02*
X172300000Y-52650000D01*
X171500000Y-54250000D02*
X171500000Y-52650000D01*
X172300000Y-52650000D02*
X172300000Y-54250000D01*
X172300000Y-54250000D02*
X171500000Y-54250000D01*
G04 #@! TO.C,C28*
X151925000Y-63700000D02*
X153525000Y-63700000D01*
X151925000Y-64500000D02*
X151925000Y-63700000D01*
X153525000Y-63700000D02*
X153525000Y-64500000D01*
X153525000Y-64500000D02*
X151925000Y-64500000D01*
G04 #@! TO.C,C2*
X126400000Y-58450000D02*
X128000000Y-58450000D01*
X126400000Y-59250000D02*
X126400000Y-58450000D01*
X128000000Y-58450000D02*
X128000000Y-59250000D01*
X128000000Y-59250000D02*
X126400000Y-59250000D01*
G04 #@! TO.C,J6*
X125603000Y-76065000D02*
X126238000Y-75430000D01*
X125603000Y-77970000D02*
X125603000Y-76065000D01*
X126238000Y-75430000D02*
X143383000Y-75430000D01*
X143383000Y-75430000D02*
X143383000Y-77970000D01*
X143383000Y-77970000D02*
X125603000Y-77970000D01*
G04 #@! TO.C,R6*
X122500000Y-76387500D02*
X124100000Y-76387500D01*
X122500000Y-77212500D02*
X122500000Y-76387500D01*
X124100000Y-76387500D02*
X124100000Y-77212500D01*
X124100000Y-77212500D02*
X122500000Y-77212500D01*
G04 #@! TO.C,C20*
X171450000Y-56550000D02*
X173050000Y-56550000D01*
X171450000Y-57350000D02*
X171450000Y-56550000D01*
X173050000Y-56550000D02*
X173050000Y-57350000D01*
X173050000Y-57350000D02*
X171450000Y-57350000D01*
G04 #@! TO.C,R29*
X126400000Y-68587500D02*
X128000000Y-68587500D01*
X126400000Y-69412500D02*
X126400000Y-68587500D01*
X128000000Y-68587500D02*
X128000000Y-69412500D01*
X128000000Y-69412500D02*
X126400000Y-69412500D01*
G04 #@! TO.C,R23*
X141300000Y-71237500D02*
X142900000Y-71237500D01*
X141300000Y-72062500D02*
X141300000Y-71237500D01*
X142900000Y-71237500D02*
X142900000Y-72062500D01*
X142900000Y-72062500D02*
X141300000Y-72062500D01*
G04 #@! TO.C,J3*
X119110000Y-48080000D02*
X131810000Y-48080000D01*
X119110000Y-50620000D02*
X119110000Y-48080000D01*
X131175000Y-50620000D02*
X119110000Y-50620000D01*
X131810000Y-48080000D02*
X131810000Y-49985000D01*
X131810000Y-49985000D02*
X131175000Y-50620000D01*
G04 #@! TO.C,C35*
X141300000Y-68100000D02*
X142900000Y-68100000D01*
X141300000Y-68900000D02*
X141300000Y-68100000D01*
X142900000Y-68100000D02*
X142900000Y-68900000D01*
X142900000Y-68900000D02*
X141300000Y-68900000D01*
G04 #@! TO.C,R30*
X128775000Y-61380000D02*
X129825000Y-61380000D01*
X128775000Y-61920000D02*
X128775000Y-61380000D01*
X129825000Y-61380000D02*
X129825000Y-61920000D01*
X129825000Y-61920000D02*
X128775000Y-61920000D01*
G04 #@! TO.C,R2*
X126400000Y-65387500D02*
X128000000Y-65387500D01*
X126400000Y-66212500D02*
X126400000Y-65387500D01*
X128000000Y-65387500D02*
X128000000Y-66212500D01*
X128000000Y-66212500D02*
X126400000Y-66212500D01*
G04 #@! TO.C,R18*
X158012500Y-68700000D02*
X158837500Y-68700000D01*
X158012500Y-70300000D02*
X158012500Y-68700000D01*
X158837500Y-68700000D02*
X158837500Y-70300000D01*
X158837500Y-70300000D02*
X158012500Y-70300000D01*
G04 #@! TO.C,C15*
X177801472Y-59682843D02*
X178932843Y-58551472D01*
X178367157Y-60248528D02*
X177801472Y-59682843D01*
X178932843Y-58551472D02*
X179498528Y-59117157D01*
X179498528Y-59117157D02*
X178367157Y-60248528D01*
G04 #@! TO.C,C42*
X133200000Y-50000000D02*
X134800000Y-50000000D01*
X133200000Y-50800000D02*
X133200000Y-50000000D01*
X134800000Y-50000000D02*
X134800000Y-50800000D01*
X134800000Y-50800000D02*
X133200000Y-50800000D01*
G04 #@! TO.C,R19*
X154812500Y-68700000D02*
X155637500Y-68700000D01*
X154812500Y-70300000D02*
X154812500Y-68700000D01*
X155637500Y-68700000D02*
X155637500Y-70300000D01*
X155637500Y-70300000D02*
X154812500Y-70300000D01*
D19*
G04 #@! TO.C,J1*
X112600000Y-58810000D02*
X119950000Y-58810000D01*
X112600000Y-67750000D02*
X112600000Y-58810000D01*
X119950000Y-58810000D02*
X119950000Y-67750000D01*
X119950000Y-67750000D02*
X112600000Y-67750000D01*
D17*
G04 #@! TO.C,L1*
X173550000Y-52900000D02*
X176750000Y-52900000D01*
X173550000Y-55400000D02*
X173550000Y-52900000D01*
X176750000Y-52900000D02*
X176750000Y-55400000D01*
X176750000Y-55400000D02*
X173550000Y-55400000D01*
G04 #@! TO.C,C30*
X151925000Y-65500000D02*
X153525000Y-65500000D01*
X151925000Y-66300000D02*
X151925000Y-65500000D01*
X153525000Y-65500000D02*
X153525000Y-66300000D01*
X153525000Y-66300000D02*
X151925000Y-66300000D01*
G04 #@! TO.C,R11*
X156412500Y-68700000D02*
X157237500Y-68700000D01*
X156412500Y-70300000D02*
X156412500Y-68700000D01*
X157237500Y-68700000D02*
X157237500Y-70300000D01*
X157237500Y-70300000D02*
X156412500Y-70300000D01*
G04 #@! TO.C,J10*
X189600000Y-55350000D02*
X190100000Y-55600000D01*
X189600000Y-55850000D02*
X189600000Y-55350000D01*
X190100000Y-55600000D02*
X189600000Y-55850000D01*
X190785000Y-52425000D02*
X190785000Y-53445000D01*
X190785000Y-52425000D02*
X195615000Y-52425000D01*
X190785000Y-54965000D02*
X190785000Y-56235000D01*
X190785000Y-58775000D02*
X190785000Y-57755000D01*
X194595000Y-53445000D02*
X190785000Y-53445000D01*
X194595000Y-53445000D02*
X194595000Y-57755000D01*
X194595000Y-54965000D02*
X190785000Y-54965000D01*
X194595000Y-54965000D02*
X195400000Y-55600000D01*
X194595000Y-56235000D02*
X190785000Y-56235000D01*
X194595000Y-57755000D02*
X190785000Y-57755000D01*
X195400000Y-55600000D02*
X194595000Y-56235000D01*
X195615000Y-52425000D02*
X195615000Y-58775000D01*
X195615000Y-58775000D02*
X190785000Y-58775000D01*
X207045000Y-52960000D02*
X195615000Y-52960000D01*
X207045000Y-52960000D02*
X207045000Y-58240000D01*
X207045000Y-58240000D02*
X195615000Y-58240000D01*
G04 #@! TO.C,R31*
X128775000Y-63730000D02*
X129825000Y-63730000D01*
X128775000Y-64270000D02*
X128775000Y-63730000D01*
X129825000Y-63730000D02*
X129825000Y-64270000D01*
X129825000Y-64270000D02*
X128775000Y-64270000D01*
G04 #@! TO.C,C23*
X164025000Y-63500000D02*
X165625000Y-63500000D01*
X164025000Y-64300000D02*
X164025000Y-63500000D01*
X165625000Y-63500000D02*
X165625000Y-64300000D01*
X165625000Y-64300000D02*
X164025000Y-64300000D01*
G04 #@! TO.C,C39*
X141400000Y-48900000D02*
X142200000Y-48900000D01*
X141400000Y-50500000D02*
X141400000Y-48900000D01*
X142200000Y-48900000D02*
X142200000Y-50500000D01*
X142200000Y-50500000D02*
X141400000Y-50500000D01*
G04 #@! TO.C,J7*
X147447000Y-76065000D02*
X148082000Y-75430000D01*
X147447000Y-77970000D02*
X147447000Y-76065000D01*
X148082000Y-75430000D02*
X155067000Y-75430000D01*
X155067000Y-75430000D02*
X155067000Y-77970000D01*
X155067000Y-77970000D02*
X147447000Y-77970000D01*
G04 #@! TO.C,J2*
X119110000Y-51980000D02*
X129270000Y-51980000D01*
X119110000Y-54520000D02*
X119110000Y-51980000D01*
X128635000Y-54520000D02*
X119110000Y-54520000D01*
X129270000Y-51980000D02*
X129270000Y-53885000D01*
X129270000Y-53885000D02*
X128635000Y-54520000D01*
G04 #@! TO.C,J4*
X122050000Y-72465000D02*
X122685000Y-71830000D01*
X122050000Y-74370000D02*
X122050000Y-72465000D01*
X122685000Y-71830000D02*
X134750000Y-71830000D01*
X134750000Y-71830000D02*
X134750000Y-74370000D01*
X134750000Y-74370000D02*
X122050000Y-74370000D01*
G04 #@! TO.C,U3*
X156675000Y-59730000D02*
X161675000Y-59730000D01*
X156675000Y-64730000D02*
X156675000Y-59730000D01*
X160675000Y-64730000D02*
X156675000Y-64730000D01*
X161675000Y-59730000D02*
X161675000Y-63730000D01*
X161675000Y-63730000D02*
X160675000Y-64730000D01*
G04 #@! TO.C,C21*
X159950000Y-68700000D02*
X160750000Y-68700000D01*
X159950000Y-70300000D02*
X159950000Y-68700000D01*
X160750000Y-68700000D02*
X160750000Y-70300000D01*
X160750000Y-70300000D02*
X159950000Y-70300000D01*
G04 #@! TO.C,C11*
X152012500Y-52800000D02*
X152812500Y-52800000D01*
X152012500Y-54400000D02*
X152012500Y-52800000D01*
X152812500Y-52800000D02*
X152812500Y-54400000D01*
X152812500Y-54400000D02*
X152012500Y-54400000D01*
G04 #@! TO.C,R13*
X151925000Y-60687500D02*
X153525000Y-60687500D01*
X151925000Y-61512500D02*
X151925000Y-60687500D01*
X153525000Y-60687500D02*
X153525000Y-61512500D01*
X153525000Y-61512500D02*
X151925000Y-61512500D01*
G04 #@! TO.C,C19*
X167189200Y-67100000D02*
X167989200Y-67100000D01*
X167189200Y-68700000D02*
X167189200Y-67100000D01*
X167989200Y-67100000D02*
X167989200Y-68700000D01*
X167989200Y-68700000D02*
X167189200Y-68700000D01*
G04 #@! TO.C,L2*
X166800000Y-53150000D02*
X169300000Y-53150000D01*
X166800000Y-56350000D02*
X166800000Y-53150000D01*
X169300000Y-53150000D02*
X169300000Y-56350000D01*
X169300000Y-56350000D02*
X166800000Y-56350000D01*
G04 #@! TO.C,R20*
X146887500Y-69200000D02*
X147712500Y-69200000D01*
X146887500Y-70800000D02*
X146887500Y-69200000D01*
X147712500Y-69200000D02*
X147712500Y-70800000D01*
X147712500Y-70800000D02*
X146887500Y-70800000D01*
G04 #@! TO.C,R7*
X175300000Y-57737500D02*
X176900000Y-57737500D01*
X175300000Y-58562500D02*
X175300000Y-57737500D01*
X176900000Y-57737500D02*
X176900000Y-58562500D01*
X176900000Y-58562500D02*
X175300000Y-58562500D01*
G04 #@! TO.C,C41*
X142850000Y-54650000D02*
X144450000Y-54650000D01*
X142850000Y-55450000D02*
X142850000Y-54650000D01*
X144450000Y-54650000D02*
X144450000Y-55450000D01*
X144450000Y-55450000D02*
X142850000Y-55450000D01*
G04 #@! TO.C,C7*
X169950000Y-52650000D02*
X170750000Y-52650000D01*
X169950000Y-54250000D02*
X169950000Y-52650000D01*
X170750000Y-52650000D02*
X170750000Y-54250000D01*
X170750000Y-54250000D02*
X169950000Y-54250000D01*
G04 #@! TO.C,C38*
X139900000Y-48900000D02*
X140700000Y-48900000D01*
X139900000Y-50500000D02*
X139900000Y-48900000D01*
X140700000Y-48900000D02*
X140700000Y-50500000D01*
X140700000Y-50500000D02*
X139900000Y-50500000D01*
G04 #@! TO.C,C29*
X151925000Y-62200000D02*
X153525000Y-62200000D01*
X151925000Y-63000000D02*
X151925000Y-62200000D01*
X153525000Y-62200000D02*
X153525000Y-63000000D01*
X153525000Y-63000000D02*
X151925000Y-63000000D01*
G04 #@! TO.C,D3*
X114800000Y-72420000D02*
X114800000Y-75720000D01*
X114800000Y-75720000D02*
X117200000Y-75720000D01*
X117200000Y-72420000D02*
X114800000Y-72420000D01*
X117200000Y-75720000D02*
X117200000Y-72420000D01*
X116900000Y-74070000D02*
G75*
G02*
X115100000Y-74070000I-900000J0D01*
G01*
X115100000Y-74070000D02*
G75*
G02*
X116900000Y-74070000I900000J0D01*
G01*
G04 #@! TO.C,C34*
X133200000Y-53200000D02*
X134800000Y-53200000D01*
X133200000Y-54000000D02*
X133200000Y-53200000D01*
X134800000Y-53200000D02*
X134800000Y-54000000D01*
X134800000Y-54000000D02*
X133200000Y-54000000D01*
G04 #@! TO.C,FB3*
X133200000Y-51600000D02*
X134800000Y-51600000D01*
X133200000Y-52400000D02*
X133200000Y-51600000D01*
X134800000Y-51600000D02*
X134800000Y-52400000D01*
X134800000Y-52400000D02*
X133200000Y-52400000D01*
G04 #@! TO.C,R21*
X145387500Y-69200000D02*
X146212500Y-69200000D01*
X145387500Y-70800000D02*
X145387500Y-69200000D01*
X146212500Y-69200000D02*
X146212500Y-70800000D01*
X146212500Y-70800000D02*
X145387500Y-70800000D01*
G04 #@! TO.C,R1*
X126400000Y-59987500D02*
X128000000Y-59987500D01*
X126400000Y-60812500D02*
X126400000Y-59987500D01*
X128000000Y-59987500D02*
X128000000Y-60812500D01*
X128000000Y-60812500D02*
X126400000Y-60812500D01*
G04 #@! TO.C,C10*
X163900000Y-54200000D02*
X164700000Y-54200000D01*
X163900000Y-55800000D02*
X163900000Y-54200000D01*
X164700000Y-54200000D02*
X164700000Y-55800000D01*
X164700000Y-55800000D02*
X163900000Y-55800000D01*
G04 #@! TO.C,Y1*
X161600000Y-68250000D02*
X161600000Y-70750000D01*
X161600000Y-70750000D02*
X164800000Y-70750000D01*
X164800000Y-68250000D02*
X161600000Y-68250000D01*
X164800000Y-69250000D02*
X163800000Y-68250000D01*
X164800000Y-70750000D02*
X164800000Y-68250000D01*
G04 #@! TO.C,L3*
X155512500Y-52350000D02*
X158712500Y-52350000D01*
X155512500Y-54850000D02*
X155512500Y-52350000D01*
X158712500Y-52350000D02*
X158712500Y-54850000D01*
X158712500Y-54850000D02*
X155512500Y-54850000D01*
G04 #@! TO.C,FB2*
X145800000Y-66750000D02*
X147400000Y-66750000D01*
X145800000Y-67550000D02*
X145800000Y-66750000D01*
X147400000Y-66750000D02*
X147400000Y-67550000D01*
X147400000Y-67550000D02*
X145800000Y-67550000D01*
G04 #@! TO.C,C14*
X177851472Y-66567157D02*
X178417157Y-66001472D01*
X178417157Y-66001472D02*
X179548528Y-67132843D01*
X178982843Y-67698528D02*
X177851472Y-66567157D01*
X179548528Y-67132843D02*
X178982843Y-67698528D01*
G04 #@! TO.C,R22*
X143787500Y-63150000D02*
X144612500Y-63150000D01*
X143787500Y-64750000D02*
X143787500Y-63150000D01*
X144612500Y-63150000D02*
X144612500Y-64750000D01*
X144612500Y-64750000D02*
X143787500Y-64750000D01*
G04 #@! TO.C,R3*
X118400000Y-56987500D02*
X120000000Y-56987500D01*
X118400000Y-57812500D02*
X118400000Y-56987500D01*
X120000000Y-56987500D02*
X120000000Y-57812500D01*
X120000000Y-57812500D02*
X118400000Y-57812500D01*
G04 #@! TO.C,R5*
X118400000Y-55337500D02*
X120000000Y-55337500D01*
X118400000Y-56162500D02*
X118400000Y-55337500D01*
X120000000Y-55337500D02*
X120000000Y-56162500D01*
X120000000Y-56162500D02*
X118400000Y-56162500D01*
G04 #@! TO.C,R10*
X141350000Y-73787500D02*
X142950000Y-73787500D01*
X141350000Y-74612500D02*
X141350000Y-73787500D01*
X142950000Y-73787500D02*
X142950000Y-74612500D01*
X142950000Y-74612500D02*
X141350000Y-74612500D01*
G04 #@! TO.C,C24*
X157900000Y-57500000D02*
X159500000Y-57500000D01*
X157900000Y-58300000D02*
X157900000Y-57500000D01*
X159500000Y-57500000D02*
X159500000Y-58300000D01*
X159500000Y-58300000D02*
X157900000Y-58300000D01*
G04 #@! TO.C,R14*
X151925000Y-68487500D02*
X153525000Y-68487500D01*
X151925000Y-69312500D02*
X151925000Y-68487500D01*
X153525000Y-68487500D02*
X153525000Y-69312500D01*
X153525000Y-69312500D02*
X151925000Y-69312500D01*
G04 #@! TO.C,TR1*
X167575000Y-58930000D02*
X167575000Y-64530000D01*
X167575000Y-64530000D02*
X173175000Y-64530000D01*
X173175000Y-58930000D02*
X167575000Y-58930000D01*
X173175000Y-64530000D02*
X173175000Y-58930000D01*
G04 #@! TO.C,C9*
X153512500Y-52800000D02*
X154312500Y-52800000D01*
X153512500Y-54400000D02*
X153512500Y-52800000D01*
X154312500Y-52800000D02*
X154312500Y-54400000D01*
X154312500Y-54400000D02*
X153512500Y-54400000D01*
G04 #@! TO.C,FB4*
X146900000Y-57300000D02*
X147700000Y-57300000D01*
X146900000Y-58900000D02*
X146900000Y-57300000D01*
X147700000Y-57300000D02*
X147700000Y-58900000D01*
X147700000Y-58900000D02*
X146900000Y-58900000D01*
G04 #@! TO.C,C1*
X115400000Y-68942000D02*
X117000000Y-68942000D01*
X115400000Y-69742000D02*
X115400000Y-68942000D01*
X117000000Y-68942000D02*
X117000000Y-69742000D01*
X117000000Y-69742000D02*
X115400000Y-69742000D01*
G04 #@! TO.C,C17*
X179500000Y-64000000D02*
X180300000Y-64000000D01*
X179500000Y-65600000D02*
X179500000Y-64000000D01*
X180300000Y-64000000D02*
X180300000Y-65600000D01*
X180300000Y-65600000D02*
X179500000Y-65600000D01*
G04 #@! TO.C,C37*
X131700000Y-68700000D02*
X133300000Y-68700000D01*
X131700000Y-69500000D02*
X131700000Y-68700000D01*
X133300000Y-68700000D02*
X133300000Y-69500000D01*
X133300000Y-69500000D02*
X131700000Y-69500000D01*
G04 #@! TO.C,C3*
X126400000Y-67000000D02*
X128000000Y-67000000D01*
X126400000Y-67800000D02*
X126400000Y-67000000D01*
X128000000Y-67000000D02*
X128000000Y-67800000D01*
X128000000Y-67800000D02*
X126400000Y-67800000D01*
G04 #@! TO.C,R17*
X151950000Y-69987500D02*
X153550000Y-69987500D01*
X151950000Y-70812500D02*
X151950000Y-69987500D01*
X153550000Y-69987500D02*
X153550000Y-70812500D01*
X153550000Y-70812500D02*
X151950000Y-70812500D01*
G04 #@! TO.C,U6*
X142850000Y-49100000D02*
X145350000Y-49100000D01*
X142850000Y-50700000D02*
X142850000Y-49100000D01*
X145350000Y-49100000D02*
X145750000Y-49500000D01*
X145750000Y-49500000D02*
X145750000Y-50700000D01*
X145750000Y-50700000D02*
X142850000Y-50700000D01*
G04 #@! TO.C,C25*
X165700000Y-67100000D02*
X166500000Y-67100000D01*
X165700000Y-68700000D02*
X165700000Y-67100000D01*
X166500000Y-67100000D02*
X166500000Y-68700000D01*
X166500000Y-68700000D02*
X165700000Y-68700000D01*
G04 #@! TO.C,R26*
X126400000Y-55337500D02*
X128000000Y-55337500D01*
X126400000Y-56162500D02*
X126400000Y-55337500D01*
X128000000Y-55337500D02*
X128000000Y-56162500D01*
X128000000Y-56162500D02*
X126400000Y-56162500D01*
G04 #@! TO.C,C13*
X161000000Y-57500000D02*
X162600000Y-57500000D01*
X161000000Y-58300000D02*
X161000000Y-57500000D01*
X162600000Y-57500000D02*
X162600000Y-58300000D01*
X162600000Y-58300000D02*
X161000000Y-58300000D01*
G04 #@! TO.C,U1*
X124475000Y-62270000D02*
X124475000Y-63650000D01*
X124475000Y-62270000D02*
X124795000Y-61950000D01*
X125775000Y-61950000D02*
X124795000Y-61950000D01*
X125775000Y-61950000D02*
X124795000Y-61950000D01*
X125775000Y-61950000D02*
X125775000Y-63650000D01*
X125775000Y-63650000D02*
X124475000Y-63650000D01*
G04 #@! TO.C,C16*
X179500000Y-60600000D02*
X180300000Y-60600000D01*
X179500000Y-62200000D02*
X179500000Y-60600000D01*
X180300000Y-60600000D02*
X180300000Y-62200000D01*
X180300000Y-62200000D02*
X179500000Y-62200000D01*
G04 #@! TO.C,C27*
X163700000Y-58800000D02*
X164500000Y-58800000D01*
X163700000Y-60400000D02*
X163700000Y-58800000D01*
X164500000Y-58800000D02*
X164500000Y-60400000D01*
X164500000Y-60400000D02*
X163700000Y-60400000D01*
G04 #@! TO.C,R27*
X126400000Y-56837500D02*
X128000000Y-56837500D01*
X126400000Y-57662500D02*
X126400000Y-56837500D01*
X128000000Y-56837500D02*
X128000000Y-57662500D01*
X128000000Y-57662500D02*
X126400000Y-57662500D01*
G04 #@! TD*
M02*
