G04 #@! TF.GenerationSoftware,KiCad,Pcbnew,8.0.4*
G04 #@! TF.CreationDate,2024-11-17T23:13:56+01:00*
G04 #@! TF.ProjectId,TEF6687,54454636-3638-4372-9e6b-696361645f70,v1.1*
G04 #@! TF.SameCoordinates,Original*
G04 #@! TF.FileFunction,Soldermask,Top*
G04 #@! TF.FilePolarity,Negative*
%FSLAX46Y46*%
G04 Gerber Fmt 4.6, Leading zero omitted, Abs format (unit mm)*
G04 Created by KiCad (PCBNEW 8.0.4) date 2024-11-17 23:13:56*
%MOMM*%
%LPD*%
G01*
G04 APERTURE LIST*
G04 Aperture macros list*
%AMRoundRect*
0 Rectangle with rounded corners*
0 $1 Rounding radius*
0 $2 $3 $4 $5 $6 $7 $8 $9 X,Y pos of 4 corners*
0 Add a 4 corners polygon primitive as box body*
4,1,4,$2,$3,$4,$5,$6,$7,$8,$9,$2,$3,0*
0 Add four circle primitives for the rounded corners*
1,1,$1+$1,$2,$3*
1,1,$1+$1,$4,$5*
1,1,$1+$1,$6,$7*
1,1,$1+$1,$8,$9*
0 Add four rect primitives between the rounded corners*
20,1,$1+$1,$2,$3,$4,$5,0*
20,1,$1+$1,$4,$5,$6,$7,0*
20,1,$1+$1,$6,$7,$8,$9,0*
20,1,$1+$1,$8,$9,$2,$3,0*%
%AMFreePoly0*
4,1,6,0.397500,-0.010000,0.397500,-0.125000,-0.202500,-0.125000,-0.202500,0.125000,0.217500,0.125000,0.397500,-0.010000,0.397500,-0.010000,$1*%
%AMFreePoly1*
4,1,6,0.397500,0.010000,0.217500,-0.125000,-0.202500,-0.125000,-0.202500,0.125000,0.397500,0.125000,0.397500,0.010000,0.397500,0.010000,$1*%
%AMFreePoly2*
4,1,7,0.202500,-0.125000,-0.202500,-0.125000,-0.397500,-0.125000,-0.397500,-0.010000,-0.217500,0.125000,0.202500,0.125000,0.202500,-0.125000,0.202500,-0.125000,$1*%
G04 Aperture macros list end*
%ADD10C,0.200000*%
%ADD11C,1.500000*%
%ADD12RoundRect,0.249999X0.700001X-0.387501X0.700001X0.387501X-0.700001X0.387501X-0.700001X-0.387501X0*%
%ADD13RoundRect,0.225000X-0.225000X-0.250000X0.225000X-0.250000X0.225000X0.250000X-0.225000X0.250000X0*%
%ADD14RoundRect,0.250000X0.250000X-0.250000X0.250000X0.250000X-0.250000X0.250000X-0.250000X-0.250000X0*%
%ADD15R,1.800000X1.800000*%
%ADD16C,1.800000*%
%ADD17RoundRect,0.225000X0.225000X0.250000X-0.225000X0.250000X-0.225000X-0.250000X0.225000X-0.250000X0*%
%ADD18RoundRect,0.200000X0.200000X0.275000X-0.200000X0.275000X-0.200000X-0.275000X0.200000X-0.275000X0*%
%ADD19RoundRect,0.150000X-0.150000X0.512500X-0.150000X-0.512500X0.150000X-0.512500X0.150000X0.512500X0*%
%ADD20RoundRect,0.150000X-0.587500X-0.150000X0.587500X-0.150000X0.587500X0.150000X-0.587500X0.150000X0*%
%ADD21R,0.400000X1.900000*%
%ADD22R,1.200000X2.000000*%
%ADD23RoundRect,0.250000X-0.250000X0.250000X-0.250000X-0.250000X0.250000X-0.250000X0.250000X0.250000X0*%
%ADD24RoundRect,0.225000X0.250000X-0.225000X0.250000X0.225000X-0.250000X0.225000X-0.250000X-0.225000X0*%
%ADD25RoundRect,0.250000X-1.595000X-0.640000X1.595000X-0.640000X1.595000X0.640000X-1.595000X0.640000X0*%
%ADD26RoundRect,0.250000X-1.595000X-1.082500X1.595000X-1.082500X1.595000X1.082500X-1.595000X1.082500X0*%
%ADD27RoundRect,0.200000X-0.275000X0.200000X-0.275000X-0.200000X0.275000X-0.200000X0.275000X0.200000X0*%
%ADD28R,1.100000X0.400000*%
%ADD29RoundRect,0.200000X0.275000X-0.200000X0.275000X0.200000X-0.275000X0.200000X-0.275000X-0.200000X0*%
%ADD30RoundRect,0.075000X0.662500X0.075000X-0.662500X0.075000X-0.662500X-0.075000X0.662500X-0.075000X0*%
%ADD31RoundRect,0.075000X0.075000X0.662500X-0.075000X0.662500X-0.075000X-0.662500X0.075000X-0.662500X0*%
%ADD32RoundRect,0.249999X-0.387501X-0.700001X0.387501X-0.700001X0.387501X0.700001X-0.387501X0.700001X0*%
%ADD33R,1.000000X1.000000*%
%ADD34R,2.200000X1.050000*%
%ADD35FreePoly0,0.000000*%
%ADD36R,0.600000X0.250000*%
%ADD37FreePoly1,0.000000*%
%ADD38FreePoly0,90.000000*%
%ADD39R,0.250000X0.600000*%
%ADD40FreePoly2,270.000000*%
%ADD41FreePoly0,180.000000*%
%ADD42FreePoly1,180.000000*%
%ADD43FreePoly0,270.000000*%
%ADD44FreePoly2,90.000000*%
%ADD45R,1.100000X1.100000*%
%ADD46RoundRect,0.200000X-0.200000X-0.275000X0.200000X-0.275000X0.200000X0.275000X-0.200000X0.275000X0*%
%ADD47R,1.700000X1.700000*%
%ADD48O,1.700000X1.700000*%
%ADD49RoundRect,0.135000X0.135000X0.185000X-0.135000X0.185000X-0.135000X-0.185000X0.135000X-0.185000X0*%
%ADD50RoundRect,0.225000X0.017678X-0.335876X0.335876X-0.017678X-0.017678X0.335876X-0.335876X0.017678X0*%
%ADD51C,0.650000*%
%ADD52R,1.275000X0.600000*%
%ADD53R,1.300000X0.600000*%
%ADD54R,1.370000X0.300000*%
%ADD55O,2.100000X1.050000*%
%ADD56O,1.800000X0.900000*%
%ADD57R,2.286000X1.500000*%
%ADD58RoundRect,0.135000X-0.135000X-0.185000X0.135000X-0.185000X0.135000X0.185000X-0.135000X0.185000X0*%
%ADD59RoundRect,0.062500X0.437500X0.062500X-0.437500X0.062500X-0.437500X-0.062500X0.437500X-0.062500X0*%
%ADD60RoundRect,0.062500X0.062500X0.437500X-0.062500X0.437500X-0.062500X-0.437500X0.062500X-0.437500X0*%
%ADD61R,3.100000X3.100000*%
%ADD62RoundRect,0.225000X-0.250000X0.225000X-0.250000X-0.225000X0.250000X-0.225000X0.250000X0.225000X0*%
%ADD63R,2.000000X1.200000*%
%ADD64RoundRect,0.218750X0.218750X0.256250X-0.218750X0.256250X-0.218750X-0.256250X0.218750X-0.256250X0*%
%ADD65R,1.400000X1.200000*%
%ADD66RoundRect,0.218750X-0.218750X-0.256250X0.218750X-0.256250X0.218750X0.256250X-0.218750X0.256250X0*%
%ADD67RoundRect,0.225000X0.335876X0.017678X0.017678X0.335876X-0.335876X-0.017678X-0.017678X-0.335876X0*%
%ADD68R,1.300000X1.000000*%
%ADD69R,1.400000X1.900000*%
%ADD70RoundRect,0.218750X-0.256250X0.218750X-0.256250X-0.218750X0.256250X-0.218750X0.256250X0.218750X0*%
%ADD71RoundRect,0.093750X-0.156250X-0.093750X0.156250X-0.093750X0.156250X0.093750X-0.156250X0.093750X0*%
%ADD72RoundRect,0.075000X-0.250000X-0.075000X0.250000X-0.075000X0.250000X0.075000X-0.250000X0.075000X0*%
G04 APERTURE END LIST*
D10*
X113539297Y-43439297D02*
X195200000Y-43439297D01*
X195200000Y-46900000D01*
X113539297Y-46900000D01*
X113539297Y-43439297D01*
G36*
X113539297Y-43439297D02*
G01*
X195200000Y-43439297D01*
X195200000Y-46900000D01*
X113539297Y-46900000D01*
X113539297Y-43439297D01*
G37*
X113800000Y-78999649D02*
X195300000Y-78999649D01*
X195300000Y-82459649D01*
X113800000Y-82459649D01*
X113800000Y-78999649D01*
G36*
X113800000Y-78999649D02*
G01*
X195300000Y-78999649D01*
X195300000Y-82459649D01*
X113800000Y-82459649D01*
X113800000Y-78999649D01*
G37*
D11*
G04 #@! TO.C,REF\u002A\u002A*
X149700000Y-52400000D02*
X149700000Y-54300000D01*
X152200000Y-50400000D02*
X179700000Y-50400000D01*
X179700000Y-73900000D02*
X151900000Y-73900000D01*
X181700000Y-52900000D02*
X181700000Y-52350000D01*
X149700000Y-52400000D02*
G75*
G02*
X151700000Y-50400000I1999999J1D01*
G01*
X151690092Y-73888587D02*
G75*
G02*
X150828920Y-73704910I8J2110687D01*
G01*
X181449999Y-72850000D02*
G75*
G02*
X179700000Y-73891230I-1749999J950000D01*
G01*
G04 #@! TD*
D12*
G04 #@! TO.C,FB5*
X147300000Y-52912500D03*
X147300000Y-48687500D03*
G04 #@! TD*
D13*
G04 #@! TO.C,C6*
X175325000Y-56400000D03*
X176875000Y-56400000D03*
G04 #@! TD*
D14*
G04 #@! TO.C,D5*
X184100000Y-54950000D03*
X184100000Y-52450000D03*
G04 #@! TD*
D15*
G04 #@! TO.C,D1*
X116000000Y-54460000D03*
D16*
X116000000Y-57000000D03*
G04 #@! TD*
D17*
G04 #@! TO.C,C43*
X144425000Y-53500000D03*
X142875000Y-53500000D03*
G04 #@! TD*
D18*
G04 #@! TO.C,R28*
X133325000Y-70600000D03*
X131675000Y-70600000D03*
G04 #@! TD*
G04 #@! TO.C,R12*
X153550000Y-58100000D03*
X151900000Y-58100000D03*
G04 #@! TD*
D17*
G04 #@! TO.C,C5*
X123050000Y-55750000D03*
X121500000Y-55750000D03*
G04 #@! TD*
D19*
G04 #@! TO.C,U5*
X138750000Y-48762500D03*
X137800000Y-48762500D03*
X136850000Y-48762500D03*
X136850000Y-51037500D03*
X138750000Y-51037500D03*
G04 #@! TD*
D20*
G04 #@! TO.C,D4*
X160700000Y-53800000D03*
X160700000Y-55700000D03*
X162575000Y-54750000D03*
G04 #@! TD*
D21*
G04 #@! TO.C,Y2*
X145500000Y-63900000D03*
X146700000Y-63900000D03*
X147900000Y-63900000D03*
G04 #@! TD*
D22*
G04 #@! TO.C,L4*
X172542000Y-67564000D03*
X169342000Y-67564000D03*
G04 #@! TD*
D23*
G04 #@! TO.C,D6*
X184100000Y-70900000D03*
X184100000Y-73400000D03*
G04 #@! TD*
D18*
G04 #@! TO.C,R4*
X123100000Y-57400000D03*
X121450000Y-57400000D03*
G04 #@! TD*
D24*
G04 #@! TO.C,C33*
X144300000Y-58875000D03*
X144300000Y-57325000D03*
G04 #@! TD*
D13*
G04 #@! TO.C,C26*
X161925000Y-66900000D03*
X163475000Y-66900000D03*
G04 #@! TD*
D18*
G04 #@! TO.C,R15*
X153550000Y-67400000D03*
X151900000Y-67400000D03*
G04 #@! TD*
D25*
G04 #@! TO.C,J9*
X192250000Y-70300000D03*
D26*
X192250000Y-66807500D03*
X192250000Y-73792500D03*
G04 #@! TD*
D13*
G04 #@! TO.C,C36*
X131725000Y-67500000D03*
X133275000Y-67500000D03*
G04 #@! TD*
D17*
G04 #@! TO.C,C22*
X165600000Y-65400000D03*
X164050000Y-65400000D03*
G04 #@! TD*
D24*
G04 #@! TO.C,C31*
X145800000Y-58875000D03*
X145800000Y-57325000D03*
G04 #@! TD*
D13*
G04 #@! TO.C,C12*
X151925000Y-56600000D03*
X153475000Y-56600000D03*
G04 #@! TD*
D27*
G04 #@! TO.C,R25*
X138400000Y-72025000D03*
X138400000Y-73675000D03*
G04 #@! TD*
D28*
G04 #@! TO.C,FL1*
X130250000Y-62400000D03*
X128350000Y-62400000D03*
X130250000Y-63200000D03*
X128350000Y-63200000D03*
G04 #@! TD*
D24*
G04 #@! TO.C,C18*
X174200000Y-68325000D03*
X174200000Y-66775000D03*
G04 #@! TD*
D17*
G04 #@! TO.C,C32*
X127975000Y-70600000D03*
X126425000Y-70600000D03*
G04 #@! TD*
D29*
G04 #@! TO.C,R8*
X178500000Y-54975000D03*
X178500000Y-53325000D03*
G04 #@! TD*
D15*
G04 #@! TO.C,D2*
X116000000Y-49525000D03*
D16*
X116000000Y-52065000D03*
G04 #@! TD*
D30*
G04 #@! TO.C,U4*
X141462500Y-64550000D03*
X141462500Y-64050000D03*
X141462500Y-63550000D03*
X141462500Y-63050000D03*
X141462500Y-62550000D03*
X141462500Y-62050000D03*
X141462500Y-61550000D03*
X141462500Y-61050000D03*
X141462500Y-60550000D03*
X141462500Y-60050000D03*
X141462500Y-59550000D03*
X141462500Y-59050000D03*
D31*
X140050000Y-57637500D03*
X139550000Y-57637500D03*
X139050000Y-57637500D03*
X138550000Y-57637500D03*
X138050000Y-57637500D03*
X137550000Y-57637500D03*
X137050000Y-57637500D03*
X136550000Y-57637500D03*
X136050000Y-57637500D03*
X135550000Y-57637500D03*
X135050000Y-57637500D03*
X134550000Y-57637500D03*
D30*
X133137500Y-59050000D03*
X133137500Y-59550000D03*
X133137500Y-60050000D03*
X133137500Y-60550000D03*
X133137500Y-61050000D03*
X133137500Y-61550000D03*
X133137500Y-62050000D03*
X133137500Y-62550000D03*
X133137500Y-63050000D03*
X133137500Y-63550000D03*
X133137500Y-64050000D03*
X133137500Y-64550000D03*
D31*
X134550000Y-65962500D03*
X135050000Y-65962500D03*
X135550000Y-65962500D03*
X136050000Y-65962500D03*
X136550000Y-65962500D03*
X137050000Y-65962500D03*
X137550000Y-65962500D03*
X138050000Y-65962500D03*
X138550000Y-65962500D03*
X139050000Y-65962500D03*
X139550000Y-65962500D03*
X140050000Y-65962500D03*
G04 #@! TD*
D13*
G04 #@! TO.C,C4*
X115425000Y-70850000D03*
X116975000Y-70850000D03*
G04 #@! TD*
D32*
G04 #@! TO.C,FB1*
X118787500Y-69750000D03*
X123012500Y-69750000D03*
G04 #@! TD*
D33*
G04 #@! TO.C,J8*
X184700000Y-49579000D03*
D34*
X186200000Y-48104000D03*
D33*
X187700000Y-49579000D03*
D34*
X186200000Y-51054000D03*
G04 #@! TD*
D35*
G04 #@! TO.C,U2*
X176052500Y-62600000D03*
D36*
X176150000Y-63100000D03*
D37*
X176052500Y-63600000D03*
D38*
X176700000Y-64247500D03*
D39*
X177200000Y-64150000D03*
D40*
X177700000Y-64247500D03*
D41*
X178347500Y-63600000D03*
D36*
X178250000Y-63100000D03*
D42*
X178347500Y-62600000D03*
D43*
X177700000Y-61952500D03*
D39*
X177200000Y-62050000D03*
D44*
X176700000Y-61952500D03*
D45*
X177200000Y-63100000D03*
G04 #@! TD*
D17*
G04 #@! TO.C,C40*
X134775000Y-48900000D03*
X133225000Y-48900000D03*
G04 #@! TD*
D29*
G04 #@! TO.C,R9*
X165800000Y-55825000D03*
X165800000Y-54175000D03*
G04 #@! TD*
D46*
G04 #@! TO.C,R16*
X151900000Y-59600000D03*
X153550000Y-59600000D03*
G04 #@! TD*
D18*
G04 #@! TO.C,R24*
X142925000Y-70100000D03*
X141275000Y-70100000D03*
G04 #@! TD*
D24*
G04 #@! TO.C,C8*
X171900000Y-54225000D03*
X171900000Y-52675000D03*
G04 #@! TD*
D17*
G04 #@! TO.C,C28*
X153500000Y-64100000D03*
X151950000Y-64100000D03*
G04 #@! TD*
G04 #@! TO.C,C2*
X127975000Y-58850000D03*
X126425000Y-58850000D03*
G04 #@! TD*
D47*
G04 #@! TO.C,J6*
X126873000Y-76700000D03*
D48*
X129413000Y-76700000D03*
X131953000Y-76700000D03*
X134493000Y-76700000D03*
X137033000Y-76700000D03*
X139573000Y-76700000D03*
X142113000Y-76700000D03*
G04 #@! TD*
D46*
G04 #@! TO.C,R6*
X122475000Y-76800000D03*
X124125000Y-76800000D03*
G04 #@! TD*
D13*
G04 #@! TO.C,C20*
X171475000Y-56950000D03*
X173025000Y-56950000D03*
G04 #@! TD*
D46*
G04 #@! TO.C,R29*
X126375000Y-69000000D03*
X128025000Y-69000000D03*
G04 #@! TD*
D18*
G04 #@! TO.C,R23*
X142925000Y-71650000D03*
X141275000Y-71650000D03*
G04 #@! TD*
D47*
G04 #@! TO.C,J3*
X130540000Y-49350000D03*
D48*
X128000000Y-49350000D03*
X125460000Y-49350000D03*
X122920000Y-49350000D03*
X120380000Y-49350000D03*
G04 #@! TD*
D13*
G04 #@! TO.C,C35*
X141325000Y-68500000D03*
X142875000Y-68500000D03*
G04 #@! TD*
D49*
G04 #@! TO.C,R30*
X129810000Y-61650000D03*
X128790000Y-61650000D03*
G04 #@! TD*
D46*
G04 #@! TO.C,R2*
X126375000Y-65800000D03*
X128025000Y-65800000D03*
G04 #@! TD*
D27*
G04 #@! TO.C,R18*
X158425000Y-68675000D03*
X158425000Y-70325000D03*
G04 #@! TD*
D50*
G04 #@! TO.C,C15*
X178101992Y-59948008D03*
X179198008Y-58851992D03*
G04 #@! TD*
D17*
G04 #@! TO.C,C42*
X134775000Y-50400000D03*
X133225000Y-50400000D03*
G04 #@! TD*
D27*
G04 #@! TO.C,R19*
X155225000Y-68675000D03*
X155225000Y-70325000D03*
G04 #@! TD*
D51*
G04 #@! TO.C,J1*
X118880000Y-60390000D03*
X118880000Y-66170000D03*
D52*
X120112500Y-60080000D03*
D53*
X120100000Y-60880000D03*
D54*
X120065000Y-62030000D03*
X120065000Y-63030000D03*
X120065000Y-63530000D03*
X120065000Y-64530000D03*
D52*
X120112500Y-66480000D03*
D53*
X120100000Y-65680000D03*
D54*
X120065000Y-65030000D03*
X120065000Y-64030000D03*
X120065000Y-62530000D03*
X120065000Y-61530000D03*
D55*
X119380000Y-58960000D03*
X119380000Y-67600000D03*
D56*
X115200000Y-58960000D03*
X115200000Y-67600000D03*
G04 #@! TD*
D22*
G04 #@! TO.C,L1*
X176750000Y-54150000D03*
X173550000Y-54150000D03*
G04 #@! TD*
D57*
G04 #@! TO.C,REF\u002A\u002A*
X154600000Y-73900000D03*
X176900000Y-50400000D03*
G04 #@! TD*
D13*
G04 #@! TO.C,C30*
X151950000Y-65900000D03*
X153500000Y-65900000D03*
G04 #@! TD*
D27*
G04 #@! TO.C,R11*
X156825000Y-68675000D03*
X156825000Y-70325000D03*
G04 #@! TD*
D25*
G04 #@! TO.C,J10*
X192250000Y-55600000D03*
D26*
X192250000Y-52107500D03*
X192250000Y-59092500D03*
G04 #@! TD*
D58*
G04 #@! TO.C,R31*
X128790000Y-64000000D03*
X129810000Y-64000000D03*
G04 #@! TD*
D17*
G04 #@! TO.C,C23*
X165600000Y-63900000D03*
X164050000Y-63900000D03*
G04 #@! TD*
D24*
G04 #@! TO.C,C39*
X141800000Y-50475000D03*
X141800000Y-48925000D03*
G04 #@! TD*
D47*
G04 #@! TO.C,J7*
X148717000Y-76700000D03*
D48*
X151257000Y-76700000D03*
X153797000Y-76700000D03*
G04 #@! TD*
D47*
G04 #@! TO.C,J2*
X128000000Y-53250000D03*
D48*
X125460000Y-53250000D03*
X122920000Y-53250000D03*
X120380000Y-53250000D03*
G04 #@! TD*
D47*
G04 #@! TO.C,J4*
X123320000Y-73100000D03*
D48*
X125860000Y-73100000D03*
X128400000Y-73100000D03*
X130940000Y-73100000D03*
X133480000Y-73100000D03*
G04 #@! TD*
D59*
G04 #@! TO.C,U3*
X161675000Y-63980000D03*
X161675000Y-63480000D03*
X161675000Y-62980000D03*
X161675000Y-62480000D03*
X161675000Y-61980000D03*
X161675000Y-61480000D03*
X161675000Y-60980000D03*
X161675000Y-60480000D03*
D60*
X160925000Y-59730000D03*
X160425000Y-59730000D03*
X159925000Y-59730000D03*
X159425000Y-59730000D03*
X158925000Y-59730000D03*
X158425000Y-59730000D03*
X157925000Y-59730000D03*
X157425000Y-59730000D03*
D59*
X156675000Y-60480000D03*
X156675000Y-60980000D03*
X156675000Y-61480000D03*
X156675000Y-61980000D03*
X156675000Y-62480000D03*
X156675000Y-62980000D03*
X156675000Y-63480000D03*
X156675000Y-63980000D03*
D60*
X157425000Y-64730000D03*
X157925000Y-64730000D03*
X158425000Y-64730000D03*
X158925000Y-64730000D03*
X159425000Y-64730000D03*
X159925000Y-64730000D03*
X160425000Y-64730000D03*
X160925000Y-64730000D03*
D61*
X159175000Y-62230000D03*
G04 #@! TD*
D62*
G04 #@! TO.C,C21*
X160350000Y-68725000D03*
X160350000Y-70275000D03*
G04 #@! TD*
G04 #@! TO.C,C11*
X152412500Y-52825000D03*
X152412500Y-54375000D03*
G04 #@! TD*
D18*
G04 #@! TO.C,R13*
X153550000Y-61100000D03*
X151900000Y-61100000D03*
G04 #@! TD*
D24*
G04 #@! TO.C,C19*
X167589200Y-68675000D03*
X167589200Y-67125000D03*
G04 #@! TD*
D63*
G04 #@! TO.C,L2*
X168050000Y-53150000D03*
X168050000Y-56350000D03*
G04 #@! TD*
D29*
G04 #@! TO.C,R20*
X147300000Y-70825000D03*
X147300000Y-69175000D03*
G04 #@! TD*
D46*
G04 #@! TO.C,R7*
X175275000Y-58150000D03*
X176925000Y-58150000D03*
G04 #@! TD*
D17*
G04 #@! TO.C,C41*
X144425000Y-55050000D03*
X142875000Y-55050000D03*
G04 #@! TD*
D24*
G04 #@! TO.C,C7*
X170350000Y-54225000D03*
X170350000Y-52675000D03*
G04 #@! TD*
G04 #@! TO.C,C38*
X140300000Y-50475000D03*
X140300000Y-48925000D03*
G04 #@! TD*
D17*
G04 #@! TO.C,C29*
X153500000Y-62600000D03*
X151950000Y-62600000D03*
G04 #@! TD*
D15*
G04 #@! TO.C,D3*
X116000000Y-72800000D03*
D16*
X116000000Y-75340000D03*
G04 #@! TD*
D13*
G04 #@! TO.C,C34*
X133225000Y-53600000D03*
X134775000Y-53600000D03*
G04 #@! TD*
D64*
G04 #@! TO.C,FB3*
X134787500Y-52000000D03*
X133212500Y-52000000D03*
G04 #@! TD*
D29*
G04 #@! TO.C,R21*
X145800000Y-70825000D03*
X145800000Y-69175000D03*
G04 #@! TD*
D46*
G04 #@! TO.C,R1*
X126375000Y-60400000D03*
X128025000Y-60400000D03*
G04 #@! TD*
D62*
G04 #@! TO.C,C10*
X164300000Y-54225000D03*
X164300000Y-55775000D03*
G04 #@! TD*
D65*
G04 #@! TO.C,Y1*
X164300000Y-68650000D03*
X162100000Y-68650000D03*
X162100000Y-70350000D03*
X164300000Y-70350000D03*
G04 #@! TD*
D22*
G04 #@! TO.C,L3*
X158712500Y-53600000D03*
X155512500Y-53600000D03*
G04 #@! TD*
D66*
G04 #@! TO.C,FB2*
X145812500Y-67150000D03*
X147387500Y-67150000D03*
G04 #@! TD*
D67*
G04 #@! TO.C,C14*
X179248008Y-67398008D03*
X178151992Y-66301992D03*
G04 #@! TD*
D27*
G04 #@! TO.C,R22*
X144200000Y-63125000D03*
X144200000Y-64775000D03*
G04 #@! TD*
D18*
G04 #@! TO.C,R3*
X120025000Y-57400000D03*
X118375000Y-57400000D03*
G04 #@! TD*
D46*
G04 #@! TO.C,R5*
X118375000Y-55750000D03*
X120025000Y-55750000D03*
G04 #@! TD*
G04 #@! TO.C,R10*
X141325000Y-74200000D03*
X142975000Y-74200000D03*
G04 #@! TD*
D13*
G04 #@! TO.C,C24*
X157925000Y-57900000D03*
X159475000Y-57900000D03*
G04 #@! TD*
D18*
G04 #@! TO.C,R14*
X153550000Y-68900000D03*
X151900000Y-68900000D03*
G04 #@! TD*
D68*
G04 #@! TO.C,TR1*
X167375000Y-59930000D03*
X167375000Y-61730000D03*
X167375000Y-63530000D03*
X173375000Y-63530000D03*
X173375000Y-61730000D03*
X173375000Y-59930000D03*
D69*
X170375000Y-59130000D03*
X170375000Y-64330000D03*
G04 #@! TD*
D62*
G04 #@! TO.C,C9*
X153912500Y-52825000D03*
X153912500Y-54375000D03*
G04 #@! TD*
D70*
G04 #@! TO.C,FB4*
X147300000Y-57312500D03*
X147300000Y-58887500D03*
G04 #@! TD*
D13*
G04 #@! TO.C,C1*
X115425000Y-69342000D03*
X116975000Y-69342000D03*
G04 #@! TD*
D24*
G04 #@! TO.C,C17*
X179900000Y-65575000D03*
X179900000Y-64025000D03*
G04 #@! TD*
D13*
G04 #@! TO.C,C37*
X131725000Y-69100000D03*
X133275000Y-69100000D03*
G04 #@! TD*
G04 #@! TO.C,C3*
X126425000Y-67400000D03*
X127975000Y-67400000D03*
G04 #@! TD*
D18*
G04 #@! TO.C,R17*
X153575000Y-70400000D03*
X151925000Y-70400000D03*
G04 #@! TD*
D19*
G04 #@! TO.C,U6*
X145250000Y-48762500D03*
X144300000Y-48762500D03*
X143350000Y-48762500D03*
X143350000Y-51037500D03*
X145250000Y-51037500D03*
G04 #@! TD*
D24*
G04 #@! TO.C,C25*
X166100000Y-68675000D03*
X166100000Y-67125000D03*
G04 #@! TD*
D18*
G04 #@! TO.C,R26*
X128025000Y-55750000D03*
X126375000Y-55750000D03*
G04 #@! TD*
D13*
G04 #@! TO.C,C13*
X161025000Y-57900000D03*
X162575000Y-57900000D03*
G04 #@! TD*
D71*
G04 #@! TO.C,U1*
X124275000Y-62262500D03*
D72*
X124200000Y-62800000D03*
D71*
X124275000Y-63337500D03*
X125975000Y-63337500D03*
D72*
X126050000Y-62800000D03*
D71*
X125975000Y-62262500D03*
G04 #@! TD*
D24*
G04 #@! TO.C,C16*
X179900000Y-62175000D03*
X179900000Y-60625000D03*
G04 #@! TD*
G04 #@! TO.C,C27*
X164100000Y-60375000D03*
X164100000Y-58825000D03*
G04 #@! TD*
D18*
G04 #@! TO.C,R27*
X128025000Y-57250000D03*
X126375000Y-57250000D03*
G04 #@! TD*
G36*
X182379772Y-52091358D02*
G01*
X182427250Y-52142619D01*
X182439792Y-52187514D01*
X182439997Y-52189978D01*
X182449385Y-52283849D01*
X182450000Y-52296188D01*
X182450000Y-53493662D01*
X182430315Y-53560701D01*
X182407566Y-53587059D01*
X181155566Y-54680472D01*
X181092124Y-54709743D01*
X181022927Y-54700069D01*
X180969946Y-54654519D01*
X180950001Y-54587557D01*
X180950000Y-54587075D01*
X180950000Y-52320002D01*
X180949999Y-52319992D01*
X180943155Y-52251555D01*
X180956070Y-52182889D01*
X181004059Y-52132107D01*
X181062435Y-52115283D01*
X182312118Y-52073903D01*
X182379772Y-52091358D01*
G37*
G36*
X150756601Y-72867476D02*
G01*
X150764634Y-72873098D01*
X150800000Y-72900000D01*
X150960139Y-72953379D01*
X151017513Y-72993253D01*
X151044222Y-73057816D01*
X151031786Y-73126570D01*
X151030105Y-73129804D01*
X150452471Y-74202553D01*
X150403356Y-74252247D01*
X150335172Y-74267499D01*
X150297241Y-74258896D01*
X149917062Y-74106825D01*
X149885652Y-74088522D01*
X149405360Y-73704288D01*
X149395141Y-73695141D01*
X149114229Y-73414229D01*
X149091001Y-73382003D01*
X148938675Y-73077352D01*
X148926300Y-73008587D01*
X148953067Y-72944047D01*
X148962228Y-72933892D01*
X149012706Y-72883786D01*
X149074152Y-72850528D01*
X149100062Y-72847791D01*
X150689562Y-72847791D01*
X150756601Y-72867476D01*
G37*
G36*
X150393039Y-56119685D02*
G01*
X150438794Y-56172489D01*
X150450000Y-56224000D01*
X150450000Y-66166000D01*
X150430315Y-66233039D01*
X150377511Y-66278794D01*
X150326000Y-66290000D01*
X149074000Y-66290000D01*
X149006961Y-66270315D01*
X148961206Y-66217511D01*
X148950000Y-66166000D01*
X148950000Y-56224000D01*
X148969685Y-56156961D01*
X149022489Y-56111206D01*
X149074000Y-56100000D01*
X150326000Y-56100000D01*
X150393039Y-56119685D01*
G37*
G36*
X182372297Y-57898801D02*
G01*
X182427139Y-57942092D01*
X182449870Y-58008161D01*
X182450000Y-58013834D01*
X182450000Y-68151575D01*
X182430315Y-68218614D01*
X182377511Y-68264369D01*
X182308353Y-68274313D01*
X182244797Y-68245288D01*
X182243048Y-68243743D01*
X180991048Y-67116943D01*
X180954387Y-67057465D01*
X180950000Y-67024775D01*
X180950000Y-59203234D01*
X180969685Y-59136195D01*
X180988595Y-59113334D01*
X182240595Y-57923934D01*
X182302756Y-57892032D01*
X182372297Y-57898801D01*
G37*
G36*
X150393039Y-59719685D02*
G01*
X150438794Y-59772489D01*
X150450000Y-59824000D01*
X150450000Y-60856000D01*
X150430315Y-60923039D01*
X150377511Y-60968794D01*
X150326000Y-60980000D01*
X149074000Y-60980000D01*
X149006961Y-60960315D01*
X148961206Y-60907511D01*
X148950000Y-60856000D01*
X148950000Y-59824000D01*
X148969685Y-59756961D01*
X149022489Y-59711206D01*
X149074000Y-59700000D01*
X150326000Y-59700000D01*
X150393039Y-59719685D01*
G37*
G36*
X150393039Y-58219685D02*
G01*
X150438794Y-58272489D01*
X150450000Y-58324000D01*
X150450000Y-59376000D01*
X150430315Y-59443039D01*
X150377511Y-59488794D01*
X150326000Y-59500000D01*
X149074000Y-59500000D01*
X149006961Y-59480315D01*
X148961206Y-59427511D01*
X148950000Y-59376000D01*
X148950000Y-58324000D01*
X148969685Y-58256961D01*
X149022489Y-58211206D01*
X149074000Y-58200000D01*
X150326000Y-58200000D01*
X150393039Y-58219685D01*
G37*
G36*
X150393039Y-53149685D02*
G01*
X150438794Y-53202489D01*
X150450000Y-53254000D01*
X150450000Y-55176000D01*
X150430315Y-55243039D01*
X150377511Y-55288794D01*
X150326000Y-55300000D01*
X149074000Y-55300000D01*
X149006961Y-55280315D01*
X148961206Y-55227511D01*
X148950000Y-55176000D01*
X148950000Y-53254000D01*
X148969685Y-53186961D01*
X149022489Y-53141206D01*
X149074000Y-53130000D01*
X150326000Y-53130000D01*
X150393039Y-53149685D01*
G37*
G36*
X150393039Y-61199685D02*
G01*
X150438794Y-61252489D01*
X150450000Y-61304000D01*
X150450000Y-66166000D01*
X150430315Y-66233039D01*
X150377511Y-66278794D01*
X150326000Y-66290000D01*
X149074000Y-66290000D01*
X149006961Y-66270315D01*
X148961206Y-66217511D01*
X148950000Y-66166000D01*
X148950000Y-61304000D01*
X148969685Y-61236961D01*
X149022489Y-61191206D01*
X149074000Y-61180000D01*
X150326000Y-61180000D01*
X150393039Y-61199685D01*
G37*
M02*
