%TF.GenerationSoftware,KiCad,Pcbnew,8.0.4*%
%TF.CreationDate,2024-11-17T23:13:56+01:00*%
%TF.ProjectId,TEF6687,54454636-3638-4372-9e6b-696361645f70,v1.1*%
%TF.SameCoordinates,Original*%
%TF.FileFunction,Drillmap*%
%TF.FilePolarity,Positive*%
%FSLAX45Y45*%
G04 Gerber Fmt 4.5, Leading zero omitted, Abs format (unit mm)*
G04 Created by KiCad (PCBNEW 8.0.4) date 2024-11-17 23:13:56*
%MOMM*%
%LPD*%
G01*
G04 APERTURE LIST*
%ADD10C,0.200000*%
%ADD11C,0.100000*%
%ADD12C,0.260000*%
G04 APERTURE END LIST*
D10*
X11390000Y-7920000D02*
X11390000Y-4670000D01*
X11690000Y-8220000D02*
X19160000Y-8220000D01*
X11390000Y-4670000D02*
G75*
G02*
X11690000Y-4370000I300000J0D01*
G01*
X19460000Y-4670000D02*
X19460000Y-7920000D01*
X19460000Y-7920000D02*
G75*
G02*
X19160000Y-8220000I-300000J0D01*
G01*
X11690000Y-8220000D02*
G75*
G02*
X11389990Y-7920000I-1070J298940D01*
G01*
X19160000Y-4370000D02*
X11690000Y-4370000D01*
X19160000Y-4370000D02*
G75*
G02*
X19460000Y-4670000I0J-300000D01*
G01*
D11*
X11755000Y-5805000D02*
X11785000Y-5835000D01*
X11785000Y-5805000D02*
X11755000Y-5835000D01*
X11765000Y-6815000D02*
X11795000Y-6845000D01*
X11795000Y-6815000D02*
X11765000Y-6845000D01*
X11935000Y-8015000D02*
X11965000Y-8045000D01*
X11965000Y-8015000D02*
X11935000Y-8045000D01*
X11940000Y-4545000D02*
X11970000Y-4575000D01*
X11970000Y-4545000D02*
X11940000Y-4575000D01*
X12015000Y-6902750D02*
X12045000Y-6932750D01*
X12045000Y-6902750D02*
X12015000Y-6932750D01*
X12015000Y-7022250D02*
X12045000Y-7052250D01*
X12045000Y-7022250D02*
X12015000Y-7052250D01*
X12025000Y-8015000D02*
X12055000Y-8045000D01*
X12055000Y-8015000D02*
X12025000Y-8045000D01*
X12030000Y-4545000D02*
X12060000Y-4575000D01*
X12060000Y-4545000D02*
X12030000Y-4575000D01*
X12095000Y-5935000D02*
X12125000Y-5965000D01*
X12125000Y-5935000D02*
X12095000Y-5965000D01*
X12095000Y-6715000D02*
X12125000Y-6745000D01*
X12125000Y-6715000D02*
X12095000Y-6745000D01*
X12115000Y-8015000D02*
X12145000Y-8045000D01*
X12145000Y-8015000D02*
X12115000Y-8045000D01*
X12120000Y-4545000D02*
X12150000Y-4575000D01*
X12150000Y-4545000D02*
X12120000Y-4575000D01*
X12145000Y-7022250D02*
X12175000Y-7052250D01*
X12175000Y-7022250D02*
X12145000Y-7052250D01*
X12150000Y-4835000D02*
X12180000Y-4865000D01*
X12180000Y-4835000D02*
X12150000Y-4865000D01*
X12160000Y-6210000D02*
X12190000Y-6240000D01*
X12190000Y-6210000D02*
X12160000Y-6240000D01*
X12160000Y-6410000D02*
X12190000Y-6440000D01*
X12190000Y-6410000D02*
X12160000Y-6440000D01*
X12205000Y-5845000D02*
X12235000Y-5875000D01*
X12235000Y-5845000D02*
X12205000Y-5875000D01*
X12205000Y-8015000D02*
X12235000Y-8045000D01*
X12235000Y-8015000D02*
X12205000Y-8045000D01*
X12210000Y-4545000D02*
X12240000Y-4575000D01*
X12240000Y-4545000D02*
X12210000Y-4575000D01*
X12260000Y-6105000D02*
X12290000Y-6135000D01*
X12290000Y-6105000D02*
X12260000Y-6135000D01*
X12295000Y-8015000D02*
X12325000Y-8045000D01*
X12325000Y-8015000D02*
X12295000Y-8045000D01*
X12300000Y-4545000D02*
X12330000Y-4575000D01*
X12330000Y-4545000D02*
X12300000Y-4575000D01*
X12325000Y-5955000D02*
X12355000Y-5985000D01*
X12355000Y-5955000D02*
X12325000Y-5985000D01*
X12375000Y-5865000D02*
X12405000Y-5895000D01*
X12405000Y-5865000D02*
X12375000Y-5895000D01*
X12375250Y-6725000D02*
X12405250Y-6755000D01*
X12405250Y-6725000D02*
X12375250Y-6755000D01*
X12385000Y-6595000D02*
X12415000Y-6625000D01*
X12415000Y-6595000D02*
X12385000Y-6625000D01*
X12390000Y-4545000D02*
X12420000Y-4575000D01*
X12420000Y-4545000D02*
X12390000Y-4575000D01*
X12390000Y-8015000D02*
X12420000Y-8045000D01*
X12420000Y-8015000D02*
X12390000Y-8045000D01*
X12395000Y-5565000D02*
X12425000Y-5595000D01*
X12425000Y-5565000D02*
X12395000Y-5595000D01*
X12400000Y-6395000D02*
X12430000Y-6425000D01*
X12430000Y-6395000D02*
X12400000Y-6425000D01*
X12405000Y-4835000D02*
X12435000Y-4865000D01*
X12435000Y-4835000D02*
X12405000Y-4865000D01*
X12405000Y-6135000D02*
X12435000Y-6165000D01*
X12435000Y-6135000D02*
X12405000Y-6165000D01*
X12435000Y-5735000D02*
X12465000Y-5765000D01*
X12465000Y-5735000D02*
X12435000Y-5765000D01*
X12480000Y-4545000D02*
X12510000Y-4575000D01*
X12510000Y-4545000D02*
X12480000Y-4575000D01*
X12480000Y-8015000D02*
X12510000Y-8045000D01*
X12510000Y-8015000D02*
X12480000Y-8045000D01*
X12494750Y-6725000D02*
X12524750Y-6755000D01*
X12524750Y-6725000D02*
X12494750Y-6755000D01*
X12495000Y-5865000D02*
X12525000Y-5895000D01*
X12525000Y-5865000D02*
X12495000Y-5895000D01*
X12570000Y-4545000D02*
X12600000Y-4575000D01*
X12600000Y-4545000D02*
X12570000Y-4575000D01*
X12570000Y-6135000D02*
X12600000Y-6165000D01*
X12600000Y-6135000D02*
X12570000Y-6165000D01*
X12570000Y-6395000D02*
X12600000Y-6425000D01*
X12600000Y-6395000D02*
X12570000Y-6425000D01*
X12570000Y-8015000D02*
X12600000Y-8045000D01*
X12600000Y-8015000D02*
X12570000Y-8045000D01*
X12630000Y-7172500D02*
X12660000Y-7202500D01*
X12660000Y-7172500D02*
X12630000Y-7202500D01*
X12655000Y-4835000D02*
X12685000Y-4865000D01*
X12685000Y-4835000D02*
X12655000Y-4865000D01*
X12660000Y-4545000D02*
X12690000Y-4575000D01*
X12690000Y-4545000D02*
X12660000Y-4575000D01*
X12660000Y-8015000D02*
X12690000Y-8045000D01*
X12690000Y-8015000D02*
X12660000Y-8045000D01*
X12670000Y-6265000D02*
X12700000Y-6295000D01*
X12700000Y-6265000D02*
X12670000Y-6295000D01*
X12680000Y-6135000D02*
X12710000Y-6165000D01*
X12710000Y-6135000D02*
X12680000Y-6165000D01*
X12680000Y-6395000D02*
X12710000Y-6425000D01*
X12710000Y-6395000D02*
X12680000Y-6425000D01*
X12705000Y-5785000D02*
X12735000Y-5815000D01*
X12735000Y-5785000D02*
X12705000Y-5815000D01*
X12705000Y-6805000D02*
X12735000Y-6835000D01*
X12735000Y-6805000D02*
X12705000Y-6835000D01*
X12750000Y-4545000D02*
X12780000Y-4575000D01*
X12780000Y-4545000D02*
X12750000Y-4575000D01*
X12750000Y-8015000D02*
X12780000Y-8045000D01*
X12780000Y-8015000D02*
X12750000Y-8045000D01*
X12785000Y-6395000D02*
X12815000Y-6425000D01*
X12815000Y-6395000D02*
X12785000Y-6425000D01*
X12787000Y-6135000D02*
X12817000Y-6165000D01*
X12817000Y-6135000D02*
X12787000Y-6165000D01*
X12840000Y-4545000D02*
X12870000Y-4575000D01*
X12870000Y-4545000D02*
X12840000Y-4575000D01*
X12840000Y-8015000D02*
X12870000Y-8045000D01*
X12870000Y-8015000D02*
X12840000Y-8045000D01*
X12885000Y-6065000D02*
X12915000Y-6095000D01*
X12915000Y-6065000D02*
X12885000Y-6095000D01*
X12895000Y-7035000D02*
X12925000Y-7065000D01*
X12925000Y-7035000D02*
X12895000Y-7065000D01*
X12900000Y-4835000D02*
X12930000Y-4865000D01*
X12930000Y-4835000D02*
X12900000Y-4865000D01*
X12905000Y-5465000D02*
X12935000Y-5495000D01*
X12935000Y-5465000D02*
X12905000Y-5495000D01*
X12915000Y-6465000D02*
X12945000Y-6495000D01*
X12945000Y-6465000D02*
X12915000Y-6495000D01*
X12930000Y-4545000D02*
X12960000Y-4575000D01*
X12960000Y-4545000D02*
X12930000Y-4575000D01*
X12930000Y-8015000D02*
X12960000Y-8045000D01*
X12960000Y-8015000D02*
X12930000Y-8045000D01*
X13020000Y-4545000D02*
X13050000Y-4575000D01*
X13050000Y-4545000D02*
X13020000Y-4575000D01*
X13020000Y-8015000D02*
X13050000Y-8045000D01*
X13050000Y-8015000D02*
X13020000Y-8045000D01*
X13045000Y-6815000D02*
X13075000Y-6845000D01*
X13075000Y-6815000D02*
X13045000Y-6845000D01*
X13045000Y-7035000D02*
X13075000Y-7065000D01*
X13075000Y-7035000D02*
X13045000Y-7065000D01*
X13110000Y-4545000D02*
X13140000Y-4575000D01*
X13140000Y-4545000D02*
X13110000Y-4575000D01*
X13110000Y-8015000D02*
X13140000Y-8045000D01*
X13140000Y-8015000D02*
X13110000Y-8045000D01*
X13190000Y-4830000D02*
X13220000Y-4860000D01*
X13220000Y-4830000D02*
X13190000Y-4860000D01*
X13192500Y-5100000D02*
X13222500Y-5130000D01*
X13222500Y-5100000D02*
X13192500Y-5130000D01*
X13200000Y-4545000D02*
X13230000Y-4575000D01*
X13230000Y-4545000D02*
X13200000Y-4575000D01*
X13200000Y-8015000D02*
X13230000Y-8045000D01*
X13230000Y-8015000D02*
X13200000Y-8045000D01*
X13205000Y-6515000D02*
X13235000Y-6545000D01*
X13235000Y-6515000D02*
X13205000Y-6545000D01*
X13205000Y-6635000D02*
X13235000Y-6665000D01*
X13235000Y-6635000D02*
X13205000Y-6665000D01*
X13290000Y-4545000D02*
X13320000Y-4575000D01*
X13320000Y-4545000D02*
X13290000Y-4575000D01*
X13290000Y-8015000D02*
X13320000Y-8045000D01*
X13320000Y-8015000D02*
X13290000Y-8045000D01*
X13300000Y-5755000D02*
X13330000Y-5785000D01*
X13330000Y-5755000D02*
X13300000Y-5785000D01*
X13320000Y-7155000D02*
X13350000Y-7185000D01*
X13350000Y-7155000D02*
X13320000Y-7185000D01*
X13370000Y-6515000D02*
X13400000Y-6545000D01*
X13400000Y-6515000D02*
X13370000Y-6545000D01*
X13370000Y-6635000D02*
X13400000Y-6665000D01*
X13400000Y-6635000D02*
X13370000Y-6665000D01*
X13380000Y-4545000D02*
X13410000Y-4575000D01*
X13410000Y-4545000D02*
X13380000Y-4575000D01*
X13380000Y-8015000D02*
X13410000Y-8045000D01*
X13410000Y-8015000D02*
X13380000Y-8045000D01*
X13415000Y-7065000D02*
X13445000Y-7095000D01*
X13445000Y-7065000D02*
X13415000Y-7095000D01*
X13415000Y-7155000D02*
X13445000Y-7185000D01*
X13445000Y-7155000D02*
X13415000Y-7185000D01*
X13425000Y-5465000D02*
X13455000Y-5495000D01*
X13455000Y-5465000D02*
X13425000Y-5495000D01*
X13425000Y-5555000D02*
X13455000Y-5585000D01*
X13455000Y-5555000D02*
X13425000Y-5585000D01*
X13440000Y-5965000D02*
X13470000Y-5995000D01*
X13470000Y-5965000D02*
X13440000Y-5995000D01*
X13440000Y-6115000D02*
X13470000Y-6145000D01*
X13470000Y-6115000D02*
X13440000Y-6145000D01*
X13440000Y-6265000D02*
X13470000Y-6295000D01*
X13470000Y-6265000D02*
X13440000Y-6295000D01*
X13470000Y-4545000D02*
X13500000Y-4575000D01*
X13500000Y-4545000D02*
X13470000Y-4575000D01*
X13470000Y-8015000D02*
X13500000Y-8045000D01*
X13500000Y-8015000D02*
X13470000Y-8045000D01*
X13515000Y-5465000D02*
X13545000Y-5495000D01*
X13545000Y-5465000D02*
X13515000Y-5495000D01*
X13515000Y-5555000D02*
X13545000Y-5585000D01*
X13545000Y-5555000D02*
X13515000Y-5585000D01*
X13560000Y-4545000D02*
X13590000Y-4575000D01*
X13590000Y-4545000D02*
X13560000Y-4575000D01*
X13560000Y-8015000D02*
X13590000Y-8045000D01*
X13590000Y-8015000D02*
X13560000Y-8045000D01*
X13565000Y-4830000D02*
X13595000Y-4860000D01*
X13595000Y-4830000D02*
X13565000Y-4860000D01*
X13565000Y-4920000D02*
X13595000Y-4950000D01*
X13595000Y-4920000D02*
X13565000Y-4950000D01*
X13565000Y-5010000D02*
X13595000Y-5040000D01*
X13595000Y-5010000D02*
X13565000Y-5040000D01*
X13565000Y-6450000D02*
X13595000Y-6480000D01*
X13595000Y-6450000D02*
X13565000Y-6480000D01*
X13567500Y-5100000D02*
X13597500Y-5130000D01*
X13597500Y-5100000D02*
X13567500Y-5130000D01*
X13605000Y-5285000D02*
X13635000Y-5315000D01*
X13635000Y-5285000D02*
X13605000Y-5315000D01*
X13605000Y-5375000D02*
X13635000Y-5405000D01*
X13635000Y-5375000D02*
X13605000Y-5405000D01*
X13605000Y-5465000D02*
X13635000Y-5495000D01*
X13635000Y-5465000D02*
X13605000Y-5495000D01*
X13605000Y-5555000D02*
X13635000Y-5585000D01*
X13635000Y-5555000D02*
X13605000Y-5585000D01*
X13615000Y-5935000D02*
X13645000Y-5965000D01*
X13645000Y-5935000D02*
X13615000Y-5965000D01*
X13615000Y-6050000D02*
X13645000Y-6080000D01*
X13645000Y-6050000D02*
X13615000Y-6080000D01*
X13615000Y-6185000D02*
X13645000Y-6215000D01*
X13645000Y-6185000D02*
X13615000Y-6215000D01*
X13650000Y-4545000D02*
X13680000Y-4575000D01*
X13680000Y-4545000D02*
X13650000Y-4575000D01*
X13650000Y-8015000D02*
X13680000Y-8045000D01*
X13680000Y-8015000D02*
X13650000Y-8045000D01*
X13695000Y-5285000D02*
X13725000Y-5315000D01*
X13725000Y-5285000D02*
X13695000Y-5315000D01*
X13695000Y-5375000D02*
X13725000Y-5405000D01*
X13725000Y-5375000D02*
X13695000Y-5405000D01*
X13695000Y-5465000D02*
X13725000Y-5495000D01*
X13725000Y-5465000D02*
X13695000Y-5495000D01*
X13695000Y-5555000D02*
X13725000Y-5585000D01*
X13725000Y-5555000D02*
X13695000Y-5585000D01*
X13700000Y-5990000D02*
X13730000Y-6020000D01*
X13730000Y-5990000D02*
X13700000Y-6020000D01*
X13700000Y-6095000D02*
X13730000Y-6125000D01*
X13730000Y-6095000D02*
X13700000Y-6125000D01*
X13700014Y-5872468D02*
X13730014Y-5902468D01*
X13730014Y-5872468D02*
X13700014Y-5902468D01*
X13715000Y-6450000D02*
X13745000Y-6480000D01*
X13745000Y-6450000D02*
X13715000Y-6480000D01*
X13725000Y-6185000D02*
X13755000Y-6215000D01*
X13755000Y-6185000D02*
X13725000Y-6215000D01*
X13740000Y-4545000D02*
X13770000Y-4575000D01*
X13770000Y-4545000D02*
X13740000Y-4575000D01*
X13740000Y-8015000D02*
X13770000Y-8045000D01*
X13770000Y-8015000D02*
X13740000Y-8045000D01*
X13765000Y-4980000D02*
X13795000Y-5010000D01*
X13795000Y-4980000D02*
X13765000Y-5010000D01*
X13765000Y-5095000D02*
X13795000Y-5125000D01*
X13795000Y-5095000D02*
X13765000Y-5125000D01*
X13785000Y-5285000D02*
X13815000Y-5315000D01*
X13815000Y-5285000D02*
X13785000Y-5315000D01*
X13785000Y-5375000D02*
X13815000Y-5405000D01*
X13815000Y-5375000D02*
X13785000Y-5405000D01*
X13785000Y-5465000D02*
X13815000Y-5495000D01*
X13815000Y-5465000D02*
X13785000Y-5495000D01*
X13785000Y-5555000D02*
X13815000Y-5585000D01*
X13815000Y-5555000D02*
X13785000Y-5585000D01*
X13792500Y-6097500D02*
X13822500Y-6127500D01*
X13822500Y-6097500D02*
X13792500Y-6127500D01*
X13825000Y-7352500D02*
X13855000Y-7382500D01*
X13855000Y-7352500D02*
X13825000Y-7382500D01*
X13830000Y-4545000D02*
X13860000Y-4575000D01*
X13860000Y-4545000D02*
X13830000Y-4575000D01*
X13830000Y-8015000D02*
X13860000Y-8045000D01*
X13860000Y-8015000D02*
X13830000Y-8045000D01*
X13835000Y-6185000D02*
X13865000Y-6215000D01*
X13865000Y-6185000D02*
X13835000Y-6215000D01*
X13840000Y-5875000D02*
X13870000Y-5905000D01*
X13870000Y-5875000D02*
X13840000Y-5905000D01*
X13865000Y-6450000D02*
X13895000Y-6480000D01*
X13895000Y-6450000D02*
X13865000Y-6480000D01*
X13865000Y-7085000D02*
X13895000Y-7115000D01*
X13895000Y-7085000D02*
X13865000Y-7115000D01*
X13875000Y-5285000D02*
X13905000Y-5315000D01*
X13905000Y-5285000D02*
X13875000Y-5315000D01*
X13875000Y-5375000D02*
X13905000Y-5405000D01*
X13905000Y-5375000D02*
X13875000Y-5405000D01*
X13875000Y-5465000D02*
X13905000Y-5495000D01*
X13905000Y-5465000D02*
X13875000Y-5495000D01*
X13875000Y-5555000D02*
X13905000Y-5585000D01*
X13905000Y-5555000D02*
X13875000Y-5585000D01*
X13905000Y-5946600D02*
X13935000Y-5976600D01*
X13935000Y-5946600D02*
X13905000Y-5976600D01*
X13905000Y-6045000D02*
X13935000Y-6075000D01*
X13935000Y-6045000D02*
X13905000Y-6075000D01*
X13910000Y-6815000D02*
X13940000Y-6845000D01*
X13940000Y-6815000D02*
X13910000Y-6845000D01*
X13920000Y-4545000D02*
X13950000Y-4575000D01*
X13950000Y-4545000D02*
X13920000Y-4575000D01*
X13920000Y-8015000D02*
X13950000Y-8045000D01*
X13950000Y-8015000D02*
X13920000Y-8045000D01*
X13925000Y-7180000D02*
X13955000Y-7210000D01*
X13955000Y-7180000D02*
X13925000Y-7210000D01*
X13940000Y-6185000D02*
X13970000Y-6215000D01*
X13970000Y-6185000D02*
X13940000Y-6215000D01*
X13965000Y-5195000D02*
X13995000Y-5225000D01*
X13995000Y-5195000D02*
X13965000Y-5225000D01*
X13965000Y-5285000D02*
X13995000Y-5315000D01*
X13995000Y-5285000D02*
X13965000Y-5315000D01*
X13965000Y-5375000D02*
X13995000Y-5405000D01*
X13995000Y-5375000D02*
X13965000Y-5405000D01*
X13965000Y-5465000D02*
X13995000Y-5495000D01*
X13995000Y-5465000D02*
X13965000Y-5495000D01*
X13965000Y-5555000D02*
X13995000Y-5585000D01*
X13995000Y-5555000D02*
X13965000Y-5585000D01*
X13970000Y-5875000D02*
X14000000Y-5905000D01*
X14000000Y-5875000D02*
X13970000Y-5905000D01*
X13985000Y-6265000D02*
X14015000Y-6295000D01*
X14015000Y-6265000D02*
X13985000Y-6295000D01*
X14009693Y-5963566D02*
X14039693Y-5993566D01*
X14039693Y-5963566D02*
X14009693Y-5993566D01*
X14010000Y-4545000D02*
X14040000Y-4575000D01*
X14040000Y-4545000D02*
X14010000Y-4575000D01*
X14010000Y-8015000D02*
X14040000Y-8045000D01*
X14040000Y-8015000D02*
X14010000Y-8045000D01*
X14030250Y-4760000D02*
X14060250Y-4790000D01*
X14060250Y-4760000D02*
X14030250Y-4790000D01*
X14055000Y-5195000D02*
X14085000Y-5225000D01*
X14085000Y-5195000D02*
X14055000Y-5225000D01*
X14055000Y-5285000D02*
X14085000Y-5315000D01*
X14085000Y-5285000D02*
X14055000Y-5315000D01*
X14055000Y-5375000D02*
X14085000Y-5405000D01*
X14085000Y-5375000D02*
X14055000Y-5405000D01*
X14055000Y-5465000D02*
X14085000Y-5495000D01*
X14085000Y-5465000D02*
X14055000Y-5495000D01*
X14055000Y-5555000D02*
X14085000Y-5585000D01*
X14085000Y-5555000D02*
X14055000Y-5585000D01*
X14075000Y-5715000D02*
X14105000Y-5745000D01*
X14105000Y-5715000D02*
X14075000Y-5745000D01*
X14075000Y-6655000D02*
X14105000Y-6685000D01*
X14105000Y-6655000D02*
X14075000Y-6685000D01*
X14100000Y-4545000D02*
X14130000Y-4575000D01*
X14130000Y-4545000D02*
X14100000Y-4575000D01*
X14100000Y-8015000D02*
X14130000Y-8045000D01*
X14130000Y-8015000D02*
X14100000Y-8045000D01*
X14145000Y-5195000D02*
X14175000Y-5225000D01*
X14175000Y-5195000D02*
X14145000Y-5225000D01*
X14145000Y-5285000D02*
X14175000Y-5315000D01*
X14175000Y-5285000D02*
X14145000Y-5315000D01*
X14145000Y-5375000D02*
X14175000Y-5405000D01*
X14175000Y-5375000D02*
X14145000Y-5405000D01*
X14145000Y-5465000D02*
X14175000Y-5495000D01*
X14175000Y-5465000D02*
X14145000Y-5495000D01*
X14145000Y-5555000D02*
X14175000Y-5585000D01*
X14175000Y-5555000D02*
X14145000Y-5585000D01*
X14145000Y-6715000D02*
X14175000Y-6745000D01*
X14175000Y-6715000D02*
X14145000Y-6745000D01*
X14149750Y-4760000D02*
X14179750Y-4790000D01*
X14179750Y-4760000D02*
X14149750Y-4790000D01*
X14165000Y-5805000D02*
X14195000Y-5835000D01*
X14195000Y-5805000D02*
X14165000Y-5835000D01*
X14190000Y-4545000D02*
X14220000Y-4575000D01*
X14220000Y-4545000D02*
X14190000Y-4575000D01*
X14190000Y-8015000D02*
X14220000Y-8045000D01*
X14220000Y-8015000D02*
X14190000Y-8045000D01*
X14195000Y-6925000D02*
X14225000Y-6955000D01*
X14225000Y-6925000D02*
X14195000Y-6955000D01*
X14195000Y-7068000D02*
X14225000Y-7098000D01*
X14225000Y-7068000D02*
X14195000Y-7098000D01*
X14205000Y-6525000D02*
X14235000Y-6555000D01*
X14235000Y-6525000D02*
X14205000Y-6555000D01*
X14225000Y-5615000D02*
X14255000Y-5645000D01*
X14255000Y-5615000D02*
X14225000Y-5645000D01*
X14235000Y-5195000D02*
X14265000Y-5225000D01*
X14265000Y-5195000D02*
X14235000Y-5225000D01*
X14270000Y-5795000D02*
X14300000Y-5825000D01*
X14300000Y-5795000D02*
X14270000Y-5825000D01*
X14270000Y-6395000D02*
X14300000Y-6425000D01*
X14300000Y-6395000D02*
X14270000Y-6425000D01*
X14280000Y-4545000D02*
X14310000Y-4575000D01*
X14310000Y-4545000D02*
X14280000Y-4575000D01*
X14280000Y-8015000D02*
X14310000Y-8045000D01*
X14310000Y-8015000D02*
X14280000Y-8045000D01*
X14305000Y-5685000D02*
X14335000Y-5715000D01*
X14335000Y-5685000D02*
X14305000Y-5715000D01*
X14360000Y-6020000D02*
X14390000Y-6050000D01*
X14390000Y-6020000D02*
X14360000Y-6050000D01*
X14360000Y-6157700D02*
X14390000Y-6187700D01*
X14390000Y-6157700D02*
X14360000Y-6187700D01*
X14370000Y-4545000D02*
X14400000Y-4575000D01*
X14400000Y-4545000D02*
X14370000Y-4575000D01*
X14370000Y-8015000D02*
X14400000Y-8045000D01*
X14400000Y-8015000D02*
X14370000Y-8045000D01*
X14385000Y-5615000D02*
X14415000Y-5645000D01*
X14415000Y-5615000D02*
X14385000Y-5645000D01*
X14415000Y-4980000D02*
X14445000Y-5010000D01*
X14445000Y-4980000D02*
X14415000Y-5010000D01*
X14415000Y-5085000D02*
X14445000Y-5115000D01*
X14445000Y-5085000D02*
X14415000Y-5115000D01*
X14415000Y-5195000D02*
X14445000Y-5225000D01*
X14445000Y-5195000D02*
X14415000Y-5225000D01*
X14415000Y-6645000D02*
X14445000Y-6675000D01*
X14445000Y-6645000D02*
X14415000Y-6675000D01*
X14415000Y-6760000D02*
X14445000Y-6790000D01*
X14445000Y-6760000D02*
X14415000Y-6790000D01*
X14415000Y-6920000D02*
X14445000Y-6950000D01*
X14445000Y-6920000D02*
X14415000Y-6950000D01*
X14415000Y-7065000D02*
X14445000Y-7095000D01*
X14445000Y-7065000D02*
X14415000Y-7095000D01*
X14415000Y-7205000D02*
X14445000Y-7235000D01*
X14445000Y-7205000D02*
X14415000Y-7235000D01*
X14415000Y-7335000D02*
X14445000Y-7365000D01*
X14445000Y-7335000D02*
X14415000Y-7365000D01*
X14415000Y-7495000D02*
X14445000Y-7525000D01*
X14445000Y-7495000D02*
X14415000Y-7525000D01*
X14460000Y-4545000D02*
X14490000Y-4575000D01*
X14490000Y-4545000D02*
X14460000Y-4575000D01*
X14460000Y-8015000D02*
X14490000Y-8045000D01*
X14490000Y-8015000D02*
X14460000Y-8045000D01*
X14535000Y-6020000D02*
X14565000Y-6050000D01*
X14565000Y-6020000D02*
X14535000Y-6050000D01*
X14535000Y-6157700D02*
X14565000Y-6187700D01*
X14565000Y-6157700D02*
X14535000Y-6187700D01*
X14540000Y-5410000D02*
X14570000Y-5440000D01*
X14570000Y-5410000D02*
X14540000Y-5440000D01*
X14540000Y-5500000D02*
X14570000Y-5530000D01*
X14570000Y-5500000D02*
X14540000Y-5530000D01*
X14550000Y-4545000D02*
X14580000Y-4575000D01*
X14580000Y-4545000D02*
X14550000Y-4575000D01*
X14550000Y-8015000D02*
X14580000Y-8045000D01*
X14580000Y-8015000D02*
X14550000Y-8045000D01*
X14595000Y-5005000D02*
X14625000Y-5035000D01*
X14625000Y-5005000D02*
X14595000Y-5035000D01*
X14605000Y-6295000D02*
X14635000Y-6325000D01*
X14635000Y-6295000D02*
X14605000Y-6325000D01*
X14605000Y-6455000D02*
X14635000Y-6485000D01*
X14635000Y-6455000D02*
X14605000Y-6485000D01*
X14630000Y-5410000D02*
X14660000Y-5440000D01*
X14660000Y-5410000D02*
X14630000Y-5440000D01*
X14630000Y-5500000D02*
X14660000Y-5530000D01*
X14660000Y-5500000D02*
X14630000Y-5530000D01*
X14640000Y-4545000D02*
X14670000Y-4575000D01*
X14670000Y-4545000D02*
X14640000Y-4575000D01*
X14640000Y-8015000D02*
X14670000Y-8045000D01*
X14670000Y-8015000D02*
X14640000Y-8045000D01*
X14645000Y-6795000D02*
X14675000Y-6825000D01*
X14675000Y-6795000D02*
X14645000Y-6825000D01*
X14685000Y-5005000D02*
X14715000Y-5035000D01*
X14715000Y-5005000D02*
X14685000Y-5035000D01*
X14705000Y-6295000D02*
X14735000Y-6325000D01*
X14735000Y-6295000D02*
X14705000Y-6325000D01*
X14705000Y-6455000D02*
X14735000Y-6485000D01*
X14735000Y-6455000D02*
X14705000Y-6485000D01*
X14715000Y-5545000D02*
X14745000Y-5575000D01*
X14745000Y-5545000D02*
X14715000Y-5575000D01*
X14720000Y-6020000D02*
X14750000Y-6050000D01*
X14750000Y-6020000D02*
X14720000Y-6050000D01*
X14720000Y-6157700D02*
X14750000Y-6187700D01*
X14750000Y-6157700D02*
X14720000Y-6187700D01*
X14730000Y-4545000D02*
X14760000Y-4575000D01*
X14760000Y-4545000D02*
X14730000Y-4575000D01*
X14730000Y-8015000D02*
X14760000Y-8045000D01*
X14760000Y-8015000D02*
X14730000Y-8045000D01*
X14785000Y-5615000D02*
X14815000Y-5645000D01*
X14815000Y-5615000D02*
X14785000Y-5645000D01*
X14820000Y-4545000D02*
X14850000Y-4575000D01*
X14850000Y-4545000D02*
X14820000Y-4575000D01*
X14820000Y-8015000D02*
X14850000Y-8045000D01*
X14850000Y-8015000D02*
X14820000Y-8045000D01*
X14875000Y-6865000D02*
X14905000Y-6895000D01*
X14905000Y-6865000D02*
X14875000Y-6895000D01*
X14910000Y-4545000D02*
X14940000Y-4575000D01*
X14940000Y-4545000D02*
X14910000Y-4575000D01*
X14910000Y-8015000D02*
X14940000Y-8045000D01*
X14940000Y-8015000D02*
X14910000Y-8045000D01*
X14955360Y-5192363D02*
X14985360Y-5222363D01*
X14985360Y-5192363D02*
X14955360Y-5222363D01*
X14956368Y-5290149D02*
X14986368Y-5320149D01*
X14986368Y-5290149D02*
X14956368Y-5320149D01*
X14956368Y-5385000D02*
X14986368Y-5415000D01*
X14986368Y-5385000D02*
X14956368Y-5415000D01*
X14960133Y-5660000D02*
X14990133Y-5690000D01*
X14990133Y-5660000D02*
X14960133Y-5690000D01*
X14960504Y-5872913D02*
X14990504Y-5902913D01*
X14990504Y-5872913D02*
X14960504Y-5902913D01*
X14960728Y-6020124D02*
X14990728Y-6050124D01*
X14990728Y-6020124D02*
X14960728Y-6050124D01*
X14960728Y-7150000D02*
X14990728Y-7180000D01*
X14990728Y-7150000D02*
X14960728Y-7180000D01*
X14961220Y-6217215D02*
X14991220Y-6247215D01*
X14991220Y-6217215D02*
X14961220Y-6247215D01*
X14961220Y-6367215D02*
X14991220Y-6397215D01*
X14991220Y-6367215D02*
X14961220Y-6397215D01*
X14961220Y-6517215D02*
X14991220Y-6547215D01*
X14991220Y-6517215D02*
X14961220Y-6547215D01*
X14999212Y-5104154D02*
X15029212Y-5134154D01*
X15029212Y-5104154D02*
X14999212Y-5134154D01*
X15000000Y-4545000D02*
X15030000Y-4575000D01*
X15030000Y-4545000D02*
X15000000Y-4575000D01*
X15000000Y-8015000D02*
X15030000Y-8045000D01*
X15030000Y-8015000D02*
X15000000Y-8045000D01*
X15014091Y-7331732D02*
X15044091Y-7361732D01*
X15044091Y-7331732D02*
X15014091Y-7361732D01*
X15075000Y-6815000D02*
X15105000Y-6845000D01*
X15105000Y-6815000D02*
X15075000Y-6845000D01*
X15075000Y-6955000D02*
X15105000Y-6985000D01*
X15105000Y-6955000D02*
X15075000Y-6985000D01*
X15075000Y-7100000D02*
X15105000Y-7130000D01*
X15105000Y-7100000D02*
X15075000Y-7130000D01*
X15082776Y-5042393D02*
X15112776Y-5072393D01*
X15112776Y-5042393D02*
X15082776Y-5072393D01*
X15085000Y-6320000D02*
X15115000Y-6350000D01*
X15115000Y-6320000D02*
X15085000Y-6350000D01*
X15085000Y-6485000D02*
X15115000Y-6515000D01*
X15115000Y-6485000D02*
X15085000Y-6515000D01*
X15087500Y-5795000D02*
X15117500Y-5825000D01*
X15117500Y-5795000D02*
X15087500Y-5825000D01*
X15087500Y-5945000D02*
X15117500Y-5975000D01*
X15117500Y-5945000D02*
X15087500Y-5975000D01*
X15087500Y-6095000D02*
X15117500Y-6125000D01*
X15117500Y-6095000D02*
X15087500Y-6125000D01*
X15090000Y-4545000D02*
X15120000Y-4575000D01*
X15120000Y-4545000D02*
X15090000Y-4575000D01*
X15090000Y-8015000D02*
X15120000Y-8045000D01*
X15120000Y-8015000D02*
X15090000Y-8045000D01*
X15095000Y-5305000D02*
X15125000Y-5335000D01*
X15125000Y-5305000D02*
X15095000Y-5335000D01*
X15095000Y-5435000D02*
X15125000Y-5465000D01*
X15125000Y-5435000D02*
X15095000Y-5465000D01*
X15123470Y-7367016D02*
X15153470Y-7397016D01*
X15153470Y-7367016D02*
X15123470Y-7397016D01*
X15175000Y-5165000D02*
X15205000Y-5195000D01*
X15205000Y-5165000D02*
X15175000Y-5195000D01*
X15180000Y-4545000D02*
X15210000Y-4575000D01*
X15210000Y-4545000D02*
X15180000Y-4575000D01*
X15180000Y-8015000D02*
X15210000Y-8045000D01*
X15210000Y-8015000D02*
X15180000Y-8045000D01*
X15185099Y-5023407D02*
X15215099Y-5053407D01*
X15215099Y-5023407D02*
X15185099Y-5053407D01*
X15227809Y-7374073D02*
X15257809Y-7404073D01*
X15257809Y-7374073D02*
X15227809Y-7404073D01*
X15235000Y-7150000D02*
X15265000Y-7180000D01*
X15265000Y-7150000D02*
X15235000Y-7180000D01*
X15255000Y-5725000D02*
X15285000Y-5755000D01*
X15285000Y-5725000D02*
X15255000Y-5755000D01*
X15260000Y-5872500D02*
X15290000Y-5902500D01*
X15290000Y-5872500D02*
X15260000Y-5902500D01*
X15260000Y-6022000D02*
X15290000Y-6052000D01*
X15290000Y-6022000D02*
X15260000Y-6052000D01*
X15270000Y-4545000D02*
X15300000Y-4575000D01*
X15300000Y-4545000D02*
X15270000Y-4575000D01*
X15270000Y-8015000D02*
X15300000Y-8045000D01*
X15300000Y-8015000D02*
X15270000Y-8045000D01*
X15285099Y-5023407D02*
X15315099Y-5053407D01*
X15315099Y-5023407D02*
X15285099Y-5053407D01*
X15325000Y-5165000D02*
X15355000Y-5195000D01*
X15355000Y-5165000D02*
X15325000Y-5195000D01*
X15360000Y-4545000D02*
X15390000Y-4575000D01*
X15390000Y-4545000D02*
X15360000Y-4575000D01*
X15360000Y-8015000D02*
X15390000Y-8045000D01*
X15390000Y-8015000D02*
X15360000Y-8045000D01*
X15385099Y-5023407D02*
X15415099Y-5053407D01*
X15415099Y-5023407D02*
X15385099Y-5053407D01*
X15420000Y-6955000D02*
X15450000Y-6985000D01*
X15450000Y-6955000D02*
X15420000Y-6985000D01*
X15430000Y-7085000D02*
X15460000Y-7115000D01*
X15460000Y-7085000D02*
X15430000Y-7115000D01*
X15435000Y-6690000D02*
X15465000Y-6720000D01*
X15465000Y-6690000D02*
X15435000Y-6720000D01*
X15445000Y-5655000D02*
X15475000Y-5685000D01*
X15475000Y-5655000D02*
X15445000Y-5685000D01*
X15445000Y-6195000D02*
X15475000Y-6225000D01*
X15475000Y-6195000D02*
X15445000Y-6225000D01*
X15445000Y-6295000D02*
X15475000Y-6325000D01*
X15475000Y-6295000D02*
X15445000Y-6325000D01*
X15445000Y-6475000D02*
X15475000Y-6505000D01*
X15475000Y-6475000D02*
X15445000Y-6505000D01*
X15450000Y-4545000D02*
X15480000Y-4575000D01*
X15480000Y-4545000D02*
X15450000Y-4575000D01*
X15450000Y-8015000D02*
X15480000Y-8045000D01*
X15480000Y-8015000D02*
X15450000Y-8045000D01*
X15485000Y-5795000D02*
X15515000Y-5825000D01*
X15515000Y-5795000D02*
X15485000Y-5825000D01*
X15485099Y-5023407D02*
X15515099Y-5053407D01*
X15515099Y-5023407D02*
X15485099Y-5053407D01*
X15515000Y-5925000D02*
X15545000Y-5955000D01*
X15545000Y-5925000D02*
X15515000Y-5955000D01*
X15540000Y-4545000D02*
X15570000Y-4575000D01*
X15570000Y-4545000D02*
X15540000Y-4575000D01*
X15540000Y-8015000D02*
X15570000Y-8045000D01*
X15570000Y-8015000D02*
X15540000Y-8045000D01*
X15555000Y-6221690D02*
X15585000Y-6251690D01*
X15585000Y-6221690D02*
X15555000Y-6251690D01*
X15585000Y-5655000D02*
X15615000Y-5685000D01*
X15615000Y-5655000D02*
X15585000Y-5685000D01*
X15585099Y-5023407D02*
X15615099Y-5053407D01*
X15615099Y-5023407D02*
X15585099Y-5053407D01*
X15595000Y-7575000D02*
X15625000Y-7605000D01*
X15625000Y-7575000D02*
X15595000Y-7605000D01*
X15595000Y-7745000D02*
X15625000Y-7775000D01*
X15625000Y-7745000D02*
X15595000Y-7775000D01*
X15630000Y-4545000D02*
X15660000Y-4575000D01*
X15660000Y-4545000D02*
X15630000Y-4575000D01*
X15630000Y-8015000D02*
X15660000Y-8045000D01*
X15660000Y-8015000D02*
X15630000Y-8045000D01*
X15645000Y-5815000D02*
X15675000Y-5845000D01*
X15675000Y-5815000D02*
X15645000Y-5845000D01*
X15660008Y-5965000D02*
X15690008Y-5995000D01*
X15690008Y-5965000D02*
X15660008Y-5995000D01*
X15664800Y-6460059D02*
X15694800Y-6490059D01*
X15694800Y-6460059D02*
X15664800Y-6490059D01*
X15685099Y-5023407D02*
X15715099Y-5053407D01*
X15715099Y-5023407D02*
X15685099Y-5053407D01*
X15696250Y-5345000D02*
X15726250Y-5375000D01*
X15726250Y-5345000D02*
X15696250Y-5375000D01*
X15705585Y-7375000D02*
X15735585Y-7405000D01*
X15735585Y-7375000D02*
X15705585Y-7405000D01*
X15720000Y-4545000D02*
X15750000Y-4575000D01*
X15750000Y-4545000D02*
X15720000Y-4575000D01*
X15720000Y-8015000D02*
X15750000Y-8045000D01*
X15750000Y-8015000D02*
X15720000Y-8045000D01*
X15745000Y-5655000D02*
X15775000Y-5685000D01*
X15775000Y-5655000D02*
X15745000Y-5685000D01*
X15745000Y-6755000D02*
X15775000Y-6785000D01*
X15775000Y-6755000D02*
X15745000Y-6785000D01*
X15765000Y-7160500D02*
X15795000Y-7190500D01*
X15795000Y-7160500D02*
X15765000Y-7190500D01*
X15777500Y-6085000D02*
X15807500Y-6115000D01*
X15807500Y-6085000D02*
X15777500Y-6115000D01*
X15782500Y-6230000D02*
X15812500Y-6260000D01*
X15812500Y-6230000D02*
X15782500Y-6260000D01*
X15782500Y-6330000D02*
X15812500Y-6360000D01*
X15812500Y-6330000D02*
X15782500Y-6360000D01*
X15785099Y-5023407D02*
X15815099Y-5053407D01*
X15815099Y-5023407D02*
X15785099Y-5053407D01*
X15795000Y-5555000D02*
X15825000Y-5585000D01*
X15825000Y-5555000D02*
X15795000Y-5585000D01*
X15810000Y-4545000D02*
X15840000Y-4575000D01*
X15840000Y-4545000D02*
X15810000Y-4575000D01*
X15810000Y-8015000D02*
X15840000Y-8045000D01*
X15840000Y-8015000D02*
X15810000Y-8045000D01*
X15835000Y-7495000D02*
X15865000Y-7525000D01*
X15865000Y-7495000D02*
X15835000Y-7525000D01*
X15867500Y-6712500D02*
X15897500Y-6742500D01*
X15897500Y-6712500D02*
X15867500Y-6742500D01*
X15872500Y-6230000D02*
X15902500Y-6260000D01*
X15902500Y-6230000D02*
X15872500Y-6260000D01*
X15872500Y-6330000D02*
X15902500Y-6360000D01*
X15902500Y-6330000D02*
X15872500Y-6360000D01*
X15885099Y-5023407D02*
X15915099Y-5053407D01*
X15915099Y-5023407D02*
X15885099Y-5053407D01*
X15895000Y-5555000D02*
X15925000Y-5585000D01*
X15925000Y-5555000D02*
X15895000Y-5585000D01*
X15900000Y-4545000D02*
X15930000Y-4575000D01*
X15930000Y-4545000D02*
X15900000Y-4575000D01*
X15900000Y-8015000D02*
X15930000Y-8045000D01*
X15930000Y-8015000D02*
X15900000Y-8045000D01*
X15910000Y-7160000D02*
X15940000Y-7190000D01*
X15940000Y-7160000D02*
X15910000Y-7190000D01*
X15917500Y-6090000D02*
X15947500Y-6120000D01*
X15947500Y-6090000D02*
X15917500Y-6120000D01*
X15955000Y-5655000D02*
X15985000Y-5685000D01*
X15985000Y-5655000D02*
X15955000Y-5685000D01*
X15955000Y-7615000D02*
X15985000Y-7645000D01*
X15985000Y-7615000D02*
X15955000Y-7645000D01*
X15977500Y-6597500D02*
X16007500Y-6627500D01*
X16007500Y-6597500D02*
X15977500Y-6627500D01*
X15985099Y-5023407D02*
X16015099Y-5053407D01*
X16015099Y-5023407D02*
X15985099Y-5053407D01*
X15990000Y-4545000D02*
X16020000Y-4575000D01*
X16020000Y-4545000D02*
X15990000Y-4575000D01*
X15990000Y-8015000D02*
X16020000Y-8045000D01*
X16020000Y-8015000D02*
X15990000Y-8045000D01*
X16007500Y-6090000D02*
X16037500Y-6120000D01*
X16037500Y-6090000D02*
X16007500Y-6120000D01*
X16012500Y-6220000D02*
X16042500Y-6250000D01*
X16042500Y-6220000D02*
X16012500Y-6250000D01*
X16012500Y-6310000D02*
X16042500Y-6340000D01*
X16042500Y-6310000D02*
X16012500Y-6340000D01*
X16055000Y-5455000D02*
X16085000Y-5485000D01*
X16085000Y-5455000D02*
X16055000Y-5485000D01*
X16062100Y-6557928D02*
X16092100Y-6587928D01*
X16092100Y-6557928D02*
X16062100Y-6587928D01*
X16065000Y-7160500D02*
X16095000Y-7190500D01*
X16095000Y-7160500D02*
X16065000Y-7190500D01*
X16080000Y-4545000D02*
X16110000Y-4575000D01*
X16110000Y-4545000D02*
X16080000Y-4575000D01*
X16080000Y-8015000D02*
X16110000Y-8045000D01*
X16110000Y-8015000D02*
X16080000Y-8045000D01*
X16085099Y-5023407D02*
X16115099Y-5053407D01*
X16115099Y-5023407D02*
X16085099Y-5053407D01*
X16095000Y-6745000D02*
X16125000Y-6775000D01*
X16125000Y-6745000D02*
X16095000Y-6775000D01*
X16125000Y-5655000D02*
X16155000Y-5685000D01*
X16155000Y-5655000D02*
X16125000Y-5685000D01*
X16137367Y-7372147D02*
X16167367Y-7402147D01*
X16167367Y-7372147D02*
X16137367Y-7402147D01*
X16170000Y-4545000D02*
X16200000Y-4575000D01*
X16200000Y-4545000D02*
X16170000Y-4575000D01*
X16170000Y-8015000D02*
X16200000Y-8045000D01*
X16200000Y-8015000D02*
X16170000Y-8045000D01*
X16175000Y-5961250D02*
X16205000Y-5991250D01*
X16205000Y-5961250D02*
X16175000Y-5991250D01*
X16185099Y-5023407D02*
X16215099Y-5053407D01*
X16215099Y-5023407D02*
X16185099Y-5053407D01*
X16187500Y-6565000D02*
X16217500Y-6595000D01*
X16217500Y-6565000D02*
X16187500Y-6595000D01*
X16205000Y-5365000D02*
X16235000Y-5395000D01*
X16235000Y-5365000D02*
X16205000Y-5395000D01*
X16237367Y-7372147D02*
X16267367Y-7402147D01*
X16267367Y-7372147D02*
X16237367Y-7402147D01*
X16247500Y-7162500D02*
X16277500Y-7192500D01*
X16277500Y-7162500D02*
X16247500Y-7192500D01*
X16260000Y-4545000D02*
X16290000Y-4575000D01*
X16290000Y-4545000D02*
X16260000Y-4575000D01*
X16260000Y-8015000D02*
X16290000Y-8045000D01*
X16290000Y-8015000D02*
X16260000Y-8045000D01*
X16285099Y-5023407D02*
X16315099Y-5053407D01*
X16315099Y-5023407D02*
X16285099Y-5053407D01*
X16285631Y-6561803D02*
X16315631Y-6591803D01*
X16315631Y-6561803D02*
X16285631Y-6591803D01*
X16295000Y-6026250D02*
X16325000Y-6056250D01*
X16325000Y-6026250D02*
X16295000Y-6056250D01*
X16335000Y-5655000D02*
X16365000Y-5685000D01*
X16365000Y-5655000D02*
X16335000Y-5685000D01*
X16337367Y-7372147D02*
X16367367Y-7402147D01*
X16367367Y-7372147D02*
X16337367Y-7402147D01*
X16350000Y-4545000D02*
X16380000Y-4575000D01*
X16380000Y-4545000D02*
X16350000Y-4575000D01*
X16350000Y-8015000D02*
X16380000Y-8045000D01*
X16380000Y-8015000D02*
X16350000Y-8045000D01*
X16367500Y-6250000D02*
X16397500Y-6280000D01*
X16397500Y-6250000D02*
X16367500Y-6280000D01*
X16385099Y-5023407D02*
X16415099Y-5053407D01*
X16415099Y-5023407D02*
X16385099Y-5053407D01*
X16395000Y-5765000D02*
X16425000Y-5795000D01*
X16425000Y-5765000D02*
X16395000Y-5795000D01*
X16415000Y-7160000D02*
X16445000Y-7190000D01*
X16445000Y-7160000D02*
X16415000Y-7190000D01*
X16437367Y-7372147D02*
X16467367Y-7402147D01*
X16467367Y-7372147D02*
X16437367Y-7402147D01*
X16440000Y-4545000D02*
X16470000Y-4575000D01*
X16470000Y-4545000D02*
X16440000Y-4575000D01*
X16440000Y-8015000D02*
X16470000Y-8045000D01*
X16470000Y-8015000D02*
X16440000Y-8045000D01*
X16465000Y-6675360D02*
X16495000Y-6705360D01*
X16495000Y-6675360D02*
X16465000Y-6705360D01*
X16485000Y-5315000D02*
X16515000Y-5345000D01*
X16515000Y-5315000D02*
X16485000Y-5345000D01*
X16485099Y-5023407D02*
X16515099Y-5053407D01*
X16515099Y-5023407D02*
X16485099Y-5053407D01*
X16505000Y-6065000D02*
X16535000Y-6095000D01*
X16535000Y-6065000D02*
X16505000Y-6095000D01*
X16530000Y-4545000D02*
X16560000Y-4575000D01*
X16560000Y-4545000D02*
X16530000Y-4575000D01*
X16530000Y-8015000D02*
X16560000Y-8045000D01*
X16560000Y-8015000D02*
X16530000Y-8045000D01*
X16537367Y-7372147D02*
X16567367Y-7402147D01*
X16567367Y-7372147D02*
X16537367Y-7402147D01*
X16547500Y-5715000D02*
X16577500Y-5745000D01*
X16577500Y-5715000D02*
X16547500Y-5745000D01*
X16547500Y-5865000D02*
X16577500Y-5895000D01*
X16577500Y-5865000D02*
X16547500Y-5895000D01*
X16547500Y-6250000D02*
X16577500Y-6280000D01*
X16577500Y-6250000D02*
X16547500Y-6280000D01*
X16582500Y-7157500D02*
X16612500Y-7187500D01*
X16612500Y-7157500D02*
X16582500Y-7187500D01*
X16585099Y-5023407D02*
X16615099Y-5053407D01*
X16615099Y-5023407D02*
X16585099Y-5053407D01*
X16620000Y-4545000D02*
X16650000Y-4575000D01*
X16650000Y-4545000D02*
X16620000Y-4575000D01*
X16620000Y-8015000D02*
X16650000Y-8045000D01*
X16650000Y-8015000D02*
X16620000Y-8045000D01*
X16630360Y-7059640D02*
X16660360Y-7089640D01*
X16660360Y-7059640D02*
X16630360Y-7089640D01*
X16637367Y-7372147D02*
X16667367Y-7402147D01*
X16667367Y-7372147D02*
X16637367Y-7402147D01*
X16655000Y-6595000D02*
X16685000Y-6625000D01*
X16685000Y-6595000D02*
X16655000Y-6625000D01*
X16685099Y-5023407D02*
X16715099Y-5053407D01*
X16715099Y-5023407D02*
X16685099Y-5053407D01*
X16707500Y-5795000D02*
X16737500Y-5825000D01*
X16737500Y-5795000D02*
X16707500Y-5825000D01*
X16710000Y-4545000D02*
X16740000Y-4575000D01*
X16740000Y-4545000D02*
X16710000Y-4575000D01*
X16710000Y-8015000D02*
X16740000Y-8045000D01*
X16740000Y-8015000D02*
X16710000Y-8045000D01*
X16715000Y-6959840D02*
X16745000Y-6989840D01*
X16745000Y-6959840D02*
X16715000Y-6989840D01*
X16737367Y-7372147D02*
X16767367Y-7402147D01*
X16767367Y-7372147D02*
X16737367Y-7402147D01*
X16785099Y-5023407D02*
X16815099Y-5053407D01*
X16815099Y-5023407D02*
X16785099Y-5053407D01*
X16790000Y-5460000D02*
X16820000Y-5490000D01*
X16820000Y-5460000D02*
X16790000Y-5490000D01*
X16790000Y-6595000D02*
X16820000Y-6625000D01*
X16820000Y-6595000D02*
X16790000Y-6625000D01*
X16800000Y-4545000D02*
X16830000Y-4575000D01*
X16830000Y-4545000D02*
X16800000Y-4575000D01*
X16800000Y-8015000D02*
X16830000Y-8045000D01*
X16830000Y-8015000D02*
X16800000Y-8045000D01*
X16821680Y-6959840D02*
X16851680Y-6989840D01*
X16851680Y-6959840D02*
X16821680Y-6989840D01*
X16837367Y-7372147D02*
X16867367Y-7402147D01*
X16867367Y-7372147D02*
X16837367Y-7402147D01*
X16867500Y-5795000D02*
X16897500Y-5825000D01*
X16897500Y-5795000D02*
X16867500Y-5825000D01*
X16867500Y-5955000D02*
X16897500Y-5985000D01*
X16897500Y-5955000D02*
X16867500Y-5985000D01*
X16867500Y-6115000D02*
X16897500Y-6145000D01*
X16897500Y-6115000D02*
X16867500Y-6145000D01*
X16867500Y-6275000D02*
X16897500Y-6305000D01*
X16897500Y-6275000D02*
X16867500Y-6305000D01*
X16867500Y-6435000D02*
X16897500Y-6465000D01*
X16897500Y-6435000D02*
X16867500Y-6465000D01*
X16885099Y-5023407D02*
X16915099Y-5053407D01*
X16915099Y-5023407D02*
X16885099Y-5053407D01*
X16890000Y-4545000D02*
X16920000Y-4575000D01*
X16920000Y-4545000D02*
X16890000Y-4575000D01*
X16890000Y-8015000D02*
X16920000Y-8045000D01*
X16920000Y-8015000D02*
X16890000Y-8045000D01*
X16923280Y-6959840D02*
X16953280Y-6989840D01*
X16953280Y-6959840D02*
X16923280Y-6989840D01*
X16937367Y-7372147D02*
X16967367Y-7402147D01*
X16967367Y-7372147D02*
X16937367Y-7402147D01*
X16940000Y-5515000D02*
X16970000Y-5545000D01*
X16970000Y-5515000D02*
X16940000Y-5545000D01*
X16980000Y-4545000D02*
X17010000Y-4575000D01*
X17010000Y-4545000D02*
X16980000Y-4575000D01*
X16980000Y-8015000D02*
X17010000Y-8045000D01*
X17010000Y-8015000D02*
X16980000Y-8045000D01*
X16985099Y-5023407D02*
X17015099Y-5053407D01*
X17015099Y-5023407D02*
X16985099Y-5053407D01*
X17005000Y-5675000D02*
X17035000Y-5705000D01*
X17035000Y-5675000D02*
X17005000Y-5705000D01*
X17024880Y-6959840D02*
X17054880Y-6989840D01*
X17054880Y-6959840D02*
X17024880Y-6989840D01*
X17030000Y-5515000D02*
X17060000Y-5545000D01*
X17060000Y-5515000D02*
X17030000Y-5545000D01*
X17037367Y-7372147D02*
X17067367Y-7402147D01*
X17067367Y-7372147D02*
X17037367Y-7402147D01*
X17070000Y-4545000D02*
X17100000Y-4575000D01*
X17100000Y-4545000D02*
X17070000Y-4575000D01*
X17070000Y-8015000D02*
X17100000Y-8045000D01*
X17100000Y-8015000D02*
X17070000Y-8045000D01*
X17085000Y-7145000D02*
X17115000Y-7175000D01*
X17115000Y-7145000D02*
X17085000Y-7175000D01*
X17085099Y-5023407D02*
X17115099Y-5053407D01*
X17115099Y-5023407D02*
X17085099Y-5053407D01*
X17095000Y-5330000D02*
X17125000Y-5360000D01*
X17125000Y-5330000D02*
X17095000Y-5360000D01*
X17120000Y-5517500D02*
X17150000Y-5547500D01*
X17150000Y-5517500D02*
X17120000Y-5547500D01*
X17126480Y-6959840D02*
X17156480Y-6989840D01*
X17156480Y-6959840D02*
X17126480Y-6989840D01*
X17137367Y-7372147D02*
X17167367Y-7402147D01*
X17167367Y-7372147D02*
X17137367Y-7402147D01*
X17160000Y-4545000D02*
X17190000Y-4575000D01*
X17190000Y-4545000D02*
X17160000Y-4575000D01*
X17160000Y-8015000D02*
X17190000Y-8045000D01*
X17190000Y-8015000D02*
X17160000Y-8045000D01*
X17165000Y-5795000D02*
X17195000Y-5825000D01*
X17195000Y-5795000D02*
X17165000Y-5825000D01*
X17165000Y-5955000D02*
X17195000Y-5985000D01*
X17195000Y-5955000D02*
X17165000Y-5985000D01*
X17165000Y-6115000D02*
X17195000Y-6145000D01*
X17195000Y-6115000D02*
X17165000Y-6145000D01*
X17165000Y-6275000D02*
X17195000Y-6305000D01*
X17195000Y-6275000D02*
X17165000Y-6305000D01*
X17165000Y-6435000D02*
X17195000Y-6465000D01*
X17195000Y-6435000D02*
X17165000Y-6465000D01*
X17185099Y-5023407D02*
X17215099Y-5053407D01*
X17215099Y-5023407D02*
X17185099Y-5053407D01*
X17213108Y-5517500D02*
X17243108Y-5547500D01*
X17243108Y-5517500D02*
X17213108Y-5547500D01*
X17228080Y-6959840D02*
X17258080Y-6989840D01*
X17258080Y-6959840D02*
X17228080Y-6989840D01*
X17237367Y-7372147D02*
X17267367Y-7402147D01*
X17267367Y-7372147D02*
X17237367Y-7402147D01*
X17250000Y-4545000D02*
X17280000Y-4575000D01*
X17280000Y-4545000D02*
X17250000Y-4575000D01*
X17250000Y-8015000D02*
X17280000Y-8045000D01*
X17280000Y-8015000D02*
X17250000Y-8045000D01*
X17285099Y-5023407D02*
X17315099Y-5053407D01*
X17315099Y-5023407D02*
X17285099Y-5053407D01*
X17329680Y-6959840D02*
X17359680Y-6989840D01*
X17359680Y-6959840D02*
X17329680Y-6989840D01*
X17335000Y-6455000D02*
X17365000Y-6485000D01*
X17365000Y-6455000D02*
X17335000Y-6485000D01*
X17337367Y-7372147D02*
X17367367Y-7402147D01*
X17367367Y-7372147D02*
X17337367Y-7402147D01*
X17340000Y-4545000D02*
X17370000Y-4575000D01*
X17370000Y-4545000D02*
X17340000Y-4575000D01*
X17340000Y-8015000D02*
X17370000Y-8045000D01*
X17370000Y-8015000D02*
X17340000Y-8045000D01*
X17385099Y-5023407D02*
X17415099Y-5053407D01*
X17415099Y-5023407D02*
X17385099Y-5053407D01*
X17392500Y-5785000D02*
X17422500Y-5815000D01*
X17422500Y-5785000D02*
X17392500Y-5815000D01*
X17392500Y-5878108D02*
X17422500Y-5908108D01*
X17422500Y-5878108D02*
X17392500Y-5908108D01*
X17395000Y-5605000D02*
X17425000Y-5635000D01*
X17425000Y-5605000D02*
X17395000Y-5635000D01*
X17395000Y-5695000D02*
X17425000Y-5725000D01*
X17425000Y-5695000D02*
X17395000Y-5725000D01*
X17430000Y-4545000D02*
X17460000Y-4575000D01*
X17460000Y-4545000D02*
X17430000Y-4575000D01*
X17430000Y-8015000D02*
X17460000Y-8045000D01*
X17460000Y-8015000D02*
X17430000Y-8045000D01*
X17431280Y-6959840D02*
X17461280Y-6989840D01*
X17461280Y-6959840D02*
X17431280Y-6989840D01*
X17437367Y-7372147D02*
X17467367Y-7402147D01*
X17467367Y-7372147D02*
X17437367Y-7402147D01*
X17485000Y-6220000D02*
X17515000Y-6250000D01*
X17515000Y-6220000D02*
X17485000Y-6250000D01*
X17485099Y-5023407D02*
X17515099Y-5053407D01*
X17515099Y-5023407D02*
X17485099Y-5053407D01*
X17500000Y-5300000D02*
X17530000Y-5330000D01*
X17530000Y-5300000D02*
X17500000Y-5330000D01*
X17500000Y-5400000D02*
X17530000Y-5430000D01*
X17530000Y-5400000D02*
X17500000Y-5430000D01*
X17500000Y-5505000D02*
X17530000Y-5535000D01*
X17530000Y-5505000D02*
X17500000Y-5535000D01*
X17520000Y-4545000D02*
X17550000Y-4575000D01*
X17550000Y-4545000D02*
X17520000Y-4575000D01*
X17520000Y-8015000D02*
X17550000Y-8045000D01*
X17550000Y-8015000D02*
X17520000Y-8045000D01*
X17525000Y-6488600D02*
X17555000Y-6518600D01*
X17555000Y-6488600D02*
X17525000Y-6518600D01*
X17525000Y-6590200D02*
X17555000Y-6620200D01*
X17555000Y-6590200D02*
X17525000Y-6620200D01*
X17525000Y-6691800D02*
X17555000Y-6721800D01*
X17555000Y-6691800D02*
X17525000Y-6721800D01*
X17525000Y-6793400D02*
X17555000Y-6823400D01*
X17555000Y-6793400D02*
X17525000Y-6823400D01*
X17525000Y-6895000D02*
X17555000Y-6925000D01*
X17555000Y-6895000D02*
X17525000Y-6925000D01*
X17535000Y-6090000D02*
X17565000Y-6120000D01*
X17565000Y-6090000D02*
X17535000Y-6120000D01*
X17537367Y-7372147D02*
X17567367Y-7402147D01*
X17567367Y-7372147D02*
X17537367Y-7402147D01*
X17540000Y-5990000D02*
X17570000Y-6020000D01*
X17570000Y-5990000D02*
X17540000Y-6020000D01*
X17555000Y-7125000D02*
X17585000Y-7155000D01*
X17585000Y-7125000D02*
X17555000Y-7155000D01*
X17580000Y-6170000D02*
X17610000Y-6200000D01*
X17610000Y-6170000D02*
X17580000Y-6200000D01*
X17585000Y-7235000D02*
X17615000Y-7265000D01*
X17615000Y-7235000D02*
X17585000Y-7265000D01*
X17590000Y-6415000D02*
X17620000Y-6445000D01*
X17620000Y-6415000D02*
X17590000Y-6445000D01*
X17610000Y-4545000D02*
X17640000Y-4575000D01*
X17640000Y-4545000D02*
X17610000Y-4575000D01*
X17610000Y-8015000D02*
X17640000Y-8045000D01*
X17640000Y-8015000D02*
X17610000Y-8045000D01*
X17635000Y-5990000D02*
X17665000Y-6020000D01*
X17665000Y-5990000D02*
X17635000Y-6020000D01*
X17635000Y-6090000D02*
X17665000Y-6120000D01*
X17665000Y-6090000D02*
X17635000Y-6120000D01*
X17637367Y-7372147D02*
X17667367Y-7402147D01*
X17667367Y-7372147D02*
X17637367Y-7402147D01*
X17700000Y-4545000D02*
X17730000Y-4575000D01*
X17730000Y-4545000D02*
X17700000Y-4575000D01*
X17700000Y-5925000D02*
X17730000Y-5955000D01*
X17730000Y-5925000D02*
X17700000Y-5955000D01*
X17700000Y-8015000D02*
X17730000Y-8045000D01*
X17730000Y-8015000D02*
X17700000Y-8045000D01*
X17705000Y-6670000D02*
X17735000Y-6700000D01*
X17735000Y-6670000D02*
X17705000Y-6700000D01*
X17705294Y-6291183D02*
X17735294Y-6321183D01*
X17735294Y-6291183D02*
X17705294Y-6321183D01*
X17725000Y-6900000D02*
X17755000Y-6930000D01*
X17755000Y-6900000D02*
X17725000Y-6930000D01*
X17725000Y-7030000D02*
X17755000Y-7060000D01*
X17755000Y-7030000D02*
X17725000Y-7060000D01*
X17725000Y-7170000D02*
X17755000Y-7200000D01*
X17755000Y-7170000D02*
X17725000Y-7200000D01*
X17737367Y-7372147D02*
X17767367Y-7402147D01*
X17767367Y-7372147D02*
X17737367Y-7402147D01*
X17765000Y-5860000D02*
X17795000Y-5890000D01*
X17795000Y-5860000D02*
X17765000Y-5890000D01*
X17770000Y-6735000D02*
X17800000Y-6765000D01*
X17800000Y-6735000D02*
X17770000Y-6765000D01*
X17775000Y-5405000D02*
X17805000Y-5435000D01*
X17805000Y-5405000D02*
X17775000Y-5435000D01*
X17785000Y-6500000D02*
X17815000Y-6530000D01*
X17815000Y-6500000D02*
X17785000Y-6530000D01*
X17790000Y-4545000D02*
X17820000Y-4575000D01*
X17820000Y-4545000D02*
X17790000Y-4575000D01*
X17790000Y-8015000D02*
X17820000Y-8045000D01*
X17820000Y-8015000D02*
X17790000Y-8045000D01*
X17815000Y-6165000D02*
X17845000Y-6195000D01*
X17845000Y-6165000D02*
X17815000Y-6195000D01*
X17830000Y-5795000D02*
X17860000Y-5825000D01*
X17860000Y-5795000D02*
X17830000Y-5825000D01*
X17835000Y-6425000D02*
X17865000Y-6455000D01*
X17865000Y-6425000D02*
X17835000Y-6455000D01*
X17835000Y-6800000D02*
X17865000Y-6830000D01*
X17865000Y-6800000D02*
X17835000Y-6830000D01*
X17837367Y-7372147D02*
X17867367Y-7402147D01*
X17867367Y-7372147D02*
X17837367Y-7402147D01*
X17865000Y-6055000D02*
X17895000Y-6085000D01*
X17895000Y-6055000D02*
X17865000Y-6085000D01*
X17870000Y-6540000D02*
X17900000Y-6570000D01*
X17900000Y-6540000D02*
X17870000Y-6570000D01*
X17875000Y-5175000D02*
X17905000Y-5205000D01*
X17905000Y-5175000D02*
X17875000Y-5205000D01*
X17880000Y-4545000D02*
X17910000Y-4575000D01*
X17910000Y-4545000D02*
X17880000Y-4575000D01*
X17880000Y-8015000D02*
X17910000Y-8045000D01*
X17910000Y-8015000D02*
X17880000Y-8045000D01*
X17885000Y-5025000D02*
X17915000Y-5055000D01*
X17915000Y-5025000D02*
X17885000Y-5055000D01*
X17885000Y-6230000D02*
X17915000Y-6260000D01*
X17915000Y-6230000D02*
X17885000Y-6260000D01*
X17885000Y-6350000D02*
X17915000Y-6380000D01*
X17915000Y-6350000D02*
X17885000Y-6380000D01*
X17900000Y-6865000D02*
X17930000Y-6895000D01*
X17930000Y-6865000D02*
X17900000Y-6895000D01*
X17904700Y-5725400D02*
X17934700Y-5755400D01*
X17934700Y-5725400D02*
X17904700Y-5755400D01*
X17937367Y-7372147D02*
X17967367Y-7402147D01*
X17967367Y-7372147D02*
X17937367Y-7402147D01*
X17970000Y-5660000D02*
X18000000Y-5690000D01*
X18000000Y-5660000D02*
X17970000Y-5690000D01*
X17975000Y-4545000D02*
X18005000Y-4575000D01*
X18005000Y-4545000D02*
X17975000Y-4575000D01*
X17975000Y-8015000D02*
X18005000Y-8045000D01*
X18005000Y-8015000D02*
X17975000Y-8045000D01*
X17975600Y-6934500D02*
X18005600Y-6964500D01*
X18005600Y-6934500D02*
X17975600Y-6964500D01*
X17980000Y-5954000D02*
X18010000Y-5984000D01*
X18010000Y-5954000D02*
X17980000Y-5984000D01*
X17980000Y-6645000D02*
X18010000Y-6675000D01*
X18010000Y-6645000D02*
X17980000Y-6675000D01*
X17985000Y-5025000D02*
X18015000Y-5055000D01*
X18015000Y-5025000D02*
X17985000Y-5055000D01*
X18030632Y-7345684D02*
X18060632Y-7375684D01*
X18060632Y-7345684D02*
X18030632Y-7375684D01*
X18035000Y-5595000D02*
X18065000Y-5625000D01*
X18065000Y-5595000D02*
X18035000Y-5625000D01*
X18035000Y-6295000D02*
X18065000Y-6325000D01*
X18065000Y-6295000D02*
X18035000Y-6325000D01*
X18044400Y-5890500D02*
X18074400Y-5920500D01*
X18074400Y-5890500D02*
X18044400Y-5920500D01*
X18045000Y-6710000D02*
X18075000Y-6740000D01*
X18075000Y-6710000D02*
X18045000Y-6740000D01*
X18050000Y-7010000D02*
X18080000Y-7040000D01*
X18080000Y-7010000D02*
X18050000Y-7040000D01*
X18055000Y-4935000D02*
X18085000Y-4965000D01*
X18085000Y-4935000D02*
X18055000Y-4965000D01*
X18065000Y-4545000D02*
X18095000Y-4575000D01*
X18095000Y-4545000D02*
X18065000Y-4575000D01*
X18065000Y-8015000D02*
X18095000Y-8045000D01*
X18095000Y-8015000D02*
X18065000Y-8045000D01*
X18105000Y-5525400D02*
X18135000Y-5555400D01*
X18135000Y-5525400D02*
X18105000Y-5555400D01*
X18119977Y-7281373D02*
X18149977Y-7311373D01*
X18149977Y-7281373D02*
X18119977Y-7311373D01*
X18120600Y-5801600D02*
X18150600Y-5831600D01*
X18150600Y-5801600D02*
X18120600Y-5831600D01*
X18120600Y-6779500D02*
X18150600Y-6809500D01*
X18150600Y-6779500D02*
X18120600Y-6809500D01*
X18125000Y-7085000D02*
X18155000Y-7115000D01*
X18155000Y-7085000D02*
X18125000Y-7115000D01*
X18150033Y-4848234D02*
X18180033Y-4878234D01*
X18180033Y-4848234D02*
X18150033Y-4878234D01*
X18153309Y-5185000D02*
X18183309Y-5215000D01*
X18183309Y-5185000D02*
X18153309Y-5215000D01*
X18154675Y-5942939D02*
X18184675Y-5972939D01*
X18184675Y-5942939D02*
X18154675Y-5972939D01*
X18154675Y-6042939D02*
X18184675Y-6072939D01*
X18184675Y-6042939D02*
X18154675Y-6072939D01*
X18154675Y-6142939D02*
X18184675Y-6172939D01*
X18184675Y-6142939D02*
X18154675Y-6172939D01*
X18154675Y-6242939D02*
X18184675Y-6272939D01*
X18184675Y-6242939D02*
X18154675Y-6272939D01*
X18154675Y-6342939D02*
X18184675Y-6372939D01*
X18184675Y-6342939D02*
X18154675Y-6372939D01*
X18154675Y-6442939D02*
X18184675Y-6472939D01*
X18184675Y-6442939D02*
X18154675Y-6472939D01*
X18154675Y-6542939D02*
X18184675Y-6572939D01*
X18184675Y-6542939D02*
X18154675Y-6572939D01*
X18154675Y-6642939D02*
X18184675Y-6672939D01*
X18184675Y-6642939D02*
X18154675Y-6672939D01*
X18155000Y-4545000D02*
X18185000Y-4575000D01*
X18185000Y-4545000D02*
X18155000Y-4575000D01*
X18155000Y-5305000D02*
X18185000Y-5335000D01*
X18185000Y-5305000D02*
X18155000Y-5335000D01*
X18155000Y-8015000D02*
X18185000Y-8045000D01*
X18185000Y-8015000D02*
X18155000Y-8045000D01*
X18185000Y-5445000D02*
X18215000Y-5475000D01*
X18215000Y-5445000D02*
X18185000Y-5475000D01*
X18195000Y-6855000D02*
X18225000Y-6885000D01*
X18225000Y-6855000D02*
X18195000Y-6885000D01*
X18196800Y-5725400D02*
X18226800Y-5755400D01*
X18226800Y-5725400D02*
X18196800Y-5755400D01*
X18245000Y-4545000D02*
X18275000Y-4575000D01*
X18275000Y-4545000D02*
X18245000Y-4575000D01*
X18245000Y-8015000D02*
X18275000Y-8045000D01*
X18275000Y-8015000D02*
X18245000Y-8045000D01*
X18250770Y-5102327D02*
X18280770Y-5132327D01*
X18280770Y-5102327D02*
X18250770Y-5132327D01*
X18256302Y-4805289D02*
X18286302Y-4835289D01*
X18286302Y-4805289D02*
X18256302Y-4835289D01*
X18275000Y-7125000D02*
X18305000Y-7155000D01*
X18305000Y-7125000D02*
X18275000Y-7155000D01*
X18285000Y-5655000D02*
X18315000Y-5685000D01*
X18315000Y-5655000D02*
X18285000Y-5685000D01*
X18285000Y-6905000D02*
X18315000Y-6935000D01*
X18315000Y-6905000D02*
X18285000Y-6935000D01*
X18295000Y-5420600D02*
X18325000Y-5450600D01*
X18325000Y-5420600D02*
X18295000Y-5450600D01*
X18335000Y-4545000D02*
X18365000Y-4575000D01*
X18365000Y-4545000D02*
X18335000Y-4575000D01*
X18335000Y-8015000D02*
X18365000Y-8045000D01*
X18365000Y-8015000D02*
X18335000Y-8045000D01*
X18365000Y-4785600D02*
X18395000Y-4815600D01*
X18395000Y-4785600D02*
X18365000Y-4815600D01*
X18365000Y-5065000D02*
X18395000Y-5095000D01*
X18395000Y-5065000D02*
X18365000Y-5095000D01*
X18395000Y-5345000D02*
X18425000Y-5375000D01*
X18425000Y-5345000D02*
X18395000Y-5375000D01*
X18395000Y-5655000D02*
X18425000Y-5685000D01*
X18425000Y-5655000D02*
X18395000Y-5685000D01*
X18395000Y-6905000D02*
X18425000Y-6935000D01*
X18425000Y-6905000D02*
X18395000Y-6935000D01*
X18395000Y-7205000D02*
X18425000Y-7235000D01*
X18425000Y-7205000D02*
X18395000Y-7235000D01*
X18425000Y-4545000D02*
X18455000Y-4575000D01*
X18455000Y-4545000D02*
X18425000Y-4575000D01*
X18425000Y-8015000D02*
X18455000Y-8045000D01*
X18455000Y-8015000D02*
X18425000Y-8045000D01*
X18455000Y-5065000D02*
X18485000Y-5095000D01*
X18485000Y-5065000D02*
X18455000Y-5095000D01*
X18465000Y-4785600D02*
X18495000Y-4815600D01*
X18495000Y-4785600D02*
X18465000Y-4815600D01*
X18505000Y-5655000D02*
X18535000Y-5685000D01*
X18535000Y-5655000D02*
X18505000Y-5685000D01*
X18505000Y-6905000D02*
X18535000Y-6935000D01*
X18535000Y-6905000D02*
X18505000Y-6935000D01*
X18515000Y-4545000D02*
X18545000Y-4575000D01*
X18545000Y-4545000D02*
X18515000Y-4575000D01*
X18515000Y-5425000D02*
X18545000Y-5455000D01*
X18545000Y-5425000D02*
X18515000Y-5455000D01*
X18515000Y-7125000D02*
X18545000Y-7155000D01*
X18545000Y-7125000D02*
X18515000Y-7155000D01*
X18515000Y-8015000D02*
X18545000Y-8045000D01*
X18545000Y-8015000D02*
X18515000Y-8045000D01*
X18605000Y-4545000D02*
X18635000Y-4575000D01*
X18635000Y-4545000D02*
X18605000Y-4575000D01*
X18605000Y-8015000D02*
X18635000Y-8045000D01*
X18635000Y-8015000D02*
X18605000Y-8045000D01*
X18615000Y-5425000D02*
X18645000Y-5455000D01*
X18645000Y-5425000D02*
X18615000Y-5455000D01*
X18615000Y-5655000D02*
X18645000Y-5685000D01*
X18645000Y-5655000D02*
X18615000Y-5685000D01*
X18615000Y-6905000D02*
X18645000Y-6935000D01*
X18645000Y-6905000D02*
X18615000Y-6935000D01*
X18615000Y-7125000D02*
X18645000Y-7155000D01*
X18645000Y-7125000D02*
X18615000Y-7155000D01*
X18695000Y-4545000D02*
X18725000Y-4575000D01*
X18725000Y-4545000D02*
X18695000Y-4575000D01*
X18695000Y-8015000D02*
X18725000Y-8045000D01*
X18725000Y-8015000D02*
X18695000Y-8045000D01*
X18725000Y-5425000D02*
X18755000Y-5455000D01*
X18755000Y-5425000D02*
X18725000Y-5455000D01*
X18725000Y-5655000D02*
X18755000Y-5685000D01*
X18755000Y-5655000D02*
X18725000Y-5685000D01*
X18725000Y-6905000D02*
X18755000Y-6935000D01*
X18755000Y-6905000D02*
X18725000Y-6935000D01*
X18725000Y-7125000D02*
X18755000Y-7155000D01*
X18755000Y-7125000D02*
X18725000Y-7155000D01*
X18765000Y-4865000D02*
X18795000Y-4895000D01*
X18795000Y-4865000D02*
X18765000Y-4895000D01*
X18765000Y-5165000D02*
X18795000Y-5195000D01*
X18795000Y-5165000D02*
X18765000Y-5195000D01*
X18785000Y-4545000D02*
X18815000Y-4575000D01*
X18815000Y-4545000D02*
X18785000Y-4575000D01*
X18785000Y-8015000D02*
X18815000Y-8045000D01*
X18815000Y-8015000D02*
X18785000Y-8045000D01*
X18835000Y-5425000D02*
X18865000Y-5455000D01*
X18865000Y-5425000D02*
X18835000Y-5455000D01*
X18835000Y-5655000D02*
X18865000Y-5685000D01*
X18865000Y-5655000D02*
X18835000Y-5685000D01*
X18835000Y-6905000D02*
X18865000Y-6935000D01*
X18865000Y-6905000D02*
X18835000Y-6935000D01*
X18835000Y-7125000D02*
X18865000Y-7155000D01*
X18865000Y-7125000D02*
X18835000Y-7155000D01*
X18875000Y-4545000D02*
X18905000Y-4575000D01*
X18905000Y-4545000D02*
X18875000Y-4575000D01*
X18875000Y-8015000D02*
X18905000Y-8045000D01*
X18905000Y-8015000D02*
X18875000Y-8045000D01*
X18945000Y-5425000D02*
X18975000Y-5455000D01*
X18975000Y-5425000D02*
X18945000Y-5455000D01*
X18945000Y-5655000D02*
X18975000Y-5685000D01*
X18975000Y-5655000D02*
X18945000Y-5685000D01*
X18945000Y-6905000D02*
X18975000Y-6935000D01*
X18975000Y-6905000D02*
X18945000Y-6935000D01*
X18945000Y-7125000D02*
X18975000Y-7155000D01*
X18975000Y-7125000D02*
X18945000Y-7155000D01*
X18974500Y-5210750D02*
G75*
G02*
X18928500Y-5210750I-23000J0D01*
G01*
X18928500Y-5210750D02*
G75*
G02*
X18974500Y-5210750I23000J0D01*
G01*
X18974500Y-5909250D02*
G75*
G02*
X18928500Y-5909250I-23000J0D01*
G01*
X18928500Y-5909250D02*
G75*
G02*
X18974500Y-5909250I23000J0D01*
G01*
X18974500Y-6680750D02*
G75*
G02*
X18928500Y-6680750I-23000J0D01*
G01*
X18928500Y-6680750D02*
G75*
G02*
X18974500Y-6680750I23000J0D01*
G01*
X18974500Y-7379250D02*
G75*
G02*
X18928500Y-7379250I-23000J0D01*
G01*
X18928500Y-7379250D02*
G75*
G02*
X18974500Y-7379250I23000J0D01*
G01*
X11520000Y-5866000D02*
X11520000Y-5926000D01*
X11490000Y-5896000D02*
X11550000Y-5896000D01*
X11560000Y-5866000D02*
X11480000Y-5866000D01*
X11480000Y-5926000D02*
G75*
G02*
X11480000Y-5866000I0J30000D01*
G01*
X11480000Y-5926000D02*
X11560000Y-5926000D01*
X11560000Y-5926000D02*
G75*
G03*
X11560000Y-5866000I0J30000D01*
G01*
X11520000Y-6730000D02*
X11520000Y-6790000D01*
X11490000Y-6760000D02*
X11550000Y-6760000D01*
X11560000Y-6730000D02*
X11480000Y-6730000D01*
X11480000Y-6790000D02*
G75*
G02*
X11480000Y-6730000I0J30000D01*
G01*
X11480000Y-6790000D02*
X11560000Y-6790000D01*
X11560000Y-6790000D02*
G75*
G03*
X11560000Y-6730000I0J30000D01*
G01*
X11938000Y-5866000D02*
X11938000Y-5926000D01*
X11908000Y-5896000D02*
X11968000Y-5896000D01*
X11993000Y-5866000D02*
X11883000Y-5866000D01*
X11883000Y-5926000D02*
G75*
G02*
X11883000Y-5866000I0J30000D01*
G01*
X11883000Y-5926000D02*
X11993000Y-5926000D01*
X11993000Y-5926000D02*
G75*
G03*
X11993000Y-5866000I0J30000D01*
G01*
X11938000Y-6730000D02*
X11938000Y-6790000D01*
X11908000Y-6760000D02*
X11968000Y-6760000D01*
X11993000Y-6730000D02*
X11883000Y-6730000D01*
X11883000Y-6790000D02*
G75*
G02*
X11883000Y-6730000I0J30000D01*
G01*
X11883000Y-6790000D02*
X11993000Y-6790000D01*
X11993000Y-6790000D02*
G75*
G03*
X11993000Y-6730000I0J30000D01*
G01*
X15488284Y-7418284D02*
X15488284Y-7361715D01*
X15431715Y-7361715D01*
X15431715Y-7418284D01*
X15488284Y-7418284D01*
X15410000Y-7430000D02*
X15510000Y-7430000D01*
X15510000Y-7350000D02*
G75*
G02*
X15510000Y-7430000I0J-40000D01*
G01*
X15510000Y-7350000D02*
X15410000Y-7350000D01*
X15410000Y-7350000D02*
G75*
G03*
X15410000Y-7430000I0J-40000D01*
G01*
X17718285Y-5068285D02*
X17718285Y-5011716D01*
X17661716Y-5011716D01*
X17661716Y-5068285D01*
X17718285Y-5068285D01*
X17640000Y-5080000D02*
X17740000Y-5080000D01*
X17740000Y-5000000D02*
G75*
G02*
X17740000Y-5080000I0J-40000D01*
G01*
X17740000Y-5000000D02*
X17640000Y-5000000D01*
X17640000Y-5000000D02*
G75*
G03*
X17640000Y-5080000I0J-40000D01*
G01*
X11600000Y-4997500D02*
X11645000Y-4952500D01*
X11600000Y-4907500D01*
X11555000Y-4952500D01*
X11600000Y-4997500D01*
X11600000Y-5251500D02*
X11645000Y-5206500D01*
X11600000Y-5161500D01*
X11555000Y-5206500D01*
X11600000Y-5251500D01*
X11600000Y-5491000D02*
X11645000Y-5446000D01*
X11600000Y-5401000D01*
X11555000Y-5446000D01*
X11600000Y-5491000D01*
X11600000Y-5745000D02*
X11645000Y-5700000D01*
X11600000Y-5655000D01*
X11555000Y-5700000D01*
X11600000Y-5745000D01*
X11600000Y-7325000D02*
X11645000Y-7280000D01*
X11600000Y-7235000D01*
X11555000Y-7280000D01*
X11600000Y-7325000D01*
X11600000Y-7579000D02*
X11645000Y-7534000D01*
X11600000Y-7489000D01*
X11555000Y-7534000D01*
X11600000Y-7579000D01*
X11988000Y-4885000D02*
X12088000Y-4985000D01*
X12088000Y-4885000D02*
X11988000Y-4985000D01*
X12088000Y-4935000D02*
G75*
G02*
X11988000Y-4935000I-50000J0D01*
G01*
X11988000Y-4935000D02*
G75*
G02*
X12088000Y-4935000I50000J0D01*
G01*
X11988000Y-5275000D02*
X12088000Y-5375000D01*
X12088000Y-5275000D02*
X11988000Y-5375000D01*
X12088000Y-5325000D02*
G75*
G02*
X11988000Y-5325000I-50000J0D01*
G01*
X11988000Y-5325000D02*
G75*
G02*
X12088000Y-5325000I50000J0D01*
G01*
X12242000Y-4885000D02*
X12342000Y-4985000D01*
X12342000Y-4885000D02*
X12242000Y-4985000D01*
X12342000Y-4935000D02*
G75*
G02*
X12242000Y-4935000I-50000J0D01*
G01*
X12242000Y-4935000D02*
G75*
G02*
X12342000Y-4935000I50000J0D01*
G01*
X12242000Y-5275000D02*
X12342000Y-5375000D01*
X12342000Y-5275000D02*
X12242000Y-5375000D01*
X12342000Y-5325000D02*
G75*
G02*
X12242000Y-5325000I-50000J0D01*
G01*
X12242000Y-5325000D02*
G75*
G02*
X12342000Y-5325000I50000J0D01*
G01*
X12282000Y-7260000D02*
X12382000Y-7360000D01*
X12382000Y-7260000D02*
X12282000Y-7360000D01*
X12382000Y-7310000D02*
G75*
G02*
X12282000Y-7310000I-50000J0D01*
G01*
X12282000Y-7310000D02*
G75*
G02*
X12382000Y-7310000I50000J0D01*
G01*
X12496000Y-4885000D02*
X12596000Y-4985000D01*
X12596000Y-4885000D02*
X12496000Y-4985000D01*
X12596000Y-4935000D02*
G75*
G02*
X12496000Y-4935000I-50000J0D01*
G01*
X12496000Y-4935000D02*
G75*
G02*
X12596000Y-4935000I50000J0D01*
G01*
X12496000Y-5275000D02*
X12596000Y-5375000D01*
X12596000Y-5275000D02*
X12496000Y-5375000D01*
X12596000Y-5325000D02*
G75*
G02*
X12496000Y-5325000I-50000J0D01*
G01*
X12496000Y-5325000D02*
G75*
G02*
X12596000Y-5325000I50000J0D01*
G01*
X12536000Y-7260000D02*
X12636000Y-7360000D01*
X12636000Y-7260000D02*
X12536000Y-7360000D01*
X12636000Y-7310000D02*
G75*
G02*
X12536000Y-7310000I-50000J0D01*
G01*
X12536000Y-7310000D02*
G75*
G02*
X12636000Y-7310000I50000J0D01*
G01*
X12637300Y-7620000D02*
X12737300Y-7720000D01*
X12737300Y-7620000D02*
X12637300Y-7720000D01*
X12737300Y-7670000D02*
G75*
G02*
X12637300Y-7670000I-50000J0D01*
G01*
X12637300Y-7670000D02*
G75*
G02*
X12737300Y-7670000I50000J0D01*
G01*
X12750000Y-4885000D02*
X12850000Y-4985000D01*
X12850000Y-4885000D02*
X12750000Y-4985000D01*
X12850000Y-4935000D02*
G75*
G02*
X12750000Y-4935000I-50000J0D01*
G01*
X12750000Y-4935000D02*
G75*
G02*
X12850000Y-4935000I50000J0D01*
G01*
X12750000Y-5275000D02*
X12850000Y-5375000D01*
X12850000Y-5275000D02*
X12750000Y-5375000D01*
X12850000Y-5325000D02*
G75*
G02*
X12750000Y-5325000I-50000J0D01*
G01*
X12750000Y-5325000D02*
G75*
G02*
X12850000Y-5325000I50000J0D01*
G01*
X12790000Y-7260000D02*
X12890000Y-7360000D01*
X12890000Y-7260000D02*
X12790000Y-7360000D01*
X12890000Y-7310000D02*
G75*
G02*
X12790000Y-7310000I-50000J0D01*
G01*
X12790000Y-7310000D02*
G75*
G02*
X12890000Y-7310000I50000J0D01*
G01*
X12891300Y-7620000D02*
X12991300Y-7720000D01*
X12991300Y-7620000D02*
X12891300Y-7720000D01*
X12991300Y-7670000D02*
G75*
G02*
X12891300Y-7670000I-50000J0D01*
G01*
X12891300Y-7670000D02*
G75*
G02*
X12991300Y-7670000I50000J0D01*
G01*
X13004000Y-4885000D02*
X13104000Y-4985000D01*
X13104000Y-4885000D02*
X13004000Y-4985000D01*
X13104000Y-4935000D02*
G75*
G02*
X13004000Y-4935000I-50000J0D01*
G01*
X13004000Y-4935000D02*
G75*
G02*
X13104000Y-4935000I50000J0D01*
G01*
X13044000Y-7260000D02*
X13144000Y-7360000D01*
X13144000Y-7260000D02*
X13044000Y-7360000D01*
X13144000Y-7310000D02*
G75*
G02*
X13044000Y-7310000I-50000J0D01*
G01*
X13044000Y-7310000D02*
G75*
G02*
X13144000Y-7310000I50000J0D01*
G01*
X13145300Y-7620000D02*
X13245300Y-7720000D01*
X13245300Y-7620000D02*
X13145300Y-7720000D01*
X13245300Y-7670000D02*
G75*
G02*
X13145300Y-7670000I-50000J0D01*
G01*
X13145300Y-7670000D02*
G75*
G02*
X13245300Y-7670000I50000J0D01*
G01*
X13298000Y-7260000D02*
X13398000Y-7360000D01*
X13398000Y-7260000D02*
X13298000Y-7360000D01*
X13398000Y-7310000D02*
G75*
G02*
X13298000Y-7310000I-50000J0D01*
G01*
X13298000Y-7310000D02*
G75*
G02*
X13398000Y-7310000I50000J0D01*
G01*
X13399300Y-7620000D02*
X13499300Y-7720000D01*
X13499300Y-7620000D02*
X13399300Y-7720000D01*
X13499300Y-7670000D02*
G75*
G02*
X13399300Y-7670000I-50000J0D01*
G01*
X13399300Y-7670000D02*
G75*
G02*
X13499300Y-7670000I50000J0D01*
G01*
X13653300Y-7620000D02*
X13753300Y-7720000D01*
X13753300Y-7620000D02*
X13653300Y-7720000D01*
X13753300Y-7670000D02*
G75*
G02*
X13653300Y-7670000I-50000J0D01*
G01*
X13653300Y-7670000D02*
G75*
G02*
X13753300Y-7670000I50000J0D01*
G01*
X13907300Y-7620000D02*
X14007300Y-7720000D01*
X14007300Y-7620000D02*
X13907300Y-7720000D01*
X14007300Y-7670000D02*
G75*
G02*
X13907300Y-7670000I-50000J0D01*
G01*
X13907300Y-7670000D02*
G75*
G02*
X14007300Y-7670000I50000J0D01*
G01*
X14161300Y-7620000D02*
X14261300Y-7720000D01*
X14261300Y-7620000D02*
X14161300Y-7720000D01*
X14261300Y-7670000D02*
G75*
G02*
X14161300Y-7670000I-50000J0D01*
G01*
X14161300Y-7670000D02*
G75*
G02*
X14261300Y-7670000I50000J0D01*
G01*
X14821700Y-7620000D02*
X14921700Y-7720000D01*
X14921700Y-7620000D02*
X14821700Y-7720000D01*
X14921700Y-7670000D02*
G75*
G02*
X14821700Y-7670000I-50000J0D01*
G01*
X14821700Y-7670000D02*
G75*
G02*
X14921700Y-7670000I50000J0D01*
G01*
X15075700Y-7620000D02*
X15175700Y-7720000D01*
X15175700Y-7620000D02*
X15075700Y-7720000D01*
X15175700Y-7670000D02*
G75*
G02*
X15075700Y-7670000I-50000J0D01*
G01*
X15075700Y-7670000D02*
G75*
G02*
X15175700Y-7670000I50000J0D01*
G01*
X15329700Y-7620000D02*
X15429700Y-7720000D01*
X15429700Y-7620000D02*
X15329700Y-7720000D01*
X15429700Y-7670000D02*
G75*
G02*
X15329700Y-7670000I-50000J0D01*
G01*
X15329700Y-7670000D02*
G75*
G02*
X15429700Y-7670000I50000J0D01*
G01*
D12*
X11570000Y-4520000D02*
X11830000Y-4780000D01*
X11830000Y-4520000D02*
X11570000Y-4780000D01*
X11700000Y-4520000D02*
X11700000Y-4780000D01*
X11570000Y-4650000D02*
X11830000Y-4650000D01*
X11570000Y-7800000D02*
X11830000Y-8060000D01*
X11830000Y-7800000D02*
X11570000Y-8060000D01*
X11700000Y-7800000D02*
X11700000Y-8060000D01*
X11570000Y-7930000D02*
X11830000Y-7930000D01*
X19020000Y-7790000D02*
X19280000Y-8050000D01*
X19280000Y-7790000D02*
X19020000Y-8050000D01*
X19150000Y-7790000D02*
X19150000Y-8050000D01*
X19020000Y-7920000D02*
X19280000Y-7920000D01*
X19030000Y-4530000D02*
X19290000Y-4790000D01*
X19290000Y-4530000D02*
X19030000Y-4790000D01*
X19160000Y-4530000D02*
X19160000Y-4790000D01*
X19030000Y-4660000D02*
X19290000Y-4660000D01*
D10*
X11640765Y-8541486D02*
X11640765Y-8341486D01*
X11640765Y-8341486D02*
X11688384Y-8341486D01*
X11688384Y-8341486D02*
X11716955Y-8351009D01*
X11716955Y-8351009D02*
X11736003Y-8370057D01*
X11736003Y-8370057D02*
X11745527Y-8389105D01*
X11745527Y-8389105D02*
X11755051Y-8427200D01*
X11755051Y-8427200D02*
X11755051Y-8455771D01*
X11755051Y-8455771D02*
X11745527Y-8493867D01*
X11745527Y-8493867D02*
X11736003Y-8512914D01*
X11736003Y-8512914D02*
X11716955Y-8531962D01*
X11716955Y-8531962D02*
X11688384Y-8541486D01*
X11688384Y-8541486D02*
X11640765Y-8541486D01*
X11840765Y-8541486D02*
X11840765Y-8408152D01*
X11840765Y-8446248D02*
X11850289Y-8427200D01*
X11850289Y-8427200D02*
X11859812Y-8417676D01*
X11859812Y-8417676D02*
X11878860Y-8408152D01*
X11878860Y-8408152D02*
X11897908Y-8408152D01*
X11964574Y-8541486D02*
X11964574Y-8408152D01*
X11964574Y-8341486D02*
X11955051Y-8351009D01*
X11955051Y-8351009D02*
X11964574Y-8360533D01*
X11964574Y-8360533D02*
X11974098Y-8351009D01*
X11974098Y-8351009D02*
X11964574Y-8341486D01*
X11964574Y-8341486D02*
X11964574Y-8360533D01*
X12088384Y-8541486D02*
X12069336Y-8531962D01*
X12069336Y-8531962D02*
X12059812Y-8512914D01*
X12059812Y-8512914D02*
X12059812Y-8341486D01*
X12193146Y-8541486D02*
X12174098Y-8531962D01*
X12174098Y-8531962D02*
X12164574Y-8512914D01*
X12164574Y-8512914D02*
X12164574Y-8341486D01*
X12421717Y-8541486D02*
X12421717Y-8341486D01*
X12421717Y-8341486D02*
X12488384Y-8484343D01*
X12488384Y-8484343D02*
X12555051Y-8341486D01*
X12555051Y-8341486D02*
X12555051Y-8541486D01*
X12736003Y-8541486D02*
X12736003Y-8436724D01*
X12736003Y-8436724D02*
X12726479Y-8417676D01*
X12726479Y-8417676D02*
X12707432Y-8408152D01*
X12707432Y-8408152D02*
X12669336Y-8408152D01*
X12669336Y-8408152D02*
X12650289Y-8417676D01*
X12736003Y-8531962D02*
X12716955Y-8541486D01*
X12716955Y-8541486D02*
X12669336Y-8541486D01*
X12669336Y-8541486D02*
X12650289Y-8531962D01*
X12650289Y-8531962D02*
X12640765Y-8512914D01*
X12640765Y-8512914D02*
X12640765Y-8493867D01*
X12640765Y-8493867D02*
X12650289Y-8474819D01*
X12650289Y-8474819D02*
X12669336Y-8465295D01*
X12669336Y-8465295D02*
X12716955Y-8465295D01*
X12716955Y-8465295D02*
X12736003Y-8455771D01*
X12831241Y-8408152D02*
X12831241Y-8608152D01*
X12831241Y-8417676D02*
X12850289Y-8408152D01*
X12850289Y-8408152D02*
X12888384Y-8408152D01*
X12888384Y-8408152D02*
X12907432Y-8417676D01*
X12907432Y-8417676D02*
X12916955Y-8427200D01*
X12916955Y-8427200D02*
X12926479Y-8446248D01*
X12926479Y-8446248D02*
X12926479Y-8503390D01*
X12926479Y-8503390D02*
X12916955Y-8522438D01*
X12916955Y-8522438D02*
X12907432Y-8531962D01*
X12907432Y-8531962D02*
X12888384Y-8541486D01*
X12888384Y-8541486D02*
X12850289Y-8541486D01*
X12850289Y-8541486D02*
X12831241Y-8531962D01*
X13012193Y-8522438D02*
X13021717Y-8531962D01*
X13021717Y-8531962D02*
X13012193Y-8541486D01*
X13012193Y-8541486D02*
X13002670Y-8531962D01*
X13002670Y-8531962D02*
X13012193Y-8522438D01*
X13012193Y-8522438D02*
X13012193Y-8541486D01*
X13012193Y-8417676D02*
X13021717Y-8427200D01*
X13021717Y-8427200D02*
X13012193Y-8436724D01*
X13012193Y-8436724D02*
X13002670Y-8427200D01*
X13002670Y-8427200D02*
X13012193Y-8417676D01*
X13012193Y-8417676D02*
X13012193Y-8436724D01*
D11*
X11349988Y-8855002D02*
X11379988Y-8885002D01*
X11379988Y-8855002D02*
X11349988Y-8885002D01*
D10*
X11678860Y-8761486D02*
X11697908Y-8761486D01*
X11697908Y-8761486D02*
X11716955Y-8771010D01*
X11716955Y-8771010D02*
X11726479Y-8780533D01*
X11726479Y-8780533D02*
X11736003Y-8799581D01*
X11736003Y-8799581D02*
X11745527Y-8837676D01*
X11745527Y-8837676D02*
X11745527Y-8885295D01*
X11745527Y-8885295D02*
X11736003Y-8923390D01*
X11736003Y-8923390D02*
X11726479Y-8942438D01*
X11726479Y-8942438D02*
X11716955Y-8951962D01*
X11716955Y-8951962D02*
X11697908Y-8961486D01*
X11697908Y-8961486D02*
X11678860Y-8961486D01*
X11678860Y-8961486D02*
X11659812Y-8951962D01*
X11659812Y-8951962D02*
X11650289Y-8942438D01*
X11650289Y-8942438D02*
X11640765Y-8923390D01*
X11640765Y-8923390D02*
X11631241Y-8885295D01*
X11631241Y-8885295D02*
X11631241Y-8837676D01*
X11631241Y-8837676D02*
X11640765Y-8799581D01*
X11640765Y-8799581D02*
X11650289Y-8780533D01*
X11650289Y-8780533D02*
X11659812Y-8771010D01*
X11659812Y-8771010D02*
X11678860Y-8761486D01*
X11831241Y-8942438D02*
X11840765Y-8951962D01*
X11840765Y-8951962D02*
X11831241Y-8961486D01*
X11831241Y-8961486D02*
X11821717Y-8951962D01*
X11821717Y-8951962D02*
X11831241Y-8942438D01*
X11831241Y-8942438D02*
X11831241Y-8961486D01*
X11907432Y-8761486D02*
X12031241Y-8761486D01*
X12031241Y-8761486D02*
X11964574Y-8837676D01*
X11964574Y-8837676D02*
X11993146Y-8837676D01*
X11993146Y-8837676D02*
X12012193Y-8847200D01*
X12012193Y-8847200D02*
X12021717Y-8856724D01*
X12021717Y-8856724D02*
X12031241Y-8875771D01*
X12031241Y-8875771D02*
X12031241Y-8923390D01*
X12031241Y-8923390D02*
X12021717Y-8942438D01*
X12021717Y-8942438D02*
X12012193Y-8951962D01*
X12012193Y-8951962D02*
X11993146Y-8961486D01*
X11993146Y-8961486D02*
X11936003Y-8961486D01*
X11936003Y-8961486D02*
X11916955Y-8951962D01*
X11916955Y-8951962D02*
X11907432Y-8942438D01*
X12155051Y-8761486D02*
X12174098Y-8761486D01*
X12174098Y-8761486D02*
X12193146Y-8771010D01*
X12193146Y-8771010D02*
X12202670Y-8780533D01*
X12202670Y-8780533D02*
X12212193Y-8799581D01*
X12212193Y-8799581D02*
X12221717Y-8837676D01*
X12221717Y-8837676D02*
X12221717Y-8885295D01*
X12221717Y-8885295D02*
X12212193Y-8923390D01*
X12212193Y-8923390D02*
X12202670Y-8942438D01*
X12202670Y-8942438D02*
X12193146Y-8951962D01*
X12193146Y-8951962D02*
X12174098Y-8961486D01*
X12174098Y-8961486D02*
X12155051Y-8961486D01*
X12155051Y-8961486D02*
X12136003Y-8951962D01*
X12136003Y-8951962D02*
X12126479Y-8942438D01*
X12126479Y-8942438D02*
X12116955Y-8923390D01*
X12116955Y-8923390D02*
X12107432Y-8885295D01*
X12107432Y-8885295D02*
X12107432Y-8837676D01*
X12107432Y-8837676D02*
X12116955Y-8799581D01*
X12116955Y-8799581D02*
X12126479Y-8780533D01*
X12126479Y-8780533D02*
X12136003Y-8771010D01*
X12136003Y-8771010D02*
X12155051Y-8761486D01*
X12345527Y-8761486D02*
X12364574Y-8761486D01*
X12364574Y-8761486D02*
X12383622Y-8771010D01*
X12383622Y-8771010D02*
X12393146Y-8780533D01*
X12393146Y-8780533D02*
X12402670Y-8799581D01*
X12402670Y-8799581D02*
X12412193Y-8837676D01*
X12412193Y-8837676D02*
X12412193Y-8885295D01*
X12412193Y-8885295D02*
X12402670Y-8923390D01*
X12402670Y-8923390D02*
X12393146Y-8942438D01*
X12393146Y-8942438D02*
X12383622Y-8951962D01*
X12383622Y-8951962D02*
X12364574Y-8961486D01*
X12364574Y-8961486D02*
X12345527Y-8961486D01*
X12345527Y-8961486D02*
X12326479Y-8951962D01*
X12326479Y-8951962D02*
X12316955Y-8942438D01*
X12316955Y-8942438D02*
X12307432Y-8923390D01*
X12307432Y-8923390D02*
X12297908Y-8885295D01*
X12297908Y-8885295D02*
X12297908Y-8837676D01*
X12297908Y-8837676D02*
X12307432Y-8799581D01*
X12307432Y-8799581D02*
X12316955Y-8780533D01*
X12316955Y-8780533D02*
X12326479Y-8771010D01*
X12326479Y-8771010D02*
X12345527Y-8761486D01*
X12497908Y-8961486D02*
X12497908Y-8828152D01*
X12497908Y-8847200D02*
X12507432Y-8837676D01*
X12507432Y-8837676D02*
X12526479Y-8828152D01*
X12526479Y-8828152D02*
X12555051Y-8828152D01*
X12555051Y-8828152D02*
X12574098Y-8837676D01*
X12574098Y-8837676D02*
X12583622Y-8856724D01*
X12583622Y-8856724D02*
X12583622Y-8961486D01*
X12583622Y-8856724D02*
X12593146Y-8837676D01*
X12593146Y-8837676D02*
X12612193Y-8828152D01*
X12612193Y-8828152D02*
X12640765Y-8828152D01*
X12640765Y-8828152D02*
X12659813Y-8837676D01*
X12659813Y-8837676D02*
X12669336Y-8856724D01*
X12669336Y-8856724D02*
X12669336Y-8961486D01*
X12764574Y-8961486D02*
X12764574Y-8828152D01*
X12764574Y-8847200D02*
X12774098Y-8837676D01*
X12774098Y-8837676D02*
X12793146Y-8828152D01*
X12793146Y-8828152D02*
X12821717Y-8828152D01*
X12821717Y-8828152D02*
X12840765Y-8837676D01*
X12840765Y-8837676D02*
X12850289Y-8856724D01*
X12850289Y-8856724D02*
X12850289Y-8961486D01*
X12850289Y-8856724D02*
X12859813Y-8837676D01*
X12859813Y-8837676D02*
X12878860Y-8828152D01*
X12878860Y-8828152D02*
X12907432Y-8828152D01*
X12907432Y-8828152D02*
X12926479Y-8837676D01*
X12926479Y-8837676D02*
X12936003Y-8856724D01*
X12936003Y-8856724D02*
X12936003Y-8961486D01*
X13326479Y-8751962D02*
X13155051Y-9009105D01*
X13583622Y-8761486D02*
X13602670Y-8761486D01*
X13602670Y-8761486D02*
X13621717Y-8771010D01*
X13621717Y-8771010D02*
X13631241Y-8780533D01*
X13631241Y-8780533D02*
X13640765Y-8799581D01*
X13640765Y-8799581D02*
X13650289Y-8837676D01*
X13650289Y-8837676D02*
X13650289Y-8885295D01*
X13650289Y-8885295D02*
X13640765Y-8923390D01*
X13640765Y-8923390D02*
X13631241Y-8942438D01*
X13631241Y-8942438D02*
X13621717Y-8951962D01*
X13621717Y-8951962D02*
X13602670Y-8961486D01*
X13602670Y-8961486D02*
X13583622Y-8961486D01*
X13583622Y-8961486D02*
X13564575Y-8951962D01*
X13564575Y-8951962D02*
X13555051Y-8942438D01*
X13555051Y-8942438D02*
X13545527Y-8923390D01*
X13545527Y-8923390D02*
X13536003Y-8885295D01*
X13536003Y-8885295D02*
X13536003Y-8837676D01*
X13536003Y-8837676D02*
X13545527Y-8799581D01*
X13545527Y-8799581D02*
X13555051Y-8780533D01*
X13555051Y-8780533D02*
X13564575Y-8771010D01*
X13564575Y-8771010D02*
X13583622Y-8761486D01*
X13736003Y-8942438D02*
X13745527Y-8951962D01*
X13745527Y-8951962D02*
X13736003Y-8961486D01*
X13736003Y-8961486D02*
X13726479Y-8951962D01*
X13726479Y-8951962D02*
X13736003Y-8942438D01*
X13736003Y-8942438D02*
X13736003Y-8961486D01*
X13869336Y-8761486D02*
X13888384Y-8761486D01*
X13888384Y-8761486D02*
X13907432Y-8771010D01*
X13907432Y-8771010D02*
X13916956Y-8780533D01*
X13916956Y-8780533D02*
X13926479Y-8799581D01*
X13926479Y-8799581D02*
X13936003Y-8837676D01*
X13936003Y-8837676D02*
X13936003Y-8885295D01*
X13936003Y-8885295D02*
X13926479Y-8923390D01*
X13926479Y-8923390D02*
X13916956Y-8942438D01*
X13916956Y-8942438D02*
X13907432Y-8951962D01*
X13907432Y-8951962D02*
X13888384Y-8961486D01*
X13888384Y-8961486D02*
X13869336Y-8961486D01*
X13869336Y-8961486D02*
X13850289Y-8951962D01*
X13850289Y-8951962D02*
X13840765Y-8942438D01*
X13840765Y-8942438D02*
X13831241Y-8923390D01*
X13831241Y-8923390D02*
X13821717Y-8885295D01*
X13821717Y-8885295D02*
X13821717Y-8837676D01*
X13821717Y-8837676D02*
X13831241Y-8799581D01*
X13831241Y-8799581D02*
X13840765Y-8780533D01*
X13840765Y-8780533D02*
X13850289Y-8771010D01*
X13850289Y-8771010D02*
X13869336Y-8761486D01*
X14126479Y-8961486D02*
X14012194Y-8961486D01*
X14069336Y-8961486D02*
X14069336Y-8761486D01*
X14069336Y-8761486D02*
X14050289Y-8790057D01*
X14050289Y-8790057D02*
X14031241Y-8809105D01*
X14031241Y-8809105D02*
X14012194Y-8818629D01*
X14316956Y-8961486D02*
X14202670Y-8961486D01*
X14259813Y-8961486D02*
X14259813Y-8761486D01*
X14259813Y-8761486D02*
X14240765Y-8790057D01*
X14240765Y-8790057D02*
X14221717Y-8809105D01*
X14221717Y-8809105D02*
X14202670Y-8818629D01*
X14431241Y-8847200D02*
X14412194Y-8837676D01*
X14412194Y-8837676D02*
X14402670Y-8828152D01*
X14402670Y-8828152D02*
X14393146Y-8809105D01*
X14393146Y-8809105D02*
X14393146Y-8799581D01*
X14393146Y-8799581D02*
X14402670Y-8780533D01*
X14402670Y-8780533D02*
X14412194Y-8771010D01*
X14412194Y-8771010D02*
X14431241Y-8761486D01*
X14431241Y-8761486D02*
X14469337Y-8761486D01*
X14469337Y-8761486D02*
X14488384Y-8771010D01*
X14488384Y-8771010D02*
X14497908Y-8780533D01*
X14497908Y-8780533D02*
X14507432Y-8799581D01*
X14507432Y-8799581D02*
X14507432Y-8809105D01*
X14507432Y-8809105D02*
X14497908Y-8828152D01*
X14497908Y-8828152D02*
X14488384Y-8837676D01*
X14488384Y-8837676D02*
X14469337Y-8847200D01*
X14469337Y-8847200D02*
X14431241Y-8847200D01*
X14431241Y-8847200D02*
X14412194Y-8856724D01*
X14412194Y-8856724D02*
X14402670Y-8866248D01*
X14402670Y-8866248D02*
X14393146Y-8885295D01*
X14393146Y-8885295D02*
X14393146Y-8923390D01*
X14393146Y-8923390D02*
X14402670Y-8942438D01*
X14402670Y-8942438D02*
X14412194Y-8951962D01*
X14412194Y-8951962D02*
X14431241Y-8961486D01*
X14431241Y-8961486D02*
X14469337Y-8961486D01*
X14469337Y-8961486D02*
X14488384Y-8951962D01*
X14488384Y-8951962D02*
X14497908Y-8942438D01*
X14497908Y-8942438D02*
X14507432Y-8923390D01*
X14507432Y-8923390D02*
X14507432Y-8885295D01*
X14507432Y-8885295D02*
X14497908Y-8866248D01*
X14497908Y-8866248D02*
X14488384Y-8856724D01*
X14488384Y-8856724D02*
X14469337Y-8847200D01*
X14583622Y-8761486D02*
X14583622Y-8799581D01*
X14659813Y-8761486D02*
X14659813Y-8799581D01*
X14955051Y-9037676D02*
X14945527Y-9028152D01*
X14945527Y-9028152D02*
X14926479Y-8999581D01*
X14926479Y-8999581D02*
X14916956Y-8980533D01*
X14916956Y-8980533D02*
X14907432Y-8951962D01*
X14907432Y-8951962D02*
X14897908Y-8904343D01*
X14897908Y-8904343D02*
X14897908Y-8866248D01*
X14897908Y-8866248D02*
X14907432Y-8818629D01*
X14907432Y-8818629D02*
X14916956Y-8790057D01*
X14916956Y-8790057D02*
X14926479Y-8771010D01*
X14926479Y-8771010D02*
X14945527Y-8742438D01*
X14945527Y-8742438D02*
X14955051Y-8732914D01*
X15126479Y-8761486D02*
X15031241Y-8761486D01*
X15031241Y-8761486D02*
X15021718Y-8856724D01*
X15021718Y-8856724D02*
X15031241Y-8847200D01*
X15031241Y-8847200D02*
X15050289Y-8837676D01*
X15050289Y-8837676D02*
X15097908Y-8837676D01*
X15097908Y-8837676D02*
X15116956Y-8847200D01*
X15116956Y-8847200D02*
X15126479Y-8856724D01*
X15126479Y-8856724D02*
X15136003Y-8875771D01*
X15136003Y-8875771D02*
X15136003Y-8923390D01*
X15136003Y-8923390D02*
X15126479Y-8942438D01*
X15126479Y-8942438D02*
X15116956Y-8951962D01*
X15116956Y-8951962D02*
X15097908Y-8961486D01*
X15097908Y-8961486D02*
X15050289Y-8961486D01*
X15050289Y-8961486D02*
X15031241Y-8951962D01*
X15031241Y-8951962D02*
X15021718Y-8942438D01*
X15231241Y-8961486D02*
X15269337Y-8961486D01*
X15269337Y-8961486D02*
X15288384Y-8951962D01*
X15288384Y-8951962D02*
X15297908Y-8942438D01*
X15297908Y-8942438D02*
X15316956Y-8913867D01*
X15316956Y-8913867D02*
X15326479Y-8875771D01*
X15326479Y-8875771D02*
X15326479Y-8799581D01*
X15326479Y-8799581D02*
X15316956Y-8780533D01*
X15316956Y-8780533D02*
X15307432Y-8771010D01*
X15307432Y-8771010D02*
X15288384Y-8761486D01*
X15288384Y-8761486D02*
X15250289Y-8761486D01*
X15250289Y-8761486D02*
X15231241Y-8771010D01*
X15231241Y-8771010D02*
X15221718Y-8780533D01*
X15221718Y-8780533D02*
X15212194Y-8799581D01*
X15212194Y-8799581D02*
X15212194Y-8847200D01*
X15212194Y-8847200D02*
X15221718Y-8866248D01*
X15221718Y-8866248D02*
X15231241Y-8875771D01*
X15231241Y-8875771D02*
X15250289Y-8885295D01*
X15250289Y-8885295D02*
X15288384Y-8885295D01*
X15288384Y-8885295D02*
X15307432Y-8875771D01*
X15307432Y-8875771D02*
X15316956Y-8866248D01*
X15316956Y-8866248D02*
X15326479Y-8847200D01*
X15497908Y-8828152D02*
X15497908Y-8961486D01*
X15450289Y-8751962D02*
X15402670Y-8894819D01*
X15402670Y-8894819D02*
X15526479Y-8894819D01*
X15755051Y-8961486D02*
X15755051Y-8761486D01*
X15840765Y-8961486D02*
X15840765Y-8856724D01*
X15840765Y-8856724D02*
X15831241Y-8837676D01*
X15831241Y-8837676D02*
X15812194Y-8828152D01*
X15812194Y-8828152D02*
X15783622Y-8828152D01*
X15783622Y-8828152D02*
X15764575Y-8837676D01*
X15764575Y-8837676D02*
X15755051Y-8847200D01*
X15964575Y-8961486D02*
X15945527Y-8951962D01*
X15945527Y-8951962D02*
X15936003Y-8942438D01*
X15936003Y-8942438D02*
X15926480Y-8923390D01*
X15926480Y-8923390D02*
X15926480Y-8866248D01*
X15926480Y-8866248D02*
X15936003Y-8847200D01*
X15936003Y-8847200D02*
X15945527Y-8837676D01*
X15945527Y-8837676D02*
X15964575Y-8828152D01*
X15964575Y-8828152D02*
X15993146Y-8828152D01*
X15993146Y-8828152D02*
X16012194Y-8837676D01*
X16012194Y-8837676D02*
X16021718Y-8847200D01*
X16021718Y-8847200D02*
X16031241Y-8866248D01*
X16031241Y-8866248D02*
X16031241Y-8923390D01*
X16031241Y-8923390D02*
X16021718Y-8942438D01*
X16021718Y-8942438D02*
X16012194Y-8951962D01*
X16012194Y-8951962D02*
X15993146Y-8961486D01*
X15993146Y-8961486D02*
X15964575Y-8961486D01*
X16145527Y-8961486D02*
X16126480Y-8951962D01*
X16126480Y-8951962D02*
X16116956Y-8932914D01*
X16116956Y-8932914D02*
X16116956Y-8761486D01*
X16297908Y-8951962D02*
X16278861Y-8961486D01*
X16278861Y-8961486D02*
X16240765Y-8961486D01*
X16240765Y-8961486D02*
X16221718Y-8951962D01*
X16221718Y-8951962D02*
X16212194Y-8932914D01*
X16212194Y-8932914D02*
X16212194Y-8856724D01*
X16212194Y-8856724D02*
X16221718Y-8837676D01*
X16221718Y-8837676D02*
X16240765Y-8828152D01*
X16240765Y-8828152D02*
X16278861Y-8828152D01*
X16278861Y-8828152D02*
X16297908Y-8837676D01*
X16297908Y-8837676D02*
X16307432Y-8856724D01*
X16307432Y-8856724D02*
X16307432Y-8875771D01*
X16307432Y-8875771D02*
X16212194Y-8894819D01*
X16383622Y-8951962D02*
X16402670Y-8961486D01*
X16402670Y-8961486D02*
X16440765Y-8961486D01*
X16440765Y-8961486D02*
X16459813Y-8951962D01*
X16459813Y-8951962D02*
X16469337Y-8932914D01*
X16469337Y-8932914D02*
X16469337Y-8923390D01*
X16469337Y-8923390D02*
X16459813Y-8904343D01*
X16459813Y-8904343D02*
X16440765Y-8894819D01*
X16440765Y-8894819D02*
X16412194Y-8894819D01*
X16412194Y-8894819D02*
X16393146Y-8885295D01*
X16393146Y-8885295D02*
X16383622Y-8866248D01*
X16383622Y-8866248D02*
X16383622Y-8856724D01*
X16383622Y-8856724D02*
X16393146Y-8837676D01*
X16393146Y-8837676D02*
X16412194Y-8828152D01*
X16412194Y-8828152D02*
X16440765Y-8828152D01*
X16440765Y-8828152D02*
X16459813Y-8837676D01*
X16536003Y-9037676D02*
X16545527Y-9028152D01*
X16545527Y-9028152D02*
X16564575Y-8999581D01*
X16564575Y-8999581D02*
X16574099Y-8980533D01*
X16574099Y-8980533D02*
X16583622Y-8951962D01*
X16583622Y-8951962D02*
X16593146Y-8904343D01*
X16593146Y-8904343D02*
X16593146Y-8866248D01*
X16593146Y-8866248D02*
X16583622Y-8818629D01*
X16583622Y-8818629D02*
X16574099Y-8790057D01*
X16574099Y-8790057D02*
X16564575Y-8771010D01*
X16564575Y-8771010D02*
X16545527Y-8742438D01*
X16545527Y-8742438D02*
X16536003Y-8732914D01*
D11*
X11379988Y-9134002D02*
G75*
G02*
X11333988Y-9134002I-23000J0D01*
G01*
X11333988Y-9134002D02*
G75*
G02*
X11379988Y-9134002I23000J0D01*
G01*
D10*
X11678860Y-9025486D02*
X11697908Y-9025486D01*
X11697908Y-9025486D02*
X11716955Y-9035010D01*
X11716955Y-9035010D02*
X11726479Y-9044533D01*
X11726479Y-9044533D02*
X11736003Y-9063581D01*
X11736003Y-9063581D02*
X11745527Y-9101676D01*
X11745527Y-9101676D02*
X11745527Y-9149295D01*
X11745527Y-9149295D02*
X11736003Y-9187390D01*
X11736003Y-9187390D02*
X11726479Y-9206438D01*
X11726479Y-9206438D02*
X11716955Y-9215962D01*
X11716955Y-9215962D02*
X11697908Y-9225486D01*
X11697908Y-9225486D02*
X11678860Y-9225486D01*
X11678860Y-9225486D02*
X11659812Y-9215962D01*
X11659812Y-9215962D02*
X11650289Y-9206438D01*
X11650289Y-9206438D02*
X11640765Y-9187390D01*
X11640765Y-9187390D02*
X11631241Y-9149295D01*
X11631241Y-9149295D02*
X11631241Y-9101676D01*
X11631241Y-9101676D02*
X11640765Y-9063581D01*
X11640765Y-9063581D02*
X11650289Y-9044533D01*
X11650289Y-9044533D02*
X11659812Y-9035010D01*
X11659812Y-9035010D02*
X11678860Y-9025486D01*
X11831241Y-9206438D02*
X11840765Y-9215962D01*
X11840765Y-9215962D02*
X11831241Y-9225486D01*
X11831241Y-9225486D02*
X11821717Y-9215962D01*
X11821717Y-9215962D02*
X11831241Y-9206438D01*
X11831241Y-9206438D02*
X11831241Y-9225486D01*
X12012193Y-9092152D02*
X12012193Y-9225486D01*
X11964574Y-9015962D02*
X11916955Y-9158819D01*
X11916955Y-9158819D02*
X12040765Y-9158819D01*
X12202670Y-9025486D02*
X12164574Y-9025486D01*
X12164574Y-9025486D02*
X12145527Y-9035010D01*
X12145527Y-9035010D02*
X12136003Y-9044533D01*
X12136003Y-9044533D02*
X12116955Y-9073105D01*
X12116955Y-9073105D02*
X12107432Y-9111200D01*
X12107432Y-9111200D02*
X12107432Y-9187390D01*
X12107432Y-9187390D02*
X12116955Y-9206438D01*
X12116955Y-9206438D02*
X12126479Y-9215962D01*
X12126479Y-9215962D02*
X12145527Y-9225486D01*
X12145527Y-9225486D02*
X12183622Y-9225486D01*
X12183622Y-9225486D02*
X12202670Y-9215962D01*
X12202670Y-9215962D02*
X12212193Y-9206438D01*
X12212193Y-9206438D02*
X12221717Y-9187390D01*
X12221717Y-9187390D02*
X12221717Y-9139771D01*
X12221717Y-9139771D02*
X12212193Y-9120724D01*
X12212193Y-9120724D02*
X12202670Y-9111200D01*
X12202670Y-9111200D02*
X12183622Y-9101676D01*
X12183622Y-9101676D02*
X12145527Y-9101676D01*
X12145527Y-9101676D02*
X12126479Y-9111200D01*
X12126479Y-9111200D02*
X12116955Y-9120724D01*
X12116955Y-9120724D02*
X12107432Y-9139771D01*
X12345527Y-9025486D02*
X12364574Y-9025486D01*
X12364574Y-9025486D02*
X12383622Y-9035010D01*
X12383622Y-9035010D02*
X12393146Y-9044533D01*
X12393146Y-9044533D02*
X12402670Y-9063581D01*
X12402670Y-9063581D02*
X12412193Y-9101676D01*
X12412193Y-9101676D02*
X12412193Y-9149295D01*
X12412193Y-9149295D02*
X12402670Y-9187390D01*
X12402670Y-9187390D02*
X12393146Y-9206438D01*
X12393146Y-9206438D02*
X12383622Y-9215962D01*
X12383622Y-9215962D02*
X12364574Y-9225486D01*
X12364574Y-9225486D02*
X12345527Y-9225486D01*
X12345527Y-9225486D02*
X12326479Y-9215962D01*
X12326479Y-9215962D02*
X12316955Y-9206438D01*
X12316955Y-9206438D02*
X12307432Y-9187390D01*
X12307432Y-9187390D02*
X12297908Y-9149295D01*
X12297908Y-9149295D02*
X12297908Y-9101676D01*
X12297908Y-9101676D02*
X12307432Y-9063581D01*
X12307432Y-9063581D02*
X12316955Y-9044533D01*
X12316955Y-9044533D02*
X12326479Y-9035010D01*
X12326479Y-9035010D02*
X12345527Y-9025486D01*
X12497908Y-9225486D02*
X12497908Y-9092152D01*
X12497908Y-9111200D02*
X12507432Y-9101676D01*
X12507432Y-9101676D02*
X12526479Y-9092152D01*
X12526479Y-9092152D02*
X12555051Y-9092152D01*
X12555051Y-9092152D02*
X12574098Y-9101676D01*
X12574098Y-9101676D02*
X12583622Y-9120724D01*
X12583622Y-9120724D02*
X12583622Y-9225486D01*
X12583622Y-9120724D02*
X12593146Y-9101676D01*
X12593146Y-9101676D02*
X12612193Y-9092152D01*
X12612193Y-9092152D02*
X12640765Y-9092152D01*
X12640765Y-9092152D02*
X12659813Y-9101676D01*
X12659813Y-9101676D02*
X12669336Y-9120724D01*
X12669336Y-9120724D02*
X12669336Y-9225486D01*
X12764574Y-9225486D02*
X12764574Y-9092152D01*
X12764574Y-9111200D02*
X12774098Y-9101676D01*
X12774098Y-9101676D02*
X12793146Y-9092152D01*
X12793146Y-9092152D02*
X12821717Y-9092152D01*
X12821717Y-9092152D02*
X12840765Y-9101676D01*
X12840765Y-9101676D02*
X12850289Y-9120724D01*
X12850289Y-9120724D02*
X12850289Y-9225486D01*
X12850289Y-9120724D02*
X12859813Y-9101676D01*
X12859813Y-9101676D02*
X12878860Y-9092152D01*
X12878860Y-9092152D02*
X12907432Y-9092152D01*
X12907432Y-9092152D02*
X12926479Y-9101676D01*
X12926479Y-9101676D02*
X12936003Y-9120724D01*
X12936003Y-9120724D02*
X12936003Y-9225486D01*
X13326479Y-9015962D02*
X13155051Y-9273105D01*
X13583622Y-9025486D02*
X13602670Y-9025486D01*
X13602670Y-9025486D02*
X13621717Y-9035010D01*
X13621717Y-9035010D02*
X13631241Y-9044533D01*
X13631241Y-9044533D02*
X13640765Y-9063581D01*
X13640765Y-9063581D02*
X13650289Y-9101676D01*
X13650289Y-9101676D02*
X13650289Y-9149295D01*
X13650289Y-9149295D02*
X13640765Y-9187390D01*
X13640765Y-9187390D02*
X13631241Y-9206438D01*
X13631241Y-9206438D02*
X13621717Y-9215962D01*
X13621717Y-9215962D02*
X13602670Y-9225486D01*
X13602670Y-9225486D02*
X13583622Y-9225486D01*
X13583622Y-9225486D02*
X13564575Y-9215962D01*
X13564575Y-9215962D02*
X13555051Y-9206438D01*
X13555051Y-9206438D02*
X13545527Y-9187390D01*
X13545527Y-9187390D02*
X13536003Y-9149295D01*
X13536003Y-9149295D02*
X13536003Y-9101676D01*
X13536003Y-9101676D02*
X13545527Y-9063581D01*
X13545527Y-9063581D02*
X13555051Y-9044533D01*
X13555051Y-9044533D02*
X13564575Y-9035010D01*
X13564575Y-9035010D02*
X13583622Y-9025486D01*
X13736003Y-9206438D02*
X13745527Y-9215962D01*
X13745527Y-9215962D02*
X13736003Y-9225486D01*
X13736003Y-9225486D02*
X13726479Y-9215962D01*
X13726479Y-9215962D02*
X13736003Y-9206438D01*
X13736003Y-9206438D02*
X13736003Y-9225486D01*
X13869336Y-9025486D02*
X13888384Y-9025486D01*
X13888384Y-9025486D02*
X13907432Y-9035010D01*
X13907432Y-9035010D02*
X13916956Y-9044533D01*
X13916956Y-9044533D02*
X13926479Y-9063581D01*
X13926479Y-9063581D02*
X13936003Y-9101676D01*
X13936003Y-9101676D02*
X13936003Y-9149295D01*
X13936003Y-9149295D02*
X13926479Y-9187390D01*
X13926479Y-9187390D02*
X13916956Y-9206438D01*
X13916956Y-9206438D02*
X13907432Y-9215962D01*
X13907432Y-9215962D02*
X13888384Y-9225486D01*
X13888384Y-9225486D02*
X13869336Y-9225486D01*
X13869336Y-9225486D02*
X13850289Y-9215962D01*
X13850289Y-9215962D02*
X13840765Y-9206438D01*
X13840765Y-9206438D02*
X13831241Y-9187390D01*
X13831241Y-9187390D02*
X13821717Y-9149295D01*
X13821717Y-9149295D02*
X13821717Y-9101676D01*
X13821717Y-9101676D02*
X13831241Y-9063581D01*
X13831241Y-9063581D02*
X13840765Y-9044533D01*
X13840765Y-9044533D02*
X13850289Y-9035010D01*
X13850289Y-9035010D02*
X13869336Y-9025486D01*
X14126479Y-9225486D02*
X14012194Y-9225486D01*
X14069336Y-9225486D02*
X14069336Y-9025486D01*
X14069336Y-9025486D02*
X14050289Y-9054057D01*
X14050289Y-9054057D02*
X14031241Y-9073105D01*
X14031241Y-9073105D02*
X14012194Y-9082629D01*
X14240765Y-9111200D02*
X14221717Y-9101676D01*
X14221717Y-9101676D02*
X14212194Y-9092152D01*
X14212194Y-9092152D02*
X14202670Y-9073105D01*
X14202670Y-9073105D02*
X14202670Y-9063581D01*
X14202670Y-9063581D02*
X14212194Y-9044533D01*
X14212194Y-9044533D02*
X14221717Y-9035010D01*
X14221717Y-9035010D02*
X14240765Y-9025486D01*
X14240765Y-9025486D02*
X14278860Y-9025486D01*
X14278860Y-9025486D02*
X14297908Y-9035010D01*
X14297908Y-9035010D02*
X14307432Y-9044533D01*
X14307432Y-9044533D02*
X14316956Y-9063581D01*
X14316956Y-9063581D02*
X14316956Y-9073105D01*
X14316956Y-9073105D02*
X14307432Y-9092152D01*
X14307432Y-9092152D02*
X14297908Y-9101676D01*
X14297908Y-9101676D02*
X14278860Y-9111200D01*
X14278860Y-9111200D02*
X14240765Y-9111200D01*
X14240765Y-9111200D02*
X14221717Y-9120724D01*
X14221717Y-9120724D02*
X14212194Y-9130248D01*
X14212194Y-9130248D02*
X14202670Y-9149295D01*
X14202670Y-9149295D02*
X14202670Y-9187390D01*
X14202670Y-9187390D02*
X14212194Y-9206438D01*
X14212194Y-9206438D02*
X14221717Y-9215962D01*
X14221717Y-9215962D02*
X14240765Y-9225486D01*
X14240765Y-9225486D02*
X14278860Y-9225486D01*
X14278860Y-9225486D02*
X14297908Y-9215962D01*
X14297908Y-9215962D02*
X14307432Y-9206438D01*
X14307432Y-9206438D02*
X14316956Y-9187390D01*
X14316956Y-9187390D02*
X14316956Y-9149295D01*
X14316956Y-9149295D02*
X14307432Y-9130248D01*
X14307432Y-9130248D02*
X14297908Y-9120724D01*
X14297908Y-9120724D02*
X14278860Y-9111200D01*
X14507432Y-9225486D02*
X14393146Y-9225486D01*
X14450289Y-9225486D02*
X14450289Y-9025486D01*
X14450289Y-9025486D02*
X14431241Y-9054057D01*
X14431241Y-9054057D02*
X14412194Y-9073105D01*
X14412194Y-9073105D02*
X14393146Y-9082629D01*
X14583622Y-9025486D02*
X14583622Y-9063581D01*
X14659813Y-9025486D02*
X14659813Y-9063581D01*
X14955051Y-9301676D02*
X14945527Y-9292152D01*
X14945527Y-9292152D02*
X14926479Y-9263581D01*
X14926479Y-9263581D02*
X14916956Y-9244533D01*
X14916956Y-9244533D02*
X14907432Y-9215962D01*
X14907432Y-9215962D02*
X14897908Y-9168343D01*
X14897908Y-9168343D02*
X14897908Y-9130248D01*
X14897908Y-9130248D02*
X14907432Y-9082629D01*
X14907432Y-9082629D02*
X14916956Y-9054057D01*
X14916956Y-9054057D02*
X14926479Y-9035010D01*
X14926479Y-9035010D02*
X14945527Y-9006438D01*
X14945527Y-9006438D02*
X14955051Y-8996914D01*
X15116956Y-9092152D02*
X15116956Y-9225486D01*
X15069337Y-9015962D02*
X15021718Y-9158819D01*
X15021718Y-9158819D02*
X15145527Y-9158819D01*
X15374099Y-9225486D02*
X15374099Y-9025486D01*
X15459813Y-9225486D02*
X15459813Y-9120724D01*
X15459813Y-9120724D02*
X15450289Y-9101676D01*
X15450289Y-9101676D02*
X15431241Y-9092152D01*
X15431241Y-9092152D02*
X15402670Y-9092152D01*
X15402670Y-9092152D02*
X15383622Y-9101676D01*
X15383622Y-9101676D02*
X15374099Y-9111200D01*
X15583622Y-9225486D02*
X15564575Y-9215962D01*
X15564575Y-9215962D02*
X15555051Y-9206438D01*
X15555051Y-9206438D02*
X15545527Y-9187390D01*
X15545527Y-9187390D02*
X15545527Y-9130248D01*
X15545527Y-9130248D02*
X15555051Y-9111200D01*
X15555051Y-9111200D02*
X15564575Y-9101676D01*
X15564575Y-9101676D02*
X15583622Y-9092152D01*
X15583622Y-9092152D02*
X15612194Y-9092152D01*
X15612194Y-9092152D02*
X15631241Y-9101676D01*
X15631241Y-9101676D02*
X15640765Y-9111200D01*
X15640765Y-9111200D02*
X15650289Y-9130248D01*
X15650289Y-9130248D02*
X15650289Y-9187390D01*
X15650289Y-9187390D02*
X15640765Y-9206438D01*
X15640765Y-9206438D02*
X15631241Y-9215962D01*
X15631241Y-9215962D02*
X15612194Y-9225486D01*
X15612194Y-9225486D02*
X15583622Y-9225486D01*
X15764575Y-9225486D02*
X15745527Y-9215962D01*
X15745527Y-9215962D02*
X15736003Y-9196914D01*
X15736003Y-9196914D02*
X15736003Y-9025486D01*
X15916956Y-9215962D02*
X15897908Y-9225486D01*
X15897908Y-9225486D02*
X15859813Y-9225486D01*
X15859813Y-9225486D02*
X15840765Y-9215962D01*
X15840765Y-9215962D02*
X15831241Y-9196914D01*
X15831241Y-9196914D02*
X15831241Y-9120724D01*
X15831241Y-9120724D02*
X15840765Y-9101676D01*
X15840765Y-9101676D02*
X15859813Y-9092152D01*
X15859813Y-9092152D02*
X15897908Y-9092152D01*
X15897908Y-9092152D02*
X15916956Y-9101676D01*
X15916956Y-9101676D02*
X15926480Y-9120724D01*
X15926480Y-9120724D02*
X15926480Y-9139771D01*
X15926480Y-9139771D02*
X15831241Y-9158819D01*
X16002670Y-9215962D02*
X16021718Y-9225486D01*
X16021718Y-9225486D02*
X16059813Y-9225486D01*
X16059813Y-9225486D02*
X16078861Y-9215962D01*
X16078861Y-9215962D02*
X16088384Y-9196914D01*
X16088384Y-9196914D02*
X16088384Y-9187390D01*
X16088384Y-9187390D02*
X16078861Y-9168343D01*
X16078861Y-9168343D02*
X16059813Y-9158819D01*
X16059813Y-9158819D02*
X16031241Y-9158819D01*
X16031241Y-9158819D02*
X16012194Y-9149295D01*
X16012194Y-9149295D02*
X16002670Y-9130248D01*
X16002670Y-9130248D02*
X16002670Y-9120724D01*
X16002670Y-9120724D02*
X16012194Y-9101676D01*
X16012194Y-9101676D02*
X16031241Y-9092152D01*
X16031241Y-9092152D02*
X16059813Y-9092152D01*
X16059813Y-9092152D02*
X16078861Y-9101676D01*
X16155051Y-9301676D02*
X16164575Y-9292152D01*
X16164575Y-9292152D02*
X16183622Y-9263581D01*
X16183622Y-9263581D02*
X16193146Y-9244533D01*
X16193146Y-9244533D02*
X16202670Y-9215962D01*
X16202670Y-9215962D02*
X16212194Y-9168343D01*
X16212194Y-9168343D02*
X16212194Y-9130248D01*
X16212194Y-9130248D02*
X16202670Y-9082629D01*
X16202670Y-9082629D02*
X16193146Y-9054057D01*
X16193146Y-9054057D02*
X16183622Y-9035010D01*
X16183622Y-9035010D02*
X16164575Y-9006438D01*
X16164575Y-9006438D02*
X16155051Y-8996914D01*
D11*
X11349988Y-9368002D02*
X11349988Y-9428002D01*
X11319988Y-9398002D02*
X11379988Y-9398002D01*
D10*
X11678860Y-9289486D02*
X11697908Y-9289486D01*
X11697908Y-9289486D02*
X11716955Y-9299010D01*
X11716955Y-9299010D02*
X11726479Y-9308533D01*
X11726479Y-9308533D02*
X11736003Y-9327581D01*
X11736003Y-9327581D02*
X11745527Y-9365676D01*
X11745527Y-9365676D02*
X11745527Y-9413295D01*
X11745527Y-9413295D02*
X11736003Y-9451390D01*
X11736003Y-9451390D02*
X11726479Y-9470438D01*
X11726479Y-9470438D02*
X11716955Y-9479962D01*
X11716955Y-9479962D02*
X11697908Y-9489486D01*
X11697908Y-9489486D02*
X11678860Y-9489486D01*
X11678860Y-9489486D02*
X11659812Y-9479962D01*
X11659812Y-9479962D02*
X11650289Y-9470438D01*
X11650289Y-9470438D02*
X11640765Y-9451390D01*
X11640765Y-9451390D02*
X11631241Y-9413295D01*
X11631241Y-9413295D02*
X11631241Y-9365676D01*
X11631241Y-9365676D02*
X11640765Y-9327581D01*
X11640765Y-9327581D02*
X11650289Y-9308533D01*
X11650289Y-9308533D02*
X11659812Y-9299010D01*
X11659812Y-9299010D02*
X11678860Y-9289486D01*
X11831241Y-9470438D02*
X11840765Y-9479962D01*
X11840765Y-9479962D02*
X11831241Y-9489486D01*
X11831241Y-9489486D02*
X11821717Y-9479962D01*
X11821717Y-9479962D02*
X11831241Y-9470438D01*
X11831241Y-9470438D02*
X11831241Y-9489486D01*
X12012193Y-9289486D02*
X11974098Y-9289486D01*
X11974098Y-9289486D02*
X11955051Y-9299010D01*
X11955051Y-9299010D02*
X11945527Y-9308533D01*
X11945527Y-9308533D02*
X11926479Y-9337105D01*
X11926479Y-9337105D02*
X11916955Y-9375200D01*
X11916955Y-9375200D02*
X11916955Y-9451390D01*
X11916955Y-9451390D02*
X11926479Y-9470438D01*
X11926479Y-9470438D02*
X11936003Y-9479962D01*
X11936003Y-9479962D02*
X11955051Y-9489486D01*
X11955051Y-9489486D02*
X11993146Y-9489486D01*
X11993146Y-9489486D02*
X12012193Y-9479962D01*
X12012193Y-9479962D02*
X12021717Y-9470438D01*
X12021717Y-9470438D02*
X12031241Y-9451390D01*
X12031241Y-9451390D02*
X12031241Y-9403771D01*
X12031241Y-9403771D02*
X12021717Y-9384724D01*
X12021717Y-9384724D02*
X12012193Y-9375200D01*
X12012193Y-9375200D02*
X11993146Y-9365676D01*
X11993146Y-9365676D02*
X11955051Y-9365676D01*
X11955051Y-9365676D02*
X11936003Y-9375200D01*
X11936003Y-9375200D02*
X11926479Y-9384724D01*
X11926479Y-9384724D02*
X11916955Y-9403771D01*
X12155051Y-9289486D02*
X12174098Y-9289486D01*
X12174098Y-9289486D02*
X12193146Y-9299010D01*
X12193146Y-9299010D02*
X12202670Y-9308533D01*
X12202670Y-9308533D02*
X12212193Y-9327581D01*
X12212193Y-9327581D02*
X12221717Y-9365676D01*
X12221717Y-9365676D02*
X12221717Y-9413295D01*
X12221717Y-9413295D02*
X12212193Y-9451390D01*
X12212193Y-9451390D02*
X12202670Y-9470438D01*
X12202670Y-9470438D02*
X12193146Y-9479962D01*
X12193146Y-9479962D02*
X12174098Y-9489486D01*
X12174098Y-9489486D02*
X12155051Y-9489486D01*
X12155051Y-9489486D02*
X12136003Y-9479962D01*
X12136003Y-9479962D02*
X12126479Y-9470438D01*
X12126479Y-9470438D02*
X12116955Y-9451390D01*
X12116955Y-9451390D02*
X12107432Y-9413295D01*
X12107432Y-9413295D02*
X12107432Y-9365676D01*
X12107432Y-9365676D02*
X12116955Y-9327581D01*
X12116955Y-9327581D02*
X12126479Y-9308533D01*
X12126479Y-9308533D02*
X12136003Y-9299010D01*
X12136003Y-9299010D02*
X12155051Y-9289486D01*
X12345527Y-9289486D02*
X12364574Y-9289486D01*
X12364574Y-9289486D02*
X12383622Y-9299010D01*
X12383622Y-9299010D02*
X12393146Y-9308533D01*
X12393146Y-9308533D02*
X12402670Y-9327581D01*
X12402670Y-9327581D02*
X12412193Y-9365676D01*
X12412193Y-9365676D02*
X12412193Y-9413295D01*
X12412193Y-9413295D02*
X12402670Y-9451390D01*
X12402670Y-9451390D02*
X12393146Y-9470438D01*
X12393146Y-9470438D02*
X12383622Y-9479962D01*
X12383622Y-9479962D02*
X12364574Y-9489486D01*
X12364574Y-9489486D02*
X12345527Y-9489486D01*
X12345527Y-9489486D02*
X12326479Y-9479962D01*
X12326479Y-9479962D02*
X12316955Y-9470438D01*
X12316955Y-9470438D02*
X12307432Y-9451390D01*
X12307432Y-9451390D02*
X12297908Y-9413295D01*
X12297908Y-9413295D02*
X12297908Y-9365676D01*
X12297908Y-9365676D02*
X12307432Y-9327581D01*
X12307432Y-9327581D02*
X12316955Y-9308533D01*
X12316955Y-9308533D02*
X12326479Y-9299010D01*
X12326479Y-9299010D02*
X12345527Y-9289486D01*
X12497908Y-9489486D02*
X12497908Y-9356152D01*
X12497908Y-9375200D02*
X12507432Y-9365676D01*
X12507432Y-9365676D02*
X12526479Y-9356152D01*
X12526479Y-9356152D02*
X12555051Y-9356152D01*
X12555051Y-9356152D02*
X12574098Y-9365676D01*
X12574098Y-9365676D02*
X12583622Y-9384724D01*
X12583622Y-9384724D02*
X12583622Y-9489486D01*
X12583622Y-9384724D02*
X12593146Y-9365676D01*
X12593146Y-9365676D02*
X12612193Y-9356152D01*
X12612193Y-9356152D02*
X12640765Y-9356152D01*
X12640765Y-9356152D02*
X12659813Y-9365676D01*
X12659813Y-9365676D02*
X12669336Y-9384724D01*
X12669336Y-9384724D02*
X12669336Y-9489486D01*
X12764574Y-9489486D02*
X12764574Y-9356152D01*
X12764574Y-9375200D02*
X12774098Y-9365676D01*
X12774098Y-9365676D02*
X12793146Y-9356152D01*
X12793146Y-9356152D02*
X12821717Y-9356152D01*
X12821717Y-9356152D02*
X12840765Y-9365676D01*
X12840765Y-9365676D02*
X12850289Y-9384724D01*
X12850289Y-9384724D02*
X12850289Y-9489486D01*
X12850289Y-9384724D02*
X12859813Y-9365676D01*
X12859813Y-9365676D02*
X12878860Y-9356152D01*
X12878860Y-9356152D02*
X12907432Y-9356152D01*
X12907432Y-9356152D02*
X12926479Y-9365676D01*
X12926479Y-9365676D02*
X12936003Y-9384724D01*
X12936003Y-9384724D02*
X12936003Y-9489486D01*
X13326479Y-9279962D02*
X13155051Y-9537105D01*
X13583622Y-9289486D02*
X13602670Y-9289486D01*
X13602670Y-9289486D02*
X13621717Y-9299010D01*
X13621717Y-9299010D02*
X13631241Y-9308533D01*
X13631241Y-9308533D02*
X13640765Y-9327581D01*
X13640765Y-9327581D02*
X13650289Y-9365676D01*
X13650289Y-9365676D02*
X13650289Y-9413295D01*
X13650289Y-9413295D02*
X13640765Y-9451390D01*
X13640765Y-9451390D02*
X13631241Y-9470438D01*
X13631241Y-9470438D02*
X13621717Y-9479962D01*
X13621717Y-9479962D02*
X13602670Y-9489486D01*
X13602670Y-9489486D02*
X13583622Y-9489486D01*
X13583622Y-9489486D02*
X13564575Y-9479962D01*
X13564575Y-9479962D02*
X13555051Y-9470438D01*
X13555051Y-9470438D02*
X13545527Y-9451390D01*
X13545527Y-9451390D02*
X13536003Y-9413295D01*
X13536003Y-9413295D02*
X13536003Y-9365676D01*
X13536003Y-9365676D02*
X13545527Y-9327581D01*
X13545527Y-9327581D02*
X13555051Y-9308533D01*
X13555051Y-9308533D02*
X13564575Y-9299010D01*
X13564575Y-9299010D02*
X13583622Y-9289486D01*
X13736003Y-9470438D02*
X13745527Y-9479962D01*
X13745527Y-9479962D02*
X13736003Y-9489486D01*
X13736003Y-9489486D02*
X13726479Y-9479962D01*
X13726479Y-9479962D02*
X13736003Y-9470438D01*
X13736003Y-9470438D02*
X13736003Y-9489486D01*
X13869336Y-9289486D02*
X13888384Y-9289486D01*
X13888384Y-9289486D02*
X13907432Y-9299010D01*
X13907432Y-9299010D02*
X13916956Y-9308533D01*
X13916956Y-9308533D02*
X13926479Y-9327581D01*
X13926479Y-9327581D02*
X13936003Y-9365676D01*
X13936003Y-9365676D02*
X13936003Y-9413295D01*
X13936003Y-9413295D02*
X13926479Y-9451390D01*
X13926479Y-9451390D02*
X13916956Y-9470438D01*
X13916956Y-9470438D02*
X13907432Y-9479962D01*
X13907432Y-9479962D02*
X13888384Y-9489486D01*
X13888384Y-9489486D02*
X13869336Y-9489486D01*
X13869336Y-9489486D02*
X13850289Y-9479962D01*
X13850289Y-9479962D02*
X13840765Y-9470438D01*
X13840765Y-9470438D02*
X13831241Y-9451390D01*
X13831241Y-9451390D02*
X13821717Y-9413295D01*
X13821717Y-9413295D02*
X13821717Y-9365676D01*
X13821717Y-9365676D02*
X13831241Y-9327581D01*
X13831241Y-9327581D02*
X13840765Y-9308533D01*
X13840765Y-9308533D02*
X13850289Y-9299010D01*
X13850289Y-9299010D02*
X13869336Y-9289486D01*
X14012194Y-9308533D02*
X14021717Y-9299010D01*
X14021717Y-9299010D02*
X14040765Y-9289486D01*
X14040765Y-9289486D02*
X14088384Y-9289486D01*
X14088384Y-9289486D02*
X14107432Y-9299010D01*
X14107432Y-9299010D02*
X14116956Y-9308533D01*
X14116956Y-9308533D02*
X14126479Y-9327581D01*
X14126479Y-9327581D02*
X14126479Y-9346629D01*
X14126479Y-9346629D02*
X14116956Y-9375200D01*
X14116956Y-9375200D02*
X14002670Y-9489486D01*
X14002670Y-9489486D02*
X14126479Y-9489486D01*
X14193146Y-9289486D02*
X14316956Y-9289486D01*
X14316956Y-9289486D02*
X14250289Y-9365676D01*
X14250289Y-9365676D02*
X14278860Y-9365676D01*
X14278860Y-9365676D02*
X14297908Y-9375200D01*
X14297908Y-9375200D02*
X14307432Y-9384724D01*
X14307432Y-9384724D02*
X14316956Y-9403771D01*
X14316956Y-9403771D02*
X14316956Y-9451390D01*
X14316956Y-9451390D02*
X14307432Y-9470438D01*
X14307432Y-9470438D02*
X14297908Y-9479962D01*
X14297908Y-9479962D02*
X14278860Y-9489486D01*
X14278860Y-9489486D02*
X14221717Y-9489486D01*
X14221717Y-9489486D02*
X14202670Y-9479962D01*
X14202670Y-9479962D02*
X14193146Y-9470438D01*
X14488384Y-9289486D02*
X14450289Y-9289486D01*
X14450289Y-9289486D02*
X14431241Y-9299010D01*
X14431241Y-9299010D02*
X14421717Y-9308533D01*
X14421717Y-9308533D02*
X14402670Y-9337105D01*
X14402670Y-9337105D02*
X14393146Y-9375200D01*
X14393146Y-9375200D02*
X14393146Y-9451390D01*
X14393146Y-9451390D02*
X14402670Y-9470438D01*
X14402670Y-9470438D02*
X14412194Y-9479962D01*
X14412194Y-9479962D02*
X14431241Y-9489486D01*
X14431241Y-9489486D02*
X14469337Y-9489486D01*
X14469337Y-9489486D02*
X14488384Y-9479962D01*
X14488384Y-9479962D02*
X14497908Y-9470438D01*
X14497908Y-9470438D02*
X14507432Y-9451390D01*
X14507432Y-9451390D02*
X14507432Y-9403771D01*
X14507432Y-9403771D02*
X14497908Y-9384724D01*
X14497908Y-9384724D02*
X14488384Y-9375200D01*
X14488384Y-9375200D02*
X14469337Y-9365676D01*
X14469337Y-9365676D02*
X14431241Y-9365676D01*
X14431241Y-9365676D02*
X14412194Y-9375200D01*
X14412194Y-9375200D02*
X14402670Y-9384724D01*
X14402670Y-9384724D02*
X14393146Y-9403771D01*
X14583622Y-9289486D02*
X14583622Y-9327581D01*
X14659813Y-9289486D02*
X14659813Y-9327581D01*
X14955051Y-9565676D02*
X14945527Y-9556152D01*
X14945527Y-9556152D02*
X14926479Y-9527581D01*
X14926479Y-9527581D02*
X14916956Y-9508533D01*
X14916956Y-9508533D02*
X14907432Y-9479962D01*
X14907432Y-9479962D02*
X14897908Y-9432343D01*
X14897908Y-9432343D02*
X14897908Y-9394248D01*
X14897908Y-9394248D02*
X14907432Y-9346629D01*
X14907432Y-9346629D02*
X14916956Y-9318057D01*
X14916956Y-9318057D02*
X14926479Y-9299010D01*
X14926479Y-9299010D02*
X14945527Y-9270438D01*
X14945527Y-9270438D02*
X14955051Y-9260914D01*
X15069337Y-9289486D02*
X15088384Y-9289486D01*
X15088384Y-9289486D02*
X15107432Y-9299010D01*
X15107432Y-9299010D02*
X15116956Y-9308533D01*
X15116956Y-9308533D02*
X15126479Y-9327581D01*
X15126479Y-9327581D02*
X15136003Y-9365676D01*
X15136003Y-9365676D02*
X15136003Y-9413295D01*
X15136003Y-9413295D02*
X15126479Y-9451390D01*
X15126479Y-9451390D02*
X15116956Y-9470438D01*
X15116956Y-9470438D02*
X15107432Y-9479962D01*
X15107432Y-9479962D02*
X15088384Y-9489486D01*
X15088384Y-9489486D02*
X15069337Y-9489486D01*
X15069337Y-9489486D02*
X15050289Y-9479962D01*
X15050289Y-9479962D02*
X15040765Y-9470438D01*
X15040765Y-9470438D02*
X15031241Y-9451390D01*
X15031241Y-9451390D02*
X15021718Y-9413295D01*
X15021718Y-9413295D02*
X15021718Y-9365676D01*
X15021718Y-9365676D02*
X15031241Y-9327581D01*
X15031241Y-9327581D02*
X15040765Y-9308533D01*
X15040765Y-9308533D02*
X15050289Y-9299010D01*
X15050289Y-9299010D02*
X15069337Y-9289486D01*
X15374099Y-9489486D02*
X15374099Y-9289486D01*
X15459813Y-9489486D02*
X15459813Y-9384724D01*
X15459813Y-9384724D02*
X15450289Y-9365676D01*
X15450289Y-9365676D02*
X15431241Y-9356152D01*
X15431241Y-9356152D02*
X15402670Y-9356152D01*
X15402670Y-9356152D02*
X15383622Y-9365676D01*
X15383622Y-9365676D02*
X15374099Y-9375200D01*
X15583622Y-9489486D02*
X15564575Y-9479962D01*
X15564575Y-9479962D02*
X15555051Y-9470438D01*
X15555051Y-9470438D02*
X15545527Y-9451390D01*
X15545527Y-9451390D02*
X15545527Y-9394248D01*
X15545527Y-9394248D02*
X15555051Y-9375200D01*
X15555051Y-9375200D02*
X15564575Y-9365676D01*
X15564575Y-9365676D02*
X15583622Y-9356152D01*
X15583622Y-9356152D02*
X15612194Y-9356152D01*
X15612194Y-9356152D02*
X15631241Y-9365676D01*
X15631241Y-9365676D02*
X15640765Y-9375200D01*
X15640765Y-9375200D02*
X15650289Y-9394248D01*
X15650289Y-9394248D02*
X15650289Y-9451390D01*
X15650289Y-9451390D02*
X15640765Y-9470438D01*
X15640765Y-9470438D02*
X15631241Y-9479962D01*
X15631241Y-9479962D02*
X15612194Y-9489486D01*
X15612194Y-9489486D02*
X15583622Y-9489486D01*
X15764575Y-9489486D02*
X15745527Y-9479962D01*
X15745527Y-9479962D02*
X15736003Y-9460914D01*
X15736003Y-9460914D02*
X15736003Y-9289486D01*
X15916956Y-9479962D02*
X15897908Y-9489486D01*
X15897908Y-9489486D02*
X15859813Y-9489486D01*
X15859813Y-9489486D02*
X15840765Y-9479962D01*
X15840765Y-9479962D02*
X15831241Y-9460914D01*
X15831241Y-9460914D02*
X15831241Y-9384724D01*
X15831241Y-9384724D02*
X15840765Y-9365676D01*
X15840765Y-9365676D02*
X15859813Y-9356152D01*
X15859813Y-9356152D02*
X15897908Y-9356152D01*
X15897908Y-9356152D02*
X15916956Y-9365676D01*
X15916956Y-9365676D02*
X15926480Y-9384724D01*
X15926480Y-9384724D02*
X15926480Y-9403771D01*
X15926480Y-9403771D02*
X15831241Y-9422819D01*
X16002670Y-9479962D02*
X16021718Y-9489486D01*
X16021718Y-9489486D02*
X16059813Y-9489486D01*
X16059813Y-9489486D02*
X16078861Y-9479962D01*
X16078861Y-9479962D02*
X16088384Y-9460914D01*
X16088384Y-9460914D02*
X16088384Y-9451390D01*
X16088384Y-9451390D02*
X16078861Y-9432343D01*
X16078861Y-9432343D02*
X16059813Y-9422819D01*
X16059813Y-9422819D02*
X16031241Y-9422819D01*
X16031241Y-9422819D02*
X16012194Y-9413295D01*
X16012194Y-9413295D02*
X16002670Y-9394248D01*
X16002670Y-9394248D02*
X16002670Y-9384724D01*
X16002670Y-9384724D02*
X16012194Y-9365676D01*
X16012194Y-9365676D02*
X16031241Y-9356152D01*
X16031241Y-9356152D02*
X16059813Y-9356152D01*
X16059813Y-9356152D02*
X16078861Y-9365676D01*
X16326480Y-9413295D02*
X16478861Y-9413295D01*
X16402670Y-9489486D02*
X16402670Y-9337105D01*
X16812194Y-9356152D02*
X16812194Y-9489486D01*
X16764575Y-9279962D02*
X16716956Y-9422819D01*
X16716956Y-9422819D02*
X16840765Y-9422819D01*
X17059813Y-9479962D02*
X17078861Y-9489486D01*
X17078861Y-9489486D02*
X17116956Y-9489486D01*
X17116956Y-9489486D02*
X17136004Y-9479962D01*
X17136004Y-9479962D02*
X17145527Y-9460914D01*
X17145527Y-9460914D02*
X17145527Y-9451390D01*
X17145527Y-9451390D02*
X17136004Y-9432343D01*
X17136004Y-9432343D02*
X17116956Y-9422819D01*
X17116956Y-9422819D02*
X17088385Y-9422819D01*
X17088385Y-9422819D02*
X17069337Y-9413295D01*
X17069337Y-9413295D02*
X17059813Y-9394248D01*
X17059813Y-9394248D02*
X17059813Y-9384724D01*
X17059813Y-9384724D02*
X17069337Y-9365676D01*
X17069337Y-9365676D02*
X17088385Y-9356152D01*
X17088385Y-9356152D02*
X17116956Y-9356152D01*
X17116956Y-9356152D02*
X17136004Y-9365676D01*
X17259813Y-9489486D02*
X17240766Y-9479962D01*
X17240766Y-9479962D02*
X17231242Y-9460914D01*
X17231242Y-9460914D02*
X17231242Y-9289486D01*
X17364575Y-9489486D02*
X17345527Y-9479962D01*
X17345527Y-9479962D02*
X17336004Y-9470438D01*
X17336004Y-9470438D02*
X17326480Y-9451390D01*
X17326480Y-9451390D02*
X17326480Y-9394248D01*
X17326480Y-9394248D02*
X17336004Y-9375200D01*
X17336004Y-9375200D02*
X17345527Y-9365676D01*
X17345527Y-9365676D02*
X17364575Y-9356152D01*
X17364575Y-9356152D02*
X17393147Y-9356152D01*
X17393147Y-9356152D02*
X17412194Y-9365676D01*
X17412194Y-9365676D02*
X17421718Y-9375200D01*
X17421718Y-9375200D02*
X17431242Y-9394248D01*
X17431242Y-9394248D02*
X17431242Y-9451390D01*
X17431242Y-9451390D02*
X17421718Y-9470438D01*
X17421718Y-9470438D02*
X17412194Y-9479962D01*
X17412194Y-9479962D02*
X17393147Y-9489486D01*
X17393147Y-9489486D02*
X17364575Y-9489486D01*
X17488385Y-9356152D02*
X17564575Y-9356152D01*
X17516956Y-9289486D02*
X17516956Y-9460914D01*
X17516956Y-9460914D02*
X17526480Y-9479962D01*
X17526480Y-9479962D02*
X17545527Y-9489486D01*
X17545527Y-9489486D02*
X17564575Y-9489486D01*
X17621718Y-9479962D02*
X17640766Y-9489486D01*
X17640766Y-9489486D02*
X17678861Y-9489486D01*
X17678861Y-9489486D02*
X17697908Y-9479962D01*
X17697908Y-9479962D02*
X17707432Y-9460914D01*
X17707432Y-9460914D02*
X17707432Y-9451390D01*
X17707432Y-9451390D02*
X17697908Y-9432343D01*
X17697908Y-9432343D02*
X17678861Y-9422819D01*
X17678861Y-9422819D02*
X17650289Y-9422819D01*
X17650289Y-9422819D02*
X17631242Y-9413295D01*
X17631242Y-9413295D02*
X17621718Y-9394248D01*
X17621718Y-9394248D02*
X17621718Y-9384724D01*
X17621718Y-9384724D02*
X17631242Y-9365676D01*
X17631242Y-9365676D02*
X17650289Y-9356152D01*
X17650289Y-9356152D02*
X17678861Y-9356152D01*
X17678861Y-9356152D02*
X17697908Y-9365676D01*
X17774099Y-9565676D02*
X17783623Y-9556152D01*
X17783623Y-9556152D02*
X17802670Y-9527581D01*
X17802670Y-9527581D02*
X17812194Y-9508533D01*
X17812194Y-9508533D02*
X17821718Y-9479962D01*
X17821718Y-9479962D02*
X17831242Y-9432343D01*
X17831242Y-9432343D02*
X17831242Y-9394248D01*
X17831242Y-9394248D02*
X17821718Y-9346629D01*
X17821718Y-9346629D02*
X17812194Y-9318057D01*
X17812194Y-9318057D02*
X17802670Y-9299010D01*
X17802670Y-9299010D02*
X17783623Y-9270438D01*
X17783623Y-9270438D02*
X17774099Y-9260914D01*
D11*
X11368273Y-9690286D02*
X11368273Y-9633717D01*
X11311704Y-9633717D01*
X11311704Y-9690286D01*
X11368273Y-9690286D01*
D10*
X11678860Y-9553486D02*
X11697908Y-9553486D01*
X11697908Y-9553486D02*
X11716955Y-9563010D01*
X11716955Y-9563010D02*
X11726479Y-9572533D01*
X11726479Y-9572533D02*
X11736003Y-9591581D01*
X11736003Y-9591581D02*
X11745527Y-9629676D01*
X11745527Y-9629676D02*
X11745527Y-9677295D01*
X11745527Y-9677295D02*
X11736003Y-9715390D01*
X11736003Y-9715390D02*
X11726479Y-9734438D01*
X11726479Y-9734438D02*
X11716955Y-9743962D01*
X11716955Y-9743962D02*
X11697908Y-9753486D01*
X11697908Y-9753486D02*
X11678860Y-9753486D01*
X11678860Y-9753486D02*
X11659812Y-9743962D01*
X11659812Y-9743962D02*
X11650289Y-9734438D01*
X11650289Y-9734438D02*
X11640765Y-9715390D01*
X11640765Y-9715390D02*
X11631241Y-9677295D01*
X11631241Y-9677295D02*
X11631241Y-9629676D01*
X11631241Y-9629676D02*
X11640765Y-9591581D01*
X11640765Y-9591581D02*
X11650289Y-9572533D01*
X11650289Y-9572533D02*
X11659812Y-9563010D01*
X11659812Y-9563010D02*
X11678860Y-9553486D01*
X11831241Y-9734438D02*
X11840765Y-9743962D01*
X11840765Y-9743962D02*
X11831241Y-9753486D01*
X11831241Y-9753486D02*
X11821717Y-9743962D01*
X11821717Y-9743962D02*
X11831241Y-9734438D01*
X11831241Y-9734438D02*
X11831241Y-9753486D01*
X11955051Y-9639200D02*
X11936003Y-9629676D01*
X11936003Y-9629676D02*
X11926479Y-9620152D01*
X11926479Y-9620152D02*
X11916955Y-9601105D01*
X11916955Y-9601105D02*
X11916955Y-9591581D01*
X11916955Y-9591581D02*
X11926479Y-9572533D01*
X11926479Y-9572533D02*
X11936003Y-9563010D01*
X11936003Y-9563010D02*
X11955051Y-9553486D01*
X11955051Y-9553486D02*
X11993146Y-9553486D01*
X11993146Y-9553486D02*
X12012193Y-9563010D01*
X12012193Y-9563010D02*
X12021717Y-9572533D01*
X12021717Y-9572533D02*
X12031241Y-9591581D01*
X12031241Y-9591581D02*
X12031241Y-9601105D01*
X12031241Y-9601105D02*
X12021717Y-9620152D01*
X12021717Y-9620152D02*
X12012193Y-9629676D01*
X12012193Y-9629676D02*
X11993146Y-9639200D01*
X11993146Y-9639200D02*
X11955051Y-9639200D01*
X11955051Y-9639200D02*
X11936003Y-9648724D01*
X11936003Y-9648724D02*
X11926479Y-9658248D01*
X11926479Y-9658248D02*
X11916955Y-9677295D01*
X11916955Y-9677295D02*
X11916955Y-9715390D01*
X11916955Y-9715390D02*
X11926479Y-9734438D01*
X11926479Y-9734438D02*
X11936003Y-9743962D01*
X11936003Y-9743962D02*
X11955051Y-9753486D01*
X11955051Y-9753486D02*
X11993146Y-9753486D01*
X11993146Y-9753486D02*
X12012193Y-9743962D01*
X12012193Y-9743962D02*
X12021717Y-9734438D01*
X12021717Y-9734438D02*
X12031241Y-9715390D01*
X12031241Y-9715390D02*
X12031241Y-9677295D01*
X12031241Y-9677295D02*
X12021717Y-9658248D01*
X12021717Y-9658248D02*
X12012193Y-9648724D01*
X12012193Y-9648724D02*
X11993146Y-9639200D01*
X12155051Y-9553486D02*
X12174098Y-9553486D01*
X12174098Y-9553486D02*
X12193146Y-9563010D01*
X12193146Y-9563010D02*
X12202670Y-9572533D01*
X12202670Y-9572533D02*
X12212193Y-9591581D01*
X12212193Y-9591581D02*
X12221717Y-9629676D01*
X12221717Y-9629676D02*
X12221717Y-9677295D01*
X12221717Y-9677295D02*
X12212193Y-9715390D01*
X12212193Y-9715390D02*
X12202670Y-9734438D01*
X12202670Y-9734438D02*
X12193146Y-9743962D01*
X12193146Y-9743962D02*
X12174098Y-9753486D01*
X12174098Y-9753486D02*
X12155051Y-9753486D01*
X12155051Y-9753486D02*
X12136003Y-9743962D01*
X12136003Y-9743962D02*
X12126479Y-9734438D01*
X12126479Y-9734438D02*
X12116955Y-9715390D01*
X12116955Y-9715390D02*
X12107432Y-9677295D01*
X12107432Y-9677295D02*
X12107432Y-9629676D01*
X12107432Y-9629676D02*
X12116955Y-9591581D01*
X12116955Y-9591581D02*
X12126479Y-9572533D01*
X12126479Y-9572533D02*
X12136003Y-9563010D01*
X12136003Y-9563010D02*
X12155051Y-9553486D01*
X12345527Y-9553486D02*
X12364574Y-9553486D01*
X12364574Y-9553486D02*
X12383622Y-9563010D01*
X12383622Y-9563010D02*
X12393146Y-9572533D01*
X12393146Y-9572533D02*
X12402670Y-9591581D01*
X12402670Y-9591581D02*
X12412193Y-9629676D01*
X12412193Y-9629676D02*
X12412193Y-9677295D01*
X12412193Y-9677295D02*
X12402670Y-9715390D01*
X12402670Y-9715390D02*
X12393146Y-9734438D01*
X12393146Y-9734438D02*
X12383622Y-9743962D01*
X12383622Y-9743962D02*
X12364574Y-9753486D01*
X12364574Y-9753486D02*
X12345527Y-9753486D01*
X12345527Y-9753486D02*
X12326479Y-9743962D01*
X12326479Y-9743962D02*
X12316955Y-9734438D01*
X12316955Y-9734438D02*
X12307432Y-9715390D01*
X12307432Y-9715390D02*
X12297908Y-9677295D01*
X12297908Y-9677295D02*
X12297908Y-9629676D01*
X12297908Y-9629676D02*
X12307432Y-9591581D01*
X12307432Y-9591581D02*
X12316955Y-9572533D01*
X12316955Y-9572533D02*
X12326479Y-9563010D01*
X12326479Y-9563010D02*
X12345527Y-9553486D01*
X12497908Y-9753486D02*
X12497908Y-9620152D01*
X12497908Y-9639200D02*
X12507432Y-9629676D01*
X12507432Y-9629676D02*
X12526479Y-9620152D01*
X12526479Y-9620152D02*
X12555051Y-9620152D01*
X12555051Y-9620152D02*
X12574098Y-9629676D01*
X12574098Y-9629676D02*
X12583622Y-9648724D01*
X12583622Y-9648724D02*
X12583622Y-9753486D01*
X12583622Y-9648724D02*
X12593146Y-9629676D01*
X12593146Y-9629676D02*
X12612193Y-9620152D01*
X12612193Y-9620152D02*
X12640765Y-9620152D01*
X12640765Y-9620152D02*
X12659813Y-9629676D01*
X12659813Y-9629676D02*
X12669336Y-9648724D01*
X12669336Y-9648724D02*
X12669336Y-9753486D01*
X12764574Y-9753486D02*
X12764574Y-9620152D01*
X12764574Y-9639200D02*
X12774098Y-9629676D01*
X12774098Y-9629676D02*
X12793146Y-9620152D01*
X12793146Y-9620152D02*
X12821717Y-9620152D01*
X12821717Y-9620152D02*
X12840765Y-9629676D01*
X12840765Y-9629676D02*
X12850289Y-9648724D01*
X12850289Y-9648724D02*
X12850289Y-9753486D01*
X12850289Y-9648724D02*
X12859813Y-9629676D01*
X12859813Y-9629676D02*
X12878860Y-9620152D01*
X12878860Y-9620152D02*
X12907432Y-9620152D01*
X12907432Y-9620152D02*
X12926479Y-9629676D01*
X12926479Y-9629676D02*
X12936003Y-9648724D01*
X12936003Y-9648724D02*
X12936003Y-9753486D01*
X13326479Y-9543962D02*
X13155051Y-9801105D01*
X13583622Y-9553486D02*
X13602670Y-9553486D01*
X13602670Y-9553486D02*
X13621717Y-9563010D01*
X13621717Y-9563010D02*
X13631241Y-9572533D01*
X13631241Y-9572533D02*
X13640765Y-9591581D01*
X13640765Y-9591581D02*
X13650289Y-9629676D01*
X13650289Y-9629676D02*
X13650289Y-9677295D01*
X13650289Y-9677295D02*
X13640765Y-9715390D01*
X13640765Y-9715390D02*
X13631241Y-9734438D01*
X13631241Y-9734438D02*
X13621717Y-9743962D01*
X13621717Y-9743962D02*
X13602670Y-9753486D01*
X13602670Y-9753486D02*
X13583622Y-9753486D01*
X13583622Y-9753486D02*
X13564575Y-9743962D01*
X13564575Y-9743962D02*
X13555051Y-9734438D01*
X13555051Y-9734438D02*
X13545527Y-9715390D01*
X13545527Y-9715390D02*
X13536003Y-9677295D01*
X13536003Y-9677295D02*
X13536003Y-9629676D01*
X13536003Y-9629676D02*
X13545527Y-9591581D01*
X13545527Y-9591581D02*
X13555051Y-9572533D01*
X13555051Y-9572533D02*
X13564575Y-9563010D01*
X13564575Y-9563010D02*
X13583622Y-9553486D01*
X13736003Y-9734438D02*
X13745527Y-9743962D01*
X13745527Y-9743962D02*
X13736003Y-9753486D01*
X13736003Y-9753486D02*
X13726479Y-9743962D01*
X13726479Y-9743962D02*
X13736003Y-9734438D01*
X13736003Y-9734438D02*
X13736003Y-9753486D01*
X13869336Y-9553486D02*
X13888384Y-9553486D01*
X13888384Y-9553486D02*
X13907432Y-9563010D01*
X13907432Y-9563010D02*
X13916956Y-9572533D01*
X13916956Y-9572533D02*
X13926479Y-9591581D01*
X13926479Y-9591581D02*
X13936003Y-9629676D01*
X13936003Y-9629676D02*
X13936003Y-9677295D01*
X13936003Y-9677295D02*
X13926479Y-9715390D01*
X13926479Y-9715390D02*
X13916956Y-9734438D01*
X13916956Y-9734438D02*
X13907432Y-9743962D01*
X13907432Y-9743962D02*
X13888384Y-9753486D01*
X13888384Y-9753486D02*
X13869336Y-9753486D01*
X13869336Y-9753486D02*
X13850289Y-9743962D01*
X13850289Y-9743962D02*
X13840765Y-9734438D01*
X13840765Y-9734438D02*
X13831241Y-9715390D01*
X13831241Y-9715390D02*
X13821717Y-9677295D01*
X13821717Y-9677295D02*
X13821717Y-9629676D01*
X13821717Y-9629676D02*
X13831241Y-9591581D01*
X13831241Y-9591581D02*
X13840765Y-9572533D01*
X13840765Y-9572533D02*
X13850289Y-9563010D01*
X13850289Y-9563010D02*
X13869336Y-9553486D01*
X14002670Y-9553486D02*
X14126479Y-9553486D01*
X14126479Y-9553486D02*
X14059813Y-9629676D01*
X14059813Y-9629676D02*
X14088384Y-9629676D01*
X14088384Y-9629676D02*
X14107432Y-9639200D01*
X14107432Y-9639200D02*
X14116956Y-9648724D01*
X14116956Y-9648724D02*
X14126479Y-9667771D01*
X14126479Y-9667771D02*
X14126479Y-9715390D01*
X14126479Y-9715390D02*
X14116956Y-9734438D01*
X14116956Y-9734438D02*
X14107432Y-9743962D01*
X14107432Y-9743962D02*
X14088384Y-9753486D01*
X14088384Y-9753486D02*
X14031241Y-9753486D01*
X14031241Y-9753486D02*
X14012194Y-9743962D01*
X14012194Y-9743962D02*
X14002670Y-9734438D01*
X14316956Y-9753486D02*
X14202670Y-9753486D01*
X14259813Y-9753486D02*
X14259813Y-9553486D01*
X14259813Y-9553486D02*
X14240765Y-9582057D01*
X14240765Y-9582057D02*
X14221717Y-9601105D01*
X14221717Y-9601105D02*
X14202670Y-9610629D01*
X14497908Y-9553486D02*
X14402670Y-9553486D01*
X14402670Y-9553486D02*
X14393146Y-9648724D01*
X14393146Y-9648724D02*
X14402670Y-9639200D01*
X14402670Y-9639200D02*
X14421717Y-9629676D01*
X14421717Y-9629676D02*
X14469337Y-9629676D01*
X14469337Y-9629676D02*
X14488384Y-9639200D01*
X14488384Y-9639200D02*
X14497908Y-9648724D01*
X14497908Y-9648724D02*
X14507432Y-9667771D01*
X14507432Y-9667771D02*
X14507432Y-9715390D01*
X14507432Y-9715390D02*
X14497908Y-9734438D01*
X14497908Y-9734438D02*
X14488384Y-9743962D01*
X14488384Y-9743962D02*
X14469337Y-9753486D01*
X14469337Y-9753486D02*
X14421717Y-9753486D01*
X14421717Y-9753486D02*
X14402670Y-9743962D01*
X14402670Y-9743962D02*
X14393146Y-9734438D01*
X14583622Y-9553486D02*
X14583622Y-9591581D01*
X14659813Y-9553486D02*
X14659813Y-9591581D01*
X14955051Y-9829676D02*
X14945527Y-9820152D01*
X14945527Y-9820152D02*
X14926479Y-9791581D01*
X14926479Y-9791581D02*
X14916956Y-9772533D01*
X14916956Y-9772533D02*
X14907432Y-9743962D01*
X14907432Y-9743962D02*
X14897908Y-9696343D01*
X14897908Y-9696343D02*
X14897908Y-9658248D01*
X14897908Y-9658248D02*
X14907432Y-9610629D01*
X14907432Y-9610629D02*
X14916956Y-9582057D01*
X14916956Y-9582057D02*
X14926479Y-9563010D01*
X14926479Y-9563010D02*
X14945527Y-9534438D01*
X14945527Y-9534438D02*
X14955051Y-9524914D01*
X15069337Y-9553486D02*
X15088384Y-9553486D01*
X15088384Y-9553486D02*
X15107432Y-9563010D01*
X15107432Y-9563010D02*
X15116956Y-9572533D01*
X15116956Y-9572533D02*
X15126479Y-9591581D01*
X15126479Y-9591581D02*
X15136003Y-9629676D01*
X15136003Y-9629676D02*
X15136003Y-9677295D01*
X15136003Y-9677295D02*
X15126479Y-9715390D01*
X15126479Y-9715390D02*
X15116956Y-9734438D01*
X15116956Y-9734438D02*
X15107432Y-9743962D01*
X15107432Y-9743962D02*
X15088384Y-9753486D01*
X15088384Y-9753486D02*
X15069337Y-9753486D01*
X15069337Y-9753486D02*
X15050289Y-9743962D01*
X15050289Y-9743962D02*
X15040765Y-9734438D01*
X15040765Y-9734438D02*
X15031241Y-9715390D01*
X15031241Y-9715390D02*
X15021718Y-9677295D01*
X15021718Y-9677295D02*
X15021718Y-9629676D01*
X15021718Y-9629676D02*
X15031241Y-9591581D01*
X15031241Y-9591581D02*
X15040765Y-9572533D01*
X15040765Y-9572533D02*
X15050289Y-9563010D01*
X15050289Y-9563010D02*
X15069337Y-9553486D01*
X15374099Y-9753486D02*
X15374099Y-9553486D01*
X15459813Y-9753486D02*
X15459813Y-9648724D01*
X15459813Y-9648724D02*
X15450289Y-9629676D01*
X15450289Y-9629676D02*
X15431241Y-9620152D01*
X15431241Y-9620152D02*
X15402670Y-9620152D01*
X15402670Y-9620152D02*
X15383622Y-9629676D01*
X15383622Y-9629676D02*
X15374099Y-9639200D01*
X15583622Y-9753486D02*
X15564575Y-9743962D01*
X15564575Y-9743962D02*
X15555051Y-9734438D01*
X15555051Y-9734438D02*
X15545527Y-9715390D01*
X15545527Y-9715390D02*
X15545527Y-9658248D01*
X15545527Y-9658248D02*
X15555051Y-9639200D01*
X15555051Y-9639200D02*
X15564575Y-9629676D01*
X15564575Y-9629676D02*
X15583622Y-9620152D01*
X15583622Y-9620152D02*
X15612194Y-9620152D01*
X15612194Y-9620152D02*
X15631241Y-9629676D01*
X15631241Y-9629676D02*
X15640765Y-9639200D01*
X15640765Y-9639200D02*
X15650289Y-9658248D01*
X15650289Y-9658248D02*
X15650289Y-9715390D01*
X15650289Y-9715390D02*
X15640765Y-9734438D01*
X15640765Y-9734438D02*
X15631241Y-9743962D01*
X15631241Y-9743962D02*
X15612194Y-9753486D01*
X15612194Y-9753486D02*
X15583622Y-9753486D01*
X15764575Y-9753486D02*
X15745527Y-9743962D01*
X15745527Y-9743962D02*
X15736003Y-9724914D01*
X15736003Y-9724914D02*
X15736003Y-9553486D01*
X15916956Y-9743962D02*
X15897908Y-9753486D01*
X15897908Y-9753486D02*
X15859813Y-9753486D01*
X15859813Y-9753486D02*
X15840765Y-9743962D01*
X15840765Y-9743962D02*
X15831241Y-9724914D01*
X15831241Y-9724914D02*
X15831241Y-9648724D01*
X15831241Y-9648724D02*
X15840765Y-9629676D01*
X15840765Y-9629676D02*
X15859813Y-9620152D01*
X15859813Y-9620152D02*
X15897908Y-9620152D01*
X15897908Y-9620152D02*
X15916956Y-9629676D01*
X15916956Y-9629676D02*
X15926480Y-9648724D01*
X15926480Y-9648724D02*
X15926480Y-9667771D01*
X15926480Y-9667771D02*
X15831241Y-9686819D01*
X16002670Y-9743962D02*
X16021718Y-9753486D01*
X16021718Y-9753486D02*
X16059813Y-9753486D01*
X16059813Y-9753486D02*
X16078861Y-9743962D01*
X16078861Y-9743962D02*
X16088384Y-9724914D01*
X16088384Y-9724914D02*
X16088384Y-9715390D01*
X16088384Y-9715390D02*
X16078861Y-9696343D01*
X16078861Y-9696343D02*
X16059813Y-9686819D01*
X16059813Y-9686819D02*
X16031241Y-9686819D01*
X16031241Y-9686819D02*
X16012194Y-9677295D01*
X16012194Y-9677295D02*
X16002670Y-9658248D01*
X16002670Y-9658248D02*
X16002670Y-9648724D01*
X16002670Y-9648724D02*
X16012194Y-9629676D01*
X16012194Y-9629676D02*
X16031241Y-9620152D01*
X16031241Y-9620152D02*
X16059813Y-9620152D01*
X16059813Y-9620152D02*
X16078861Y-9629676D01*
X16326480Y-9677295D02*
X16478861Y-9677295D01*
X16402670Y-9753486D02*
X16402670Y-9601105D01*
X16716956Y-9572533D02*
X16726480Y-9563010D01*
X16726480Y-9563010D02*
X16745527Y-9553486D01*
X16745527Y-9553486D02*
X16793146Y-9553486D01*
X16793146Y-9553486D02*
X16812194Y-9563010D01*
X16812194Y-9563010D02*
X16821718Y-9572533D01*
X16821718Y-9572533D02*
X16831242Y-9591581D01*
X16831242Y-9591581D02*
X16831242Y-9610629D01*
X16831242Y-9610629D02*
X16821718Y-9639200D01*
X16821718Y-9639200D02*
X16707432Y-9753486D01*
X16707432Y-9753486D02*
X16831242Y-9753486D01*
X17059813Y-9743962D02*
X17078861Y-9753486D01*
X17078861Y-9753486D02*
X17116956Y-9753486D01*
X17116956Y-9753486D02*
X17136004Y-9743962D01*
X17136004Y-9743962D02*
X17145527Y-9724914D01*
X17145527Y-9724914D02*
X17145527Y-9715390D01*
X17145527Y-9715390D02*
X17136004Y-9696343D01*
X17136004Y-9696343D02*
X17116956Y-9686819D01*
X17116956Y-9686819D02*
X17088385Y-9686819D01*
X17088385Y-9686819D02*
X17069337Y-9677295D01*
X17069337Y-9677295D02*
X17059813Y-9658248D01*
X17059813Y-9658248D02*
X17059813Y-9648724D01*
X17059813Y-9648724D02*
X17069337Y-9629676D01*
X17069337Y-9629676D02*
X17088385Y-9620152D01*
X17088385Y-9620152D02*
X17116956Y-9620152D01*
X17116956Y-9620152D02*
X17136004Y-9629676D01*
X17259813Y-9753486D02*
X17240766Y-9743962D01*
X17240766Y-9743962D02*
X17231242Y-9724914D01*
X17231242Y-9724914D02*
X17231242Y-9553486D01*
X17364575Y-9753486D02*
X17345527Y-9743962D01*
X17345527Y-9743962D02*
X17336004Y-9734438D01*
X17336004Y-9734438D02*
X17326480Y-9715390D01*
X17326480Y-9715390D02*
X17326480Y-9658248D01*
X17326480Y-9658248D02*
X17336004Y-9639200D01*
X17336004Y-9639200D02*
X17345527Y-9629676D01*
X17345527Y-9629676D02*
X17364575Y-9620152D01*
X17364575Y-9620152D02*
X17393147Y-9620152D01*
X17393147Y-9620152D02*
X17412194Y-9629676D01*
X17412194Y-9629676D02*
X17421718Y-9639200D01*
X17421718Y-9639200D02*
X17431242Y-9658248D01*
X17431242Y-9658248D02*
X17431242Y-9715390D01*
X17431242Y-9715390D02*
X17421718Y-9734438D01*
X17421718Y-9734438D02*
X17412194Y-9743962D01*
X17412194Y-9743962D02*
X17393147Y-9753486D01*
X17393147Y-9753486D02*
X17364575Y-9753486D01*
X17488385Y-9620152D02*
X17564575Y-9620152D01*
X17516956Y-9553486D02*
X17516956Y-9724914D01*
X17516956Y-9724914D02*
X17526480Y-9743962D01*
X17526480Y-9743962D02*
X17545527Y-9753486D01*
X17545527Y-9753486D02*
X17564575Y-9753486D01*
X17621718Y-9743962D02*
X17640766Y-9753486D01*
X17640766Y-9753486D02*
X17678861Y-9753486D01*
X17678861Y-9753486D02*
X17697908Y-9743962D01*
X17697908Y-9743962D02*
X17707432Y-9724914D01*
X17707432Y-9724914D02*
X17707432Y-9715390D01*
X17707432Y-9715390D02*
X17697908Y-9696343D01*
X17697908Y-9696343D02*
X17678861Y-9686819D01*
X17678861Y-9686819D02*
X17650289Y-9686819D01*
X17650289Y-9686819D02*
X17631242Y-9677295D01*
X17631242Y-9677295D02*
X17621718Y-9658248D01*
X17621718Y-9658248D02*
X17621718Y-9648724D01*
X17621718Y-9648724D02*
X17631242Y-9629676D01*
X17631242Y-9629676D02*
X17650289Y-9620152D01*
X17650289Y-9620152D02*
X17678861Y-9620152D01*
X17678861Y-9620152D02*
X17697908Y-9629676D01*
X17774099Y-9829676D02*
X17783623Y-9820152D01*
X17783623Y-9820152D02*
X17802670Y-9791581D01*
X17802670Y-9791581D02*
X17812194Y-9772533D01*
X17812194Y-9772533D02*
X17821718Y-9743962D01*
X17821718Y-9743962D02*
X17831242Y-9696343D01*
X17831242Y-9696343D02*
X17831242Y-9658248D01*
X17831242Y-9658248D02*
X17821718Y-9610629D01*
X17821718Y-9610629D02*
X17812194Y-9582057D01*
X17812194Y-9582057D02*
X17802670Y-9563010D01*
X17802670Y-9563010D02*
X17783623Y-9534438D01*
X17783623Y-9534438D02*
X17774099Y-9524914D01*
D11*
X11334988Y-9971002D02*
X11379988Y-9926002D01*
X11334988Y-9881002D01*
X11289988Y-9926002D01*
X11334988Y-9971002D01*
D10*
X11678860Y-9817486D02*
X11697908Y-9817486D01*
X11697908Y-9817486D02*
X11716955Y-9827010D01*
X11716955Y-9827010D02*
X11726479Y-9836533D01*
X11726479Y-9836533D02*
X11736003Y-9855581D01*
X11736003Y-9855581D02*
X11745527Y-9893676D01*
X11745527Y-9893676D02*
X11745527Y-9941295D01*
X11745527Y-9941295D02*
X11736003Y-9979390D01*
X11736003Y-9979390D02*
X11726479Y-9998438D01*
X11726479Y-9998438D02*
X11716955Y-10007962D01*
X11716955Y-10007962D02*
X11697908Y-10017486D01*
X11697908Y-10017486D02*
X11678860Y-10017486D01*
X11678860Y-10017486D02*
X11659812Y-10007962D01*
X11659812Y-10007962D02*
X11650289Y-9998438D01*
X11650289Y-9998438D02*
X11640765Y-9979390D01*
X11640765Y-9979390D02*
X11631241Y-9941295D01*
X11631241Y-9941295D02*
X11631241Y-9893676D01*
X11631241Y-9893676D02*
X11640765Y-9855581D01*
X11640765Y-9855581D02*
X11650289Y-9836533D01*
X11650289Y-9836533D02*
X11659812Y-9827010D01*
X11659812Y-9827010D02*
X11678860Y-9817486D01*
X11831241Y-9998438D02*
X11840765Y-10007962D01*
X11840765Y-10007962D02*
X11831241Y-10017486D01*
X11831241Y-10017486D02*
X11821717Y-10007962D01*
X11821717Y-10007962D02*
X11831241Y-9998438D01*
X11831241Y-9998438D02*
X11831241Y-10017486D01*
X11936003Y-10017486D02*
X11974098Y-10017486D01*
X11974098Y-10017486D02*
X11993146Y-10007962D01*
X11993146Y-10007962D02*
X12002670Y-9998438D01*
X12002670Y-9998438D02*
X12021717Y-9969867D01*
X12021717Y-9969867D02*
X12031241Y-9931771D01*
X12031241Y-9931771D02*
X12031241Y-9855581D01*
X12031241Y-9855581D02*
X12021717Y-9836533D01*
X12021717Y-9836533D02*
X12012193Y-9827010D01*
X12012193Y-9827010D02*
X11993146Y-9817486D01*
X11993146Y-9817486D02*
X11955051Y-9817486D01*
X11955051Y-9817486D02*
X11936003Y-9827010D01*
X11936003Y-9827010D02*
X11926479Y-9836533D01*
X11926479Y-9836533D02*
X11916955Y-9855581D01*
X11916955Y-9855581D02*
X11916955Y-9903200D01*
X11916955Y-9903200D02*
X11926479Y-9922248D01*
X11926479Y-9922248D02*
X11936003Y-9931771D01*
X11936003Y-9931771D02*
X11955051Y-9941295D01*
X11955051Y-9941295D02*
X11993146Y-9941295D01*
X11993146Y-9941295D02*
X12012193Y-9931771D01*
X12012193Y-9931771D02*
X12021717Y-9922248D01*
X12021717Y-9922248D02*
X12031241Y-9903200D01*
X12155051Y-9817486D02*
X12174098Y-9817486D01*
X12174098Y-9817486D02*
X12193146Y-9827010D01*
X12193146Y-9827010D02*
X12202670Y-9836533D01*
X12202670Y-9836533D02*
X12212193Y-9855581D01*
X12212193Y-9855581D02*
X12221717Y-9893676D01*
X12221717Y-9893676D02*
X12221717Y-9941295D01*
X12221717Y-9941295D02*
X12212193Y-9979390D01*
X12212193Y-9979390D02*
X12202670Y-9998438D01*
X12202670Y-9998438D02*
X12193146Y-10007962D01*
X12193146Y-10007962D02*
X12174098Y-10017486D01*
X12174098Y-10017486D02*
X12155051Y-10017486D01*
X12155051Y-10017486D02*
X12136003Y-10007962D01*
X12136003Y-10007962D02*
X12126479Y-9998438D01*
X12126479Y-9998438D02*
X12116955Y-9979390D01*
X12116955Y-9979390D02*
X12107432Y-9941295D01*
X12107432Y-9941295D02*
X12107432Y-9893676D01*
X12107432Y-9893676D02*
X12116955Y-9855581D01*
X12116955Y-9855581D02*
X12126479Y-9836533D01*
X12126479Y-9836533D02*
X12136003Y-9827010D01*
X12136003Y-9827010D02*
X12155051Y-9817486D01*
X12345527Y-9817486D02*
X12364574Y-9817486D01*
X12364574Y-9817486D02*
X12383622Y-9827010D01*
X12383622Y-9827010D02*
X12393146Y-9836533D01*
X12393146Y-9836533D02*
X12402670Y-9855581D01*
X12402670Y-9855581D02*
X12412193Y-9893676D01*
X12412193Y-9893676D02*
X12412193Y-9941295D01*
X12412193Y-9941295D02*
X12402670Y-9979390D01*
X12402670Y-9979390D02*
X12393146Y-9998438D01*
X12393146Y-9998438D02*
X12383622Y-10007962D01*
X12383622Y-10007962D02*
X12364574Y-10017486D01*
X12364574Y-10017486D02*
X12345527Y-10017486D01*
X12345527Y-10017486D02*
X12326479Y-10007962D01*
X12326479Y-10007962D02*
X12316955Y-9998438D01*
X12316955Y-9998438D02*
X12307432Y-9979390D01*
X12307432Y-9979390D02*
X12297908Y-9941295D01*
X12297908Y-9941295D02*
X12297908Y-9893676D01*
X12297908Y-9893676D02*
X12307432Y-9855581D01*
X12307432Y-9855581D02*
X12316955Y-9836533D01*
X12316955Y-9836533D02*
X12326479Y-9827010D01*
X12326479Y-9827010D02*
X12345527Y-9817486D01*
X12497908Y-10017486D02*
X12497908Y-9884152D01*
X12497908Y-9903200D02*
X12507432Y-9893676D01*
X12507432Y-9893676D02*
X12526479Y-9884152D01*
X12526479Y-9884152D02*
X12555051Y-9884152D01*
X12555051Y-9884152D02*
X12574098Y-9893676D01*
X12574098Y-9893676D02*
X12583622Y-9912724D01*
X12583622Y-9912724D02*
X12583622Y-10017486D01*
X12583622Y-9912724D02*
X12593146Y-9893676D01*
X12593146Y-9893676D02*
X12612193Y-9884152D01*
X12612193Y-9884152D02*
X12640765Y-9884152D01*
X12640765Y-9884152D02*
X12659813Y-9893676D01*
X12659813Y-9893676D02*
X12669336Y-9912724D01*
X12669336Y-9912724D02*
X12669336Y-10017486D01*
X12764574Y-10017486D02*
X12764574Y-9884152D01*
X12764574Y-9903200D02*
X12774098Y-9893676D01*
X12774098Y-9893676D02*
X12793146Y-9884152D01*
X12793146Y-9884152D02*
X12821717Y-9884152D01*
X12821717Y-9884152D02*
X12840765Y-9893676D01*
X12840765Y-9893676D02*
X12850289Y-9912724D01*
X12850289Y-9912724D02*
X12850289Y-10017486D01*
X12850289Y-9912724D02*
X12859813Y-9893676D01*
X12859813Y-9893676D02*
X12878860Y-9884152D01*
X12878860Y-9884152D02*
X12907432Y-9884152D01*
X12907432Y-9884152D02*
X12926479Y-9893676D01*
X12926479Y-9893676D02*
X12936003Y-9912724D01*
X12936003Y-9912724D02*
X12936003Y-10017486D01*
X13326479Y-9807962D02*
X13155051Y-10065105D01*
X13583622Y-9817486D02*
X13602670Y-9817486D01*
X13602670Y-9817486D02*
X13621717Y-9827010D01*
X13621717Y-9827010D02*
X13631241Y-9836533D01*
X13631241Y-9836533D02*
X13640765Y-9855581D01*
X13640765Y-9855581D02*
X13650289Y-9893676D01*
X13650289Y-9893676D02*
X13650289Y-9941295D01*
X13650289Y-9941295D02*
X13640765Y-9979390D01*
X13640765Y-9979390D02*
X13631241Y-9998438D01*
X13631241Y-9998438D02*
X13621717Y-10007962D01*
X13621717Y-10007962D02*
X13602670Y-10017486D01*
X13602670Y-10017486D02*
X13583622Y-10017486D01*
X13583622Y-10017486D02*
X13564575Y-10007962D01*
X13564575Y-10007962D02*
X13555051Y-9998438D01*
X13555051Y-9998438D02*
X13545527Y-9979390D01*
X13545527Y-9979390D02*
X13536003Y-9941295D01*
X13536003Y-9941295D02*
X13536003Y-9893676D01*
X13536003Y-9893676D02*
X13545527Y-9855581D01*
X13545527Y-9855581D02*
X13555051Y-9836533D01*
X13555051Y-9836533D02*
X13564575Y-9827010D01*
X13564575Y-9827010D02*
X13583622Y-9817486D01*
X13736003Y-9998438D02*
X13745527Y-10007962D01*
X13745527Y-10007962D02*
X13736003Y-10017486D01*
X13736003Y-10017486D02*
X13726479Y-10007962D01*
X13726479Y-10007962D02*
X13736003Y-9998438D01*
X13736003Y-9998438D02*
X13736003Y-10017486D01*
X13869336Y-9817486D02*
X13888384Y-9817486D01*
X13888384Y-9817486D02*
X13907432Y-9827010D01*
X13907432Y-9827010D02*
X13916956Y-9836533D01*
X13916956Y-9836533D02*
X13926479Y-9855581D01*
X13926479Y-9855581D02*
X13936003Y-9893676D01*
X13936003Y-9893676D02*
X13936003Y-9941295D01*
X13936003Y-9941295D02*
X13926479Y-9979390D01*
X13926479Y-9979390D02*
X13916956Y-9998438D01*
X13916956Y-9998438D02*
X13907432Y-10007962D01*
X13907432Y-10007962D02*
X13888384Y-10017486D01*
X13888384Y-10017486D02*
X13869336Y-10017486D01*
X13869336Y-10017486D02*
X13850289Y-10007962D01*
X13850289Y-10007962D02*
X13840765Y-9998438D01*
X13840765Y-9998438D02*
X13831241Y-9979390D01*
X13831241Y-9979390D02*
X13821717Y-9941295D01*
X13821717Y-9941295D02*
X13821717Y-9893676D01*
X13821717Y-9893676D02*
X13831241Y-9855581D01*
X13831241Y-9855581D02*
X13840765Y-9836533D01*
X13840765Y-9836533D02*
X13850289Y-9827010D01*
X13850289Y-9827010D02*
X13869336Y-9817486D01*
X14002670Y-9817486D02*
X14126479Y-9817486D01*
X14126479Y-9817486D02*
X14059813Y-9893676D01*
X14059813Y-9893676D02*
X14088384Y-9893676D01*
X14088384Y-9893676D02*
X14107432Y-9903200D01*
X14107432Y-9903200D02*
X14116956Y-9912724D01*
X14116956Y-9912724D02*
X14126479Y-9931771D01*
X14126479Y-9931771D02*
X14126479Y-9979390D01*
X14126479Y-9979390D02*
X14116956Y-9998438D01*
X14116956Y-9998438D02*
X14107432Y-10007962D01*
X14107432Y-10007962D02*
X14088384Y-10017486D01*
X14088384Y-10017486D02*
X14031241Y-10017486D01*
X14031241Y-10017486D02*
X14012194Y-10007962D01*
X14012194Y-10007962D02*
X14002670Y-9998438D01*
X14307432Y-9817486D02*
X14212194Y-9817486D01*
X14212194Y-9817486D02*
X14202670Y-9912724D01*
X14202670Y-9912724D02*
X14212194Y-9903200D01*
X14212194Y-9903200D02*
X14231241Y-9893676D01*
X14231241Y-9893676D02*
X14278860Y-9893676D01*
X14278860Y-9893676D02*
X14297908Y-9903200D01*
X14297908Y-9903200D02*
X14307432Y-9912724D01*
X14307432Y-9912724D02*
X14316956Y-9931771D01*
X14316956Y-9931771D02*
X14316956Y-9979390D01*
X14316956Y-9979390D02*
X14307432Y-9998438D01*
X14307432Y-9998438D02*
X14297908Y-10007962D01*
X14297908Y-10007962D02*
X14278860Y-10017486D01*
X14278860Y-10017486D02*
X14231241Y-10017486D01*
X14231241Y-10017486D02*
X14212194Y-10007962D01*
X14212194Y-10007962D02*
X14202670Y-9998438D01*
X14488384Y-9884152D02*
X14488384Y-10017486D01*
X14440765Y-9807962D02*
X14393146Y-9950819D01*
X14393146Y-9950819D02*
X14516956Y-9950819D01*
X14583622Y-9817486D02*
X14583622Y-9855581D01*
X14659813Y-9817486D02*
X14659813Y-9855581D01*
X14955051Y-10093676D02*
X14945527Y-10084152D01*
X14945527Y-10084152D02*
X14926479Y-10055581D01*
X14926479Y-10055581D02*
X14916956Y-10036533D01*
X14916956Y-10036533D02*
X14907432Y-10007962D01*
X14907432Y-10007962D02*
X14897908Y-9960343D01*
X14897908Y-9960343D02*
X14897908Y-9922248D01*
X14897908Y-9922248D02*
X14907432Y-9874629D01*
X14907432Y-9874629D02*
X14916956Y-9846057D01*
X14916956Y-9846057D02*
X14926479Y-9827010D01*
X14926479Y-9827010D02*
X14945527Y-9798438D01*
X14945527Y-9798438D02*
X14955051Y-9788914D01*
X15116956Y-9817486D02*
X15078860Y-9817486D01*
X15078860Y-9817486D02*
X15059813Y-9827010D01*
X15059813Y-9827010D02*
X15050289Y-9836533D01*
X15050289Y-9836533D02*
X15031241Y-9865105D01*
X15031241Y-9865105D02*
X15021718Y-9903200D01*
X15021718Y-9903200D02*
X15021718Y-9979390D01*
X15021718Y-9979390D02*
X15031241Y-9998438D01*
X15031241Y-9998438D02*
X15040765Y-10007962D01*
X15040765Y-10007962D02*
X15059813Y-10017486D01*
X15059813Y-10017486D02*
X15097908Y-10017486D01*
X15097908Y-10017486D02*
X15116956Y-10007962D01*
X15116956Y-10007962D02*
X15126479Y-9998438D01*
X15126479Y-9998438D02*
X15136003Y-9979390D01*
X15136003Y-9979390D02*
X15136003Y-9931771D01*
X15136003Y-9931771D02*
X15126479Y-9912724D01*
X15126479Y-9912724D02*
X15116956Y-9903200D01*
X15116956Y-9903200D02*
X15097908Y-9893676D01*
X15097908Y-9893676D02*
X15059813Y-9893676D01*
X15059813Y-9893676D02*
X15040765Y-9903200D01*
X15040765Y-9903200D02*
X15031241Y-9912724D01*
X15031241Y-9912724D02*
X15021718Y-9931771D01*
X15374099Y-10017486D02*
X15374099Y-9817486D01*
X15459813Y-10017486D02*
X15459813Y-9912724D01*
X15459813Y-9912724D02*
X15450289Y-9893676D01*
X15450289Y-9893676D02*
X15431241Y-9884152D01*
X15431241Y-9884152D02*
X15402670Y-9884152D01*
X15402670Y-9884152D02*
X15383622Y-9893676D01*
X15383622Y-9893676D02*
X15374099Y-9903200D01*
X15583622Y-10017486D02*
X15564575Y-10007962D01*
X15564575Y-10007962D02*
X15555051Y-9998438D01*
X15555051Y-9998438D02*
X15545527Y-9979390D01*
X15545527Y-9979390D02*
X15545527Y-9922248D01*
X15545527Y-9922248D02*
X15555051Y-9903200D01*
X15555051Y-9903200D02*
X15564575Y-9893676D01*
X15564575Y-9893676D02*
X15583622Y-9884152D01*
X15583622Y-9884152D02*
X15612194Y-9884152D01*
X15612194Y-9884152D02*
X15631241Y-9893676D01*
X15631241Y-9893676D02*
X15640765Y-9903200D01*
X15640765Y-9903200D02*
X15650289Y-9922248D01*
X15650289Y-9922248D02*
X15650289Y-9979390D01*
X15650289Y-9979390D02*
X15640765Y-9998438D01*
X15640765Y-9998438D02*
X15631241Y-10007962D01*
X15631241Y-10007962D02*
X15612194Y-10017486D01*
X15612194Y-10017486D02*
X15583622Y-10017486D01*
X15764575Y-10017486D02*
X15745527Y-10007962D01*
X15745527Y-10007962D02*
X15736003Y-9988914D01*
X15736003Y-9988914D02*
X15736003Y-9817486D01*
X15916956Y-10007962D02*
X15897908Y-10017486D01*
X15897908Y-10017486D02*
X15859813Y-10017486D01*
X15859813Y-10017486D02*
X15840765Y-10007962D01*
X15840765Y-10007962D02*
X15831241Y-9988914D01*
X15831241Y-9988914D02*
X15831241Y-9912724D01*
X15831241Y-9912724D02*
X15840765Y-9893676D01*
X15840765Y-9893676D02*
X15859813Y-9884152D01*
X15859813Y-9884152D02*
X15897908Y-9884152D01*
X15897908Y-9884152D02*
X15916956Y-9893676D01*
X15916956Y-9893676D02*
X15926480Y-9912724D01*
X15926480Y-9912724D02*
X15926480Y-9931771D01*
X15926480Y-9931771D02*
X15831241Y-9950819D01*
X16002670Y-10007962D02*
X16021718Y-10017486D01*
X16021718Y-10017486D02*
X16059813Y-10017486D01*
X16059813Y-10017486D02*
X16078861Y-10007962D01*
X16078861Y-10007962D02*
X16088384Y-9988914D01*
X16088384Y-9988914D02*
X16088384Y-9979390D01*
X16088384Y-9979390D02*
X16078861Y-9960343D01*
X16078861Y-9960343D02*
X16059813Y-9950819D01*
X16059813Y-9950819D02*
X16031241Y-9950819D01*
X16031241Y-9950819D02*
X16012194Y-9941295D01*
X16012194Y-9941295D02*
X16002670Y-9922248D01*
X16002670Y-9922248D02*
X16002670Y-9912724D01*
X16002670Y-9912724D02*
X16012194Y-9893676D01*
X16012194Y-9893676D02*
X16031241Y-9884152D01*
X16031241Y-9884152D02*
X16059813Y-9884152D01*
X16059813Y-9884152D02*
X16078861Y-9893676D01*
X16155051Y-10093676D02*
X16164575Y-10084152D01*
X16164575Y-10084152D02*
X16183622Y-10055581D01*
X16183622Y-10055581D02*
X16193146Y-10036533D01*
X16193146Y-10036533D02*
X16202670Y-10007962D01*
X16202670Y-10007962D02*
X16212194Y-9960343D01*
X16212194Y-9960343D02*
X16212194Y-9922248D01*
X16212194Y-9922248D02*
X16202670Y-9874629D01*
X16202670Y-9874629D02*
X16193146Y-9846057D01*
X16193146Y-9846057D02*
X16183622Y-9827010D01*
X16183622Y-9827010D02*
X16164575Y-9798438D01*
X16164575Y-9798438D02*
X16155051Y-9788914D01*
D11*
X11279988Y-10140002D02*
X11379988Y-10240002D01*
X11379988Y-10140002D02*
X11279988Y-10240002D01*
X11379988Y-10190002D02*
G75*
G02*
X11279988Y-10190002I-50000J0D01*
G01*
X11279988Y-10190002D02*
G75*
G02*
X11379988Y-10190002I50000J0D01*
G01*
D10*
X11745527Y-10281486D02*
X11631241Y-10281486D01*
X11688384Y-10281486D02*
X11688384Y-10081486D01*
X11688384Y-10081486D02*
X11669336Y-10110057D01*
X11669336Y-10110057D02*
X11650289Y-10129105D01*
X11650289Y-10129105D02*
X11631241Y-10138629D01*
X11831241Y-10262438D02*
X11840765Y-10271962D01*
X11840765Y-10271962D02*
X11831241Y-10281486D01*
X11831241Y-10281486D02*
X11821717Y-10271962D01*
X11821717Y-10271962D02*
X11831241Y-10262438D01*
X11831241Y-10262438D02*
X11831241Y-10281486D01*
X11964574Y-10081486D02*
X11983622Y-10081486D01*
X11983622Y-10081486D02*
X12002670Y-10091010D01*
X12002670Y-10091010D02*
X12012193Y-10100533D01*
X12012193Y-10100533D02*
X12021717Y-10119581D01*
X12021717Y-10119581D02*
X12031241Y-10157676D01*
X12031241Y-10157676D02*
X12031241Y-10205295D01*
X12031241Y-10205295D02*
X12021717Y-10243390D01*
X12021717Y-10243390D02*
X12012193Y-10262438D01*
X12012193Y-10262438D02*
X12002670Y-10271962D01*
X12002670Y-10271962D02*
X11983622Y-10281486D01*
X11983622Y-10281486D02*
X11964574Y-10281486D01*
X11964574Y-10281486D02*
X11945527Y-10271962D01*
X11945527Y-10271962D02*
X11936003Y-10262438D01*
X11936003Y-10262438D02*
X11926479Y-10243390D01*
X11926479Y-10243390D02*
X11916955Y-10205295D01*
X11916955Y-10205295D02*
X11916955Y-10157676D01*
X11916955Y-10157676D02*
X11926479Y-10119581D01*
X11926479Y-10119581D02*
X11936003Y-10100533D01*
X11936003Y-10100533D02*
X11945527Y-10091010D01*
X11945527Y-10091010D02*
X11964574Y-10081486D01*
X12155051Y-10081486D02*
X12174098Y-10081486D01*
X12174098Y-10081486D02*
X12193146Y-10091010D01*
X12193146Y-10091010D02*
X12202670Y-10100533D01*
X12202670Y-10100533D02*
X12212193Y-10119581D01*
X12212193Y-10119581D02*
X12221717Y-10157676D01*
X12221717Y-10157676D02*
X12221717Y-10205295D01*
X12221717Y-10205295D02*
X12212193Y-10243390D01*
X12212193Y-10243390D02*
X12202670Y-10262438D01*
X12202670Y-10262438D02*
X12193146Y-10271962D01*
X12193146Y-10271962D02*
X12174098Y-10281486D01*
X12174098Y-10281486D02*
X12155051Y-10281486D01*
X12155051Y-10281486D02*
X12136003Y-10271962D01*
X12136003Y-10271962D02*
X12126479Y-10262438D01*
X12126479Y-10262438D02*
X12116955Y-10243390D01*
X12116955Y-10243390D02*
X12107432Y-10205295D01*
X12107432Y-10205295D02*
X12107432Y-10157676D01*
X12107432Y-10157676D02*
X12116955Y-10119581D01*
X12116955Y-10119581D02*
X12126479Y-10100533D01*
X12126479Y-10100533D02*
X12136003Y-10091010D01*
X12136003Y-10091010D02*
X12155051Y-10081486D01*
X12345527Y-10081486D02*
X12364574Y-10081486D01*
X12364574Y-10081486D02*
X12383622Y-10091010D01*
X12383622Y-10091010D02*
X12393146Y-10100533D01*
X12393146Y-10100533D02*
X12402670Y-10119581D01*
X12402670Y-10119581D02*
X12412193Y-10157676D01*
X12412193Y-10157676D02*
X12412193Y-10205295D01*
X12412193Y-10205295D02*
X12402670Y-10243390D01*
X12402670Y-10243390D02*
X12393146Y-10262438D01*
X12393146Y-10262438D02*
X12383622Y-10271962D01*
X12383622Y-10271962D02*
X12364574Y-10281486D01*
X12364574Y-10281486D02*
X12345527Y-10281486D01*
X12345527Y-10281486D02*
X12326479Y-10271962D01*
X12326479Y-10271962D02*
X12316955Y-10262438D01*
X12316955Y-10262438D02*
X12307432Y-10243390D01*
X12307432Y-10243390D02*
X12297908Y-10205295D01*
X12297908Y-10205295D02*
X12297908Y-10157676D01*
X12297908Y-10157676D02*
X12307432Y-10119581D01*
X12307432Y-10119581D02*
X12316955Y-10100533D01*
X12316955Y-10100533D02*
X12326479Y-10091010D01*
X12326479Y-10091010D02*
X12345527Y-10081486D01*
X12497908Y-10281486D02*
X12497908Y-10148152D01*
X12497908Y-10167200D02*
X12507432Y-10157676D01*
X12507432Y-10157676D02*
X12526479Y-10148152D01*
X12526479Y-10148152D02*
X12555051Y-10148152D01*
X12555051Y-10148152D02*
X12574098Y-10157676D01*
X12574098Y-10157676D02*
X12583622Y-10176724D01*
X12583622Y-10176724D02*
X12583622Y-10281486D01*
X12583622Y-10176724D02*
X12593146Y-10157676D01*
X12593146Y-10157676D02*
X12612193Y-10148152D01*
X12612193Y-10148152D02*
X12640765Y-10148152D01*
X12640765Y-10148152D02*
X12659813Y-10157676D01*
X12659813Y-10157676D02*
X12669336Y-10176724D01*
X12669336Y-10176724D02*
X12669336Y-10281486D01*
X12764574Y-10281486D02*
X12764574Y-10148152D01*
X12764574Y-10167200D02*
X12774098Y-10157676D01*
X12774098Y-10157676D02*
X12793146Y-10148152D01*
X12793146Y-10148152D02*
X12821717Y-10148152D01*
X12821717Y-10148152D02*
X12840765Y-10157676D01*
X12840765Y-10157676D02*
X12850289Y-10176724D01*
X12850289Y-10176724D02*
X12850289Y-10281486D01*
X12850289Y-10176724D02*
X12859813Y-10157676D01*
X12859813Y-10157676D02*
X12878860Y-10148152D01*
X12878860Y-10148152D02*
X12907432Y-10148152D01*
X12907432Y-10148152D02*
X12926479Y-10157676D01*
X12926479Y-10157676D02*
X12936003Y-10176724D01*
X12936003Y-10176724D02*
X12936003Y-10281486D01*
X13326479Y-10071962D02*
X13155051Y-10329105D01*
X13583622Y-10081486D02*
X13602670Y-10081486D01*
X13602670Y-10081486D02*
X13621717Y-10091010D01*
X13621717Y-10091010D02*
X13631241Y-10100533D01*
X13631241Y-10100533D02*
X13640765Y-10119581D01*
X13640765Y-10119581D02*
X13650289Y-10157676D01*
X13650289Y-10157676D02*
X13650289Y-10205295D01*
X13650289Y-10205295D02*
X13640765Y-10243390D01*
X13640765Y-10243390D02*
X13631241Y-10262438D01*
X13631241Y-10262438D02*
X13621717Y-10271962D01*
X13621717Y-10271962D02*
X13602670Y-10281486D01*
X13602670Y-10281486D02*
X13583622Y-10281486D01*
X13583622Y-10281486D02*
X13564575Y-10271962D01*
X13564575Y-10271962D02*
X13555051Y-10262438D01*
X13555051Y-10262438D02*
X13545527Y-10243390D01*
X13545527Y-10243390D02*
X13536003Y-10205295D01*
X13536003Y-10205295D02*
X13536003Y-10157676D01*
X13536003Y-10157676D02*
X13545527Y-10119581D01*
X13545527Y-10119581D02*
X13555051Y-10100533D01*
X13555051Y-10100533D02*
X13564575Y-10091010D01*
X13564575Y-10091010D02*
X13583622Y-10081486D01*
X13736003Y-10262438D02*
X13745527Y-10271962D01*
X13745527Y-10271962D02*
X13736003Y-10281486D01*
X13736003Y-10281486D02*
X13726479Y-10271962D01*
X13726479Y-10271962D02*
X13736003Y-10262438D01*
X13736003Y-10262438D02*
X13736003Y-10281486D01*
X13869336Y-10081486D02*
X13888384Y-10081486D01*
X13888384Y-10081486D02*
X13907432Y-10091010D01*
X13907432Y-10091010D02*
X13916956Y-10100533D01*
X13916956Y-10100533D02*
X13926479Y-10119581D01*
X13926479Y-10119581D02*
X13936003Y-10157676D01*
X13936003Y-10157676D02*
X13936003Y-10205295D01*
X13936003Y-10205295D02*
X13926479Y-10243390D01*
X13926479Y-10243390D02*
X13916956Y-10262438D01*
X13916956Y-10262438D02*
X13907432Y-10271962D01*
X13907432Y-10271962D02*
X13888384Y-10281486D01*
X13888384Y-10281486D02*
X13869336Y-10281486D01*
X13869336Y-10281486D02*
X13850289Y-10271962D01*
X13850289Y-10271962D02*
X13840765Y-10262438D01*
X13840765Y-10262438D02*
X13831241Y-10243390D01*
X13831241Y-10243390D02*
X13821717Y-10205295D01*
X13821717Y-10205295D02*
X13821717Y-10157676D01*
X13821717Y-10157676D02*
X13831241Y-10119581D01*
X13831241Y-10119581D02*
X13840765Y-10100533D01*
X13840765Y-10100533D02*
X13850289Y-10091010D01*
X13850289Y-10091010D02*
X13869336Y-10081486D01*
X14002670Y-10081486D02*
X14126479Y-10081486D01*
X14126479Y-10081486D02*
X14059813Y-10157676D01*
X14059813Y-10157676D02*
X14088384Y-10157676D01*
X14088384Y-10157676D02*
X14107432Y-10167200D01*
X14107432Y-10167200D02*
X14116956Y-10176724D01*
X14116956Y-10176724D02*
X14126479Y-10195771D01*
X14126479Y-10195771D02*
X14126479Y-10243390D01*
X14126479Y-10243390D02*
X14116956Y-10262438D01*
X14116956Y-10262438D02*
X14107432Y-10271962D01*
X14107432Y-10271962D02*
X14088384Y-10281486D01*
X14088384Y-10281486D02*
X14031241Y-10281486D01*
X14031241Y-10281486D02*
X14012194Y-10271962D01*
X14012194Y-10271962D02*
X14002670Y-10262438D01*
X14221717Y-10281486D02*
X14259813Y-10281486D01*
X14259813Y-10281486D02*
X14278860Y-10271962D01*
X14278860Y-10271962D02*
X14288384Y-10262438D01*
X14288384Y-10262438D02*
X14307432Y-10233867D01*
X14307432Y-10233867D02*
X14316956Y-10195771D01*
X14316956Y-10195771D02*
X14316956Y-10119581D01*
X14316956Y-10119581D02*
X14307432Y-10100533D01*
X14307432Y-10100533D02*
X14297908Y-10091010D01*
X14297908Y-10091010D02*
X14278860Y-10081486D01*
X14278860Y-10081486D02*
X14240765Y-10081486D01*
X14240765Y-10081486D02*
X14221717Y-10091010D01*
X14221717Y-10091010D02*
X14212194Y-10100533D01*
X14212194Y-10100533D02*
X14202670Y-10119581D01*
X14202670Y-10119581D02*
X14202670Y-10167200D01*
X14202670Y-10167200D02*
X14212194Y-10186248D01*
X14212194Y-10186248D02*
X14221717Y-10195771D01*
X14221717Y-10195771D02*
X14240765Y-10205295D01*
X14240765Y-10205295D02*
X14278860Y-10205295D01*
X14278860Y-10205295D02*
X14297908Y-10195771D01*
X14297908Y-10195771D02*
X14307432Y-10186248D01*
X14307432Y-10186248D02*
X14316956Y-10167200D01*
X14488384Y-10148152D02*
X14488384Y-10281486D01*
X14440765Y-10071962D02*
X14393146Y-10214819D01*
X14393146Y-10214819D02*
X14516956Y-10214819D01*
X14583622Y-10081486D02*
X14583622Y-10119581D01*
X14659813Y-10081486D02*
X14659813Y-10119581D01*
X14955051Y-10357676D02*
X14945527Y-10348152D01*
X14945527Y-10348152D02*
X14926479Y-10319581D01*
X14926479Y-10319581D02*
X14916956Y-10300533D01*
X14916956Y-10300533D02*
X14907432Y-10271962D01*
X14907432Y-10271962D02*
X14897908Y-10224343D01*
X14897908Y-10224343D02*
X14897908Y-10186248D01*
X14897908Y-10186248D02*
X14907432Y-10138629D01*
X14907432Y-10138629D02*
X14916956Y-10110057D01*
X14916956Y-10110057D02*
X14926479Y-10091010D01*
X14926479Y-10091010D02*
X14945527Y-10062438D01*
X14945527Y-10062438D02*
X14955051Y-10052914D01*
X15021718Y-10100533D02*
X15031241Y-10091010D01*
X15031241Y-10091010D02*
X15050289Y-10081486D01*
X15050289Y-10081486D02*
X15097908Y-10081486D01*
X15097908Y-10081486D02*
X15116956Y-10091010D01*
X15116956Y-10091010D02*
X15126479Y-10100533D01*
X15126479Y-10100533D02*
X15136003Y-10119581D01*
X15136003Y-10119581D02*
X15136003Y-10138629D01*
X15136003Y-10138629D02*
X15126479Y-10167200D01*
X15126479Y-10167200D02*
X15012194Y-10281486D01*
X15012194Y-10281486D02*
X15136003Y-10281486D01*
X15307432Y-10148152D02*
X15307432Y-10281486D01*
X15259813Y-10071962D02*
X15212194Y-10214819D01*
X15212194Y-10214819D02*
X15336003Y-10214819D01*
X15564575Y-10281486D02*
X15564575Y-10081486D01*
X15650289Y-10281486D02*
X15650289Y-10176724D01*
X15650289Y-10176724D02*
X15640765Y-10157676D01*
X15640765Y-10157676D02*
X15621718Y-10148152D01*
X15621718Y-10148152D02*
X15593146Y-10148152D01*
X15593146Y-10148152D02*
X15574099Y-10157676D01*
X15574099Y-10157676D02*
X15564575Y-10167200D01*
X15774099Y-10281486D02*
X15755051Y-10271962D01*
X15755051Y-10271962D02*
X15745527Y-10262438D01*
X15745527Y-10262438D02*
X15736003Y-10243390D01*
X15736003Y-10243390D02*
X15736003Y-10186248D01*
X15736003Y-10186248D02*
X15745527Y-10167200D01*
X15745527Y-10167200D02*
X15755051Y-10157676D01*
X15755051Y-10157676D02*
X15774099Y-10148152D01*
X15774099Y-10148152D02*
X15802670Y-10148152D01*
X15802670Y-10148152D02*
X15821718Y-10157676D01*
X15821718Y-10157676D02*
X15831241Y-10167200D01*
X15831241Y-10167200D02*
X15840765Y-10186248D01*
X15840765Y-10186248D02*
X15840765Y-10243390D01*
X15840765Y-10243390D02*
X15831241Y-10262438D01*
X15831241Y-10262438D02*
X15821718Y-10271962D01*
X15821718Y-10271962D02*
X15802670Y-10281486D01*
X15802670Y-10281486D02*
X15774099Y-10281486D01*
X15955051Y-10281486D02*
X15936003Y-10271962D01*
X15936003Y-10271962D02*
X15926480Y-10252914D01*
X15926480Y-10252914D02*
X15926480Y-10081486D01*
X16107432Y-10271962D02*
X16088384Y-10281486D01*
X16088384Y-10281486D02*
X16050289Y-10281486D01*
X16050289Y-10281486D02*
X16031241Y-10271962D01*
X16031241Y-10271962D02*
X16021718Y-10252914D01*
X16021718Y-10252914D02*
X16021718Y-10176724D01*
X16021718Y-10176724D02*
X16031241Y-10157676D01*
X16031241Y-10157676D02*
X16050289Y-10148152D01*
X16050289Y-10148152D02*
X16088384Y-10148152D01*
X16088384Y-10148152D02*
X16107432Y-10157676D01*
X16107432Y-10157676D02*
X16116956Y-10176724D01*
X16116956Y-10176724D02*
X16116956Y-10195771D01*
X16116956Y-10195771D02*
X16021718Y-10214819D01*
X16193146Y-10271962D02*
X16212194Y-10281486D01*
X16212194Y-10281486D02*
X16250289Y-10281486D01*
X16250289Y-10281486D02*
X16269337Y-10271962D01*
X16269337Y-10271962D02*
X16278861Y-10252914D01*
X16278861Y-10252914D02*
X16278861Y-10243390D01*
X16278861Y-10243390D02*
X16269337Y-10224343D01*
X16269337Y-10224343D02*
X16250289Y-10214819D01*
X16250289Y-10214819D02*
X16221718Y-10214819D01*
X16221718Y-10214819D02*
X16202670Y-10205295D01*
X16202670Y-10205295D02*
X16193146Y-10186248D01*
X16193146Y-10186248D02*
X16193146Y-10176724D01*
X16193146Y-10176724D02*
X16202670Y-10157676D01*
X16202670Y-10157676D02*
X16221718Y-10148152D01*
X16221718Y-10148152D02*
X16250289Y-10148152D01*
X16250289Y-10148152D02*
X16269337Y-10157676D01*
X16345527Y-10357676D02*
X16355051Y-10348152D01*
X16355051Y-10348152D02*
X16374099Y-10319581D01*
X16374099Y-10319581D02*
X16383622Y-10300533D01*
X16383622Y-10300533D02*
X16393146Y-10271962D01*
X16393146Y-10271962D02*
X16402670Y-10224343D01*
X16402670Y-10224343D02*
X16402670Y-10186248D01*
X16402670Y-10186248D02*
X16393146Y-10138629D01*
X16393146Y-10138629D02*
X16383622Y-10110057D01*
X16383622Y-10110057D02*
X16374099Y-10091010D01*
X16374099Y-10091010D02*
X16355051Y-10062438D01*
X16355051Y-10062438D02*
X16345527Y-10052914D01*
X11179988Y-10354002D02*
X11379988Y-10554002D01*
X11379988Y-10354002D02*
X11179988Y-10554002D01*
X11279988Y-10354002D02*
X11279988Y-10554002D01*
X11179988Y-10454002D02*
X11379988Y-10454002D01*
X11631241Y-10364533D02*
X11640765Y-10355010D01*
X11640765Y-10355010D02*
X11659812Y-10345486D01*
X11659812Y-10345486D02*
X11707432Y-10345486D01*
X11707432Y-10345486D02*
X11726479Y-10355010D01*
X11726479Y-10355010D02*
X11736003Y-10364533D01*
X11736003Y-10364533D02*
X11745527Y-10383581D01*
X11745527Y-10383581D02*
X11745527Y-10402629D01*
X11745527Y-10402629D02*
X11736003Y-10431200D01*
X11736003Y-10431200D02*
X11621717Y-10545486D01*
X11621717Y-10545486D02*
X11745527Y-10545486D01*
X11831241Y-10526438D02*
X11840765Y-10535962D01*
X11840765Y-10535962D02*
X11831241Y-10545486D01*
X11831241Y-10545486D02*
X11821717Y-10535962D01*
X11821717Y-10535962D02*
X11831241Y-10526438D01*
X11831241Y-10526438D02*
X11831241Y-10545486D01*
X12012193Y-10345486D02*
X11974098Y-10345486D01*
X11974098Y-10345486D02*
X11955051Y-10355010D01*
X11955051Y-10355010D02*
X11945527Y-10364533D01*
X11945527Y-10364533D02*
X11926479Y-10393105D01*
X11926479Y-10393105D02*
X11916955Y-10431200D01*
X11916955Y-10431200D02*
X11916955Y-10507390D01*
X11916955Y-10507390D02*
X11926479Y-10526438D01*
X11926479Y-10526438D02*
X11936003Y-10535962D01*
X11936003Y-10535962D02*
X11955051Y-10545486D01*
X11955051Y-10545486D02*
X11993146Y-10545486D01*
X11993146Y-10545486D02*
X12012193Y-10535962D01*
X12012193Y-10535962D02*
X12021717Y-10526438D01*
X12021717Y-10526438D02*
X12031241Y-10507390D01*
X12031241Y-10507390D02*
X12031241Y-10459771D01*
X12031241Y-10459771D02*
X12021717Y-10440724D01*
X12021717Y-10440724D02*
X12012193Y-10431200D01*
X12012193Y-10431200D02*
X11993146Y-10421676D01*
X11993146Y-10421676D02*
X11955051Y-10421676D01*
X11955051Y-10421676D02*
X11936003Y-10431200D01*
X11936003Y-10431200D02*
X11926479Y-10440724D01*
X11926479Y-10440724D02*
X11916955Y-10459771D01*
X12155051Y-10345486D02*
X12174098Y-10345486D01*
X12174098Y-10345486D02*
X12193146Y-10355010D01*
X12193146Y-10355010D02*
X12202670Y-10364533D01*
X12202670Y-10364533D02*
X12212193Y-10383581D01*
X12212193Y-10383581D02*
X12221717Y-10421676D01*
X12221717Y-10421676D02*
X12221717Y-10469295D01*
X12221717Y-10469295D02*
X12212193Y-10507390D01*
X12212193Y-10507390D02*
X12202670Y-10526438D01*
X12202670Y-10526438D02*
X12193146Y-10535962D01*
X12193146Y-10535962D02*
X12174098Y-10545486D01*
X12174098Y-10545486D02*
X12155051Y-10545486D01*
X12155051Y-10545486D02*
X12136003Y-10535962D01*
X12136003Y-10535962D02*
X12126479Y-10526438D01*
X12126479Y-10526438D02*
X12116955Y-10507390D01*
X12116955Y-10507390D02*
X12107432Y-10469295D01*
X12107432Y-10469295D02*
X12107432Y-10421676D01*
X12107432Y-10421676D02*
X12116955Y-10383581D01*
X12116955Y-10383581D02*
X12126479Y-10364533D01*
X12126479Y-10364533D02*
X12136003Y-10355010D01*
X12136003Y-10355010D02*
X12155051Y-10345486D01*
X12345527Y-10345486D02*
X12364574Y-10345486D01*
X12364574Y-10345486D02*
X12383622Y-10355010D01*
X12383622Y-10355010D02*
X12393146Y-10364533D01*
X12393146Y-10364533D02*
X12402670Y-10383581D01*
X12402670Y-10383581D02*
X12412193Y-10421676D01*
X12412193Y-10421676D02*
X12412193Y-10469295D01*
X12412193Y-10469295D02*
X12402670Y-10507390D01*
X12402670Y-10507390D02*
X12393146Y-10526438D01*
X12393146Y-10526438D02*
X12383622Y-10535962D01*
X12383622Y-10535962D02*
X12364574Y-10545486D01*
X12364574Y-10545486D02*
X12345527Y-10545486D01*
X12345527Y-10545486D02*
X12326479Y-10535962D01*
X12326479Y-10535962D02*
X12316955Y-10526438D01*
X12316955Y-10526438D02*
X12307432Y-10507390D01*
X12307432Y-10507390D02*
X12297908Y-10469295D01*
X12297908Y-10469295D02*
X12297908Y-10421676D01*
X12297908Y-10421676D02*
X12307432Y-10383581D01*
X12307432Y-10383581D02*
X12316955Y-10364533D01*
X12316955Y-10364533D02*
X12326479Y-10355010D01*
X12326479Y-10355010D02*
X12345527Y-10345486D01*
X12497908Y-10545486D02*
X12497908Y-10412152D01*
X12497908Y-10431200D02*
X12507432Y-10421676D01*
X12507432Y-10421676D02*
X12526479Y-10412152D01*
X12526479Y-10412152D02*
X12555051Y-10412152D01*
X12555051Y-10412152D02*
X12574098Y-10421676D01*
X12574098Y-10421676D02*
X12583622Y-10440724D01*
X12583622Y-10440724D02*
X12583622Y-10545486D01*
X12583622Y-10440724D02*
X12593146Y-10421676D01*
X12593146Y-10421676D02*
X12612193Y-10412152D01*
X12612193Y-10412152D02*
X12640765Y-10412152D01*
X12640765Y-10412152D02*
X12659813Y-10421676D01*
X12659813Y-10421676D02*
X12669336Y-10440724D01*
X12669336Y-10440724D02*
X12669336Y-10545486D01*
X12764574Y-10545486D02*
X12764574Y-10412152D01*
X12764574Y-10431200D02*
X12774098Y-10421676D01*
X12774098Y-10421676D02*
X12793146Y-10412152D01*
X12793146Y-10412152D02*
X12821717Y-10412152D01*
X12821717Y-10412152D02*
X12840765Y-10421676D01*
X12840765Y-10421676D02*
X12850289Y-10440724D01*
X12850289Y-10440724D02*
X12850289Y-10545486D01*
X12850289Y-10440724D02*
X12859813Y-10421676D01*
X12859813Y-10421676D02*
X12878860Y-10412152D01*
X12878860Y-10412152D02*
X12907432Y-10412152D01*
X12907432Y-10412152D02*
X12926479Y-10421676D01*
X12926479Y-10421676D02*
X12936003Y-10440724D01*
X12936003Y-10440724D02*
X12936003Y-10545486D01*
X13326479Y-10335962D02*
X13155051Y-10593105D01*
X13583622Y-10345486D02*
X13602670Y-10345486D01*
X13602670Y-10345486D02*
X13621717Y-10355010D01*
X13621717Y-10355010D02*
X13631241Y-10364533D01*
X13631241Y-10364533D02*
X13640765Y-10383581D01*
X13640765Y-10383581D02*
X13650289Y-10421676D01*
X13650289Y-10421676D02*
X13650289Y-10469295D01*
X13650289Y-10469295D02*
X13640765Y-10507390D01*
X13640765Y-10507390D02*
X13631241Y-10526438D01*
X13631241Y-10526438D02*
X13621717Y-10535962D01*
X13621717Y-10535962D02*
X13602670Y-10545486D01*
X13602670Y-10545486D02*
X13583622Y-10545486D01*
X13583622Y-10545486D02*
X13564575Y-10535962D01*
X13564575Y-10535962D02*
X13555051Y-10526438D01*
X13555051Y-10526438D02*
X13545527Y-10507390D01*
X13545527Y-10507390D02*
X13536003Y-10469295D01*
X13536003Y-10469295D02*
X13536003Y-10421676D01*
X13536003Y-10421676D02*
X13545527Y-10383581D01*
X13545527Y-10383581D02*
X13555051Y-10364533D01*
X13555051Y-10364533D02*
X13564575Y-10355010D01*
X13564575Y-10355010D02*
X13583622Y-10345486D01*
X13736003Y-10526438D02*
X13745527Y-10535962D01*
X13745527Y-10535962D02*
X13736003Y-10545486D01*
X13736003Y-10545486D02*
X13726479Y-10535962D01*
X13726479Y-10535962D02*
X13736003Y-10526438D01*
X13736003Y-10526438D02*
X13736003Y-10545486D01*
X13936003Y-10545486D02*
X13821717Y-10545486D01*
X13878860Y-10545486D02*
X13878860Y-10345486D01*
X13878860Y-10345486D02*
X13859813Y-10374057D01*
X13859813Y-10374057D02*
X13840765Y-10393105D01*
X13840765Y-10393105D02*
X13821717Y-10402629D01*
X14059813Y-10345486D02*
X14078860Y-10345486D01*
X14078860Y-10345486D02*
X14097908Y-10355010D01*
X14097908Y-10355010D02*
X14107432Y-10364533D01*
X14107432Y-10364533D02*
X14116956Y-10383581D01*
X14116956Y-10383581D02*
X14126479Y-10421676D01*
X14126479Y-10421676D02*
X14126479Y-10469295D01*
X14126479Y-10469295D02*
X14116956Y-10507390D01*
X14116956Y-10507390D02*
X14107432Y-10526438D01*
X14107432Y-10526438D02*
X14097908Y-10535962D01*
X14097908Y-10535962D02*
X14078860Y-10545486D01*
X14078860Y-10545486D02*
X14059813Y-10545486D01*
X14059813Y-10545486D02*
X14040765Y-10535962D01*
X14040765Y-10535962D02*
X14031241Y-10526438D01*
X14031241Y-10526438D02*
X14021717Y-10507390D01*
X14021717Y-10507390D02*
X14012194Y-10469295D01*
X14012194Y-10469295D02*
X14012194Y-10421676D01*
X14012194Y-10421676D02*
X14021717Y-10383581D01*
X14021717Y-10383581D02*
X14031241Y-10364533D01*
X14031241Y-10364533D02*
X14040765Y-10355010D01*
X14040765Y-10355010D02*
X14059813Y-10345486D01*
X14202670Y-10364533D02*
X14212194Y-10355010D01*
X14212194Y-10355010D02*
X14231241Y-10345486D01*
X14231241Y-10345486D02*
X14278860Y-10345486D01*
X14278860Y-10345486D02*
X14297908Y-10355010D01*
X14297908Y-10355010D02*
X14307432Y-10364533D01*
X14307432Y-10364533D02*
X14316956Y-10383581D01*
X14316956Y-10383581D02*
X14316956Y-10402629D01*
X14316956Y-10402629D02*
X14307432Y-10431200D01*
X14307432Y-10431200D02*
X14193146Y-10545486D01*
X14193146Y-10545486D02*
X14316956Y-10545486D01*
X14488384Y-10412152D02*
X14488384Y-10545486D01*
X14440765Y-10335962D02*
X14393146Y-10478819D01*
X14393146Y-10478819D02*
X14516956Y-10478819D01*
X14583622Y-10345486D02*
X14583622Y-10383581D01*
X14659813Y-10345486D02*
X14659813Y-10383581D01*
X14955051Y-10621676D02*
X14945527Y-10612152D01*
X14945527Y-10612152D02*
X14926479Y-10583581D01*
X14926479Y-10583581D02*
X14916956Y-10564533D01*
X14916956Y-10564533D02*
X14907432Y-10535962D01*
X14907432Y-10535962D02*
X14897908Y-10488343D01*
X14897908Y-10488343D02*
X14897908Y-10450248D01*
X14897908Y-10450248D02*
X14907432Y-10402629D01*
X14907432Y-10402629D02*
X14916956Y-10374057D01*
X14916956Y-10374057D02*
X14926479Y-10355010D01*
X14926479Y-10355010D02*
X14945527Y-10326438D01*
X14945527Y-10326438D02*
X14955051Y-10316914D01*
X15116956Y-10412152D02*
X15116956Y-10545486D01*
X15069337Y-10335962D02*
X15021718Y-10478819D01*
X15021718Y-10478819D02*
X15145527Y-10478819D01*
X15374099Y-10545486D02*
X15374099Y-10345486D01*
X15459813Y-10545486D02*
X15459813Y-10440724D01*
X15459813Y-10440724D02*
X15450289Y-10421676D01*
X15450289Y-10421676D02*
X15431241Y-10412152D01*
X15431241Y-10412152D02*
X15402670Y-10412152D01*
X15402670Y-10412152D02*
X15383622Y-10421676D01*
X15383622Y-10421676D02*
X15374099Y-10431200D01*
X15583622Y-10545486D02*
X15564575Y-10535962D01*
X15564575Y-10535962D02*
X15555051Y-10526438D01*
X15555051Y-10526438D02*
X15545527Y-10507390D01*
X15545527Y-10507390D02*
X15545527Y-10450248D01*
X15545527Y-10450248D02*
X15555051Y-10431200D01*
X15555051Y-10431200D02*
X15564575Y-10421676D01*
X15564575Y-10421676D02*
X15583622Y-10412152D01*
X15583622Y-10412152D02*
X15612194Y-10412152D01*
X15612194Y-10412152D02*
X15631241Y-10421676D01*
X15631241Y-10421676D02*
X15640765Y-10431200D01*
X15640765Y-10431200D02*
X15650289Y-10450248D01*
X15650289Y-10450248D02*
X15650289Y-10507390D01*
X15650289Y-10507390D02*
X15640765Y-10526438D01*
X15640765Y-10526438D02*
X15631241Y-10535962D01*
X15631241Y-10535962D02*
X15612194Y-10545486D01*
X15612194Y-10545486D02*
X15583622Y-10545486D01*
X15764575Y-10545486D02*
X15745527Y-10535962D01*
X15745527Y-10535962D02*
X15736003Y-10516914D01*
X15736003Y-10516914D02*
X15736003Y-10345486D01*
X15916956Y-10535962D02*
X15897908Y-10545486D01*
X15897908Y-10545486D02*
X15859813Y-10545486D01*
X15859813Y-10545486D02*
X15840765Y-10535962D01*
X15840765Y-10535962D02*
X15831241Y-10516914D01*
X15831241Y-10516914D02*
X15831241Y-10440724D01*
X15831241Y-10440724D02*
X15840765Y-10421676D01*
X15840765Y-10421676D02*
X15859813Y-10412152D01*
X15859813Y-10412152D02*
X15897908Y-10412152D01*
X15897908Y-10412152D02*
X15916956Y-10421676D01*
X15916956Y-10421676D02*
X15926480Y-10440724D01*
X15926480Y-10440724D02*
X15926480Y-10459771D01*
X15926480Y-10459771D02*
X15831241Y-10478819D01*
X16002670Y-10535962D02*
X16021718Y-10545486D01*
X16021718Y-10545486D02*
X16059813Y-10545486D01*
X16059813Y-10545486D02*
X16078861Y-10535962D01*
X16078861Y-10535962D02*
X16088384Y-10516914D01*
X16088384Y-10516914D02*
X16088384Y-10507390D01*
X16088384Y-10507390D02*
X16078861Y-10488343D01*
X16078861Y-10488343D02*
X16059813Y-10478819D01*
X16059813Y-10478819D02*
X16031241Y-10478819D01*
X16031241Y-10478819D02*
X16012194Y-10469295D01*
X16012194Y-10469295D02*
X16002670Y-10450248D01*
X16002670Y-10450248D02*
X16002670Y-10440724D01*
X16002670Y-10440724D02*
X16012194Y-10421676D01*
X16012194Y-10421676D02*
X16031241Y-10412152D01*
X16031241Y-10412152D02*
X16059813Y-10412152D01*
X16059813Y-10412152D02*
X16078861Y-10421676D01*
X16155051Y-10621676D02*
X16164575Y-10612152D01*
X16164575Y-10612152D02*
X16183622Y-10583581D01*
X16183622Y-10583581D02*
X16193146Y-10564533D01*
X16193146Y-10564533D02*
X16202670Y-10535962D01*
X16202670Y-10535962D02*
X16212194Y-10488343D01*
X16212194Y-10488343D02*
X16212194Y-10450248D01*
X16212194Y-10450248D02*
X16202670Y-10402629D01*
X16202670Y-10402629D02*
X16193146Y-10374057D01*
X16193146Y-10374057D02*
X16183622Y-10355010D01*
X16183622Y-10355010D02*
X16164575Y-10326438D01*
X16164575Y-10326438D02*
X16155051Y-10316914D01*
M02*
