G04 #@! TF.GenerationSoftware,KiCad,Pcbnew,8.0.4*
G04 #@! TF.CreationDate,2024-11-17T23:13:56+01:00*
G04 #@! TF.ProjectId,TEF6687,54454636-3638-4372-9e6b-696361645f70,v1.1*
G04 #@! TF.SameCoordinates,Original*
G04 #@! TF.FileFunction,Legend,Top*
G04 #@! TF.FilePolarity,Positive*
%FSLAX46Y46*%
G04 Gerber Fmt 4.6, Leading zero omitted, Abs format (unit mm)*
G04 Created by KiCad (PCBNEW 8.0.4) date 2024-11-17 23:13:56*
%MOMM*%
%LPD*%
G01*
G04 APERTURE LIST*
G04 Aperture macros list*
%AMRoundRect*
0 Rectangle with rounded corners*
0 $1 Rounding radius*
0 $2 $3 $4 $5 $6 $7 $8 $9 X,Y pos of 4 corners*
0 Add a 4 corners polygon primitive as box body*
4,1,4,$2,$3,$4,$5,$6,$7,$8,$9,$2,$3,0*
0 Add four circle primitives for the rounded corners*
1,1,$1+$1,$2,$3*
1,1,$1+$1,$4,$5*
1,1,$1+$1,$6,$7*
1,1,$1+$1,$8,$9*
0 Add four rect primitives between the rounded corners*
20,1,$1+$1,$2,$3,$4,$5,0*
20,1,$1+$1,$4,$5,$6,$7,0*
20,1,$1+$1,$6,$7,$8,$9,0*
20,1,$1+$1,$8,$9,$2,$3,0*%
%AMFreePoly0*
4,1,6,0.397500,-0.010000,0.397500,-0.125000,-0.202500,-0.125000,-0.202500,0.125000,0.217500,0.125000,0.397500,-0.010000,0.397500,-0.010000,$1*%
%AMFreePoly1*
4,1,6,0.397500,0.010000,0.217500,-0.125000,-0.202500,-0.125000,-0.202500,0.125000,0.397500,0.125000,0.397500,0.010000,0.397500,0.010000,$1*%
%AMFreePoly2*
4,1,7,0.202500,-0.125000,-0.202500,-0.125000,-0.397500,-0.125000,-0.397500,-0.010000,-0.217500,0.125000,0.202500,0.125000,0.202500,-0.125000,0.202500,-0.125000,$1*%
G04 Aperture macros list end*
%ADD10C,0.100000*%
%ADD11C,0.300000*%
%ADD12C,0.150000*%
%ADD13C,0.250000*%
%ADD14C,0.120000*%
%ADD15C,0.127000*%
%ADD16C,0.200000*%
%ADD17C,1.500000*%
%ADD18RoundRect,0.249999X0.700001X-0.387501X0.700001X0.387501X-0.700001X0.387501X-0.700001X-0.387501X0*%
%ADD19RoundRect,0.225000X-0.225000X-0.250000X0.225000X-0.250000X0.225000X0.250000X-0.225000X0.250000X0*%
%ADD20RoundRect,0.250000X0.250000X-0.250000X0.250000X0.250000X-0.250000X0.250000X-0.250000X-0.250000X0*%
%ADD21R,1.800000X1.800000*%
%ADD22C,1.800000*%
%ADD23RoundRect,0.225000X0.225000X0.250000X-0.225000X0.250000X-0.225000X-0.250000X0.225000X-0.250000X0*%
%ADD24RoundRect,0.200000X0.200000X0.275000X-0.200000X0.275000X-0.200000X-0.275000X0.200000X-0.275000X0*%
%ADD25RoundRect,0.150000X-0.150000X0.512500X-0.150000X-0.512500X0.150000X-0.512500X0.150000X0.512500X0*%
%ADD26RoundRect,0.150000X-0.587500X-0.150000X0.587500X-0.150000X0.587500X0.150000X-0.587500X0.150000X0*%
%ADD27R,0.400000X1.900000*%
%ADD28R,1.200000X2.000000*%
%ADD29RoundRect,0.250000X-0.250000X0.250000X-0.250000X-0.250000X0.250000X-0.250000X0.250000X0.250000X0*%
%ADD30RoundRect,0.225000X0.250000X-0.225000X0.250000X0.225000X-0.250000X0.225000X-0.250000X-0.225000X0*%
%ADD31RoundRect,0.250000X-1.595000X-0.640000X1.595000X-0.640000X1.595000X0.640000X-1.595000X0.640000X0*%
%ADD32RoundRect,0.250000X-1.595000X-1.082500X1.595000X-1.082500X1.595000X1.082500X-1.595000X1.082500X0*%
%ADD33RoundRect,0.200000X-0.275000X0.200000X-0.275000X-0.200000X0.275000X-0.200000X0.275000X0.200000X0*%
%ADD34R,1.100000X0.400000*%
%ADD35RoundRect,0.200000X0.275000X-0.200000X0.275000X0.200000X-0.275000X0.200000X-0.275000X-0.200000X0*%
%ADD36RoundRect,0.075000X0.662500X0.075000X-0.662500X0.075000X-0.662500X-0.075000X0.662500X-0.075000X0*%
%ADD37RoundRect,0.075000X0.075000X0.662500X-0.075000X0.662500X-0.075000X-0.662500X0.075000X-0.662500X0*%
%ADD38RoundRect,0.249999X-0.387501X-0.700001X0.387501X-0.700001X0.387501X0.700001X-0.387501X0.700001X0*%
%ADD39R,1.000000X1.000000*%
%ADD40R,2.200000X1.050000*%
%ADD41FreePoly0,0.000000*%
%ADD42R,0.600000X0.250000*%
%ADD43FreePoly1,0.000000*%
%ADD44FreePoly0,90.000000*%
%ADD45R,0.250000X0.600000*%
%ADD46FreePoly2,270.000000*%
%ADD47FreePoly0,180.000000*%
%ADD48FreePoly1,180.000000*%
%ADD49FreePoly0,270.000000*%
%ADD50FreePoly2,90.000000*%
%ADD51R,1.100000X1.100000*%
%ADD52RoundRect,0.200000X-0.200000X-0.275000X0.200000X-0.275000X0.200000X0.275000X-0.200000X0.275000X0*%
%ADD53R,1.700000X1.700000*%
%ADD54O,1.700000X1.700000*%
%ADD55RoundRect,0.135000X0.135000X0.185000X-0.135000X0.185000X-0.135000X-0.185000X0.135000X-0.185000X0*%
%ADD56RoundRect,0.225000X0.017678X-0.335876X0.335876X-0.017678X-0.017678X0.335876X-0.335876X0.017678X0*%
%ADD57C,0.650000*%
%ADD58R,1.275000X0.600000*%
%ADD59R,1.300000X0.600000*%
%ADD60R,1.370000X0.300000*%
%ADD61O,2.100000X1.050000*%
%ADD62O,1.800000X0.900000*%
%ADD63R,2.286000X1.500000*%
%ADD64RoundRect,0.135000X-0.135000X-0.185000X0.135000X-0.185000X0.135000X0.185000X-0.135000X0.185000X0*%
%ADD65RoundRect,0.062500X0.437500X0.062500X-0.437500X0.062500X-0.437500X-0.062500X0.437500X-0.062500X0*%
%ADD66RoundRect,0.062500X0.062500X0.437500X-0.062500X0.437500X-0.062500X-0.437500X0.062500X-0.437500X0*%
%ADD67R,3.100000X3.100000*%
%ADD68RoundRect,0.225000X-0.250000X0.225000X-0.250000X-0.225000X0.250000X-0.225000X0.250000X0.225000X0*%
%ADD69R,2.000000X1.200000*%
%ADD70RoundRect,0.218750X0.218750X0.256250X-0.218750X0.256250X-0.218750X-0.256250X0.218750X-0.256250X0*%
%ADD71R,1.400000X1.200000*%
%ADD72RoundRect,0.218750X-0.218750X-0.256250X0.218750X-0.256250X0.218750X0.256250X-0.218750X0.256250X0*%
%ADD73RoundRect,0.225000X0.335876X0.017678X0.017678X0.335876X-0.335876X-0.017678X-0.017678X-0.335876X0*%
%ADD74R,1.300000X1.000000*%
%ADD75R,1.400000X1.900000*%
%ADD76RoundRect,0.218750X-0.256250X0.218750X-0.256250X-0.218750X0.256250X-0.218750X0.256250X0.218750X0*%
%ADD77RoundRect,0.093750X-0.156250X-0.093750X0.156250X-0.093750X0.156250X0.093750X-0.156250X0.093750X0*%
%ADD78RoundRect,0.075000X-0.250000X-0.075000X0.250000X-0.075000X0.250000X0.075000X-0.250000X0.075000X0*%
G04 APERTURE END LIST*
D10*
X166983210Y-58674000D02*
G75*
G02*
X166264790Y-58674000I-359210J0D01*
G01*
X166264790Y-58674000D02*
G75*
G02*
X166983210Y-58674000I359210J0D01*
G01*
D11*
X152411653Y-47637542D02*
X153097368Y-47637542D01*
X152754510Y-48837542D02*
X152754510Y-47637542D01*
X153497368Y-48208971D02*
X153897368Y-48208971D01*
X154068796Y-48837542D02*
X153497368Y-48837542D01*
X153497368Y-48837542D02*
X153497368Y-47637542D01*
X153497368Y-47637542D02*
X154068796Y-47637542D01*
X154983082Y-48208971D02*
X154583082Y-48208971D01*
X154583082Y-48837542D02*
X154583082Y-47637542D01*
X154583082Y-47637542D02*
X155154510Y-47637542D01*
X156125939Y-47637542D02*
X155897367Y-47637542D01*
X155897367Y-47637542D02*
X155783081Y-47694685D01*
X155783081Y-47694685D02*
X155725939Y-47751828D01*
X155725939Y-47751828D02*
X155611653Y-47923257D01*
X155611653Y-47923257D02*
X155554510Y-48151828D01*
X155554510Y-48151828D02*
X155554510Y-48608971D01*
X155554510Y-48608971D02*
X155611653Y-48723257D01*
X155611653Y-48723257D02*
X155668796Y-48780400D01*
X155668796Y-48780400D02*
X155783081Y-48837542D01*
X155783081Y-48837542D02*
X156011653Y-48837542D01*
X156011653Y-48837542D02*
X156125939Y-48780400D01*
X156125939Y-48780400D02*
X156183081Y-48723257D01*
X156183081Y-48723257D02*
X156240224Y-48608971D01*
X156240224Y-48608971D02*
X156240224Y-48323257D01*
X156240224Y-48323257D02*
X156183081Y-48208971D01*
X156183081Y-48208971D02*
X156125939Y-48151828D01*
X156125939Y-48151828D02*
X156011653Y-48094685D01*
X156011653Y-48094685D02*
X155783081Y-48094685D01*
X155783081Y-48094685D02*
X155668796Y-48151828D01*
X155668796Y-48151828D02*
X155611653Y-48208971D01*
X155611653Y-48208971D02*
X155554510Y-48323257D01*
X157268796Y-47637542D02*
X157040224Y-47637542D01*
X157040224Y-47637542D02*
X156925938Y-47694685D01*
X156925938Y-47694685D02*
X156868796Y-47751828D01*
X156868796Y-47751828D02*
X156754510Y-47923257D01*
X156754510Y-47923257D02*
X156697367Y-48151828D01*
X156697367Y-48151828D02*
X156697367Y-48608971D01*
X156697367Y-48608971D02*
X156754510Y-48723257D01*
X156754510Y-48723257D02*
X156811653Y-48780400D01*
X156811653Y-48780400D02*
X156925938Y-48837542D01*
X156925938Y-48837542D02*
X157154510Y-48837542D01*
X157154510Y-48837542D02*
X157268796Y-48780400D01*
X157268796Y-48780400D02*
X157325938Y-48723257D01*
X157325938Y-48723257D02*
X157383081Y-48608971D01*
X157383081Y-48608971D02*
X157383081Y-48323257D01*
X157383081Y-48323257D02*
X157325938Y-48208971D01*
X157325938Y-48208971D02*
X157268796Y-48151828D01*
X157268796Y-48151828D02*
X157154510Y-48094685D01*
X157154510Y-48094685D02*
X156925938Y-48094685D01*
X156925938Y-48094685D02*
X156811653Y-48151828D01*
X156811653Y-48151828D02*
X156754510Y-48208971D01*
X156754510Y-48208971D02*
X156697367Y-48323257D01*
X158068795Y-48151828D02*
X157954510Y-48094685D01*
X157954510Y-48094685D02*
X157897367Y-48037542D01*
X157897367Y-48037542D02*
X157840224Y-47923257D01*
X157840224Y-47923257D02*
X157840224Y-47866114D01*
X157840224Y-47866114D02*
X157897367Y-47751828D01*
X157897367Y-47751828D02*
X157954510Y-47694685D01*
X157954510Y-47694685D02*
X158068795Y-47637542D01*
X158068795Y-47637542D02*
X158297367Y-47637542D01*
X158297367Y-47637542D02*
X158411653Y-47694685D01*
X158411653Y-47694685D02*
X158468795Y-47751828D01*
X158468795Y-47751828D02*
X158525938Y-47866114D01*
X158525938Y-47866114D02*
X158525938Y-47923257D01*
X158525938Y-47923257D02*
X158468795Y-48037542D01*
X158468795Y-48037542D02*
X158411653Y-48094685D01*
X158411653Y-48094685D02*
X158297367Y-48151828D01*
X158297367Y-48151828D02*
X158068795Y-48151828D01*
X158068795Y-48151828D02*
X157954510Y-48208971D01*
X157954510Y-48208971D02*
X157897367Y-48266114D01*
X157897367Y-48266114D02*
X157840224Y-48380400D01*
X157840224Y-48380400D02*
X157840224Y-48608971D01*
X157840224Y-48608971D02*
X157897367Y-48723257D01*
X157897367Y-48723257D02*
X157954510Y-48780400D01*
X157954510Y-48780400D02*
X158068795Y-48837542D01*
X158068795Y-48837542D02*
X158297367Y-48837542D01*
X158297367Y-48837542D02*
X158411653Y-48780400D01*
X158411653Y-48780400D02*
X158468795Y-48723257D01*
X158468795Y-48723257D02*
X158525938Y-48608971D01*
X158525938Y-48608971D02*
X158525938Y-48380400D01*
X158525938Y-48380400D02*
X158468795Y-48266114D01*
X158468795Y-48266114D02*
X158411653Y-48208971D01*
X158411653Y-48208971D02*
X158297367Y-48151828D01*
X158925938Y-47637542D02*
X159725938Y-48837542D01*
X159725938Y-47637542D02*
X158925938Y-48837542D01*
X161097367Y-48837542D02*
X161097367Y-47637542D01*
X161097367Y-48208971D02*
X161783081Y-48208971D01*
X161783081Y-48837542D02*
X161783081Y-47637542D01*
X162811653Y-48780400D02*
X162697367Y-48837542D01*
X162697367Y-48837542D02*
X162468796Y-48837542D01*
X162468796Y-48837542D02*
X162354510Y-48780400D01*
X162354510Y-48780400D02*
X162297367Y-48666114D01*
X162297367Y-48666114D02*
X162297367Y-48208971D01*
X162297367Y-48208971D02*
X162354510Y-48094685D01*
X162354510Y-48094685D02*
X162468796Y-48037542D01*
X162468796Y-48037542D02*
X162697367Y-48037542D01*
X162697367Y-48037542D02*
X162811653Y-48094685D01*
X162811653Y-48094685D02*
X162868796Y-48208971D01*
X162868796Y-48208971D02*
X162868796Y-48323257D01*
X162868796Y-48323257D02*
X162297367Y-48437542D01*
X163897367Y-48837542D02*
X163897367Y-48208971D01*
X163897367Y-48208971D02*
X163840224Y-48094685D01*
X163840224Y-48094685D02*
X163725938Y-48037542D01*
X163725938Y-48037542D02*
X163497367Y-48037542D01*
X163497367Y-48037542D02*
X163383081Y-48094685D01*
X163897367Y-48780400D02*
X163783081Y-48837542D01*
X163783081Y-48837542D02*
X163497367Y-48837542D01*
X163497367Y-48837542D02*
X163383081Y-48780400D01*
X163383081Y-48780400D02*
X163325938Y-48666114D01*
X163325938Y-48666114D02*
X163325938Y-48551828D01*
X163325938Y-48551828D02*
X163383081Y-48437542D01*
X163383081Y-48437542D02*
X163497367Y-48380400D01*
X163497367Y-48380400D02*
X163783081Y-48380400D01*
X163783081Y-48380400D02*
X163897367Y-48323257D01*
X164983081Y-48837542D02*
X164983081Y-47637542D01*
X164983081Y-48780400D02*
X164868795Y-48837542D01*
X164868795Y-48837542D02*
X164640223Y-48837542D01*
X164640223Y-48837542D02*
X164525938Y-48780400D01*
X164525938Y-48780400D02*
X164468795Y-48723257D01*
X164468795Y-48723257D02*
X164411652Y-48608971D01*
X164411652Y-48608971D02*
X164411652Y-48266114D01*
X164411652Y-48266114D02*
X164468795Y-48151828D01*
X164468795Y-48151828D02*
X164525938Y-48094685D01*
X164525938Y-48094685D02*
X164640223Y-48037542D01*
X164640223Y-48037542D02*
X164868795Y-48037542D01*
X164868795Y-48037542D02*
X164983081Y-48094685D01*
X165725937Y-48837542D02*
X165611652Y-48780400D01*
X165611652Y-48780400D02*
X165554509Y-48666114D01*
X165554509Y-48666114D02*
X165554509Y-47637542D01*
X166640223Y-48780400D02*
X166525937Y-48837542D01*
X166525937Y-48837542D02*
X166297366Y-48837542D01*
X166297366Y-48837542D02*
X166183080Y-48780400D01*
X166183080Y-48780400D02*
X166125937Y-48666114D01*
X166125937Y-48666114D02*
X166125937Y-48208971D01*
X166125937Y-48208971D02*
X166183080Y-48094685D01*
X166183080Y-48094685D02*
X166297366Y-48037542D01*
X166297366Y-48037542D02*
X166525937Y-48037542D01*
X166525937Y-48037542D02*
X166640223Y-48094685D01*
X166640223Y-48094685D02*
X166697366Y-48208971D01*
X166697366Y-48208971D02*
X166697366Y-48323257D01*
X166697366Y-48323257D02*
X166125937Y-48437542D01*
X167154508Y-48780400D02*
X167268794Y-48837542D01*
X167268794Y-48837542D02*
X167497365Y-48837542D01*
X167497365Y-48837542D02*
X167611651Y-48780400D01*
X167611651Y-48780400D02*
X167668794Y-48666114D01*
X167668794Y-48666114D02*
X167668794Y-48608971D01*
X167668794Y-48608971D02*
X167611651Y-48494685D01*
X167611651Y-48494685D02*
X167497365Y-48437542D01*
X167497365Y-48437542D02*
X167325937Y-48437542D01*
X167325937Y-48437542D02*
X167211651Y-48380400D01*
X167211651Y-48380400D02*
X167154508Y-48266114D01*
X167154508Y-48266114D02*
X167154508Y-48208971D01*
X167154508Y-48208971D02*
X167211651Y-48094685D01*
X167211651Y-48094685D02*
X167325937Y-48037542D01*
X167325937Y-48037542D02*
X167497365Y-48037542D01*
X167497365Y-48037542D02*
X167611651Y-48094685D01*
X168125937Y-48780400D02*
X168240223Y-48837542D01*
X168240223Y-48837542D02*
X168468794Y-48837542D01*
X168468794Y-48837542D02*
X168583080Y-48780400D01*
X168583080Y-48780400D02*
X168640223Y-48666114D01*
X168640223Y-48666114D02*
X168640223Y-48608971D01*
X168640223Y-48608971D02*
X168583080Y-48494685D01*
X168583080Y-48494685D02*
X168468794Y-48437542D01*
X168468794Y-48437542D02*
X168297366Y-48437542D01*
X168297366Y-48437542D02*
X168183080Y-48380400D01*
X168183080Y-48380400D02*
X168125937Y-48266114D01*
X168125937Y-48266114D02*
X168125937Y-48208971D01*
X168125937Y-48208971D02*
X168183080Y-48094685D01*
X168183080Y-48094685D02*
X168297366Y-48037542D01*
X168297366Y-48037542D02*
X168468794Y-48037542D01*
X168468794Y-48037542D02*
X168583080Y-48094685D01*
X170068795Y-47637542D02*
X170068795Y-48608971D01*
X170068795Y-48608971D02*
X170125938Y-48723257D01*
X170125938Y-48723257D02*
X170183081Y-48780400D01*
X170183081Y-48780400D02*
X170297366Y-48837542D01*
X170297366Y-48837542D02*
X170525938Y-48837542D01*
X170525938Y-48837542D02*
X170640223Y-48780400D01*
X170640223Y-48780400D02*
X170697366Y-48723257D01*
X170697366Y-48723257D02*
X170754509Y-48608971D01*
X170754509Y-48608971D02*
X170754509Y-47637542D01*
X171268795Y-48780400D02*
X171440224Y-48837542D01*
X171440224Y-48837542D02*
X171725938Y-48837542D01*
X171725938Y-48837542D02*
X171840224Y-48780400D01*
X171840224Y-48780400D02*
X171897366Y-48723257D01*
X171897366Y-48723257D02*
X171954509Y-48608971D01*
X171954509Y-48608971D02*
X171954509Y-48494685D01*
X171954509Y-48494685D02*
X171897366Y-48380400D01*
X171897366Y-48380400D02*
X171840224Y-48323257D01*
X171840224Y-48323257D02*
X171725938Y-48266114D01*
X171725938Y-48266114D02*
X171497366Y-48208971D01*
X171497366Y-48208971D02*
X171383081Y-48151828D01*
X171383081Y-48151828D02*
X171325938Y-48094685D01*
X171325938Y-48094685D02*
X171268795Y-47980400D01*
X171268795Y-47980400D02*
X171268795Y-47866114D01*
X171268795Y-47866114D02*
X171325938Y-47751828D01*
X171325938Y-47751828D02*
X171383081Y-47694685D01*
X171383081Y-47694685D02*
X171497366Y-47637542D01*
X171497366Y-47637542D02*
X171783081Y-47637542D01*
X171783081Y-47637542D02*
X171954509Y-47694685D01*
X172868795Y-48208971D02*
X173040223Y-48266114D01*
X173040223Y-48266114D02*
X173097366Y-48323257D01*
X173097366Y-48323257D02*
X173154509Y-48437542D01*
X173154509Y-48437542D02*
X173154509Y-48608971D01*
X173154509Y-48608971D02*
X173097366Y-48723257D01*
X173097366Y-48723257D02*
X173040223Y-48780400D01*
X173040223Y-48780400D02*
X172925938Y-48837542D01*
X172925938Y-48837542D02*
X172468795Y-48837542D01*
X172468795Y-48837542D02*
X172468795Y-47637542D01*
X172468795Y-47637542D02*
X172868795Y-47637542D01*
X172868795Y-47637542D02*
X172983081Y-47694685D01*
X172983081Y-47694685D02*
X173040223Y-47751828D01*
X173040223Y-47751828D02*
X173097366Y-47866114D01*
X173097366Y-47866114D02*
X173097366Y-47980400D01*
X173097366Y-47980400D02*
X173040223Y-48094685D01*
X173040223Y-48094685D02*
X172983081Y-48151828D01*
X172983081Y-48151828D02*
X172868795Y-48208971D01*
X172868795Y-48208971D02*
X172468795Y-48208971D01*
X174411652Y-47637542D02*
X175097367Y-47637542D01*
X174754509Y-48837542D02*
X174754509Y-47637542D01*
X176011653Y-48037542D02*
X176011653Y-48837542D01*
X175497367Y-48037542D02*
X175497367Y-48666114D01*
X175497367Y-48666114D02*
X175554510Y-48780400D01*
X175554510Y-48780400D02*
X175668795Y-48837542D01*
X175668795Y-48837542D02*
X175840224Y-48837542D01*
X175840224Y-48837542D02*
X175954510Y-48780400D01*
X175954510Y-48780400D02*
X176011653Y-48723257D01*
X176583081Y-48037542D02*
X176583081Y-48837542D01*
X176583081Y-48151828D02*
X176640224Y-48094685D01*
X176640224Y-48094685D02*
X176754509Y-48037542D01*
X176754509Y-48037542D02*
X176925938Y-48037542D01*
X176925938Y-48037542D02*
X177040224Y-48094685D01*
X177040224Y-48094685D02*
X177097367Y-48208971D01*
X177097367Y-48208971D02*
X177097367Y-48837542D01*
X178125938Y-48780400D02*
X178011652Y-48837542D01*
X178011652Y-48837542D02*
X177783081Y-48837542D01*
X177783081Y-48837542D02*
X177668795Y-48780400D01*
X177668795Y-48780400D02*
X177611652Y-48666114D01*
X177611652Y-48666114D02*
X177611652Y-48208971D01*
X177611652Y-48208971D02*
X177668795Y-48094685D01*
X177668795Y-48094685D02*
X177783081Y-48037542D01*
X177783081Y-48037542D02*
X178011652Y-48037542D01*
X178011652Y-48037542D02*
X178125938Y-48094685D01*
X178125938Y-48094685D02*
X178183081Y-48208971D01*
X178183081Y-48208971D02*
X178183081Y-48323257D01*
X178183081Y-48323257D02*
X177611652Y-48437542D01*
X178697366Y-48837542D02*
X178697366Y-48037542D01*
X178697366Y-48266114D02*
X178754509Y-48151828D01*
X178754509Y-48151828D02*
X178811652Y-48094685D01*
X178811652Y-48094685D02*
X178925937Y-48037542D01*
X178925937Y-48037542D02*
X179040223Y-48037542D01*
D12*
X181899160Y-49622104D02*
X182375350Y-49622104D01*
X181803922Y-49907819D02*
X182137255Y-48907819D01*
X182137255Y-48907819D02*
X182470588Y-49907819D01*
X182803922Y-49907819D02*
X182803922Y-48907819D01*
X182803922Y-48907819D02*
X183137255Y-49622104D01*
X183137255Y-49622104D02*
X183470588Y-48907819D01*
X183470588Y-48907819D02*
X183470588Y-49907819D01*
D13*
X163921615Y-76225857D02*
X163807330Y-76168714D01*
X163807330Y-76168714D02*
X163578758Y-76168714D01*
X163578758Y-76168714D02*
X163464473Y-76225857D01*
X163464473Y-76225857D02*
X163350187Y-76340142D01*
X163350187Y-76340142D02*
X163293044Y-76454428D01*
X163293044Y-76454428D02*
X163293044Y-76683000D01*
X163293044Y-76683000D02*
X163350187Y-76797285D01*
X163350187Y-76797285D02*
X163464473Y-76911571D01*
X163464473Y-76911571D02*
X163578758Y-76968714D01*
X163578758Y-76968714D02*
X163807330Y-76968714D01*
X163807330Y-76968714D02*
X163921615Y-76911571D01*
X163693044Y-75768714D02*
X163407330Y-75825857D01*
X163407330Y-75825857D02*
X163121615Y-75997285D01*
X163121615Y-75997285D02*
X162950187Y-76283000D01*
X162950187Y-76283000D02*
X162893044Y-76568714D01*
X162893044Y-76568714D02*
X162950187Y-76854428D01*
X162950187Y-76854428D02*
X163121615Y-77140142D01*
X163121615Y-77140142D02*
X163407330Y-77311571D01*
X163407330Y-77311571D02*
X163693044Y-77368714D01*
X163693044Y-77368714D02*
X163978758Y-77311571D01*
X163978758Y-77311571D02*
X164264473Y-77140142D01*
X164264473Y-77140142D02*
X164435901Y-76854428D01*
X164435901Y-76854428D02*
X164493044Y-76568714D01*
X164493044Y-76568714D02*
X164435901Y-76283000D01*
X164435901Y-76283000D02*
X164264473Y-75997285D01*
X164264473Y-75997285D02*
X163978758Y-75825857D01*
X163978758Y-75825857D02*
X163693044Y-75768714D01*
X165864473Y-76054428D02*
X165921616Y-75997285D01*
X165921616Y-75997285D02*
X166035902Y-75940142D01*
X166035902Y-75940142D02*
X166321616Y-75940142D01*
X166321616Y-75940142D02*
X166435902Y-75997285D01*
X166435902Y-75997285D02*
X166493044Y-76054428D01*
X166493044Y-76054428D02*
X166550187Y-76168714D01*
X166550187Y-76168714D02*
X166550187Y-76283000D01*
X166550187Y-76283000D02*
X166493044Y-76454428D01*
X166493044Y-76454428D02*
X165807330Y-77140142D01*
X165807330Y-77140142D02*
X166550187Y-77140142D01*
X167293044Y-75940142D02*
X167407330Y-75940142D01*
X167407330Y-75940142D02*
X167521616Y-75997285D01*
X167521616Y-75997285D02*
X167578759Y-76054428D01*
X167578759Y-76054428D02*
X167635901Y-76168714D01*
X167635901Y-76168714D02*
X167693044Y-76397285D01*
X167693044Y-76397285D02*
X167693044Y-76683000D01*
X167693044Y-76683000D02*
X167635901Y-76911571D01*
X167635901Y-76911571D02*
X167578759Y-77025857D01*
X167578759Y-77025857D02*
X167521616Y-77083000D01*
X167521616Y-77083000D02*
X167407330Y-77140142D01*
X167407330Y-77140142D02*
X167293044Y-77140142D01*
X167293044Y-77140142D02*
X167178759Y-77083000D01*
X167178759Y-77083000D02*
X167121616Y-77025857D01*
X167121616Y-77025857D02*
X167064473Y-76911571D01*
X167064473Y-76911571D02*
X167007330Y-76683000D01*
X167007330Y-76683000D02*
X167007330Y-76397285D01*
X167007330Y-76397285D02*
X167064473Y-76168714D01*
X167064473Y-76168714D02*
X167121616Y-76054428D01*
X167121616Y-76054428D02*
X167178759Y-75997285D01*
X167178759Y-75997285D02*
X167293044Y-75940142D01*
X168150187Y-76054428D02*
X168207330Y-75997285D01*
X168207330Y-75997285D02*
X168321616Y-75940142D01*
X168321616Y-75940142D02*
X168607330Y-75940142D01*
X168607330Y-75940142D02*
X168721616Y-75997285D01*
X168721616Y-75997285D02*
X168778758Y-76054428D01*
X168778758Y-76054428D02*
X168835901Y-76168714D01*
X168835901Y-76168714D02*
X168835901Y-76283000D01*
X168835901Y-76283000D02*
X168778758Y-76454428D01*
X168778758Y-76454428D02*
X168093044Y-77140142D01*
X168093044Y-77140142D02*
X168835901Y-77140142D01*
X169864473Y-76340142D02*
X169864473Y-77140142D01*
X169578758Y-75883000D02*
X169293044Y-76740142D01*
X169293044Y-76740142D02*
X170035901Y-76740142D01*
X171807330Y-76511571D02*
X171407330Y-76511571D01*
X171407330Y-77140142D02*
X171407330Y-75940142D01*
X171407330Y-75940142D02*
X171978758Y-75940142D01*
X172435901Y-77140142D02*
X172435901Y-75940142D01*
X172435901Y-75940142D02*
X172835901Y-76797285D01*
X172835901Y-76797285D02*
X173235901Y-75940142D01*
X173235901Y-75940142D02*
X173235901Y-77140142D01*
X173807330Y-77140142D02*
X173807330Y-75940142D01*
X173807330Y-75940142D02*
X174093044Y-75940142D01*
X174093044Y-75940142D02*
X174264473Y-75997285D01*
X174264473Y-75997285D02*
X174378758Y-76111571D01*
X174378758Y-76111571D02*
X174435901Y-76225857D01*
X174435901Y-76225857D02*
X174493044Y-76454428D01*
X174493044Y-76454428D02*
X174493044Y-76625857D01*
X174493044Y-76625857D02*
X174435901Y-76854428D01*
X174435901Y-76854428D02*
X174378758Y-76968714D01*
X174378758Y-76968714D02*
X174264473Y-77083000D01*
X174264473Y-77083000D02*
X174093044Y-77140142D01*
X174093044Y-77140142D02*
X173807330Y-77140142D01*
X174893044Y-75940142D02*
X175693044Y-77140142D01*
X175693044Y-75940142D02*
X174893044Y-77140142D01*
X176150187Y-77025857D02*
X176207330Y-77083000D01*
X176207330Y-77083000D02*
X176150187Y-77140142D01*
X176150187Y-77140142D02*
X176093044Y-77083000D01*
X176093044Y-77083000D02*
X176150187Y-77025857D01*
X176150187Y-77025857D02*
X176150187Y-77140142D01*
X176893044Y-77140142D02*
X176778759Y-77083000D01*
X176778759Y-77083000D02*
X176721616Y-77025857D01*
X176721616Y-77025857D02*
X176664473Y-76911571D01*
X176664473Y-76911571D02*
X176664473Y-76568714D01*
X176664473Y-76568714D02*
X176721616Y-76454428D01*
X176721616Y-76454428D02*
X176778759Y-76397285D01*
X176778759Y-76397285D02*
X176893044Y-76340142D01*
X176893044Y-76340142D02*
X177064473Y-76340142D01*
X177064473Y-76340142D02*
X177178759Y-76397285D01*
X177178759Y-76397285D02*
X177235902Y-76454428D01*
X177235902Y-76454428D02*
X177293044Y-76568714D01*
X177293044Y-76568714D02*
X177293044Y-76911571D01*
X177293044Y-76911571D02*
X177235902Y-77025857D01*
X177235902Y-77025857D02*
X177178759Y-77083000D01*
X177178759Y-77083000D02*
X177064473Y-77140142D01*
X177064473Y-77140142D02*
X176893044Y-77140142D01*
X177807330Y-77140142D02*
X177807330Y-76340142D01*
X177807330Y-76568714D02*
X177864473Y-76454428D01*
X177864473Y-76454428D02*
X177921616Y-76397285D01*
X177921616Y-76397285D02*
X178035901Y-76340142D01*
X178035901Y-76340142D02*
X178150187Y-76340142D01*
X179064473Y-76340142D02*
X179064473Y-77311571D01*
X179064473Y-77311571D02*
X179007330Y-77425857D01*
X179007330Y-77425857D02*
X178950187Y-77483000D01*
X178950187Y-77483000D02*
X178835901Y-77540142D01*
X178835901Y-77540142D02*
X178664473Y-77540142D01*
X178664473Y-77540142D02*
X178550187Y-77483000D01*
X179064473Y-77083000D02*
X178950187Y-77140142D01*
X178950187Y-77140142D02*
X178721615Y-77140142D01*
X178721615Y-77140142D02*
X178607330Y-77083000D01*
X178607330Y-77083000D02*
X178550187Y-77025857D01*
X178550187Y-77025857D02*
X178493044Y-76911571D01*
X178493044Y-76911571D02*
X178493044Y-76568714D01*
X178493044Y-76568714D02*
X178550187Y-76454428D01*
X178550187Y-76454428D02*
X178607330Y-76397285D01*
X178607330Y-76397285D02*
X178721615Y-76340142D01*
X178721615Y-76340142D02*
X178950187Y-76340142D01*
X178950187Y-76340142D02*
X179064473Y-76397285D01*
D12*
X144153990Y-75270112D02*
X144106371Y-75412969D01*
X144106371Y-75412969D02*
X144058752Y-75460588D01*
X144058752Y-75460588D02*
X143963514Y-75508207D01*
X143963514Y-75508207D02*
X143820657Y-75508207D01*
X143820657Y-75508207D02*
X143725419Y-75460588D01*
X143725419Y-75460588D02*
X143677800Y-75412969D01*
X143677800Y-75412969D02*
X143630180Y-75317731D01*
X143630180Y-75317731D02*
X143630180Y-74936779D01*
X143630180Y-74936779D02*
X144630180Y-74936779D01*
X144630180Y-74936779D02*
X144630180Y-75270112D01*
X144630180Y-75270112D02*
X144582561Y-75365350D01*
X144582561Y-75365350D02*
X144534942Y-75412969D01*
X144534942Y-75412969D02*
X144439704Y-75460588D01*
X144439704Y-75460588D02*
X144344466Y-75460588D01*
X144344466Y-75460588D02*
X144249228Y-75412969D01*
X144249228Y-75412969D02*
X144201609Y-75365350D01*
X144201609Y-75365350D02*
X144153990Y-75270112D01*
X144153990Y-75270112D02*
X144153990Y-74936779D01*
X144630180Y-76127255D02*
X144630180Y-76317731D01*
X144630180Y-76317731D02*
X144582561Y-76412969D01*
X144582561Y-76412969D02*
X144487323Y-76508207D01*
X144487323Y-76508207D02*
X144296847Y-76555826D01*
X144296847Y-76555826D02*
X143963514Y-76555826D01*
X143963514Y-76555826D02*
X143773038Y-76508207D01*
X143773038Y-76508207D02*
X143677800Y-76412969D01*
X143677800Y-76412969D02*
X143630180Y-76317731D01*
X143630180Y-76317731D02*
X143630180Y-76127255D01*
X143630180Y-76127255D02*
X143677800Y-76032017D01*
X143677800Y-76032017D02*
X143773038Y-75936779D01*
X143773038Y-75936779D02*
X143963514Y-75889160D01*
X143963514Y-75889160D02*
X144296847Y-75889160D01*
X144296847Y-75889160D02*
X144487323Y-75936779D01*
X144487323Y-75936779D02*
X144582561Y-76032017D01*
X144582561Y-76032017D02*
X144630180Y-76127255D01*
X144630180Y-77174874D02*
X144630180Y-77365350D01*
X144630180Y-77365350D02*
X144582561Y-77460588D01*
X144582561Y-77460588D02*
X144487323Y-77555826D01*
X144487323Y-77555826D02*
X144296847Y-77603445D01*
X144296847Y-77603445D02*
X143963514Y-77603445D01*
X143963514Y-77603445D02*
X143773038Y-77555826D01*
X143773038Y-77555826D02*
X143677800Y-77460588D01*
X143677800Y-77460588D02*
X143630180Y-77365350D01*
X143630180Y-77365350D02*
X143630180Y-77174874D01*
X143630180Y-77174874D02*
X143677800Y-77079636D01*
X143677800Y-77079636D02*
X143773038Y-76984398D01*
X143773038Y-76984398D02*
X143963514Y-76936779D01*
X143963514Y-76936779D02*
X144296847Y-76936779D01*
X144296847Y-76936779D02*
X144487323Y-76984398D01*
X144487323Y-76984398D02*
X144582561Y-77079636D01*
X144582561Y-77079636D02*
X144630180Y-77174874D01*
X144630180Y-77889160D02*
X144630180Y-78460588D01*
X143630180Y-78174874D02*
X144630180Y-78174874D01*
D13*
X185940142Y-64564098D02*
X186740142Y-64278384D01*
X186740142Y-64278384D02*
X185940142Y-63992669D01*
X186740142Y-62906955D02*
X186740142Y-63592669D01*
X186740142Y-63249812D02*
X185540142Y-63249812D01*
X185540142Y-63249812D02*
X185711571Y-63364098D01*
X185711571Y-63364098D02*
X185825857Y-63478383D01*
X185825857Y-63478383D02*
X185883000Y-63592669D01*
X186625857Y-62392669D02*
X186683000Y-62335526D01*
X186683000Y-62335526D02*
X186740142Y-62392669D01*
X186740142Y-62392669D02*
X186683000Y-62449812D01*
X186683000Y-62449812D02*
X186625857Y-62392669D01*
X186625857Y-62392669D02*
X186740142Y-62392669D01*
X186740142Y-61192669D02*
X186740142Y-61878383D01*
X186740142Y-61535526D02*
X185540142Y-61535526D01*
X185540142Y-61535526D02*
X185711571Y-61649812D01*
X185711571Y-61649812D02*
X185825857Y-61764097D01*
X185825857Y-61764097D02*
X185883000Y-61878383D01*
D12*
X190220112Y-76296009D02*
X189886779Y-76296009D01*
X189886779Y-76819819D02*
X189886779Y-75819819D01*
X189886779Y-75819819D02*
X190362969Y-75819819D01*
X190743922Y-76819819D02*
X190743922Y-75819819D01*
X190743922Y-75819819D02*
X191077255Y-76534104D01*
X191077255Y-76534104D02*
X191410588Y-75819819D01*
X191410588Y-75819819D02*
X191410588Y-76819819D01*
X191886779Y-76438866D02*
X192648684Y-76438866D01*
X193077255Y-76534104D02*
X193553445Y-76534104D01*
X192982017Y-76819819D02*
X193315350Y-75819819D01*
X193315350Y-75819819D02*
X193648683Y-76819819D01*
X190270112Y-49446009D02*
X189936779Y-49446009D01*
X189936779Y-49969819D02*
X189936779Y-48969819D01*
X189936779Y-48969819D02*
X190412969Y-48969819D01*
X190793922Y-49969819D02*
X190793922Y-48969819D01*
X190793922Y-48969819D02*
X191127255Y-49684104D01*
X191127255Y-49684104D02*
X191460588Y-48969819D01*
X191460588Y-48969819D02*
X191460588Y-49969819D01*
X191936779Y-49588866D02*
X192698684Y-49588866D01*
X193508207Y-49446009D02*
X193651064Y-49493628D01*
X193651064Y-49493628D02*
X193698683Y-49541247D01*
X193698683Y-49541247D02*
X193746302Y-49636485D01*
X193746302Y-49636485D02*
X193746302Y-49779342D01*
X193746302Y-49779342D02*
X193698683Y-49874580D01*
X193698683Y-49874580D02*
X193651064Y-49922200D01*
X193651064Y-49922200D02*
X193555826Y-49969819D01*
X193555826Y-49969819D02*
X193174874Y-49969819D01*
X193174874Y-49969819D02*
X193174874Y-48969819D01*
X193174874Y-48969819D02*
X193508207Y-48969819D01*
X193508207Y-48969819D02*
X193603445Y-49017438D01*
X193603445Y-49017438D02*
X193651064Y-49065057D01*
X193651064Y-49065057D02*
X193698683Y-49160295D01*
X193698683Y-49160295D02*
X193698683Y-49255533D01*
X193698683Y-49255533D02*
X193651064Y-49350771D01*
X193651064Y-49350771D02*
X193603445Y-49398390D01*
X193603445Y-49398390D02*
X193508207Y-49446009D01*
X193508207Y-49446009D02*
X193174874Y-49446009D01*
X136030180Y-71941541D02*
X136030180Y-72560588D01*
X136030180Y-72560588D02*
X135649228Y-72227255D01*
X135649228Y-72227255D02*
X135649228Y-72370112D01*
X135649228Y-72370112D02*
X135601609Y-72465350D01*
X135601609Y-72465350D02*
X135553990Y-72512969D01*
X135553990Y-72512969D02*
X135458752Y-72560588D01*
X135458752Y-72560588D02*
X135220657Y-72560588D01*
X135220657Y-72560588D02*
X135125419Y-72512969D01*
X135125419Y-72512969D02*
X135077800Y-72465350D01*
X135077800Y-72465350D02*
X135030180Y-72370112D01*
X135030180Y-72370112D02*
X135030180Y-72084398D01*
X135030180Y-72084398D02*
X135077800Y-71989160D01*
X135077800Y-71989160D02*
X135125419Y-71941541D01*
X136030180Y-72846303D02*
X135030180Y-73179636D01*
X135030180Y-73179636D02*
X136030180Y-73512969D01*
X136030180Y-73751065D02*
X136030180Y-74370112D01*
X136030180Y-74370112D02*
X135649228Y-74036779D01*
X135649228Y-74036779D02*
X135649228Y-74179636D01*
X135649228Y-74179636D02*
X135601609Y-74274874D01*
X135601609Y-74274874D02*
X135553990Y-74322493D01*
X135553990Y-74322493D02*
X135458752Y-74370112D01*
X135458752Y-74370112D02*
X135220657Y-74370112D01*
X135220657Y-74370112D02*
X135125419Y-74322493D01*
X135125419Y-74322493D02*
X135077800Y-74274874D01*
X135077800Y-74274874D02*
X135030180Y-74179636D01*
X135030180Y-74179636D02*
X135030180Y-73893922D01*
X135030180Y-73893922D02*
X135077800Y-73798684D01*
X135077800Y-73798684D02*
X135125419Y-73751065D01*
D14*
G04 #@! TO.C,FB5*
X146390000Y-52060242D02*
X146390000Y-49539758D01*
X148210000Y-52060242D02*
X148210000Y-49539758D01*
G04 #@! TO.C,C6*
X175959420Y-55890000D02*
X176240580Y-55890000D01*
X175959420Y-56910000D02*
X176240580Y-56910000D01*
G04 #@! TO.C,D5*
X183250000Y-55710000D02*
X183250000Y-52450000D01*
X183250000Y-55710000D02*
X184950000Y-55710000D01*
X184950000Y-55710000D02*
X184950000Y-52450000D01*
G04 #@! TO.C,D1*
X114740000Y-54020000D02*
X114740000Y-57440000D01*
X114905000Y-57440000D02*
X114740000Y-57440000D01*
X114920000Y-54020000D02*
X114740000Y-54020000D01*
X114920000Y-54140000D02*
X114740000Y-54140000D01*
X114920000Y-54260000D02*
X114740000Y-54260000D01*
X117260000Y-54020000D02*
X117080000Y-54020000D01*
X117260000Y-54020000D02*
X117260000Y-57440000D01*
X117260000Y-54140000D02*
X117080000Y-54140000D01*
X117260000Y-54260000D02*
X117080000Y-54260000D01*
X117260000Y-57440000D02*
X117095000Y-57440000D01*
G04 #@! TO.C,C43*
X143790580Y-52990000D02*
X143509420Y-52990000D01*
X143790580Y-54010000D02*
X143509420Y-54010000D01*
G04 #@! TO.C,R28*
X132737258Y-70077500D02*
X132262742Y-70077500D01*
X132737258Y-71122500D02*
X132262742Y-71122500D01*
G04 #@! TO.C,R12*
X152962258Y-57577500D02*
X152487742Y-57577500D01*
X152962258Y-58622500D02*
X152487742Y-58622500D01*
G04 #@! TO.C,C5*
X122415580Y-55240000D02*
X122134420Y-55240000D01*
X122415580Y-56260000D02*
X122134420Y-56260000D01*
G04 #@! TO.C,U5*
X136240000Y-49900000D02*
X136240000Y-49100000D01*
X136240000Y-49900000D02*
X136240000Y-50700000D01*
X139360000Y-49900000D02*
X139360000Y-49100000D01*
X139360000Y-49900000D02*
X139360000Y-50700000D01*
X139640000Y-48840000D02*
X139310000Y-48600000D01*
X139640000Y-48360000D01*
X139640000Y-48840000D01*
G36*
X139640000Y-48840000D02*
G01*
X139310000Y-48600000D01*
X139640000Y-48360000D01*
X139640000Y-48840000D01*
G37*
G04 #@! TO.C,D4*
X161637500Y-53190000D02*
X160987500Y-53190000D01*
X161637500Y-53190000D02*
X162287500Y-53190000D01*
X161637500Y-56310000D02*
X160987500Y-56310000D01*
X161637500Y-56310000D02*
X162287500Y-56310000D01*
X160475000Y-53240000D02*
X160235000Y-52910000D01*
X160715000Y-52910000D01*
X160475000Y-53240000D01*
G36*
X160475000Y-53240000D02*
G01*
X160235000Y-52910000D01*
X160715000Y-52910000D01*
X160475000Y-53240000D01*
G37*
G04 #@! TO.C,Y2*
X144700000Y-62700000D02*
X144700000Y-64700000D01*
X144700000Y-64700000D02*
X144700000Y-65100000D01*
X144900000Y-62700000D02*
X145900000Y-62700000D01*
X144900000Y-64700000D02*
X144900000Y-62700000D01*
X144900000Y-64700000D02*
X144900000Y-65100000D01*
X145900000Y-65100000D02*
X144900000Y-65100000D01*
X145900000Y-65100000D02*
X145900000Y-65500000D01*
X147700000Y-62700000D02*
X148500000Y-62700000D01*
X148500000Y-62700000D02*
X148500000Y-64700000D01*
X148500000Y-64700000D02*
X148500000Y-65100000D01*
X148500000Y-65100000D02*
X147700000Y-65100000D01*
G04 #@! TO.C,L4*
X169342000Y-66204000D02*
X172542000Y-66204000D01*
X172542000Y-68924000D02*
X169342000Y-68924000D01*
G04 #@! TO.C,D6*
X183250000Y-70140000D02*
X183250000Y-73400000D01*
X184950000Y-70140000D02*
X183250000Y-70140000D01*
X184950000Y-70140000D02*
X184950000Y-73400000D01*
G04 #@! TO.C,R4*
X122512258Y-56877500D02*
X122037742Y-56877500D01*
X122512258Y-57922500D02*
X122037742Y-57922500D01*
G04 #@! TO.C,C33*
X143790000Y-58240580D02*
X143790000Y-57959420D01*
X144810000Y-58240580D02*
X144810000Y-57959420D01*
G04 #@! TO.C,C26*
X162559420Y-66390000D02*
X162840580Y-66390000D01*
X162559420Y-67410000D02*
X162840580Y-67410000D01*
G04 #@! TO.C,R15*
X152962258Y-66877500D02*
X152487742Y-66877500D01*
X152962258Y-67922500D02*
X152487742Y-67922500D01*
G04 #@! TO.C,J9*
X189600000Y-70050000D02*
X189600000Y-70550000D01*
X189600000Y-70550000D02*
X190100000Y-70300000D01*
X190100000Y-70300000D02*
X189600000Y-70050000D01*
G04 #@! TO.C,C36*
X132359420Y-66990000D02*
X132640580Y-66990000D01*
X132359420Y-68010000D02*
X132640580Y-68010000D01*
G04 #@! TO.C,C22*
X164965580Y-64890000D02*
X164684420Y-64890000D01*
X164965580Y-65910000D02*
X164684420Y-65910000D01*
G04 #@! TO.C,C31*
X145290000Y-58240580D02*
X145290000Y-57959420D01*
X146310000Y-58240580D02*
X146310000Y-57959420D01*
G04 #@! TO.C,C12*
X152559420Y-56090000D02*
X152840580Y-56090000D01*
X152559420Y-57110000D02*
X152840580Y-57110000D01*
G04 #@! TO.C,R25*
X137877500Y-72612742D02*
X137877500Y-73087258D01*
X138922500Y-72612742D02*
X138922500Y-73087258D01*
G04 #@! TO.C,C18*
X173690000Y-67690580D02*
X173690000Y-67409420D01*
X174710000Y-67690580D02*
X174710000Y-67409420D01*
G04 #@! TO.C,C32*
X127340580Y-70090000D02*
X127059420Y-70090000D01*
X127340580Y-71110000D02*
X127059420Y-71110000D01*
G04 #@! TO.C,R8*
X177977500Y-54387258D02*
X177977500Y-53912742D01*
X179022500Y-54387258D02*
X179022500Y-53912742D01*
G04 #@! TO.C,D2*
X114740000Y-49085000D02*
X114740000Y-52505000D01*
X114905000Y-52505000D02*
X114740000Y-52505000D01*
X114920000Y-49085000D02*
X114740000Y-49085000D01*
X114920000Y-49205000D02*
X114740000Y-49205000D01*
X114920000Y-49325000D02*
X114740000Y-49325000D01*
X117260000Y-49085000D02*
X117080000Y-49085000D01*
X117260000Y-49085000D02*
X117260000Y-52505000D01*
X117260000Y-49205000D02*
X117080000Y-49205000D01*
X117260000Y-49325000D02*
X117080000Y-49325000D01*
X117260000Y-52505000D02*
X117095000Y-52505000D01*
G04 #@! TO.C,U4*
X133690000Y-58190000D02*
X133690000Y-58640000D01*
X133690000Y-65410000D02*
X133690000Y-64960000D01*
X134140000Y-58190000D02*
X133690000Y-58190000D01*
X134140000Y-65410000D02*
X133690000Y-65410000D01*
X140460000Y-58190000D02*
X140910000Y-58190000D01*
X140460000Y-65410000D02*
X140910000Y-65410000D01*
X140910000Y-58190000D02*
X140910000Y-58640000D01*
X140910000Y-65410000D02*
X140910000Y-64960000D01*
X141840000Y-65430000D02*
X141160000Y-65430000D01*
X141500000Y-64960000D01*
X141840000Y-65430000D01*
G36*
X141840000Y-65430000D02*
G01*
X141160000Y-65430000D01*
X141500000Y-64960000D01*
X141840000Y-65430000D01*
G37*
G04 #@! TO.C,C4*
X116059420Y-70340000D02*
X116340580Y-70340000D01*
X116059420Y-71360000D02*
X116340580Y-71360000D01*
G04 #@! TO.C,FB1*
X119639758Y-68840000D02*
X122160242Y-68840000D01*
X119639758Y-70660000D02*
X122160242Y-70660000D01*
G04 #@! TO.C,J8*
X184700000Y-48279000D02*
X184900000Y-48079000D01*
X184700000Y-48879000D02*
X184200000Y-48879000D01*
X184700000Y-48879000D02*
X184700000Y-48279000D01*
X184700000Y-50279000D02*
X184200000Y-50279000D01*
X184700000Y-51079000D02*
X184700000Y-50279000D01*
X184900000Y-51079000D02*
X184700000Y-51079000D01*
X187500000Y-48079000D02*
X187700000Y-48079000D01*
X187700000Y-48079000D02*
X187700000Y-48879000D01*
X187700000Y-50279000D02*
X187700000Y-51079000D01*
X187700000Y-51079000D02*
X187500000Y-51079000D01*
D13*
G04 #@! TO.C,U2*
X175975000Y-61850000D02*
G75*
G02*
X175725000Y-61850000I-125000J0D01*
G01*
X175725000Y-61850000D02*
G75*
G02*
X175975000Y-61850000I125000J0D01*
G01*
D14*
G04 #@! TO.C,C40*
X134140580Y-48390000D02*
X133859420Y-48390000D01*
X134140580Y-49410000D02*
X133859420Y-49410000D01*
G04 #@! TO.C,R9*
X165277500Y-55237258D02*
X165277500Y-54762742D01*
X166322500Y-55237258D02*
X166322500Y-54762742D01*
G04 #@! TO.C,R16*
X152487742Y-59077500D02*
X152962258Y-59077500D01*
X152487742Y-60122500D02*
X152962258Y-60122500D01*
G04 #@! TO.C,R24*
X142337258Y-69577500D02*
X141862742Y-69577500D01*
X142337258Y-70622500D02*
X141862742Y-70622500D01*
G04 #@! TO.C,C8*
X171390000Y-53590580D02*
X171390000Y-53309420D01*
X172410000Y-53590580D02*
X172410000Y-53309420D01*
G04 #@! TO.C,C28*
X152865580Y-63590000D02*
X152584420Y-63590000D01*
X152865580Y-64610000D02*
X152584420Y-64610000D01*
G04 #@! TO.C,C2*
X127340580Y-58340000D02*
X127059420Y-58340000D01*
X127340580Y-59360000D02*
X127059420Y-59360000D01*
G04 #@! TO.C,J6*
X125543000Y-75370000D02*
X126873000Y-75370000D01*
X125543000Y-76700000D02*
X125543000Y-75370000D01*
X128143000Y-75370000D02*
X143443000Y-75370000D01*
X128143000Y-78030000D02*
X128143000Y-75370000D01*
X128143000Y-78030000D02*
X143443000Y-78030000D01*
X143443000Y-78030000D02*
X143443000Y-75370000D01*
G04 #@! TO.C,R6*
X123062742Y-76277500D02*
X123537258Y-76277500D01*
X123062742Y-77322500D02*
X123537258Y-77322500D01*
G04 #@! TO.C,C20*
X172109420Y-56440000D02*
X172390580Y-56440000D01*
X172109420Y-57460000D02*
X172390580Y-57460000D01*
G04 #@! TO.C,R29*
X126962742Y-68477500D02*
X127437258Y-68477500D01*
X126962742Y-69522500D02*
X127437258Y-69522500D01*
G04 #@! TO.C,R23*
X142337258Y-71127500D02*
X141862742Y-71127500D01*
X142337258Y-72172500D02*
X141862742Y-72172500D01*
G04 #@! TO.C,J3*
X119050000Y-48020000D02*
X119050000Y-50680000D01*
X129270000Y-48020000D02*
X119050000Y-48020000D01*
X129270000Y-48020000D02*
X129270000Y-50680000D01*
X129270000Y-50680000D02*
X119050000Y-50680000D01*
X131870000Y-49350000D02*
X131870000Y-50680000D01*
X131870000Y-50680000D02*
X130540000Y-50680000D01*
G04 #@! TO.C,C35*
X141959420Y-67990000D02*
X142240580Y-67990000D01*
X141959420Y-69010000D02*
X142240580Y-69010000D01*
G04 #@! TO.C,R30*
X129453641Y-61270000D02*
X129146359Y-61270000D01*
X129453641Y-62030000D02*
X129146359Y-62030000D01*
G04 #@! TO.C,R2*
X126962742Y-65277500D02*
X127437258Y-65277500D01*
X126962742Y-66322500D02*
X127437258Y-66322500D01*
G04 #@! TO.C,R18*
X157902500Y-69262742D02*
X157902500Y-69737258D01*
X158947500Y-69262742D02*
X158947500Y-69737258D01*
G04 #@! TO.C,C15*
X178189970Y-59138781D02*
X178388781Y-58939970D01*
X178911219Y-59860030D02*
X179110030Y-59661219D01*
G04 #@! TO.C,C42*
X134140580Y-49890000D02*
X133859420Y-49890000D01*
X134140580Y-50910000D02*
X133859420Y-50910000D01*
G04 #@! TO.C,R19*
X154702500Y-69262742D02*
X154702500Y-69737258D01*
X155747500Y-69262742D02*
X155747500Y-69737258D01*
D15*
G04 #@! TO.C,J1*
X112600000Y-58810000D02*
X113980000Y-58810000D01*
X112600000Y-67750000D02*
X112600000Y-58810000D01*
X112600000Y-67750000D02*
X113980000Y-67750000D01*
X118010000Y-58810000D02*
X116420000Y-58810000D01*
X118010000Y-67750000D02*
X116420000Y-67750000D01*
D14*
G04 #@! TO.C,L1*
X173550000Y-52790000D02*
X176750000Y-52790000D01*
X176750000Y-55510000D02*
X173550000Y-55510000D01*
G04 #@! TO.C,C30*
X152584420Y-65390000D02*
X152865580Y-65390000D01*
X152584420Y-66410000D02*
X152865580Y-66410000D01*
G04 #@! TO.C,R11*
X156302500Y-69262742D02*
X156302500Y-69737258D01*
X157347500Y-69262742D02*
X157347500Y-69737258D01*
G04 #@! TO.C,J10*
X189600000Y-55350000D02*
X189600000Y-55850000D01*
X189600000Y-55850000D02*
X190100000Y-55600000D01*
X190100000Y-55600000D02*
X189600000Y-55350000D01*
G04 #@! TO.C,R31*
X129146359Y-63620000D02*
X129453641Y-63620000D01*
X129146359Y-64380000D02*
X129453641Y-64380000D01*
G04 #@! TO.C,C23*
X164965580Y-63390000D02*
X164684420Y-63390000D01*
X164965580Y-64410000D02*
X164684420Y-64410000D01*
G04 #@! TO.C,C39*
X141290000Y-49840580D02*
X141290000Y-49559420D01*
X142310000Y-49840580D02*
X142310000Y-49559420D01*
G04 #@! TO.C,J7*
X147387000Y-75370000D02*
X148717000Y-75370000D01*
X147387000Y-76700000D02*
X147387000Y-75370000D01*
X149987000Y-75370000D02*
X155127000Y-75370000D01*
X149987000Y-78030000D02*
X149987000Y-75370000D01*
X149987000Y-78030000D02*
X155127000Y-78030000D01*
X155127000Y-78030000D02*
X155127000Y-75370000D01*
G04 #@! TO.C,J2*
X119050000Y-51920000D02*
X119050000Y-54580000D01*
X126730000Y-51920000D02*
X119050000Y-51920000D01*
X126730000Y-51920000D02*
X126730000Y-54580000D01*
X126730000Y-54580000D02*
X119050000Y-54580000D01*
X129330000Y-53250000D02*
X129330000Y-54580000D01*
X129330000Y-54580000D02*
X128000000Y-54580000D01*
G04 #@! TO.C,J4*
X121990000Y-71770000D02*
X123320000Y-71770000D01*
X121990000Y-73100000D02*
X121990000Y-71770000D01*
X124590000Y-71770000D02*
X134810000Y-71770000D01*
X124590000Y-74430000D02*
X124590000Y-71770000D01*
X124590000Y-74430000D02*
X134810000Y-74430000D01*
X134810000Y-74430000D02*
X134810000Y-71770000D01*
G04 #@! TO.C,U3*
X156565000Y-59620000D02*
X156565000Y-60095000D01*
X156565000Y-64840000D02*
X156565000Y-64365000D01*
X157040000Y-59620000D02*
X156565000Y-59620000D01*
X157040000Y-64840000D02*
X156565000Y-64840000D01*
X161310000Y-59620000D02*
X161785000Y-59620000D01*
X161310000Y-64840000D02*
X161785000Y-64840000D01*
X161785000Y-59620000D02*
X161785000Y-60095000D01*
G04 #@! TO.C,C21*
X159840000Y-69359420D02*
X159840000Y-69640580D01*
X160860000Y-69359420D02*
X160860000Y-69640580D01*
G04 #@! TO.C,C11*
X151902500Y-53459420D02*
X151902500Y-53740580D01*
X152922500Y-53459420D02*
X152922500Y-53740580D01*
G04 #@! TO.C,R13*
X152962258Y-60577500D02*
X152487742Y-60577500D01*
X152962258Y-61622500D02*
X152487742Y-61622500D01*
G04 #@! TO.C,C19*
X167079200Y-68040580D02*
X167079200Y-67759420D01*
X168099200Y-68040580D02*
X168099200Y-67759420D01*
G04 #@! TO.C,L2*
X166690000Y-56350000D02*
X166690000Y-53150000D01*
X169410000Y-53150000D02*
X169410000Y-56350000D01*
G04 #@! TO.C,R20*
X146777500Y-70237258D02*
X146777500Y-69762742D01*
X147822500Y-70237258D02*
X147822500Y-69762742D01*
G04 #@! TO.C,R7*
X175862742Y-57627500D02*
X176337258Y-57627500D01*
X175862742Y-58672500D02*
X176337258Y-58672500D01*
G04 #@! TO.C,C41*
X143790580Y-54540000D02*
X143509420Y-54540000D01*
X143790580Y-55560000D02*
X143509420Y-55560000D01*
G04 #@! TO.C,C7*
X169840000Y-53590580D02*
X169840000Y-53309420D01*
X170860000Y-53590580D02*
X170860000Y-53309420D01*
G04 #@! TO.C,C38*
X139790000Y-49840580D02*
X139790000Y-49559420D01*
X140810000Y-49840580D02*
X140810000Y-49559420D01*
G04 #@! TO.C,C29*
X152865580Y-62090000D02*
X152584420Y-62090000D01*
X152865580Y-63110000D02*
X152584420Y-63110000D01*
G04 #@! TO.C,D3*
X114740000Y-72360000D02*
X114740000Y-75780000D01*
X114905000Y-75780000D02*
X114740000Y-75780000D01*
X114920000Y-72360000D02*
X114740000Y-72360000D01*
X114920000Y-72480000D02*
X114740000Y-72480000D01*
X114920000Y-72600000D02*
X114740000Y-72600000D01*
X117260000Y-72360000D02*
X117080000Y-72360000D01*
X117260000Y-72360000D02*
X117260000Y-75780000D01*
X117260000Y-72480000D02*
X117080000Y-72480000D01*
X117260000Y-72600000D02*
X117080000Y-72600000D01*
X117260000Y-75780000D02*
X117095000Y-75780000D01*
G04 #@! TO.C,C34*
X133859420Y-53090000D02*
X134140580Y-53090000D01*
X133859420Y-54110000D02*
X134140580Y-54110000D01*
G04 #@! TO.C,FB3*
X134162779Y-51490000D02*
X133837221Y-51490000D01*
X134162779Y-52510000D02*
X133837221Y-52510000D01*
G04 #@! TO.C,R21*
X145277500Y-70237258D02*
X145277500Y-69762742D01*
X146322500Y-70237258D02*
X146322500Y-69762742D01*
G04 #@! TO.C,R1*
X126962742Y-59877500D02*
X127437258Y-59877500D01*
X126962742Y-60922500D02*
X127437258Y-60922500D01*
G04 #@! TO.C,C10*
X163790000Y-54859420D02*
X163790000Y-55140580D01*
X164810000Y-54859420D02*
X164810000Y-55140580D01*
G04 #@! TO.C,Y1*
X165200000Y-67850000D02*
X161200000Y-67850000D01*
X165200000Y-71150000D02*
X165200000Y-67850000D01*
G04 #@! TO.C,L3*
X155512500Y-52240000D02*
X158712500Y-52240000D01*
X158712500Y-54960000D02*
X155512500Y-54960000D01*
G04 #@! TO.C,FB2*
X146437221Y-66640000D02*
X146762779Y-66640000D01*
X146437221Y-67660000D02*
X146762779Y-67660000D01*
G04 #@! TO.C,C14*
X178438781Y-67310030D02*
X178239970Y-67111219D01*
X179160030Y-66588781D02*
X178961219Y-66389970D01*
G04 #@! TO.C,R22*
X143677500Y-63712742D02*
X143677500Y-64187258D01*
X144722500Y-63712742D02*
X144722500Y-64187258D01*
G04 #@! TO.C,R3*
X119437258Y-56877500D02*
X118962742Y-56877500D01*
X119437258Y-57922500D02*
X118962742Y-57922500D01*
G04 #@! TO.C,R5*
X118962742Y-55227500D02*
X119437258Y-55227500D01*
X118962742Y-56272500D02*
X119437258Y-56272500D01*
G04 #@! TO.C,R10*
X141912742Y-73677500D02*
X142387258Y-73677500D01*
X141912742Y-74722500D02*
X142387258Y-74722500D01*
G04 #@! TO.C,C24*
X158559420Y-57390000D02*
X158840580Y-57390000D01*
X158559420Y-58410000D02*
X158840580Y-58410000D01*
G04 #@! TO.C,R14*
X152962258Y-68377500D02*
X152487742Y-68377500D01*
X152962258Y-69422500D02*
X152487742Y-69422500D01*
D16*
G04 #@! TO.C,TR1*
X167575000Y-58930000D02*
X167575000Y-59130000D01*
X167575000Y-60730000D02*
X167575000Y-60930000D01*
X167575000Y-62530000D02*
X167575000Y-62730000D01*
X167575000Y-64330000D02*
X167575000Y-64530000D01*
X167575000Y-64530000D02*
X169375000Y-64530000D01*
X169375000Y-58930000D02*
X167575000Y-58930000D01*
X171375000Y-64530000D02*
X173175000Y-64530000D01*
X173175000Y-58930000D02*
X171375000Y-58930000D01*
X173175000Y-59130000D02*
X173175000Y-58930000D01*
X173175000Y-60730000D02*
X173175000Y-60930000D01*
X173175000Y-62530000D02*
X173175000Y-62730000D01*
X173175000Y-64530000D02*
X173175000Y-64330000D01*
D14*
G04 #@! TO.C,C9*
X153402500Y-53459420D02*
X153402500Y-53740580D01*
X154422500Y-53459420D02*
X154422500Y-53740580D01*
G04 #@! TO.C,FB4*
X146790000Y-57937221D02*
X146790000Y-58262779D01*
X147810000Y-57937221D02*
X147810000Y-58262779D01*
G04 #@! TO.C,C1*
X116059420Y-68832000D02*
X116340580Y-68832000D01*
X116059420Y-69852000D02*
X116340580Y-69852000D01*
G04 #@! TO.C,C17*
X179390000Y-64940580D02*
X179390000Y-64659420D01*
X180410000Y-64940580D02*
X180410000Y-64659420D01*
G04 #@! TO.C,C37*
X132359420Y-68590000D02*
X132640580Y-68590000D01*
X132359420Y-69610000D02*
X132640580Y-69610000D01*
G04 #@! TO.C,C3*
X127059420Y-66890000D02*
X127340580Y-66890000D01*
X127059420Y-67910000D02*
X127340580Y-67910000D01*
G04 #@! TO.C,R17*
X152987258Y-69877500D02*
X152512742Y-69877500D01*
X152987258Y-70922500D02*
X152512742Y-70922500D01*
G04 #@! TO.C,U6*
X142740000Y-49900000D02*
X142740000Y-49100000D01*
X142740000Y-49900000D02*
X142740000Y-50700000D01*
X145860000Y-49900000D02*
X145860000Y-49100000D01*
X145860000Y-49900000D02*
X145860000Y-50700000D01*
X146140000Y-48840000D02*
X145810000Y-48600000D01*
X146140000Y-48360000D01*
X146140000Y-48840000D01*
G36*
X146140000Y-48840000D02*
G01*
X145810000Y-48600000D01*
X146140000Y-48360000D01*
X146140000Y-48840000D01*
G37*
G04 #@! TO.C,C25*
X165590000Y-68040580D02*
X165590000Y-67759420D01*
X166610000Y-68040580D02*
X166610000Y-67759420D01*
G04 #@! TO.C,R26*
X127437258Y-55227500D02*
X126962742Y-55227500D01*
X127437258Y-56272500D02*
X126962742Y-56272500D01*
G04 #@! TO.C,C13*
X161659420Y-57390000D02*
X161940580Y-57390000D01*
X161659420Y-58410000D02*
X161940580Y-58410000D01*
G04 #@! TO.C,U1*
X125775000Y-61810000D02*
X124725000Y-61810000D01*
X125775000Y-63790000D02*
X124475000Y-63790000D01*
X124355000Y-61810000D02*
X124075000Y-61810000D01*
X124355000Y-61530000D01*
X124355000Y-61810000D01*
G36*
X124355000Y-61810000D02*
G01*
X124075000Y-61810000D01*
X124355000Y-61530000D01*
X124355000Y-61810000D01*
G37*
G04 #@! TO.C,C16*
X179390000Y-61540581D02*
X179390000Y-61259419D01*
X180410000Y-61540581D02*
X180410000Y-61259419D01*
G04 #@! TO.C,C27*
X163590000Y-59740580D02*
X163590000Y-59459420D01*
X164610000Y-59740580D02*
X164610000Y-59459420D01*
G04 #@! TO.C,R27*
X127437258Y-56727500D02*
X126962742Y-56727500D01*
X127437258Y-57772500D02*
X126962742Y-57772500D01*
G04 #@! TD*
%LPC*%
D16*
X113539297Y-43439297D02*
X195200000Y-43439297D01*
X195200000Y-46900000D01*
X113539297Y-46900000D01*
X113539297Y-43439297D01*
G36*
X113539297Y-43439297D02*
G01*
X195200000Y-43439297D01*
X195200000Y-46900000D01*
X113539297Y-46900000D01*
X113539297Y-43439297D01*
G37*
X113800000Y-78999649D02*
X195300000Y-78999649D01*
X195300000Y-82459649D01*
X113800000Y-82459649D01*
X113800000Y-78999649D01*
G36*
X113800000Y-78999649D02*
G01*
X195300000Y-78999649D01*
X195300000Y-82459649D01*
X113800000Y-82459649D01*
X113800000Y-78999649D01*
G37*
D17*
G04 #@! TO.C,REF\u002A\u002A*
X149700000Y-52400000D02*
X149700000Y-54300000D01*
X152200000Y-50400000D02*
X179700000Y-50400000D01*
X179700000Y-73900000D02*
X151900000Y-73900000D01*
X181700000Y-52900000D02*
X181700000Y-52350000D01*
X149700000Y-52400000D02*
G75*
G02*
X151700000Y-50400000I1999999J1D01*
G01*
X151690092Y-73888587D02*
G75*
G02*
X150828920Y-73704910I8J2110687D01*
G01*
X181449999Y-72850000D02*
G75*
G02*
X179700000Y-73891230I-1749999J950000D01*
G01*
G04 #@! TD*
D18*
G04 #@! TO.C,FB5*
X147300000Y-52912500D03*
X147300000Y-48687500D03*
G04 #@! TD*
D19*
G04 #@! TO.C,C6*
X175325000Y-56400000D03*
X176875000Y-56400000D03*
G04 #@! TD*
D20*
G04 #@! TO.C,D5*
X184100000Y-54950000D03*
X184100000Y-52450000D03*
G04 #@! TD*
D21*
G04 #@! TO.C,D1*
X116000000Y-54460000D03*
D22*
X116000000Y-57000000D03*
G04 #@! TD*
D23*
G04 #@! TO.C,C43*
X144425000Y-53500000D03*
X142875000Y-53500000D03*
G04 #@! TD*
D24*
G04 #@! TO.C,R28*
X133325000Y-70600000D03*
X131675000Y-70600000D03*
G04 #@! TD*
G04 #@! TO.C,R12*
X153550000Y-58100000D03*
X151900000Y-58100000D03*
G04 #@! TD*
D23*
G04 #@! TO.C,C5*
X123050000Y-55750000D03*
X121500000Y-55750000D03*
G04 #@! TD*
D25*
G04 #@! TO.C,U5*
X138750000Y-48762500D03*
X137800000Y-48762500D03*
X136850000Y-48762500D03*
X136850000Y-51037500D03*
X138750000Y-51037500D03*
G04 #@! TD*
D26*
G04 #@! TO.C,D4*
X160700000Y-53800000D03*
X160700000Y-55700000D03*
X162575000Y-54750000D03*
G04 #@! TD*
D27*
G04 #@! TO.C,Y2*
X145500000Y-63900000D03*
X146700000Y-63900000D03*
X147900000Y-63900000D03*
G04 #@! TD*
D28*
G04 #@! TO.C,L4*
X172542000Y-67564000D03*
X169342000Y-67564000D03*
G04 #@! TD*
D29*
G04 #@! TO.C,D6*
X184100000Y-70900000D03*
X184100000Y-73400000D03*
G04 #@! TD*
D24*
G04 #@! TO.C,R4*
X123100000Y-57400000D03*
X121450000Y-57400000D03*
G04 #@! TD*
D30*
G04 #@! TO.C,C33*
X144300000Y-58875000D03*
X144300000Y-57325000D03*
G04 #@! TD*
D19*
G04 #@! TO.C,C26*
X161925000Y-66900000D03*
X163475000Y-66900000D03*
G04 #@! TD*
D24*
G04 #@! TO.C,R15*
X153550000Y-67400000D03*
X151900000Y-67400000D03*
G04 #@! TD*
D31*
G04 #@! TO.C,J9*
X192250000Y-70300000D03*
D32*
X192250000Y-66807500D03*
X192250000Y-73792500D03*
G04 #@! TD*
D19*
G04 #@! TO.C,C36*
X131725000Y-67500000D03*
X133275000Y-67500000D03*
G04 #@! TD*
D23*
G04 #@! TO.C,C22*
X165600000Y-65400000D03*
X164050000Y-65400000D03*
G04 #@! TD*
D30*
G04 #@! TO.C,C31*
X145800000Y-58875000D03*
X145800000Y-57325000D03*
G04 #@! TD*
D19*
G04 #@! TO.C,C12*
X151925000Y-56600000D03*
X153475000Y-56600000D03*
G04 #@! TD*
D33*
G04 #@! TO.C,R25*
X138400000Y-72025000D03*
X138400000Y-73675000D03*
G04 #@! TD*
D34*
G04 #@! TO.C,FL1*
X130250000Y-62400000D03*
X128350000Y-62400000D03*
X130250000Y-63200000D03*
X128350000Y-63200000D03*
G04 #@! TD*
D30*
G04 #@! TO.C,C18*
X174200000Y-68325000D03*
X174200000Y-66775000D03*
G04 #@! TD*
D23*
G04 #@! TO.C,C32*
X127975000Y-70600000D03*
X126425000Y-70600000D03*
G04 #@! TD*
D35*
G04 #@! TO.C,R8*
X178500000Y-54975000D03*
X178500000Y-53325000D03*
G04 #@! TD*
D21*
G04 #@! TO.C,D2*
X116000000Y-49525000D03*
D22*
X116000000Y-52065000D03*
G04 #@! TD*
D36*
G04 #@! TO.C,U4*
X141462500Y-64550000D03*
X141462500Y-64050000D03*
X141462500Y-63550000D03*
X141462500Y-63050000D03*
X141462500Y-62550000D03*
X141462500Y-62050000D03*
X141462500Y-61550000D03*
X141462500Y-61050000D03*
X141462500Y-60550000D03*
X141462500Y-60050000D03*
X141462500Y-59550000D03*
X141462500Y-59050000D03*
D37*
X140050000Y-57637500D03*
X139550000Y-57637500D03*
X139050000Y-57637500D03*
X138550000Y-57637500D03*
X138050000Y-57637500D03*
X137550000Y-57637500D03*
X137050000Y-57637500D03*
X136550000Y-57637500D03*
X136050000Y-57637500D03*
X135550000Y-57637500D03*
X135050000Y-57637500D03*
X134550000Y-57637500D03*
D36*
X133137500Y-59050000D03*
X133137500Y-59550000D03*
X133137500Y-60050000D03*
X133137500Y-60550000D03*
X133137500Y-61050000D03*
X133137500Y-61550000D03*
X133137500Y-62050000D03*
X133137500Y-62550000D03*
X133137500Y-63050000D03*
X133137500Y-63550000D03*
X133137500Y-64050000D03*
X133137500Y-64550000D03*
D37*
X134550000Y-65962500D03*
X135050000Y-65962500D03*
X135550000Y-65962500D03*
X136050000Y-65962500D03*
X136550000Y-65962500D03*
X137050000Y-65962500D03*
X137550000Y-65962500D03*
X138050000Y-65962500D03*
X138550000Y-65962500D03*
X139050000Y-65962500D03*
X139550000Y-65962500D03*
X140050000Y-65962500D03*
G04 #@! TD*
D19*
G04 #@! TO.C,C4*
X115425000Y-70850000D03*
X116975000Y-70850000D03*
G04 #@! TD*
D38*
G04 #@! TO.C,FB1*
X118787500Y-69750000D03*
X123012500Y-69750000D03*
G04 #@! TD*
D39*
G04 #@! TO.C,J8*
X184700000Y-49579000D03*
D40*
X186200000Y-48104000D03*
D39*
X187700000Y-49579000D03*
D40*
X186200000Y-51054000D03*
G04 #@! TD*
D41*
G04 #@! TO.C,U2*
X176052500Y-62600000D03*
D42*
X176150000Y-63100000D03*
D43*
X176052500Y-63600000D03*
D44*
X176700000Y-64247500D03*
D45*
X177200000Y-64150000D03*
D46*
X177700000Y-64247500D03*
D47*
X178347500Y-63600000D03*
D42*
X178250000Y-63100000D03*
D48*
X178347500Y-62600000D03*
D49*
X177700000Y-61952500D03*
D45*
X177200000Y-62050000D03*
D50*
X176700000Y-61952500D03*
D51*
X177200000Y-63100000D03*
G04 #@! TD*
D23*
G04 #@! TO.C,C40*
X134775000Y-48900000D03*
X133225000Y-48900000D03*
G04 #@! TD*
D35*
G04 #@! TO.C,R9*
X165800000Y-55825000D03*
X165800000Y-54175000D03*
G04 #@! TD*
D52*
G04 #@! TO.C,R16*
X151900000Y-59600000D03*
X153550000Y-59600000D03*
G04 #@! TD*
D24*
G04 #@! TO.C,R24*
X142925000Y-70100000D03*
X141275000Y-70100000D03*
G04 #@! TD*
D30*
G04 #@! TO.C,C8*
X171900000Y-54225000D03*
X171900000Y-52675000D03*
G04 #@! TD*
D23*
G04 #@! TO.C,C28*
X153500000Y-64100000D03*
X151950000Y-64100000D03*
G04 #@! TD*
G04 #@! TO.C,C2*
X127975000Y-58850000D03*
X126425000Y-58850000D03*
G04 #@! TD*
D53*
G04 #@! TO.C,J6*
X126873000Y-76700000D03*
D54*
X129413000Y-76700000D03*
X131953000Y-76700000D03*
X134493000Y-76700000D03*
X137033000Y-76700000D03*
X139573000Y-76700000D03*
X142113000Y-76700000D03*
G04 #@! TD*
D52*
G04 #@! TO.C,R6*
X122475000Y-76800000D03*
X124125000Y-76800000D03*
G04 #@! TD*
D19*
G04 #@! TO.C,C20*
X171475000Y-56950000D03*
X173025000Y-56950000D03*
G04 #@! TD*
D52*
G04 #@! TO.C,R29*
X126375000Y-69000000D03*
X128025000Y-69000000D03*
G04 #@! TD*
D24*
G04 #@! TO.C,R23*
X142925000Y-71650000D03*
X141275000Y-71650000D03*
G04 #@! TD*
D53*
G04 #@! TO.C,J3*
X130540000Y-49350000D03*
D54*
X128000000Y-49350000D03*
X125460000Y-49350000D03*
X122920000Y-49350000D03*
X120380000Y-49350000D03*
G04 #@! TD*
D19*
G04 #@! TO.C,C35*
X141325000Y-68500000D03*
X142875000Y-68500000D03*
G04 #@! TD*
D55*
G04 #@! TO.C,R30*
X129810000Y-61650000D03*
X128790000Y-61650000D03*
G04 #@! TD*
D52*
G04 #@! TO.C,R2*
X126375000Y-65800000D03*
X128025000Y-65800000D03*
G04 #@! TD*
D33*
G04 #@! TO.C,R18*
X158425000Y-68675000D03*
X158425000Y-70325000D03*
G04 #@! TD*
D56*
G04 #@! TO.C,C15*
X178101992Y-59948008D03*
X179198008Y-58851992D03*
G04 #@! TD*
D23*
G04 #@! TO.C,C42*
X134775000Y-50400000D03*
X133225000Y-50400000D03*
G04 #@! TD*
D33*
G04 #@! TO.C,R19*
X155225000Y-68675000D03*
X155225000Y-70325000D03*
G04 #@! TD*
D57*
G04 #@! TO.C,J1*
X118880000Y-60390000D03*
X118880000Y-66170000D03*
D58*
X120112500Y-60080000D03*
D59*
X120100000Y-60880000D03*
D60*
X120065000Y-62030000D03*
X120065000Y-63030000D03*
X120065000Y-63530000D03*
X120065000Y-64530000D03*
D58*
X120112500Y-66480000D03*
D59*
X120100000Y-65680000D03*
D60*
X120065000Y-65030000D03*
X120065000Y-64030000D03*
X120065000Y-62530000D03*
X120065000Y-61530000D03*
D61*
X119380000Y-58960000D03*
X119380000Y-67600000D03*
D62*
X115200000Y-58960000D03*
X115200000Y-67600000D03*
G04 #@! TD*
D28*
G04 #@! TO.C,L1*
X176750000Y-54150000D03*
X173550000Y-54150000D03*
G04 #@! TD*
D63*
G04 #@! TO.C,REF\u002A\u002A*
X154600000Y-73900000D03*
X176900000Y-50400000D03*
G04 #@! TD*
D19*
G04 #@! TO.C,C30*
X151950000Y-65900000D03*
X153500000Y-65900000D03*
G04 #@! TD*
D33*
G04 #@! TO.C,R11*
X156825000Y-68675000D03*
X156825000Y-70325000D03*
G04 #@! TD*
D31*
G04 #@! TO.C,J10*
X192250000Y-55600000D03*
D32*
X192250000Y-52107500D03*
X192250000Y-59092500D03*
G04 #@! TD*
D64*
G04 #@! TO.C,R31*
X128790000Y-64000000D03*
X129810000Y-64000000D03*
G04 #@! TD*
D23*
G04 #@! TO.C,C23*
X165600000Y-63900000D03*
X164050000Y-63900000D03*
G04 #@! TD*
D30*
G04 #@! TO.C,C39*
X141800000Y-50475000D03*
X141800000Y-48925000D03*
G04 #@! TD*
D53*
G04 #@! TO.C,J7*
X148717000Y-76700000D03*
D54*
X151257000Y-76700000D03*
X153797000Y-76700000D03*
G04 #@! TD*
D53*
G04 #@! TO.C,J2*
X128000000Y-53250000D03*
D54*
X125460000Y-53250000D03*
X122920000Y-53250000D03*
X120380000Y-53250000D03*
G04 #@! TD*
D53*
G04 #@! TO.C,J4*
X123320000Y-73100000D03*
D54*
X125860000Y-73100000D03*
X128400000Y-73100000D03*
X130940000Y-73100000D03*
X133480000Y-73100000D03*
G04 #@! TD*
D65*
G04 #@! TO.C,U3*
X161675000Y-63980000D03*
X161675000Y-63480000D03*
X161675000Y-62980000D03*
X161675000Y-62480000D03*
X161675000Y-61980000D03*
X161675000Y-61480000D03*
X161675000Y-60980000D03*
X161675000Y-60480000D03*
D66*
X160925000Y-59730000D03*
X160425000Y-59730000D03*
X159925000Y-59730000D03*
X159425000Y-59730000D03*
X158925000Y-59730000D03*
X158425000Y-59730000D03*
X157925000Y-59730000D03*
X157425000Y-59730000D03*
D65*
X156675000Y-60480000D03*
X156675000Y-60980000D03*
X156675000Y-61480000D03*
X156675000Y-61980000D03*
X156675000Y-62480000D03*
X156675000Y-62980000D03*
X156675000Y-63480000D03*
X156675000Y-63980000D03*
D66*
X157425000Y-64730000D03*
X157925000Y-64730000D03*
X158425000Y-64730000D03*
X158925000Y-64730000D03*
X159425000Y-64730000D03*
X159925000Y-64730000D03*
X160425000Y-64730000D03*
X160925000Y-64730000D03*
D67*
X159175000Y-62230000D03*
G04 #@! TD*
D68*
G04 #@! TO.C,C21*
X160350000Y-68725000D03*
X160350000Y-70275000D03*
G04 #@! TD*
G04 #@! TO.C,C11*
X152412500Y-52825000D03*
X152412500Y-54375000D03*
G04 #@! TD*
D24*
G04 #@! TO.C,R13*
X153550000Y-61100000D03*
X151900000Y-61100000D03*
G04 #@! TD*
D30*
G04 #@! TO.C,C19*
X167589200Y-68675000D03*
X167589200Y-67125000D03*
G04 #@! TD*
D69*
G04 #@! TO.C,L2*
X168050000Y-53150000D03*
X168050000Y-56350000D03*
G04 #@! TD*
D35*
G04 #@! TO.C,R20*
X147300000Y-70825000D03*
X147300000Y-69175000D03*
G04 #@! TD*
D52*
G04 #@! TO.C,R7*
X175275000Y-58150000D03*
X176925000Y-58150000D03*
G04 #@! TD*
D23*
G04 #@! TO.C,C41*
X144425000Y-55050000D03*
X142875000Y-55050000D03*
G04 #@! TD*
D30*
G04 #@! TO.C,C7*
X170350000Y-54225000D03*
X170350000Y-52675000D03*
G04 #@! TD*
G04 #@! TO.C,C38*
X140300000Y-50475000D03*
X140300000Y-48925000D03*
G04 #@! TD*
D23*
G04 #@! TO.C,C29*
X153500000Y-62600000D03*
X151950000Y-62600000D03*
G04 #@! TD*
D21*
G04 #@! TO.C,D3*
X116000000Y-72800000D03*
D22*
X116000000Y-75340000D03*
G04 #@! TD*
D19*
G04 #@! TO.C,C34*
X133225000Y-53600000D03*
X134775000Y-53600000D03*
G04 #@! TD*
D70*
G04 #@! TO.C,FB3*
X134787500Y-52000000D03*
X133212500Y-52000000D03*
G04 #@! TD*
D35*
G04 #@! TO.C,R21*
X145800000Y-70825000D03*
X145800000Y-69175000D03*
G04 #@! TD*
D52*
G04 #@! TO.C,R1*
X126375000Y-60400000D03*
X128025000Y-60400000D03*
G04 #@! TD*
D68*
G04 #@! TO.C,C10*
X164300000Y-54225000D03*
X164300000Y-55775000D03*
G04 #@! TD*
D71*
G04 #@! TO.C,Y1*
X164300000Y-68650000D03*
X162100000Y-68650000D03*
X162100000Y-70350000D03*
X164300000Y-70350000D03*
G04 #@! TD*
D28*
G04 #@! TO.C,L3*
X158712500Y-53600000D03*
X155512500Y-53600000D03*
G04 #@! TD*
D72*
G04 #@! TO.C,FB2*
X145812500Y-67150000D03*
X147387500Y-67150000D03*
G04 #@! TD*
D73*
G04 #@! TO.C,C14*
X179248008Y-67398008D03*
X178151992Y-66301992D03*
G04 #@! TD*
D33*
G04 #@! TO.C,R22*
X144200000Y-63125000D03*
X144200000Y-64775000D03*
G04 #@! TD*
D24*
G04 #@! TO.C,R3*
X120025000Y-57400000D03*
X118375000Y-57400000D03*
G04 #@! TD*
D52*
G04 #@! TO.C,R5*
X118375000Y-55750000D03*
X120025000Y-55750000D03*
G04 #@! TD*
G04 #@! TO.C,R10*
X141325000Y-74200000D03*
X142975000Y-74200000D03*
G04 #@! TD*
D19*
G04 #@! TO.C,C24*
X157925000Y-57900000D03*
X159475000Y-57900000D03*
G04 #@! TD*
D24*
G04 #@! TO.C,R14*
X153550000Y-68900000D03*
X151900000Y-68900000D03*
G04 #@! TD*
D74*
G04 #@! TO.C,TR1*
X167375000Y-59930000D03*
X167375000Y-61730000D03*
X167375000Y-63530000D03*
X173375000Y-63530000D03*
X173375000Y-61730000D03*
X173375000Y-59930000D03*
D75*
X170375000Y-59130000D03*
X170375000Y-64330000D03*
G04 #@! TD*
D68*
G04 #@! TO.C,C9*
X153912500Y-52825000D03*
X153912500Y-54375000D03*
G04 #@! TD*
D76*
G04 #@! TO.C,FB4*
X147300000Y-57312500D03*
X147300000Y-58887500D03*
G04 #@! TD*
D19*
G04 #@! TO.C,C1*
X115425000Y-69342000D03*
X116975000Y-69342000D03*
G04 #@! TD*
D30*
G04 #@! TO.C,C17*
X179900000Y-65575000D03*
X179900000Y-64025000D03*
G04 #@! TD*
D19*
G04 #@! TO.C,C37*
X131725000Y-69100000D03*
X133275000Y-69100000D03*
G04 #@! TD*
G04 #@! TO.C,C3*
X126425000Y-67400000D03*
X127975000Y-67400000D03*
G04 #@! TD*
D24*
G04 #@! TO.C,R17*
X153575000Y-70400000D03*
X151925000Y-70400000D03*
G04 #@! TD*
D25*
G04 #@! TO.C,U6*
X145250000Y-48762500D03*
X144300000Y-48762500D03*
X143350000Y-48762500D03*
X143350000Y-51037500D03*
X145250000Y-51037500D03*
G04 #@! TD*
D30*
G04 #@! TO.C,C25*
X166100000Y-68675000D03*
X166100000Y-67125000D03*
G04 #@! TD*
D24*
G04 #@! TO.C,R26*
X128025000Y-55750000D03*
X126375000Y-55750000D03*
G04 #@! TD*
D19*
G04 #@! TO.C,C13*
X161025000Y-57900000D03*
X162575000Y-57900000D03*
G04 #@! TD*
D77*
G04 #@! TO.C,U1*
X124275000Y-62262500D03*
D78*
X124200000Y-62800000D03*
D77*
X124275000Y-63337500D03*
X125975000Y-63337500D03*
D78*
X126050000Y-62800000D03*
D77*
X125975000Y-62262500D03*
G04 #@! TD*
D30*
G04 #@! TO.C,C16*
X179900000Y-62175000D03*
X179900000Y-60625000D03*
G04 #@! TD*
G04 #@! TO.C,C27*
X164100000Y-60375000D03*
X164100000Y-58825000D03*
G04 #@! TD*
D24*
G04 #@! TO.C,R27*
X128025000Y-57250000D03*
X126375000Y-57250000D03*
G04 #@! TD*
G36*
X182379772Y-52091358D02*
G01*
X182427250Y-52142619D01*
X182439792Y-52187514D01*
X182439997Y-52189978D01*
X182449385Y-52283849D01*
X182450000Y-52296188D01*
X182450000Y-53493662D01*
X182430315Y-53560701D01*
X182407566Y-53587059D01*
X181155566Y-54680472D01*
X181092124Y-54709743D01*
X181022927Y-54700069D01*
X180969946Y-54654519D01*
X180950001Y-54587557D01*
X180950000Y-54587075D01*
X180950000Y-52320002D01*
X180949999Y-52319992D01*
X180943155Y-52251555D01*
X180956070Y-52182889D01*
X181004059Y-52132107D01*
X181062435Y-52115283D01*
X182312118Y-52073903D01*
X182379772Y-52091358D01*
G37*
G36*
X150756601Y-72867476D02*
G01*
X150764634Y-72873098D01*
X150800000Y-72900000D01*
X150960139Y-72953379D01*
X151017513Y-72993253D01*
X151044222Y-73057816D01*
X151031786Y-73126570D01*
X151030105Y-73129804D01*
X150452471Y-74202553D01*
X150403356Y-74252247D01*
X150335172Y-74267499D01*
X150297241Y-74258896D01*
X149917062Y-74106825D01*
X149885652Y-74088522D01*
X149405360Y-73704288D01*
X149395141Y-73695141D01*
X149114229Y-73414229D01*
X149091001Y-73382003D01*
X148938675Y-73077352D01*
X148926300Y-73008587D01*
X148953067Y-72944047D01*
X148962228Y-72933892D01*
X149012706Y-72883786D01*
X149074152Y-72850528D01*
X149100062Y-72847791D01*
X150689562Y-72847791D01*
X150756601Y-72867476D01*
G37*
G36*
X150393039Y-56119685D02*
G01*
X150438794Y-56172489D01*
X150450000Y-56224000D01*
X150450000Y-66166000D01*
X150430315Y-66233039D01*
X150377511Y-66278794D01*
X150326000Y-66290000D01*
X149074000Y-66290000D01*
X149006961Y-66270315D01*
X148961206Y-66217511D01*
X148950000Y-66166000D01*
X148950000Y-56224000D01*
X148969685Y-56156961D01*
X149022489Y-56111206D01*
X149074000Y-56100000D01*
X150326000Y-56100000D01*
X150393039Y-56119685D01*
G37*
G36*
X182372297Y-57898801D02*
G01*
X182427139Y-57942092D01*
X182449870Y-58008161D01*
X182450000Y-58013834D01*
X182450000Y-68151575D01*
X182430315Y-68218614D01*
X182377511Y-68264369D01*
X182308353Y-68274313D01*
X182244797Y-68245288D01*
X182243048Y-68243743D01*
X180991048Y-67116943D01*
X180954387Y-67057465D01*
X180950000Y-67024775D01*
X180950000Y-59203234D01*
X180969685Y-59136195D01*
X180988595Y-59113334D01*
X182240595Y-57923934D01*
X182302756Y-57892032D01*
X182372297Y-57898801D01*
G37*
G36*
X150393039Y-59719685D02*
G01*
X150438794Y-59772489D01*
X150450000Y-59824000D01*
X150450000Y-60856000D01*
X150430315Y-60923039D01*
X150377511Y-60968794D01*
X150326000Y-60980000D01*
X149074000Y-60980000D01*
X149006961Y-60960315D01*
X148961206Y-60907511D01*
X148950000Y-60856000D01*
X148950000Y-59824000D01*
X148969685Y-59756961D01*
X149022489Y-59711206D01*
X149074000Y-59700000D01*
X150326000Y-59700000D01*
X150393039Y-59719685D01*
G37*
G36*
X150393039Y-58219685D02*
G01*
X150438794Y-58272489D01*
X150450000Y-58324000D01*
X150450000Y-59376000D01*
X150430315Y-59443039D01*
X150377511Y-59488794D01*
X150326000Y-59500000D01*
X149074000Y-59500000D01*
X149006961Y-59480315D01*
X148961206Y-59427511D01*
X148950000Y-59376000D01*
X148950000Y-58324000D01*
X148969685Y-58256961D01*
X149022489Y-58211206D01*
X149074000Y-58200000D01*
X150326000Y-58200000D01*
X150393039Y-58219685D01*
G37*
G36*
X150393039Y-53149685D02*
G01*
X150438794Y-53202489D01*
X150450000Y-53254000D01*
X150450000Y-55176000D01*
X150430315Y-55243039D01*
X150377511Y-55288794D01*
X150326000Y-55300000D01*
X149074000Y-55300000D01*
X149006961Y-55280315D01*
X148961206Y-55227511D01*
X148950000Y-55176000D01*
X148950000Y-53254000D01*
X148969685Y-53186961D01*
X149022489Y-53141206D01*
X149074000Y-53130000D01*
X150326000Y-53130000D01*
X150393039Y-53149685D01*
G37*
G36*
X150393039Y-61199685D02*
G01*
X150438794Y-61252489D01*
X150450000Y-61304000D01*
X150450000Y-66166000D01*
X150430315Y-66233039D01*
X150377511Y-66278794D01*
X150326000Y-66290000D01*
X149074000Y-66290000D01*
X149006961Y-66270315D01*
X148961206Y-66217511D01*
X148950000Y-66166000D01*
X148950000Y-61304000D01*
X148969685Y-61236961D01*
X149022489Y-61191206D01*
X149074000Y-61180000D01*
X150326000Y-61180000D01*
X150393039Y-61199685D01*
G37*
%LPD*%
M02*
