G04 #@! TF.GenerationSoftware,KiCad,Pcbnew,8.0.4*
G04 #@! TF.CreationDate,2024-11-17T23:13:56+01:00*
G04 #@! TF.ProjectId,TEF6687,54454636-3638-4372-9e6b-696361645f70,v1.1*
G04 #@! TF.SameCoordinates,Original*
G04 #@! TF.FileFunction,Legend,Bot*
G04 #@! TF.FilePolarity,Positive*
%FSLAX46Y46*%
G04 Gerber Fmt 4.6, Leading zero omitted, Abs format (unit mm)*
G04 Created by KiCad (PCBNEW 8.0.4) date 2024-11-17 23:13:56*
%MOMM*%
%LPD*%
G01*
G04 APERTURE LIST*
G04 Aperture macros list*
%AMRoundRect*
0 Rectangle with rounded corners*
0 $1 Rounding radius*
0 $2 $3 $4 $5 $6 $7 $8 $9 X,Y pos of 4 corners*
0 Add a 4 corners polygon primitive as box body*
4,1,4,$2,$3,$4,$5,$6,$7,$8,$9,$2,$3,0*
0 Add four circle primitives for the rounded corners*
1,1,$1+$1,$2,$3*
1,1,$1+$1,$4,$5*
1,1,$1+$1,$6,$7*
1,1,$1+$1,$8,$9*
0 Add four rect primitives between the rounded corners*
20,1,$1+$1,$2,$3,$4,$5,0*
20,1,$1+$1,$4,$5,$6,$7,0*
20,1,$1+$1,$6,$7,$8,$9,0*
20,1,$1+$1,$8,$9,$2,$3,0*%
G04 Aperture macros list end*
%ADD10C,0.150000*%
%ADD11C,0.300000*%
%ADD12C,0.000000*%
%ADD13C,0.120000*%
%ADD14C,0.010000*%
%ADD15C,0.200000*%
%ADD16R,1.800000X1.800000*%
%ADD17C,1.800000*%
%ADD18RoundRect,0.250000X-1.595000X-1.082500X1.595000X-1.082500X1.595000X1.082500X-1.595000X1.082500X0*%
%ADD19R,1.700000X1.700000*%
%ADD20O,1.700000X1.700000*%
%ADD21C,0.650000*%
%ADD22O,2.100000X1.050000*%
%ADD23O,1.800000X0.900000*%
%ADD24R,2.286000X1.500000*%
%ADD25RoundRect,0.250000X1.500000X-0.250000X1.500000X0.250000X-1.500000X0.250000X-1.500000X-0.250000X0*%
G04 APERTURE END LIST*
D10*
X148291792Y-78769819D02*
X148625125Y-78293628D01*
X148863220Y-78769819D02*
X148863220Y-77769819D01*
X148863220Y-77769819D02*
X148482268Y-77769819D01*
X148482268Y-77769819D02*
X148387030Y-77817438D01*
X148387030Y-77817438D02*
X148339411Y-77865057D01*
X148339411Y-77865057D02*
X148291792Y-77960295D01*
X148291792Y-77960295D02*
X148291792Y-78103152D01*
X148291792Y-78103152D02*
X148339411Y-78198390D01*
X148339411Y-78198390D02*
X148387030Y-78246009D01*
X148387030Y-78246009D02*
X148482268Y-78293628D01*
X148482268Y-78293628D02*
X148863220Y-78293628D01*
X138263220Y-78769819D02*
X138263220Y-77769819D01*
X138263220Y-77769819D02*
X137882268Y-77769819D01*
X137882268Y-77769819D02*
X137787030Y-77817438D01*
X137787030Y-77817438D02*
X137739411Y-77865057D01*
X137739411Y-77865057D02*
X137691792Y-77960295D01*
X137691792Y-77960295D02*
X137691792Y-78103152D01*
X137691792Y-78103152D02*
X137739411Y-78198390D01*
X137739411Y-78198390D02*
X137787030Y-78246009D01*
X137787030Y-78246009D02*
X137882268Y-78293628D01*
X137882268Y-78293628D02*
X138263220Y-78293628D01*
X136929887Y-78246009D02*
X136787030Y-78293628D01*
X136787030Y-78293628D02*
X136739411Y-78341247D01*
X136739411Y-78341247D02*
X136691792Y-78436485D01*
X136691792Y-78436485D02*
X136691792Y-78579342D01*
X136691792Y-78579342D02*
X136739411Y-78674580D01*
X136739411Y-78674580D02*
X136787030Y-78722200D01*
X136787030Y-78722200D02*
X136882268Y-78769819D01*
X136882268Y-78769819D02*
X137263220Y-78769819D01*
X137263220Y-78769819D02*
X137263220Y-77769819D01*
X137263220Y-77769819D02*
X136929887Y-77769819D01*
X136929887Y-77769819D02*
X136834649Y-77817438D01*
X136834649Y-77817438D02*
X136787030Y-77865057D01*
X136787030Y-77865057D02*
X136739411Y-77960295D01*
X136739411Y-77960295D02*
X136739411Y-78055533D01*
X136739411Y-78055533D02*
X136787030Y-78150771D01*
X136787030Y-78150771D02*
X136834649Y-78198390D01*
X136834649Y-78198390D02*
X136929887Y-78246009D01*
X136929887Y-78246009D02*
X137263220Y-78246009D01*
X135834649Y-77769819D02*
X136025125Y-77769819D01*
X136025125Y-77769819D02*
X136120363Y-77817438D01*
X136120363Y-77817438D02*
X136167982Y-77865057D01*
X136167982Y-77865057D02*
X136263220Y-78007914D01*
X136263220Y-78007914D02*
X136310839Y-78198390D01*
X136310839Y-78198390D02*
X136310839Y-78579342D01*
X136310839Y-78579342D02*
X136263220Y-78674580D01*
X136263220Y-78674580D02*
X136215601Y-78722200D01*
X136215601Y-78722200D02*
X136120363Y-78769819D01*
X136120363Y-78769819D02*
X135929887Y-78769819D01*
X135929887Y-78769819D02*
X135834649Y-78722200D01*
X135834649Y-78722200D02*
X135787030Y-78674580D01*
X135787030Y-78674580D02*
X135739411Y-78579342D01*
X135739411Y-78579342D02*
X135739411Y-78341247D01*
X135739411Y-78341247D02*
X135787030Y-78246009D01*
X135787030Y-78246009D02*
X135834649Y-78198390D01*
X135834649Y-78198390D02*
X135929887Y-78150771D01*
X135929887Y-78150771D02*
X136120363Y-78150771D01*
X136120363Y-78150771D02*
X136215601Y-78198390D01*
X136215601Y-78198390D02*
X136263220Y-78246009D01*
X136263220Y-78246009D02*
X136310839Y-78341247D01*
X140339411Y-74717438D02*
X140434649Y-74669819D01*
X140434649Y-74669819D02*
X140577506Y-74669819D01*
X140577506Y-74669819D02*
X140720363Y-74717438D01*
X140720363Y-74717438D02*
X140815601Y-74812676D01*
X140815601Y-74812676D02*
X140863220Y-74907914D01*
X140863220Y-74907914D02*
X140910839Y-75098390D01*
X140910839Y-75098390D02*
X140910839Y-75241247D01*
X140910839Y-75241247D02*
X140863220Y-75431723D01*
X140863220Y-75431723D02*
X140815601Y-75526961D01*
X140815601Y-75526961D02*
X140720363Y-75622200D01*
X140720363Y-75622200D02*
X140577506Y-75669819D01*
X140577506Y-75669819D02*
X140482268Y-75669819D01*
X140482268Y-75669819D02*
X140339411Y-75622200D01*
X140339411Y-75622200D02*
X140291792Y-75574580D01*
X140291792Y-75574580D02*
X140291792Y-75241247D01*
X140291792Y-75241247D02*
X140482268Y-75241247D01*
X139863220Y-75669819D02*
X139863220Y-74669819D01*
X139863220Y-74669819D02*
X139291792Y-75669819D01*
X139291792Y-75669819D02*
X139291792Y-74669819D01*
X138815601Y-75669819D02*
X138815601Y-74669819D01*
X138815601Y-74669819D02*
X138577506Y-74669819D01*
X138577506Y-74669819D02*
X138434649Y-74717438D01*
X138434649Y-74717438D02*
X138339411Y-74812676D01*
X138339411Y-74812676D02*
X138291792Y-74907914D01*
X138291792Y-74907914D02*
X138244173Y-75098390D01*
X138244173Y-75098390D02*
X138244173Y-75241247D01*
X138244173Y-75241247D02*
X138291792Y-75431723D01*
X138291792Y-75431723D02*
X138339411Y-75526961D01*
X138339411Y-75526961D02*
X138434649Y-75622200D01*
X138434649Y-75622200D02*
X138577506Y-75669819D01*
X138577506Y-75669819D02*
X138815601Y-75669819D01*
X153587030Y-78769819D02*
X154063220Y-78769819D01*
X154063220Y-78769819D02*
X154063220Y-77769819D01*
X130563220Y-75669819D02*
X130563220Y-74669819D01*
X130563220Y-74669819D02*
X130182268Y-74669819D01*
X130182268Y-74669819D02*
X130087030Y-74717438D01*
X130087030Y-74717438D02*
X130039411Y-74765057D01*
X130039411Y-74765057D02*
X129991792Y-74860295D01*
X129991792Y-74860295D02*
X129991792Y-75003152D01*
X129991792Y-75003152D02*
X130039411Y-75098390D01*
X130039411Y-75098390D02*
X130087030Y-75146009D01*
X130087030Y-75146009D02*
X130182268Y-75193628D01*
X130182268Y-75193628D02*
X130563220Y-75193628D01*
X129229887Y-75146009D02*
X129087030Y-75193628D01*
X129087030Y-75193628D02*
X129039411Y-75241247D01*
X129039411Y-75241247D02*
X128991792Y-75336485D01*
X128991792Y-75336485D02*
X128991792Y-75479342D01*
X128991792Y-75479342D02*
X129039411Y-75574580D01*
X129039411Y-75574580D02*
X129087030Y-75622200D01*
X129087030Y-75622200D02*
X129182268Y-75669819D01*
X129182268Y-75669819D02*
X129563220Y-75669819D01*
X129563220Y-75669819D02*
X129563220Y-74669819D01*
X129563220Y-74669819D02*
X129229887Y-74669819D01*
X129229887Y-74669819D02*
X129134649Y-74717438D01*
X129134649Y-74717438D02*
X129087030Y-74765057D01*
X129087030Y-74765057D02*
X129039411Y-74860295D01*
X129039411Y-74860295D02*
X129039411Y-74955533D01*
X129039411Y-74955533D02*
X129087030Y-75050771D01*
X129087030Y-75050771D02*
X129134649Y-75098390D01*
X129134649Y-75098390D02*
X129229887Y-75146009D01*
X129229887Y-75146009D02*
X129563220Y-75146009D01*
X128658458Y-74669819D02*
X128039411Y-74669819D01*
X128039411Y-74669819D02*
X128372744Y-75050771D01*
X128372744Y-75050771D02*
X128229887Y-75050771D01*
X128229887Y-75050771D02*
X128134649Y-75098390D01*
X128134649Y-75098390D02*
X128087030Y-75146009D01*
X128087030Y-75146009D02*
X128039411Y-75241247D01*
X128039411Y-75241247D02*
X128039411Y-75479342D01*
X128039411Y-75479342D02*
X128087030Y-75574580D01*
X128087030Y-75574580D02*
X128134649Y-75622200D01*
X128134649Y-75622200D02*
X128229887Y-75669819D01*
X128229887Y-75669819D02*
X128515601Y-75669819D01*
X128515601Y-75669819D02*
X128610839Y-75622200D01*
X128610839Y-75622200D02*
X128658458Y-75574580D01*
X124039411Y-71117438D02*
X124134649Y-71069819D01*
X124134649Y-71069819D02*
X124277506Y-71069819D01*
X124277506Y-71069819D02*
X124420363Y-71117438D01*
X124420363Y-71117438D02*
X124515601Y-71212676D01*
X124515601Y-71212676D02*
X124563220Y-71307914D01*
X124563220Y-71307914D02*
X124610839Y-71498390D01*
X124610839Y-71498390D02*
X124610839Y-71641247D01*
X124610839Y-71641247D02*
X124563220Y-71831723D01*
X124563220Y-71831723D02*
X124515601Y-71926961D01*
X124515601Y-71926961D02*
X124420363Y-72022200D01*
X124420363Y-72022200D02*
X124277506Y-72069819D01*
X124277506Y-72069819D02*
X124182268Y-72069819D01*
X124182268Y-72069819D02*
X124039411Y-72022200D01*
X124039411Y-72022200D02*
X123991792Y-71974580D01*
X123991792Y-71974580D02*
X123991792Y-71641247D01*
X123991792Y-71641247D02*
X124182268Y-71641247D01*
X123563220Y-72069819D02*
X123563220Y-71069819D01*
X123563220Y-71069819D02*
X122991792Y-72069819D01*
X122991792Y-72069819D02*
X122991792Y-71069819D01*
X122515601Y-72069819D02*
X122515601Y-71069819D01*
X122515601Y-71069819D02*
X122277506Y-71069819D01*
X122277506Y-71069819D02*
X122134649Y-71117438D01*
X122134649Y-71117438D02*
X122039411Y-71212676D01*
X122039411Y-71212676D02*
X121991792Y-71307914D01*
X121991792Y-71307914D02*
X121944173Y-71498390D01*
X121944173Y-71498390D02*
X121944173Y-71641247D01*
X121944173Y-71641247D02*
X121991792Y-71831723D01*
X121991792Y-71831723D02*
X122039411Y-71926961D01*
X122039411Y-71926961D02*
X122134649Y-72022200D01*
X122134649Y-72022200D02*
X122277506Y-72069819D01*
X122277506Y-72069819D02*
X122515601Y-72069819D01*
X130641792Y-71974580D02*
X130689411Y-72022200D01*
X130689411Y-72022200D02*
X130832268Y-72069819D01*
X130832268Y-72069819D02*
X130927506Y-72069819D01*
X130927506Y-72069819D02*
X131070363Y-72022200D01*
X131070363Y-72022200D02*
X131165601Y-71926961D01*
X131165601Y-71926961D02*
X131213220Y-71831723D01*
X131213220Y-71831723D02*
X131260839Y-71641247D01*
X131260839Y-71641247D02*
X131260839Y-71498390D01*
X131260839Y-71498390D02*
X131213220Y-71307914D01*
X131213220Y-71307914D02*
X131165601Y-71212676D01*
X131165601Y-71212676D02*
X131070363Y-71117438D01*
X131070363Y-71117438D02*
X130927506Y-71069819D01*
X130927506Y-71069819D02*
X130832268Y-71069819D01*
X130832268Y-71069819D02*
X130689411Y-71117438D01*
X130689411Y-71117438D02*
X130641792Y-71165057D01*
X133163220Y-78769819D02*
X133163220Y-77769819D01*
X133163220Y-77769819D02*
X132782268Y-77769819D01*
X132782268Y-77769819D02*
X132687030Y-77817438D01*
X132687030Y-77817438D02*
X132639411Y-77865057D01*
X132639411Y-77865057D02*
X132591792Y-77960295D01*
X132591792Y-77960295D02*
X132591792Y-78103152D01*
X132591792Y-78103152D02*
X132639411Y-78198390D01*
X132639411Y-78198390D02*
X132687030Y-78246009D01*
X132687030Y-78246009D02*
X132782268Y-78293628D01*
X132782268Y-78293628D02*
X133163220Y-78293628D01*
X131829887Y-78246009D02*
X131687030Y-78293628D01*
X131687030Y-78293628D02*
X131639411Y-78341247D01*
X131639411Y-78341247D02*
X131591792Y-78436485D01*
X131591792Y-78436485D02*
X131591792Y-78579342D01*
X131591792Y-78579342D02*
X131639411Y-78674580D01*
X131639411Y-78674580D02*
X131687030Y-78722200D01*
X131687030Y-78722200D02*
X131782268Y-78769819D01*
X131782268Y-78769819D02*
X132163220Y-78769819D01*
X132163220Y-78769819D02*
X132163220Y-77769819D01*
X132163220Y-77769819D02*
X131829887Y-77769819D01*
X131829887Y-77769819D02*
X131734649Y-77817438D01*
X131734649Y-77817438D02*
X131687030Y-77865057D01*
X131687030Y-77865057D02*
X131639411Y-77960295D01*
X131639411Y-77960295D02*
X131639411Y-78055533D01*
X131639411Y-78055533D02*
X131687030Y-78150771D01*
X131687030Y-78150771D02*
X131734649Y-78198390D01*
X131734649Y-78198390D02*
X131829887Y-78246009D01*
X131829887Y-78246009D02*
X132163220Y-78246009D01*
X130734649Y-78103152D02*
X130734649Y-78769819D01*
X130972744Y-77722200D02*
X131210839Y-78436485D01*
X131210839Y-78436485D02*
X130591792Y-78436485D01*
X128463220Y-78769819D02*
X128463220Y-77769819D01*
X128463220Y-77769819D02*
X128082268Y-77769819D01*
X128082268Y-77769819D02*
X127987030Y-77817438D01*
X127987030Y-77817438D02*
X127939411Y-77865057D01*
X127939411Y-77865057D02*
X127891792Y-77960295D01*
X127891792Y-77960295D02*
X127891792Y-78103152D01*
X127891792Y-78103152D02*
X127939411Y-78198390D01*
X127939411Y-78198390D02*
X127987030Y-78246009D01*
X127987030Y-78246009D02*
X128082268Y-78293628D01*
X128082268Y-78293628D02*
X128463220Y-78293628D01*
X127510839Y-78484104D02*
X127034649Y-78484104D01*
X127606077Y-78769819D02*
X127272744Y-77769819D01*
X127272744Y-77769819D02*
X126939411Y-78769819D01*
X126082268Y-78769819D02*
X126653696Y-78769819D01*
X126367982Y-78769819D02*
X126367982Y-77769819D01*
X126367982Y-77769819D02*
X126463220Y-77912676D01*
X126463220Y-77912676D02*
X126558458Y-78007914D01*
X126558458Y-78007914D02*
X126653696Y-78055533D01*
X125177506Y-77769819D02*
X125653696Y-77769819D01*
X125653696Y-77769819D02*
X125701315Y-78246009D01*
X125701315Y-78246009D02*
X125653696Y-78198390D01*
X125653696Y-78198390D02*
X125558458Y-78150771D01*
X125558458Y-78150771D02*
X125320363Y-78150771D01*
X125320363Y-78150771D02*
X125225125Y-78198390D01*
X125225125Y-78198390D02*
X125177506Y-78246009D01*
X125177506Y-78246009D02*
X125129887Y-78341247D01*
X125129887Y-78341247D02*
X125129887Y-78579342D01*
X125129887Y-78579342D02*
X125177506Y-78674580D01*
X125177506Y-78674580D02*
X125225125Y-78722200D01*
X125225125Y-78722200D02*
X125320363Y-78769819D01*
X125320363Y-78769819D02*
X125558458Y-78769819D01*
X125558458Y-78769819D02*
X125653696Y-78722200D01*
X125653696Y-78722200D02*
X125701315Y-78674580D01*
X119869819Y-54912969D02*
X119869819Y-54436779D01*
X119869819Y-54436779D02*
X120346009Y-54389160D01*
X120346009Y-54389160D02*
X120298390Y-54436779D01*
X120298390Y-54436779D02*
X120250771Y-54532017D01*
X120250771Y-54532017D02*
X120250771Y-54770112D01*
X120250771Y-54770112D02*
X120298390Y-54865350D01*
X120298390Y-54865350D02*
X120346009Y-54912969D01*
X120346009Y-54912969D02*
X120441247Y-54960588D01*
X120441247Y-54960588D02*
X120679342Y-54960588D01*
X120679342Y-54960588D02*
X120774580Y-54912969D01*
X120774580Y-54912969D02*
X120822200Y-54865350D01*
X120822200Y-54865350D02*
X120869819Y-54770112D01*
X120869819Y-54770112D02*
X120869819Y-54532017D01*
X120869819Y-54532017D02*
X120822200Y-54436779D01*
X120822200Y-54436779D02*
X120774580Y-54389160D01*
X119869819Y-55246303D02*
X120869819Y-55579636D01*
X120869819Y-55579636D02*
X119869819Y-55912969D01*
X126063220Y-72069819D02*
X126063220Y-71069819D01*
X126063220Y-71069819D02*
X125825125Y-71069819D01*
X125825125Y-71069819D02*
X125682268Y-71117438D01*
X125682268Y-71117438D02*
X125587030Y-71212676D01*
X125587030Y-71212676D02*
X125539411Y-71307914D01*
X125539411Y-71307914D02*
X125491792Y-71498390D01*
X125491792Y-71498390D02*
X125491792Y-71641247D01*
X125491792Y-71641247D02*
X125539411Y-71831723D01*
X125539411Y-71831723D02*
X125587030Y-71926961D01*
X125587030Y-71926961D02*
X125682268Y-72022200D01*
X125682268Y-72022200D02*
X125825125Y-72069819D01*
X125825125Y-72069819D02*
X126063220Y-72069819D01*
X135663220Y-75669819D02*
X135663220Y-74669819D01*
X135663220Y-74669819D02*
X135282268Y-74669819D01*
X135282268Y-74669819D02*
X135187030Y-74717438D01*
X135187030Y-74717438D02*
X135139411Y-74765057D01*
X135139411Y-74765057D02*
X135091792Y-74860295D01*
X135091792Y-74860295D02*
X135091792Y-75003152D01*
X135091792Y-75003152D02*
X135139411Y-75098390D01*
X135139411Y-75098390D02*
X135187030Y-75146009D01*
X135187030Y-75146009D02*
X135282268Y-75193628D01*
X135282268Y-75193628D02*
X135663220Y-75193628D01*
X134329887Y-75146009D02*
X134187030Y-75193628D01*
X134187030Y-75193628D02*
X134139411Y-75241247D01*
X134139411Y-75241247D02*
X134091792Y-75336485D01*
X134091792Y-75336485D02*
X134091792Y-75479342D01*
X134091792Y-75479342D02*
X134139411Y-75574580D01*
X134139411Y-75574580D02*
X134187030Y-75622200D01*
X134187030Y-75622200D02*
X134282268Y-75669819D01*
X134282268Y-75669819D02*
X134663220Y-75669819D01*
X134663220Y-75669819D02*
X134663220Y-74669819D01*
X134663220Y-74669819D02*
X134329887Y-74669819D01*
X134329887Y-74669819D02*
X134234649Y-74717438D01*
X134234649Y-74717438D02*
X134187030Y-74765057D01*
X134187030Y-74765057D02*
X134139411Y-74860295D01*
X134139411Y-74860295D02*
X134139411Y-74955533D01*
X134139411Y-74955533D02*
X134187030Y-75050771D01*
X134187030Y-75050771D02*
X134234649Y-75098390D01*
X134234649Y-75098390D02*
X134329887Y-75146009D01*
X134329887Y-75146009D02*
X134663220Y-75146009D01*
X133187030Y-74669819D02*
X133663220Y-74669819D01*
X133663220Y-74669819D02*
X133710839Y-75146009D01*
X133710839Y-75146009D02*
X133663220Y-75098390D01*
X133663220Y-75098390D02*
X133567982Y-75050771D01*
X133567982Y-75050771D02*
X133329887Y-75050771D01*
X133329887Y-75050771D02*
X133234649Y-75098390D01*
X133234649Y-75098390D02*
X133187030Y-75146009D01*
X133187030Y-75146009D02*
X133139411Y-75241247D01*
X133139411Y-75241247D02*
X133139411Y-75479342D01*
X133139411Y-75479342D02*
X133187030Y-75574580D01*
X133187030Y-75574580D02*
X133234649Y-75622200D01*
X133234649Y-75622200D02*
X133329887Y-75669819D01*
X133329887Y-75669819D02*
X133567982Y-75669819D01*
X133567982Y-75669819D02*
X133663220Y-75622200D01*
X133663220Y-75622200D02*
X133710839Y-75574580D01*
X132263220Y-51469819D02*
X132263220Y-50469819D01*
X132263220Y-50469819D02*
X131882268Y-50469819D01*
X131882268Y-50469819D02*
X131787030Y-50517438D01*
X131787030Y-50517438D02*
X131739411Y-50565057D01*
X131739411Y-50565057D02*
X131691792Y-50660295D01*
X131691792Y-50660295D02*
X131691792Y-50803152D01*
X131691792Y-50803152D02*
X131739411Y-50898390D01*
X131739411Y-50898390D02*
X131787030Y-50946009D01*
X131787030Y-50946009D02*
X131882268Y-50993628D01*
X131882268Y-50993628D02*
X132263220Y-50993628D01*
X130929887Y-50946009D02*
X130787030Y-50993628D01*
X130787030Y-50993628D02*
X130739411Y-51041247D01*
X130739411Y-51041247D02*
X130691792Y-51136485D01*
X130691792Y-51136485D02*
X130691792Y-51279342D01*
X130691792Y-51279342D02*
X130739411Y-51374580D01*
X130739411Y-51374580D02*
X130787030Y-51422200D01*
X130787030Y-51422200D02*
X130882268Y-51469819D01*
X130882268Y-51469819D02*
X131263220Y-51469819D01*
X131263220Y-51469819D02*
X131263220Y-50469819D01*
X131263220Y-50469819D02*
X130929887Y-50469819D01*
X130929887Y-50469819D02*
X130834649Y-50517438D01*
X130834649Y-50517438D02*
X130787030Y-50565057D01*
X130787030Y-50565057D02*
X130739411Y-50660295D01*
X130739411Y-50660295D02*
X130739411Y-50755533D01*
X130739411Y-50755533D02*
X130787030Y-50850771D01*
X130787030Y-50850771D02*
X130834649Y-50898390D01*
X130834649Y-50898390D02*
X130929887Y-50946009D01*
X130929887Y-50946009D02*
X131263220Y-50946009D01*
X129739411Y-51469819D02*
X130310839Y-51469819D01*
X130025125Y-51469819D02*
X130025125Y-50469819D01*
X130025125Y-50469819D02*
X130120363Y-50612676D01*
X130120363Y-50612676D02*
X130215601Y-50707914D01*
X130215601Y-50707914D02*
X130310839Y-50755533D01*
X129358458Y-50565057D02*
X129310839Y-50517438D01*
X129310839Y-50517438D02*
X129215601Y-50469819D01*
X129215601Y-50469819D02*
X128977506Y-50469819D01*
X128977506Y-50469819D02*
X128882268Y-50517438D01*
X128882268Y-50517438D02*
X128834649Y-50565057D01*
X128834649Y-50565057D02*
X128787030Y-50660295D01*
X128787030Y-50660295D02*
X128787030Y-50755533D01*
X128787030Y-50755533D02*
X128834649Y-50898390D01*
X128834649Y-50898390D02*
X129406077Y-51469819D01*
X129406077Y-51469819D02*
X128787030Y-51469819D01*
X127469819Y-54493922D02*
X127469819Y-55065350D01*
X128469819Y-54779636D02*
X127469819Y-54779636D01*
X127469819Y-55303446D02*
X128469819Y-55970112D01*
X127469819Y-55970112D02*
X128469819Y-55303446D01*
X125969819Y-55008207D02*
X125493628Y-54674874D01*
X125969819Y-54436779D02*
X124969819Y-54436779D01*
X124969819Y-54436779D02*
X124969819Y-54817731D01*
X124969819Y-54817731D02*
X125017438Y-54912969D01*
X125017438Y-54912969D02*
X125065057Y-54960588D01*
X125065057Y-54960588D02*
X125160295Y-55008207D01*
X125160295Y-55008207D02*
X125303152Y-55008207D01*
X125303152Y-55008207D02*
X125398390Y-54960588D01*
X125398390Y-54960588D02*
X125446009Y-54912969D01*
X125446009Y-54912969D02*
X125493628Y-54817731D01*
X125493628Y-54817731D02*
X125493628Y-54436779D01*
X124969819Y-55341541D02*
X125969819Y-56008207D01*
X124969819Y-56008207D02*
X125969819Y-55341541D01*
X152039411Y-77817438D02*
X152134649Y-77769819D01*
X152134649Y-77769819D02*
X152277506Y-77769819D01*
X152277506Y-77769819D02*
X152420363Y-77817438D01*
X152420363Y-77817438D02*
X152515601Y-77912676D01*
X152515601Y-77912676D02*
X152563220Y-78007914D01*
X152563220Y-78007914D02*
X152610839Y-78198390D01*
X152610839Y-78198390D02*
X152610839Y-78341247D01*
X152610839Y-78341247D02*
X152563220Y-78531723D01*
X152563220Y-78531723D02*
X152515601Y-78626961D01*
X152515601Y-78626961D02*
X152420363Y-78722200D01*
X152420363Y-78722200D02*
X152277506Y-78769819D01*
X152277506Y-78769819D02*
X152182268Y-78769819D01*
X152182268Y-78769819D02*
X152039411Y-78722200D01*
X152039411Y-78722200D02*
X151991792Y-78674580D01*
X151991792Y-78674580D02*
X151991792Y-78341247D01*
X151991792Y-78341247D02*
X152182268Y-78341247D01*
X151563220Y-78769819D02*
X151563220Y-77769819D01*
X151563220Y-77769819D02*
X150991792Y-78769819D01*
X150991792Y-78769819D02*
X150991792Y-77769819D01*
X150515601Y-78769819D02*
X150515601Y-77769819D01*
X150515601Y-77769819D02*
X150277506Y-77769819D01*
X150277506Y-77769819D02*
X150134649Y-77817438D01*
X150134649Y-77817438D02*
X150039411Y-77912676D01*
X150039411Y-77912676D02*
X149991792Y-78007914D01*
X149991792Y-78007914D02*
X149944173Y-78198390D01*
X149944173Y-78198390D02*
X149944173Y-78341247D01*
X149944173Y-78341247D02*
X149991792Y-78531723D01*
X149991792Y-78531723D02*
X150039411Y-78626961D01*
X150039411Y-78626961D02*
X150134649Y-78722200D01*
X150134649Y-78722200D02*
X150277506Y-78769819D01*
X150277506Y-78769819D02*
X150515601Y-78769819D01*
X127063220Y-51469819D02*
X127063220Y-50469819D01*
X127063220Y-50469819D02*
X126682268Y-50469819D01*
X126682268Y-50469819D02*
X126587030Y-50517438D01*
X126587030Y-50517438D02*
X126539411Y-50565057D01*
X126539411Y-50565057D02*
X126491792Y-50660295D01*
X126491792Y-50660295D02*
X126491792Y-50803152D01*
X126491792Y-50803152D02*
X126539411Y-50898390D01*
X126539411Y-50898390D02*
X126587030Y-50946009D01*
X126587030Y-50946009D02*
X126682268Y-50993628D01*
X126682268Y-50993628D02*
X127063220Y-50993628D01*
X125729887Y-50946009D02*
X125587030Y-50993628D01*
X125587030Y-50993628D02*
X125539411Y-51041247D01*
X125539411Y-51041247D02*
X125491792Y-51136485D01*
X125491792Y-51136485D02*
X125491792Y-51279342D01*
X125491792Y-51279342D02*
X125539411Y-51374580D01*
X125539411Y-51374580D02*
X125587030Y-51422200D01*
X125587030Y-51422200D02*
X125682268Y-51469819D01*
X125682268Y-51469819D02*
X126063220Y-51469819D01*
X126063220Y-51469819D02*
X126063220Y-50469819D01*
X126063220Y-50469819D02*
X125729887Y-50469819D01*
X125729887Y-50469819D02*
X125634649Y-50517438D01*
X125634649Y-50517438D02*
X125587030Y-50565057D01*
X125587030Y-50565057D02*
X125539411Y-50660295D01*
X125539411Y-50660295D02*
X125539411Y-50755533D01*
X125539411Y-50755533D02*
X125587030Y-50850771D01*
X125587030Y-50850771D02*
X125634649Y-50898390D01*
X125634649Y-50898390D02*
X125729887Y-50946009D01*
X125729887Y-50946009D02*
X126063220Y-50946009D01*
X124539411Y-51469819D02*
X125110839Y-51469819D01*
X124825125Y-51469819D02*
X124825125Y-50469819D01*
X124825125Y-50469819D02*
X124920363Y-50612676D01*
X124920363Y-50612676D02*
X125015601Y-50707914D01*
X125015601Y-50707914D02*
X125110839Y-50755533D01*
X123682268Y-50803152D02*
X123682268Y-51469819D01*
X123920363Y-50422200D02*
X124158458Y-51136485D01*
X124158458Y-51136485D02*
X123539411Y-51136485D01*
X121563220Y-51469819D02*
X121563220Y-50469819D01*
X121563220Y-50469819D02*
X121182268Y-50469819D01*
X121182268Y-50469819D02*
X121087030Y-50517438D01*
X121087030Y-50517438D02*
X121039411Y-50565057D01*
X121039411Y-50565057D02*
X120991792Y-50660295D01*
X120991792Y-50660295D02*
X120991792Y-50803152D01*
X120991792Y-50803152D02*
X121039411Y-50898390D01*
X121039411Y-50898390D02*
X121087030Y-50946009D01*
X121087030Y-50946009D02*
X121182268Y-50993628D01*
X121182268Y-50993628D02*
X121563220Y-50993628D01*
X120610839Y-51184104D02*
X120134649Y-51184104D01*
X120706077Y-51469819D02*
X120372744Y-50469819D01*
X120372744Y-50469819D02*
X120039411Y-51469819D01*
X119563220Y-50898390D02*
X119658458Y-50850771D01*
X119658458Y-50850771D02*
X119706077Y-50803152D01*
X119706077Y-50803152D02*
X119753696Y-50707914D01*
X119753696Y-50707914D02*
X119753696Y-50660295D01*
X119753696Y-50660295D02*
X119706077Y-50565057D01*
X119706077Y-50565057D02*
X119658458Y-50517438D01*
X119658458Y-50517438D02*
X119563220Y-50469819D01*
X119563220Y-50469819D02*
X119372744Y-50469819D01*
X119372744Y-50469819D02*
X119277506Y-50517438D01*
X119277506Y-50517438D02*
X119229887Y-50565057D01*
X119229887Y-50565057D02*
X119182268Y-50660295D01*
X119182268Y-50660295D02*
X119182268Y-50707914D01*
X119182268Y-50707914D02*
X119229887Y-50803152D01*
X119229887Y-50803152D02*
X119277506Y-50850771D01*
X119277506Y-50850771D02*
X119372744Y-50898390D01*
X119372744Y-50898390D02*
X119563220Y-50898390D01*
X119563220Y-50898390D02*
X119658458Y-50946009D01*
X119658458Y-50946009D02*
X119706077Y-50993628D01*
X119706077Y-50993628D02*
X119753696Y-51088866D01*
X119753696Y-51088866D02*
X119753696Y-51279342D01*
X119753696Y-51279342D02*
X119706077Y-51374580D01*
X119706077Y-51374580D02*
X119658458Y-51422200D01*
X119658458Y-51422200D02*
X119563220Y-51469819D01*
X119563220Y-51469819D02*
X119372744Y-51469819D01*
X119372744Y-51469819D02*
X119277506Y-51422200D01*
X119277506Y-51422200D02*
X119229887Y-51374580D01*
X119229887Y-51374580D02*
X119182268Y-51279342D01*
X119182268Y-51279342D02*
X119182268Y-51088866D01*
X119182268Y-51088866D02*
X119229887Y-50993628D01*
X119229887Y-50993628D02*
X119277506Y-50946009D01*
X119277506Y-50946009D02*
X119372744Y-50898390D01*
X143529887Y-78246009D02*
X143387030Y-78293628D01*
X143387030Y-78293628D02*
X143339411Y-78341247D01*
X143339411Y-78341247D02*
X143291792Y-78436485D01*
X143291792Y-78436485D02*
X143291792Y-78579342D01*
X143291792Y-78579342D02*
X143339411Y-78674580D01*
X143339411Y-78674580D02*
X143387030Y-78722200D01*
X143387030Y-78722200D02*
X143482268Y-78769819D01*
X143482268Y-78769819D02*
X143863220Y-78769819D01*
X143863220Y-78769819D02*
X143863220Y-77769819D01*
X143863220Y-77769819D02*
X143529887Y-77769819D01*
X143529887Y-77769819D02*
X143434649Y-77817438D01*
X143434649Y-77817438D02*
X143387030Y-77865057D01*
X143387030Y-77865057D02*
X143339411Y-77960295D01*
X143339411Y-77960295D02*
X143339411Y-78055533D01*
X143339411Y-78055533D02*
X143387030Y-78150771D01*
X143387030Y-78150771D02*
X143434649Y-78198390D01*
X143434649Y-78198390D02*
X143529887Y-78246009D01*
X143529887Y-78246009D02*
X143863220Y-78246009D01*
X142672744Y-77769819D02*
X142482268Y-77769819D01*
X142482268Y-77769819D02*
X142387030Y-77817438D01*
X142387030Y-77817438D02*
X142291792Y-77912676D01*
X142291792Y-77912676D02*
X142244173Y-78103152D01*
X142244173Y-78103152D02*
X142244173Y-78436485D01*
X142244173Y-78436485D02*
X142291792Y-78626961D01*
X142291792Y-78626961D02*
X142387030Y-78722200D01*
X142387030Y-78722200D02*
X142482268Y-78769819D01*
X142482268Y-78769819D02*
X142672744Y-78769819D01*
X142672744Y-78769819D02*
X142767982Y-78722200D01*
X142767982Y-78722200D02*
X142863220Y-78626961D01*
X142863220Y-78626961D02*
X142910839Y-78436485D01*
X142910839Y-78436485D02*
X142910839Y-78103152D01*
X142910839Y-78103152D02*
X142863220Y-77912676D01*
X142863220Y-77912676D02*
X142767982Y-77817438D01*
X142767982Y-77817438D02*
X142672744Y-77769819D01*
X141625125Y-77769819D02*
X141434649Y-77769819D01*
X141434649Y-77769819D02*
X141339411Y-77817438D01*
X141339411Y-77817438D02*
X141244173Y-77912676D01*
X141244173Y-77912676D02*
X141196554Y-78103152D01*
X141196554Y-78103152D02*
X141196554Y-78436485D01*
X141196554Y-78436485D02*
X141244173Y-78626961D01*
X141244173Y-78626961D02*
X141339411Y-78722200D01*
X141339411Y-78722200D02*
X141434649Y-78769819D01*
X141434649Y-78769819D02*
X141625125Y-78769819D01*
X141625125Y-78769819D02*
X141720363Y-78722200D01*
X141720363Y-78722200D02*
X141815601Y-78626961D01*
X141815601Y-78626961D02*
X141863220Y-78436485D01*
X141863220Y-78436485D02*
X141863220Y-78103152D01*
X141863220Y-78103152D02*
X141815601Y-77912676D01*
X141815601Y-77912676D02*
X141720363Y-77817438D01*
X141720363Y-77817438D02*
X141625125Y-77769819D01*
X140910839Y-77769819D02*
X140339411Y-77769819D01*
X140625125Y-78769819D02*
X140625125Y-77769819D01*
X134708458Y-71069819D02*
X134089411Y-71069819D01*
X134089411Y-71069819D02*
X134422744Y-71450771D01*
X134422744Y-71450771D02*
X134279887Y-71450771D01*
X134279887Y-71450771D02*
X134184649Y-71498390D01*
X134184649Y-71498390D02*
X134137030Y-71546009D01*
X134137030Y-71546009D02*
X134089411Y-71641247D01*
X134089411Y-71641247D02*
X134089411Y-71879342D01*
X134089411Y-71879342D02*
X134137030Y-71974580D01*
X134137030Y-71974580D02*
X134184649Y-72022200D01*
X134184649Y-72022200D02*
X134279887Y-72069819D01*
X134279887Y-72069819D02*
X134565601Y-72069819D01*
X134565601Y-72069819D02*
X134660839Y-72022200D01*
X134660839Y-72022200D02*
X134708458Y-71974580D01*
X133803696Y-71069819D02*
X133470363Y-72069819D01*
X133470363Y-72069819D02*
X133137030Y-71069819D01*
X132898934Y-71069819D02*
X132279887Y-71069819D01*
X132279887Y-71069819D02*
X132613220Y-71450771D01*
X132613220Y-71450771D02*
X132470363Y-71450771D01*
X132470363Y-71450771D02*
X132375125Y-71498390D01*
X132375125Y-71498390D02*
X132327506Y-71546009D01*
X132327506Y-71546009D02*
X132279887Y-71641247D01*
X132279887Y-71641247D02*
X132279887Y-71879342D01*
X132279887Y-71879342D02*
X132327506Y-71974580D01*
X132327506Y-71974580D02*
X132375125Y-72022200D01*
X132375125Y-72022200D02*
X132470363Y-72069819D01*
X132470363Y-72069819D02*
X132756077Y-72069819D01*
X132756077Y-72069819D02*
X132851315Y-72022200D01*
X132851315Y-72022200D02*
X132898934Y-71974580D01*
X122467438Y-54960588D02*
X122419819Y-54865350D01*
X122419819Y-54865350D02*
X122419819Y-54722493D01*
X122419819Y-54722493D02*
X122467438Y-54579636D01*
X122467438Y-54579636D02*
X122562676Y-54484398D01*
X122562676Y-54484398D02*
X122657914Y-54436779D01*
X122657914Y-54436779D02*
X122848390Y-54389160D01*
X122848390Y-54389160D02*
X122991247Y-54389160D01*
X122991247Y-54389160D02*
X123181723Y-54436779D01*
X123181723Y-54436779D02*
X123276961Y-54484398D01*
X123276961Y-54484398D02*
X123372200Y-54579636D01*
X123372200Y-54579636D02*
X123419819Y-54722493D01*
X123419819Y-54722493D02*
X123419819Y-54817731D01*
X123419819Y-54817731D02*
X123372200Y-54960588D01*
X123372200Y-54960588D02*
X123324580Y-55008207D01*
X123324580Y-55008207D02*
X122991247Y-55008207D01*
X122991247Y-55008207D02*
X122991247Y-54817731D01*
X123419819Y-55436779D02*
X122419819Y-55436779D01*
X122419819Y-55436779D02*
X123419819Y-56008207D01*
X123419819Y-56008207D02*
X122419819Y-56008207D01*
X123419819Y-56484398D02*
X122419819Y-56484398D01*
X122419819Y-56484398D02*
X122419819Y-56722493D01*
X122419819Y-56722493D02*
X122467438Y-56865350D01*
X122467438Y-56865350D02*
X122562676Y-56960588D01*
X122562676Y-56960588D02*
X122657914Y-57008207D01*
X122657914Y-57008207D02*
X122848390Y-57055826D01*
X122848390Y-57055826D02*
X122991247Y-57055826D01*
X122991247Y-57055826D02*
X123181723Y-57008207D01*
X123181723Y-57008207D02*
X123276961Y-56960588D01*
X123276961Y-56960588D02*
X123372200Y-56865350D01*
X123372200Y-56865350D02*
X123419819Y-56722493D01*
X123419819Y-56722493D02*
X123419819Y-56484398D01*
X193279887Y-76296009D02*
X193613220Y-76296009D01*
X193613220Y-76819819D02*
X193613220Y-75819819D01*
X193613220Y-75819819D02*
X193137030Y-75819819D01*
X192756077Y-76819819D02*
X192756077Y-75819819D01*
X192756077Y-75819819D02*
X192422744Y-76534104D01*
X192422744Y-76534104D02*
X192089411Y-75819819D01*
X192089411Y-75819819D02*
X192089411Y-76819819D01*
X191613220Y-76438866D02*
X190851316Y-76438866D01*
X190422744Y-76534104D02*
X189946554Y-76534104D01*
X190517982Y-76819819D02*
X190184649Y-75819819D01*
X190184649Y-75819819D02*
X189851316Y-76819819D01*
X193329887Y-49446009D02*
X193663220Y-49446009D01*
X193663220Y-49969819D02*
X193663220Y-48969819D01*
X193663220Y-48969819D02*
X193187030Y-48969819D01*
X192806077Y-49969819D02*
X192806077Y-48969819D01*
X192806077Y-48969819D02*
X192472744Y-49684104D01*
X192472744Y-49684104D02*
X192139411Y-48969819D01*
X192139411Y-48969819D02*
X192139411Y-49969819D01*
X191663220Y-49588866D02*
X190901316Y-49588866D01*
X190091792Y-49446009D02*
X189948935Y-49493628D01*
X189948935Y-49493628D02*
X189901316Y-49541247D01*
X189901316Y-49541247D02*
X189853697Y-49636485D01*
X189853697Y-49636485D02*
X189853697Y-49779342D01*
X189853697Y-49779342D02*
X189901316Y-49874580D01*
X189901316Y-49874580D02*
X189948935Y-49922200D01*
X189948935Y-49922200D02*
X190044173Y-49969819D01*
X190044173Y-49969819D02*
X190425125Y-49969819D01*
X190425125Y-49969819D02*
X190425125Y-48969819D01*
X190425125Y-48969819D02*
X190091792Y-48969819D01*
X190091792Y-48969819D02*
X189996554Y-49017438D01*
X189996554Y-49017438D02*
X189948935Y-49065057D01*
X189948935Y-49065057D02*
X189901316Y-49160295D01*
X189901316Y-49160295D02*
X189901316Y-49255533D01*
X189901316Y-49255533D02*
X189948935Y-49350771D01*
X189948935Y-49350771D02*
X189996554Y-49398390D01*
X189996554Y-49398390D02*
X190091792Y-49446009D01*
X190091792Y-49446009D02*
X190425125Y-49446009D01*
X129663220Y-48269819D02*
X129663220Y-47269819D01*
X129663220Y-47269819D02*
X129282268Y-47269819D01*
X129282268Y-47269819D02*
X129187030Y-47317438D01*
X129187030Y-47317438D02*
X129139411Y-47365057D01*
X129139411Y-47365057D02*
X129091792Y-47460295D01*
X129091792Y-47460295D02*
X129091792Y-47603152D01*
X129091792Y-47603152D02*
X129139411Y-47698390D01*
X129139411Y-47698390D02*
X129187030Y-47746009D01*
X129187030Y-47746009D02*
X129282268Y-47793628D01*
X129282268Y-47793628D02*
X129663220Y-47793628D01*
X128329887Y-47746009D02*
X128187030Y-47793628D01*
X128187030Y-47793628D02*
X128139411Y-47841247D01*
X128139411Y-47841247D02*
X128091792Y-47936485D01*
X128091792Y-47936485D02*
X128091792Y-48079342D01*
X128091792Y-48079342D02*
X128139411Y-48174580D01*
X128139411Y-48174580D02*
X128187030Y-48222200D01*
X128187030Y-48222200D02*
X128282268Y-48269819D01*
X128282268Y-48269819D02*
X128663220Y-48269819D01*
X128663220Y-48269819D02*
X128663220Y-47269819D01*
X128663220Y-47269819D02*
X128329887Y-47269819D01*
X128329887Y-47269819D02*
X128234649Y-47317438D01*
X128234649Y-47317438D02*
X128187030Y-47365057D01*
X128187030Y-47365057D02*
X128139411Y-47460295D01*
X128139411Y-47460295D02*
X128139411Y-47555533D01*
X128139411Y-47555533D02*
X128187030Y-47650771D01*
X128187030Y-47650771D02*
X128234649Y-47698390D01*
X128234649Y-47698390D02*
X128329887Y-47746009D01*
X128329887Y-47746009D02*
X128663220Y-47746009D01*
X127139411Y-48269819D02*
X127710839Y-48269819D01*
X127425125Y-48269819D02*
X127425125Y-47269819D01*
X127425125Y-47269819D02*
X127520363Y-47412676D01*
X127520363Y-47412676D02*
X127615601Y-47507914D01*
X127615601Y-47507914D02*
X127710839Y-47555533D01*
X126806077Y-47269819D02*
X126187030Y-47269819D01*
X126187030Y-47269819D02*
X126520363Y-47650771D01*
X126520363Y-47650771D02*
X126377506Y-47650771D01*
X126377506Y-47650771D02*
X126282268Y-47698390D01*
X126282268Y-47698390D02*
X126234649Y-47746009D01*
X126234649Y-47746009D02*
X126187030Y-47841247D01*
X126187030Y-47841247D02*
X126187030Y-48079342D01*
X126187030Y-48079342D02*
X126234649Y-48174580D01*
X126234649Y-48174580D02*
X126282268Y-48222200D01*
X126282268Y-48222200D02*
X126377506Y-48269819D01*
X126377506Y-48269819D02*
X126663220Y-48269819D01*
X126663220Y-48269819D02*
X126758458Y-48222200D01*
X126758458Y-48222200D02*
X126806077Y-48174580D01*
X128991792Y-72069819D02*
X129325125Y-71593628D01*
X129563220Y-72069819D02*
X129563220Y-71069819D01*
X129563220Y-71069819D02*
X129182268Y-71069819D01*
X129182268Y-71069819D02*
X129087030Y-71117438D01*
X129087030Y-71117438D02*
X129039411Y-71165057D01*
X129039411Y-71165057D02*
X128991792Y-71260295D01*
X128991792Y-71260295D02*
X128991792Y-71403152D01*
X128991792Y-71403152D02*
X129039411Y-71498390D01*
X129039411Y-71498390D02*
X129087030Y-71546009D01*
X129087030Y-71546009D02*
X129182268Y-71593628D01*
X129182268Y-71593628D02*
X129563220Y-71593628D01*
X128610839Y-72022200D02*
X128467982Y-72069819D01*
X128467982Y-72069819D02*
X128229887Y-72069819D01*
X128229887Y-72069819D02*
X128134649Y-72022200D01*
X128134649Y-72022200D02*
X128087030Y-71974580D01*
X128087030Y-71974580D02*
X128039411Y-71879342D01*
X128039411Y-71879342D02*
X128039411Y-71784104D01*
X128039411Y-71784104D02*
X128087030Y-71688866D01*
X128087030Y-71688866D02*
X128134649Y-71641247D01*
X128134649Y-71641247D02*
X128229887Y-71593628D01*
X128229887Y-71593628D02*
X128420363Y-71546009D01*
X128420363Y-71546009D02*
X128515601Y-71498390D01*
X128515601Y-71498390D02*
X128563220Y-71450771D01*
X128563220Y-71450771D02*
X128610839Y-71355533D01*
X128610839Y-71355533D02*
X128610839Y-71260295D01*
X128610839Y-71260295D02*
X128563220Y-71165057D01*
X128563220Y-71165057D02*
X128515601Y-71117438D01*
X128515601Y-71117438D02*
X128420363Y-71069819D01*
X128420363Y-71069819D02*
X128182268Y-71069819D01*
X128182268Y-71069819D02*
X128039411Y-71117438D01*
X127753696Y-71069819D02*
X127182268Y-71069819D01*
X127467982Y-72069819D02*
X127467982Y-71069819D01*
D11*
X178845489Y-76223257D02*
X178959774Y-76166114D01*
X178959774Y-76166114D02*
X179188346Y-76166114D01*
X179188346Y-76166114D02*
X179302632Y-76223257D01*
X179302632Y-76223257D02*
X179416917Y-76337542D01*
X179416917Y-76337542D02*
X179474060Y-76451828D01*
X179474060Y-76451828D02*
X179474060Y-76680400D01*
X179474060Y-76680400D02*
X179416917Y-76794685D01*
X179416917Y-76794685D02*
X179302632Y-76908971D01*
X179302632Y-76908971D02*
X179188346Y-76966114D01*
X179188346Y-76966114D02*
X178959774Y-76966114D01*
X178959774Y-76966114D02*
X178845489Y-76908971D01*
X179074060Y-75766114D02*
X179359774Y-75823257D01*
X179359774Y-75823257D02*
X179645489Y-75994685D01*
X179645489Y-75994685D02*
X179816917Y-76280400D01*
X179816917Y-76280400D02*
X179874060Y-76566114D01*
X179874060Y-76566114D02*
X179816917Y-76851828D01*
X179816917Y-76851828D02*
X179645489Y-77137542D01*
X179645489Y-77137542D02*
X179359774Y-77308971D01*
X179359774Y-77308971D02*
X179074060Y-77366114D01*
X179074060Y-77366114D02*
X178788346Y-77308971D01*
X178788346Y-77308971D02*
X178502632Y-77137542D01*
X178502632Y-77137542D02*
X178331203Y-76851828D01*
X178331203Y-76851828D02*
X178274060Y-76566114D01*
X178274060Y-76566114D02*
X178331203Y-76280400D01*
X178331203Y-76280400D02*
X178502632Y-75994685D01*
X178502632Y-75994685D02*
X178788346Y-75823257D01*
X178788346Y-75823257D02*
X179074060Y-75766114D01*
X176902631Y-76051828D02*
X176845488Y-75994685D01*
X176845488Y-75994685D02*
X176731203Y-75937542D01*
X176731203Y-75937542D02*
X176445488Y-75937542D01*
X176445488Y-75937542D02*
X176331203Y-75994685D01*
X176331203Y-75994685D02*
X176274060Y-76051828D01*
X176274060Y-76051828D02*
X176216917Y-76166114D01*
X176216917Y-76166114D02*
X176216917Y-76280400D01*
X176216917Y-76280400D02*
X176274060Y-76451828D01*
X176274060Y-76451828D02*
X176959774Y-77137542D01*
X176959774Y-77137542D02*
X176216917Y-77137542D01*
X175474060Y-75937542D02*
X175359774Y-75937542D01*
X175359774Y-75937542D02*
X175245488Y-75994685D01*
X175245488Y-75994685D02*
X175188346Y-76051828D01*
X175188346Y-76051828D02*
X175131203Y-76166114D01*
X175131203Y-76166114D02*
X175074060Y-76394685D01*
X175074060Y-76394685D02*
X175074060Y-76680400D01*
X175074060Y-76680400D02*
X175131203Y-76908971D01*
X175131203Y-76908971D02*
X175188346Y-77023257D01*
X175188346Y-77023257D02*
X175245488Y-77080400D01*
X175245488Y-77080400D02*
X175359774Y-77137542D01*
X175359774Y-77137542D02*
X175474060Y-77137542D01*
X175474060Y-77137542D02*
X175588346Y-77080400D01*
X175588346Y-77080400D02*
X175645488Y-77023257D01*
X175645488Y-77023257D02*
X175702631Y-76908971D01*
X175702631Y-76908971D02*
X175759774Y-76680400D01*
X175759774Y-76680400D02*
X175759774Y-76394685D01*
X175759774Y-76394685D02*
X175702631Y-76166114D01*
X175702631Y-76166114D02*
X175645488Y-76051828D01*
X175645488Y-76051828D02*
X175588346Y-75994685D01*
X175588346Y-75994685D02*
X175474060Y-75937542D01*
X174616917Y-76051828D02*
X174559774Y-75994685D01*
X174559774Y-75994685D02*
X174445489Y-75937542D01*
X174445489Y-75937542D02*
X174159774Y-75937542D01*
X174159774Y-75937542D02*
X174045489Y-75994685D01*
X174045489Y-75994685D02*
X173988346Y-76051828D01*
X173988346Y-76051828D02*
X173931203Y-76166114D01*
X173931203Y-76166114D02*
X173931203Y-76280400D01*
X173931203Y-76280400D02*
X173988346Y-76451828D01*
X173988346Y-76451828D02*
X174674060Y-77137542D01*
X174674060Y-77137542D02*
X173931203Y-77137542D01*
X172902632Y-76337542D02*
X172902632Y-77137542D01*
X173188346Y-75880400D02*
X173474060Y-76737542D01*
X173474060Y-76737542D02*
X172731203Y-76737542D01*
X170959774Y-76508971D02*
X171359774Y-76508971D01*
X171359774Y-77137542D02*
X171359774Y-75937542D01*
X171359774Y-75937542D02*
X170788346Y-75937542D01*
X170331203Y-77137542D02*
X170331203Y-75937542D01*
X170331203Y-75937542D02*
X169931203Y-76794685D01*
X169931203Y-76794685D02*
X169531203Y-75937542D01*
X169531203Y-75937542D02*
X169531203Y-77137542D01*
X168959774Y-77137542D02*
X168959774Y-75937542D01*
X168959774Y-75937542D02*
X168674060Y-75937542D01*
X168674060Y-75937542D02*
X168502631Y-75994685D01*
X168502631Y-75994685D02*
X168388346Y-76108971D01*
X168388346Y-76108971D02*
X168331203Y-76223257D01*
X168331203Y-76223257D02*
X168274060Y-76451828D01*
X168274060Y-76451828D02*
X168274060Y-76623257D01*
X168274060Y-76623257D02*
X168331203Y-76851828D01*
X168331203Y-76851828D02*
X168388346Y-76966114D01*
X168388346Y-76966114D02*
X168502631Y-77080400D01*
X168502631Y-77080400D02*
X168674060Y-77137542D01*
X168674060Y-77137542D02*
X168959774Y-77137542D01*
X167874060Y-75937542D02*
X167074060Y-77137542D01*
X167074060Y-75937542D02*
X167874060Y-77137542D01*
X166616917Y-77023257D02*
X166559774Y-77080400D01*
X166559774Y-77080400D02*
X166616917Y-77137542D01*
X166616917Y-77137542D02*
X166674060Y-77080400D01*
X166674060Y-77080400D02*
X166616917Y-77023257D01*
X166616917Y-77023257D02*
X166616917Y-77137542D01*
X165874060Y-77137542D02*
X165988345Y-77080400D01*
X165988345Y-77080400D02*
X166045488Y-77023257D01*
X166045488Y-77023257D02*
X166102631Y-76908971D01*
X166102631Y-76908971D02*
X166102631Y-76566114D01*
X166102631Y-76566114D02*
X166045488Y-76451828D01*
X166045488Y-76451828D02*
X165988345Y-76394685D01*
X165988345Y-76394685D02*
X165874060Y-76337542D01*
X165874060Y-76337542D02*
X165702631Y-76337542D01*
X165702631Y-76337542D02*
X165588345Y-76394685D01*
X165588345Y-76394685D02*
X165531203Y-76451828D01*
X165531203Y-76451828D02*
X165474060Y-76566114D01*
X165474060Y-76566114D02*
X165474060Y-76908971D01*
X165474060Y-76908971D02*
X165531203Y-77023257D01*
X165531203Y-77023257D02*
X165588345Y-77080400D01*
X165588345Y-77080400D02*
X165702631Y-77137542D01*
X165702631Y-77137542D02*
X165874060Y-77137542D01*
X164959774Y-77137542D02*
X164959774Y-76337542D01*
X164959774Y-76566114D02*
X164902631Y-76451828D01*
X164902631Y-76451828D02*
X164845489Y-76394685D01*
X164845489Y-76394685D02*
X164731203Y-76337542D01*
X164731203Y-76337542D02*
X164616917Y-76337542D01*
X163702632Y-76337542D02*
X163702632Y-77308971D01*
X163702632Y-77308971D02*
X163759774Y-77423257D01*
X163759774Y-77423257D02*
X163816917Y-77480400D01*
X163816917Y-77480400D02*
X163931203Y-77537542D01*
X163931203Y-77537542D02*
X164102632Y-77537542D01*
X164102632Y-77537542D02*
X164216917Y-77480400D01*
X163702632Y-77080400D02*
X163816917Y-77137542D01*
X163816917Y-77137542D02*
X164045489Y-77137542D01*
X164045489Y-77137542D02*
X164159774Y-77080400D01*
X164159774Y-77080400D02*
X164216917Y-77023257D01*
X164216917Y-77023257D02*
X164274060Y-76908971D01*
X164274060Y-76908971D02*
X164274060Y-76566114D01*
X164274060Y-76566114D02*
X164216917Y-76451828D01*
X164216917Y-76451828D02*
X164159774Y-76394685D01*
X164159774Y-76394685D02*
X164045489Y-76337542D01*
X164045489Y-76337542D02*
X163816917Y-76337542D01*
X163816917Y-76337542D02*
X163702632Y-76394685D01*
D10*
X124563220Y-48269819D02*
X124563220Y-47269819D01*
X124563220Y-47269819D02*
X124182268Y-47269819D01*
X124182268Y-47269819D02*
X124087030Y-47317438D01*
X124087030Y-47317438D02*
X124039411Y-47365057D01*
X124039411Y-47365057D02*
X123991792Y-47460295D01*
X123991792Y-47460295D02*
X123991792Y-47603152D01*
X123991792Y-47603152D02*
X124039411Y-47698390D01*
X124039411Y-47698390D02*
X124087030Y-47746009D01*
X124087030Y-47746009D02*
X124182268Y-47793628D01*
X124182268Y-47793628D02*
X124563220Y-47793628D01*
X123229887Y-47746009D02*
X123087030Y-47793628D01*
X123087030Y-47793628D02*
X123039411Y-47841247D01*
X123039411Y-47841247D02*
X122991792Y-47936485D01*
X122991792Y-47936485D02*
X122991792Y-48079342D01*
X122991792Y-48079342D02*
X123039411Y-48174580D01*
X123039411Y-48174580D02*
X123087030Y-48222200D01*
X123087030Y-48222200D02*
X123182268Y-48269819D01*
X123182268Y-48269819D02*
X123563220Y-48269819D01*
X123563220Y-48269819D02*
X123563220Y-47269819D01*
X123563220Y-47269819D02*
X123229887Y-47269819D01*
X123229887Y-47269819D02*
X123134649Y-47317438D01*
X123134649Y-47317438D02*
X123087030Y-47365057D01*
X123087030Y-47365057D02*
X123039411Y-47460295D01*
X123039411Y-47460295D02*
X123039411Y-47555533D01*
X123039411Y-47555533D02*
X123087030Y-47650771D01*
X123087030Y-47650771D02*
X123134649Y-47698390D01*
X123134649Y-47698390D02*
X123229887Y-47746009D01*
X123229887Y-47746009D02*
X123563220Y-47746009D01*
X122039411Y-48269819D02*
X122610839Y-48269819D01*
X122325125Y-48269819D02*
X122325125Y-47269819D01*
X122325125Y-47269819D02*
X122420363Y-47412676D01*
X122420363Y-47412676D02*
X122515601Y-47507914D01*
X122515601Y-47507914D02*
X122610839Y-47555533D01*
X121134649Y-47269819D02*
X121610839Y-47269819D01*
X121610839Y-47269819D02*
X121658458Y-47746009D01*
X121658458Y-47746009D02*
X121610839Y-47698390D01*
X121610839Y-47698390D02*
X121515601Y-47650771D01*
X121515601Y-47650771D02*
X121277506Y-47650771D01*
X121277506Y-47650771D02*
X121182268Y-47698390D01*
X121182268Y-47698390D02*
X121134649Y-47746009D01*
X121134649Y-47746009D02*
X121087030Y-47841247D01*
X121087030Y-47841247D02*
X121087030Y-48079342D01*
X121087030Y-48079342D02*
X121134649Y-48174580D01*
X121134649Y-48174580D02*
X121182268Y-48222200D01*
X121182268Y-48222200D02*
X121277506Y-48269819D01*
X121277506Y-48269819D02*
X121515601Y-48269819D01*
X121515601Y-48269819D02*
X121610839Y-48222200D01*
X121610839Y-48222200D02*
X121658458Y-48174580D01*
D12*
G04 #@! TO.C,G\u002A\u002A\u002A*
G36*
X178128641Y-57281022D02*
G01*
X178192745Y-57350942D01*
X178540640Y-57983857D01*
X178811695Y-58960354D01*
X179002758Y-60265660D01*
X179110680Y-61885007D01*
X179128674Y-62535059D01*
X179107410Y-64065929D01*
X178980955Y-65276114D01*
X178745785Y-66190081D01*
X178398377Y-66832295D01*
X177998532Y-67181183D01*
X177403262Y-67303623D01*
X176930663Y-67245865D01*
X176622614Y-67032530D01*
X176488383Y-66616325D01*
X176513291Y-65950048D01*
X176682658Y-64986493D01*
X176844289Y-63923788D01*
X176912362Y-62243437D01*
X176791168Y-60533139D01*
X176486097Y-58958163D01*
X176353129Y-58441399D01*
X176286393Y-58016287D01*
X176330061Y-57722988D01*
X176483962Y-57439684D01*
X176598955Y-57298909D01*
X177080521Y-57032571D01*
X177641425Y-57021688D01*
X178128641Y-57281022D01*
G37*
G36*
X151533356Y-57058307D02*
G01*
X151900110Y-57306324D01*
X152060650Y-57793454D01*
X152025504Y-58548014D01*
X151805199Y-59598316D01*
X151721182Y-60031383D01*
X151629529Y-60984269D01*
X151596603Y-62149151D01*
X151621823Y-63431718D01*
X151704612Y-64737660D01*
X151844387Y-65972666D01*
X151871916Y-66604131D01*
X151731184Y-67031000D01*
X151586218Y-67154915D01*
X151107211Y-67291139D01*
X150557689Y-67221891D01*
X150096632Y-66954604D01*
X150084099Y-66941813D01*
X149757691Y-66401416D01*
X149498256Y-65574288D01*
X149312498Y-64534301D01*
X149207122Y-63355332D01*
X149188833Y-62111253D01*
X149264335Y-60875939D01*
X149440333Y-59723265D01*
X149508316Y-59411349D01*
X149791888Y-58358586D01*
X150098634Y-57632910D01*
X150445812Y-57201378D01*
X150850680Y-57031044D01*
X150949860Y-57021091D01*
X151533356Y-57058307D01*
G37*
G36*
X172156114Y-54436178D02*
G01*
X172491414Y-54554763D01*
X172833455Y-54845671D01*
X173280316Y-55376315D01*
X174121055Y-56572818D01*
X174990457Y-58310196D01*
X175509646Y-60142071D01*
X175686484Y-62090380D01*
X175551221Y-64051275D01*
X175107853Y-65940062D01*
X174363353Y-67642504D01*
X173325362Y-69135799D01*
X173271622Y-69198103D01*
X172845856Y-69627684D01*
X172467800Y-69829874D01*
X172002904Y-69880435D01*
X171454373Y-69814738D01*
X171015721Y-69547041D01*
X170878314Y-69088932D01*
X171045847Y-68457390D01*
X171522011Y-67669394D01*
X171970586Y-67003280D01*
X172766168Y-65391474D01*
X173233477Y-63703392D01*
X173371314Y-61985132D01*
X173178485Y-60282792D01*
X172653792Y-58642470D01*
X171796039Y-57110265D01*
X171516532Y-56709302D01*
X171100522Y-56087602D01*
X170862407Y-55661219D01*
X170776571Y-55361492D01*
X170817400Y-55119762D01*
X170959278Y-54867368D01*
X170973581Y-54845904D01*
X171338532Y-54514657D01*
X171888369Y-54419566D01*
X172156114Y-54436178D01*
G37*
G36*
X157067167Y-54478508D02*
G01*
X157487023Y-54744585D01*
X157616075Y-55200161D01*
X157449364Y-55817992D01*
X156981932Y-56570832D01*
X156272261Y-57643799D01*
X155535589Y-59295976D01*
X155136997Y-61045697D01*
X155091499Y-62843142D01*
X155334828Y-64343510D01*
X155892261Y-65897358D01*
X156781950Y-67467071D01*
X157193438Y-68099209D01*
X157473186Y-68591447D01*
X157589160Y-68938533D01*
X157567258Y-69222260D01*
X157433379Y-69524419D01*
X157334250Y-69663336D01*
X157008949Y-69832383D01*
X156430360Y-69880435D01*
X156120124Y-69874458D01*
X155792252Y-69815305D01*
X155516352Y-69640510D01*
X155205241Y-69287743D01*
X154771734Y-68694675D01*
X154327744Y-68033393D01*
X153595593Y-66646264D01*
X153104882Y-65170917D01*
X152808721Y-63482860D01*
X152795110Y-63365042D01*
X152707878Y-62441823D01*
X152693319Y-61711236D01*
X152755660Y-61020639D01*
X152899127Y-60217392D01*
X152914826Y-60141835D01*
X153241264Y-58945921D01*
X153690906Y-57786645D01*
X154229560Y-56717713D01*
X154823032Y-55792833D01*
X155437129Y-55065711D01*
X156037658Y-54590053D01*
X156590425Y-54419566D01*
X157067167Y-54478508D01*
G37*
G36*
X167994896Y-63117236D02*
G01*
X167561011Y-64115809D01*
X166830621Y-64998244D01*
X165814493Y-65709894D01*
X165208670Y-65915734D01*
X164321746Y-66001937D01*
X163408919Y-65917233D01*
X162632160Y-65663958D01*
X161865868Y-65166947D01*
X161065635Y-64310658D01*
X160560644Y-63287347D01*
X160384782Y-62150000D01*
X160403691Y-61966122D01*
X162813547Y-61966122D01*
X162871863Y-62594410D01*
X163229315Y-63170685D01*
X163604002Y-63450404D01*
X164250000Y-63622464D01*
X164524792Y-63591527D01*
X165122587Y-63300962D01*
X165555600Y-62786664D01*
X165722464Y-62150000D01*
X165691527Y-61875208D01*
X165400962Y-61277413D01*
X164886664Y-60844400D01*
X164250000Y-60677537D01*
X164056520Y-60689789D01*
X163443564Y-60921751D01*
X163016677Y-61377882D01*
X162813547Y-61966122D01*
X160403691Y-61966122D01*
X160469529Y-61325903D01*
X160839182Y-60319669D01*
X161450623Y-59491284D01*
X162247406Y-58863151D01*
X163173086Y-58457670D01*
X164171218Y-58297244D01*
X165185357Y-58404276D01*
X166159056Y-58801166D01*
X167035872Y-59510318D01*
X167409865Y-59971146D01*
X167930089Y-60990258D01*
X168121510Y-62057170D01*
X168110422Y-62150000D01*
X167994896Y-63117236D01*
G37*
G36*
X171864238Y-62521554D02*
G01*
X171788590Y-63324882D01*
X171679722Y-64052311D01*
X171543893Y-64603085D01*
X171341093Y-65161819D01*
X170944345Y-66033846D01*
X170458754Y-66777007D01*
X169792202Y-67546066D01*
X169377416Y-67957315D01*
X168049059Y-68958159D01*
X166590106Y-69621442D01*
X166055784Y-69737198D01*
X165127099Y-69819941D01*
X163973913Y-69830137D01*
X163383995Y-69812650D01*
X162643032Y-69761512D01*
X162065399Y-69659750D01*
X161524226Y-69481447D01*
X160892644Y-69200684D01*
X160471129Y-68984383D01*
X159162281Y-68068741D01*
X158074783Y-66919197D01*
X157237637Y-65589717D01*
X156679844Y-64134264D01*
X156430406Y-62606803D01*
X156456184Y-62153661D01*
X158911618Y-62153661D01*
X159014260Y-63377005D01*
X159345379Y-64450725D01*
X159501594Y-64749873D01*
X160199350Y-65692799D01*
X161107632Y-66525758D01*
X162108116Y-67133834D01*
X162965341Y-67402874D01*
X164158435Y-67502608D01*
X165396338Y-67353826D01*
X166558640Y-66961196D01*
X167470735Y-66412453D01*
X168421858Y-65492596D01*
X169104792Y-64382390D01*
X169495621Y-63138319D01*
X169570428Y-61816867D01*
X169305296Y-60474517D01*
X169204427Y-60208957D01*
X168638806Y-59234822D01*
X167837398Y-58324691D01*
X166899769Y-57578130D01*
X165925483Y-57094704D01*
X165555909Y-56986908D01*
X164244513Y-56827252D01*
X162956117Y-56986394D01*
X161750576Y-57436150D01*
X160687746Y-58148339D01*
X159827486Y-59094778D01*
X159229652Y-60247286D01*
X159041365Y-60922754D01*
X158911618Y-62153661D01*
X156456184Y-62153661D01*
X156518325Y-61061299D01*
X156547993Y-60898988D01*
X157044457Y-59250532D01*
X157867805Y-57770938D01*
X159019588Y-56457349D01*
X159860508Y-55737473D01*
X160777129Y-55151501D01*
X161747514Y-54777589D01*
X162871769Y-54578610D01*
X164250000Y-54517434D01*
X164280895Y-54517346D01*
X165172886Y-54523884D01*
X165814477Y-54562991D01*
X166319882Y-54655264D01*
X166803314Y-54821299D01*
X167378985Y-55081692D01*
X168047854Y-55439389D01*
X169287517Y-56337463D01*
X170318187Y-57412303D01*
X171086837Y-58603158D01*
X171540439Y-59849276D01*
X171662016Y-60283540D01*
X171793484Y-60585508D01*
X171829260Y-60663761D01*
X171890832Y-61090235D01*
X171900405Y-61743085D01*
X171896977Y-61816867D01*
X171864238Y-62521554D01*
G37*
D13*
G04 #@! TO.C,J5*
X114390000Y-58910000D02*
X114390000Y-67590000D01*
X120610000Y-58210000D02*
X122210000Y-58210000D01*
X120610000Y-59490000D02*
X120610000Y-58210000D01*
X120610000Y-67010000D02*
X120610000Y-68290000D01*
X120610000Y-68290000D02*
X122210000Y-68290000D01*
X122210000Y-57190000D02*
X117960000Y-57190000D01*
X122210000Y-58210000D02*
X122210000Y-57190000D01*
X122210000Y-68290000D02*
X122210000Y-69310000D01*
X122210000Y-69310000D02*
X117960000Y-69310000D01*
X123500000Y-67010000D02*
X120610000Y-67010000D01*
D14*
G04 #@! TO.C,REF\u002A\u002A*
X134642829Y-69896097D02*
X134702753Y-69918355D01*
X134727673Y-69935080D01*
X134752910Y-69959043D01*
X134770912Y-69989526D01*
X134782858Y-70031023D01*
X134789930Y-70088032D01*
X134793308Y-70165047D01*
X134794171Y-70266565D01*
X134794002Y-70319027D01*
X134793153Y-70390715D01*
X134791711Y-70447925D01*
X134789814Y-70485809D01*
X134787597Y-70499514D01*
X134773172Y-70494981D01*
X134744054Y-70482670D01*
X134743181Y-70482272D01*
X134728060Y-70474356D01*
X134717891Y-70463495D01*
X134711691Y-70444471D01*
X134708478Y-70412069D01*
X134707270Y-70361071D01*
X134707086Y-70286261D01*
X134706714Y-70238804D01*
X134702750Y-70149615D01*
X134693673Y-70084287D01*
X134678524Y-70039393D01*
X134656345Y-70011507D01*
X134626175Y-69997203D01*
X134621990Y-69996206D01*
X134565480Y-69995427D01*
X134521410Y-70020744D01*
X134490972Y-70071502D01*
X134485544Y-70086175D01*
X134473171Y-70118649D01*
X134466905Y-70133572D01*
X134454036Y-70131516D01*
X134425933Y-70120357D01*
X134399721Y-70101927D01*
X134387771Y-70067098D01*
X134391336Y-70042151D01*
X134413235Y-69991547D01*
X134448644Y-69944128D01*
X134490052Y-69911334D01*
X134507400Y-69903752D01*
X134573089Y-69891076D01*
X134642829Y-69896097D01*
G36*
X134642829Y-69896097D02*
G01*
X134702753Y-69918355D01*
X134727673Y-69935080D01*
X134752910Y-69959043D01*
X134770912Y-69989526D01*
X134782858Y-70031023D01*
X134789930Y-70088032D01*
X134793308Y-70165047D01*
X134794171Y-70266565D01*
X134794002Y-70319027D01*
X134793153Y-70390715D01*
X134791711Y-70447925D01*
X134789814Y-70485809D01*
X134787597Y-70499514D01*
X134773172Y-70494981D01*
X134744054Y-70482670D01*
X134743181Y-70482272D01*
X134728060Y-70474356D01*
X134717891Y-70463495D01*
X134711691Y-70444471D01*
X134708478Y-70412069D01*
X134707270Y-70361071D01*
X134707086Y-70286261D01*
X134706714Y-70238804D01*
X134702750Y-70149615D01*
X134693673Y-70084287D01*
X134678524Y-70039393D01*
X134656345Y-70011507D01*
X134626175Y-69997203D01*
X134621990Y-69996206D01*
X134565480Y-69995427D01*
X134521410Y-70020744D01*
X134490972Y-70071502D01*
X134485544Y-70086175D01*
X134473171Y-70118649D01*
X134466905Y-70133572D01*
X134454036Y-70131516D01*
X134425933Y-70120357D01*
X134399721Y-70101927D01*
X134387771Y-70067098D01*
X134391336Y-70042151D01*
X134413235Y-69991547D01*
X134448644Y-69944128D01*
X134490052Y-69911334D01*
X134507400Y-69903752D01*
X134573089Y-69891076D01*
X134642829Y-69896097D01*
G37*
X138591020Y-69862822D02*
X138658810Y-69894680D01*
X138714366Y-69949770D01*
X138725881Y-69967016D01*
X138735432Y-69986562D01*
X138742206Y-70011198D01*
X138746819Y-70045711D01*
X138749888Y-70094889D01*
X138752029Y-70163519D01*
X138753859Y-70256389D01*
X138758404Y-70514007D01*
X138720225Y-70499491D01*
X138685268Y-70486156D01*
X138659097Y-70473323D01*
X138642013Y-70456780D01*
X138632086Y-70431465D01*
X138627386Y-70392316D01*
X138625982Y-70334268D01*
X138625943Y-70252261D01*
X138625744Y-70186895D01*
X138624559Y-70124173D01*
X138621729Y-70081334D01*
X138616609Y-70053220D01*
X138608553Y-70034675D01*
X138596914Y-70020543D01*
X138568303Y-70000600D01*
X138520239Y-69993083D01*
X138472688Y-70012079D01*
X138469550Y-70014511D01*
X138459769Y-70025748D01*
X138452553Y-70043770D01*
X138447299Y-70073026D01*
X138443402Y-70117962D01*
X138440256Y-70183028D01*
X138437257Y-70272670D01*
X138430000Y-70512697D01*
X138368314Y-70485044D01*
X138306629Y-70457391D01*
X138306629Y-70238246D01*
X138306884Y-70178711D01*
X138309086Y-70095892D01*
X138314661Y-70034227D01*
X138324941Y-69988748D01*
X138341258Y-69954484D01*
X138364943Y-69926466D01*
X138397328Y-69899723D01*
X138443907Y-69872780D01*
X138517287Y-69855191D01*
X138591020Y-69862822D01*
G36*
X138591020Y-69862822D02*
G01*
X138658810Y-69894680D01*
X138714366Y-69949770D01*
X138725881Y-69967016D01*
X138735432Y-69986562D01*
X138742206Y-70011198D01*
X138746819Y-70045711D01*
X138749888Y-70094889D01*
X138752029Y-70163519D01*
X138753859Y-70256389D01*
X138758404Y-70514007D01*
X138720225Y-70499491D01*
X138685268Y-70486156D01*
X138659097Y-70473323D01*
X138642013Y-70456780D01*
X138632086Y-70431465D01*
X138627386Y-70392316D01*
X138625982Y-70334268D01*
X138625943Y-70252261D01*
X138625744Y-70186895D01*
X138624559Y-70124173D01*
X138621729Y-70081334D01*
X138616609Y-70053220D01*
X138608553Y-70034675D01*
X138596914Y-70020543D01*
X138568303Y-70000600D01*
X138520239Y-69993083D01*
X138472688Y-70012079D01*
X138469550Y-70014511D01*
X138459769Y-70025748D01*
X138452553Y-70043770D01*
X138447299Y-70073026D01*
X138443402Y-70117962D01*
X138440256Y-70183028D01*
X138437257Y-70272670D01*
X138430000Y-70512697D01*
X138368314Y-70485044D01*
X138306629Y-70457391D01*
X138306629Y-70238246D01*
X138306884Y-70178711D01*
X138309086Y-70095892D01*
X138314661Y-70034227D01*
X138324941Y-69988748D01*
X138341258Y-69954484D01*
X138364943Y-69926466D01*
X138397328Y-69899723D01*
X138443907Y-69872780D01*
X138517287Y-69855191D01*
X138591020Y-69862822D01*
G37*
X136767691Y-69911467D02*
X136772273Y-69914003D01*
X136809704Y-69943057D01*
X136843170Y-69980410D01*
X136849007Y-69988852D01*
X136860165Y-70008553D01*
X136868136Y-70031935D01*
X136873618Y-70064067D01*
X136877307Y-70110019D01*
X136879899Y-70174859D01*
X136882092Y-70263657D01*
X136882402Y-70278669D01*
X136883400Y-70375999D01*
X136881994Y-70444934D01*
X136878164Y-70485948D01*
X136871889Y-70499514D01*
X136852898Y-70495452D01*
X136820638Y-70483144D01*
X136813041Y-70479545D01*
X136801176Y-70471398D01*
X136792994Y-70458004D01*
X136787643Y-70434608D01*
X136784269Y-70396455D01*
X136782019Y-70338790D01*
X136780040Y-70256857D01*
X136779498Y-70232907D01*
X136777403Y-70157266D01*
X136774683Y-70104328D01*
X136770515Y-70069075D01*
X136764079Y-70046487D01*
X136754550Y-70031544D01*
X136741106Y-70019227D01*
X136701305Y-69997634D01*
X136652341Y-69993476D01*
X136608529Y-70009999D01*
X136577008Y-70044210D01*
X136564914Y-70093114D01*
X136564578Y-70106407D01*
X136557972Y-70130472D01*
X136538470Y-70134144D01*
X136500283Y-70119813D01*
X136491438Y-70115217D01*
X136467534Y-70088186D01*
X136467061Y-70047994D01*
X136489836Y-69992409D01*
X136510727Y-69962117D01*
X136564142Y-69919084D01*
X136630074Y-69894755D01*
X136700574Y-69891443D01*
X136767691Y-69911467D01*
G36*
X136767691Y-69911467D02*
G01*
X136772273Y-69914003D01*
X136809704Y-69943057D01*
X136843170Y-69980410D01*
X136849007Y-69988852D01*
X136860165Y-70008553D01*
X136868136Y-70031935D01*
X136873618Y-70064067D01*
X136877307Y-70110019D01*
X136879899Y-70174859D01*
X136882092Y-70263657D01*
X136882402Y-70278669D01*
X136883400Y-70375999D01*
X136881994Y-70444934D01*
X136878164Y-70485948D01*
X136871889Y-70499514D01*
X136852898Y-70495452D01*
X136820638Y-70483144D01*
X136813041Y-70479545D01*
X136801176Y-70471398D01*
X136792994Y-70458004D01*
X136787643Y-70434608D01*
X136784269Y-70396455D01*
X136782019Y-70338790D01*
X136780040Y-70256857D01*
X136779498Y-70232907D01*
X136777403Y-70157266D01*
X136774683Y-70104328D01*
X136770515Y-70069075D01*
X136764079Y-70046487D01*
X136754550Y-70031544D01*
X136741106Y-70019227D01*
X136701305Y-69997634D01*
X136652341Y-69993476D01*
X136608529Y-70009999D01*
X136577008Y-70044210D01*
X136564914Y-70093114D01*
X136564578Y-70106407D01*
X136557972Y-70130472D01*
X136538470Y-70134144D01*
X136500283Y-70119813D01*
X136491438Y-70115217D01*
X136467534Y-70088186D01*
X136467061Y-70047994D01*
X136489836Y-69992409D01*
X136510727Y-69962117D01*
X136564142Y-69919084D01*
X136630074Y-69894755D01*
X136700574Y-69891443D01*
X136767691Y-69911467D01*
G37*
X135813941Y-69894282D02*
X135845774Y-69906758D01*
X135882743Y-69923602D01*
X135882743Y-70410196D01*
X135836812Y-70456127D01*
X135826320Y-70466427D01*
X135797255Y-70489320D01*
X135767943Y-70496735D01*
X135724326Y-70493321D01*
X135706568Y-70491114D01*
X135660767Y-70486445D01*
X135628743Y-70484585D01*
X135619244Y-70484869D01*
X135580274Y-70487948D01*
X135533160Y-70493321D01*
X135518085Y-70495168D01*
X135480110Y-70495893D01*
X135452325Y-70484429D01*
X135420674Y-70456127D01*
X135374743Y-70410196D01*
X135374743Y-70150055D01*
X135375101Y-70073180D01*
X135376216Y-69999886D01*
X135377952Y-69941850D01*
X135380167Y-69903663D01*
X135382721Y-69889914D01*
X135383256Y-69889951D01*
X135401808Y-69896793D01*
X135433153Y-69911868D01*
X135475608Y-69933822D01*
X135479604Y-70162240D01*
X135483600Y-70390657D01*
X135570686Y-70390657D01*
X135574657Y-70140286D01*
X135575916Y-70072227D01*
X135577718Y-69999482D01*
X135579671Y-69941730D01*
X135581612Y-69903648D01*
X135583377Y-69889914D01*
X135583885Y-69889962D01*
X135601482Y-69895015D01*
X135633834Y-69905849D01*
X135679543Y-69921783D01*
X135679765Y-70141706D01*
X135679988Y-70179909D01*
X135681531Y-70254146D01*
X135684292Y-70316145D01*
X135687977Y-70360308D01*
X135692292Y-70381041D01*
X135707732Y-70392131D01*
X135739241Y-70395556D01*
X135773886Y-70390657D01*
X135777857Y-70140286D01*
X135779278Y-70076663D01*
X135782225Y-70001356D01*
X135786079Y-69942286D01*
X135790542Y-69903718D01*
X135795317Y-69889914D01*
X135813941Y-69894282D01*
G36*
X135813941Y-69894282D02*
G01*
X135845774Y-69906758D01*
X135882743Y-69923602D01*
X135882743Y-70410196D01*
X135836812Y-70456127D01*
X135826320Y-70466427D01*
X135797255Y-70489320D01*
X135767943Y-70496735D01*
X135724326Y-70493321D01*
X135706568Y-70491114D01*
X135660767Y-70486445D01*
X135628743Y-70484585D01*
X135619244Y-70484869D01*
X135580274Y-70487948D01*
X135533160Y-70493321D01*
X135518085Y-70495168D01*
X135480110Y-70495893D01*
X135452325Y-70484429D01*
X135420674Y-70456127D01*
X135374743Y-70410196D01*
X135374743Y-70150055D01*
X135375101Y-70073180D01*
X135376216Y-69999886D01*
X135377952Y-69941850D01*
X135380167Y-69903663D01*
X135382721Y-69889914D01*
X135383256Y-69889951D01*
X135401808Y-69896793D01*
X135433153Y-69911868D01*
X135475608Y-69933822D01*
X135479604Y-70162240D01*
X135483600Y-70390657D01*
X135570686Y-70390657D01*
X135574657Y-70140286D01*
X135575916Y-70072227D01*
X135577718Y-69999482D01*
X135579671Y-69941730D01*
X135581612Y-69903648D01*
X135583377Y-69889914D01*
X135583885Y-69889962D01*
X135601482Y-69895015D01*
X135633834Y-69905849D01*
X135679543Y-69921783D01*
X135679765Y-70141706D01*
X135679988Y-70179909D01*
X135681531Y-70254146D01*
X135684292Y-70316145D01*
X135687977Y-70360308D01*
X135692292Y-70381041D01*
X135707732Y-70392131D01*
X135739241Y-70395556D01*
X135773886Y-70390657D01*
X135777857Y-70140286D01*
X135779278Y-70076663D01*
X135782225Y-70001356D01*
X135786079Y-69942286D01*
X135790542Y-69903718D01*
X135795317Y-69889914D01*
X135813941Y-69894282D01*
G37*
X137838543Y-69694444D02*
X137885714Y-69714342D01*
X137885714Y-70111509D01*
X137885519Y-70214498D01*
X137884998Y-70307141D01*
X137884199Y-70385700D01*
X137883172Y-70446439D01*
X137881963Y-70485623D01*
X137880623Y-70499514D01*
X137880099Y-70499468D01*
X137862287Y-70494420D01*
X137829823Y-70483580D01*
X137784114Y-70467646D01*
X137784114Y-70263173D01*
X137783824Y-70182832D01*
X137782474Y-70124562D01*
X137779369Y-70084909D01*
X137773812Y-70058618D01*
X137765107Y-70040436D01*
X137752556Y-70025107D01*
X137743999Y-70016955D01*
X137697728Y-69994375D01*
X137646728Y-69996375D01*
X137599993Y-70023073D01*
X137593189Y-70029698D01*
X137582293Y-70043456D01*
X137574836Y-70061642D01*
X137570169Y-70089177D01*
X137567642Y-70130981D01*
X137566602Y-70191973D01*
X137566400Y-70277073D01*
X137566303Y-70320234D01*
X137565674Y-70391224D01*
X137564556Y-70448076D01*
X137563063Y-70485828D01*
X137561309Y-70499514D01*
X137560785Y-70499468D01*
X137542973Y-70494420D01*
X137510509Y-70483580D01*
X137464800Y-70467646D01*
X137464823Y-70262237D01*
X137464857Y-70243951D01*
X137466778Y-70148626D01*
X137472678Y-70076543D01*
X137484001Y-70022813D01*
X137502187Y-69982549D01*
X137528679Y-69950861D01*
X137564918Y-69922861D01*
X137600263Y-69905333D01*
X137656773Y-69891785D01*
X137712356Y-69891015D01*
X137755086Y-69904195D01*
X137758298Y-69906015D01*
X137768205Y-69905820D01*
X137774975Y-69890572D01*
X137779861Y-69855613D01*
X137784114Y-69796289D01*
X137791371Y-69674547D01*
X137838543Y-69694444D01*
G36*
X137838543Y-69694444D02*
G01*
X137885714Y-69714342D01*
X137885714Y-70111509D01*
X137885519Y-70214498D01*
X137884998Y-70307141D01*
X137884199Y-70385700D01*
X137883172Y-70446439D01*
X137881963Y-70485623D01*
X137880623Y-70499514D01*
X137880099Y-70499468D01*
X137862287Y-70494420D01*
X137829823Y-70483580D01*
X137784114Y-70467646D01*
X137784114Y-70263173D01*
X137783824Y-70182832D01*
X137782474Y-70124562D01*
X137779369Y-70084909D01*
X137773812Y-70058618D01*
X137765107Y-70040436D01*
X137752556Y-70025107D01*
X137743999Y-70016955D01*
X137697728Y-69994375D01*
X137646728Y-69996375D01*
X137599993Y-70023073D01*
X137593189Y-70029698D01*
X137582293Y-70043456D01*
X137574836Y-70061642D01*
X137570169Y-70089177D01*
X137567642Y-70130981D01*
X137566602Y-70191973D01*
X137566400Y-70277073D01*
X137566303Y-70320234D01*
X137565674Y-70391224D01*
X137564556Y-70448076D01*
X137563063Y-70485828D01*
X137561309Y-70499514D01*
X137560785Y-70499468D01*
X137542973Y-70494420D01*
X137510509Y-70483580D01*
X137464800Y-70467646D01*
X137464823Y-70262237D01*
X137464857Y-70243951D01*
X137466778Y-70148626D01*
X137472678Y-70076543D01*
X137484001Y-70022813D01*
X137502187Y-69982549D01*
X137528679Y-69950861D01*
X137564918Y-69922861D01*
X137600263Y-69905333D01*
X137656773Y-69891785D01*
X137712356Y-69891015D01*
X137755086Y-69904195D01*
X137758298Y-69906015D01*
X137768205Y-69905820D01*
X137774975Y-69890572D01*
X137779861Y-69855613D01*
X137784114Y-69796289D01*
X137791371Y-69674547D01*
X137838543Y-69694444D01*
G37*
X140425714Y-70180200D02*
X140425701Y-70195935D01*
X140424914Y-70266119D01*
X140422210Y-70315022D01*
X140416606Y-70349178D01*
X140407119Y-70375124D01*
X140392768Y-70399397D01*
X140389237Y-70404433D01*
X140351878Y-70444143D01*
X140309311Y-70474092D01*
X140287452Y-70483810D01*
X140208908Y-70500020D01*
X140131231Y-70489535D01*
X140059645Y-70453707D01*
X139999374Y-70393887D01*
X139994286Y-70385873D01*
X139977730Y-70339342D01*
X139966573Y-70274552D01*
X139961160Y-70199727D01*
X139961768Y-70130513D01*
X140108248Y-70130513D01*
X140109402Y-70226399D01*
X140109866Y-70232569D01*
X140116629Y-70285478D01*
X140128671Y-70319029D01*
X140149005Y-70342016D01*
X140183097Y-70363548D01*
X140216814Y-70364680D01*
X140251543Y-70339857D01*
X140257584Y-70333325D01*
X140269417Y-70313779D01*
X140276404Y-70285386D01*
X140279727Y-70241430D01*
X140280571Y-70175192D01*
X140279125Y-70113150D01*
X140271907Y-70054042D01*
X140257006Y-70016686D01*
X140232636Y-69997152D01*
X140197008Y-69991514D01*
X140183440Y-69992635D01*
X140145430Y-70013194D01*
X140120312Y-70059299D01*
X140108248Y-70130513D01*
X139961768Y-70130513D01*
X139961833Y-70123096D01*
X139968937Y-70052882D01*
X139982815Y-69997312D01*
X140000649Y-69960301D01*
X140050855Y-69902733D01*
X140118885Y-69866962D01*
X140202158Y-69854665D01*
X140224398Y-69855331D01*
X140289891Y-69868947D01*
X140343687Y-69903249D01*
X140393057Y-69962338D01*
X140395995Y-69966722D01*
X140409287Y-69990299D01*
X140417932Y-70016949D01*
X140422904Y-70053159D01*
X140425174Y-70105413D01*
X140425678Y-70175192D01*
X140425714Y-70180200D01*
G36*
X140425714Y-70180200D02*
G01*
X140425701Y-70195935D01*
X140424914Y-70266119D01*
X140422210Y-70315022D01*
X140416606Y-70349178D01*
X140407119Y-70375124D01*
X140392768Y-70399397D01*
X140389237Y-70404433D01*
X140351878Y-70444143D01*
X140309311Y-70474092D01*
X140287452Y-70483810D01*
X140208908Y-70500020D01*
X140131231Y-70489535D01*
X140059645Y-70453707D01*
X139999374Y-70393887D01*
X139994286Y-70385873D01*
X139977730Y-70339342D01*
X139966573Y-70274552D01*
X139961160Y-70199727D01*
X139961768Y-70130513D01*
X140108248Y-70130513D01*
X140109402Y-70226399D01*
X140109866Y-70232569D01*
X140116629Y-70285478D01*
X140128671Y-70319029D01*
X140149005Y-70342016D01*
X140183097Y-70363548D01*
X140216814Y-70364680D01*
X140251543Y-70339857D01*
X140257584Y-70333325D01*
X140269417Y-70313779D01*
X140276404Y-70285386D01*
X140279727Y-70241430D01*
X140280571Y-70175192D01*
X140279125Y-70113150D01*
X140271907Y-70054042D01*
X140257006Y-70016686D01*
X140232636Y-69997152D01*
X140197008Y-69991514D01*
X140183440Y-69992635D01*
X140145430Y-70013194D01*
X140120312Y-70059299D01*
X140108248Y-70130513D01*
X139961768Y-70130513D01*
X139961833Y-70123096D01*
X139968937Y-70052882D01*
X139982815Y-69997312D01*
X140000649Y-69960301D01*
X140050855Y-69902733D01*
X140118885Y-69866962D01*
X140202158Y-69854665D01*
X140224398Y-69855331D01*
X140289891Y-69868947D01*
X140343687Y-69903249D01*
X140393057Y-69962338D01*
X140395995Y-69966722D01*
X140409287Y-69990299D01*
X140417932Y-70016949D01*
X140422904Y-70053159D01*
X140425174Y-70105413D01*
X140425678Y-70175192D01*
X140425714Y-70180200D01*
G37*
X134300590Y-70197622D02*
X134300307Y-70236305D01*
X134296762Y-70312521D01*
X134287483Y-70368294D01*
X134270375Y-70409613D01*
X134243344Y-70442467D01*
X134204292Y-70472846D01*
X134179445Y-70486660D01*
X134139615Y-70495965D01*
X134083665Y-70495230D01*
X134052385Y-70492283D01*
X134014653Y-70483283D01*
X133984494Y-70463720D01*
X133949408Y-70427267D01*
X133944720Y-70421943D01*
X133913177Y-70380969D01*
X133898128Y-70345283D01*
X133894286Y-70302966D01*
X133894286Y-70240779D01*
X133937742Y-70257182D01*
X133969424Y-70276356D01*
X133996962Y-70321347D01*
X134002711Y-70335752D01*
X134034855Y-70376546D01*
X134078611Y-70397081D01*
X134126254Y-70395235D01*
X134170057Y-70368886D01*
X134185111Y-70352455D01*
X134198763Y-70327667D01*
X134194493Y-70305144D01*
X134169916Y-70281964D01*
X134122651Y-70255202D01*
X134050314Y-70221934D01*
X133901543Y-70156816D01*
X133897595Y-70092308D01*
X133899079Y-70051220D01*
X133996010Y-70051220D01*
X134003368Y-70076657D01*
X134036848Y-70103814D01*
X134097614Y-70134714D01*
X134107669Y-70139190D01*
X134155751Y-70160017D01*
X134191726Y-70174665D01*
X134208444Y-70180200D01*
X134210977Y-70176126D01*
X134211993Y-70151247D01*
X134208369Y-70111257D01*
X134199242Y-70072152D01*
X134170773Y-70022884D01*
X134129678Y-69995122D01*
X134080590Y-69991364D01*
X134028144Y-70014109D01*
X134013609Y-70025481D01*
X133996010Y-70051220D01*
X133899079Y-70051220D01*
X133899338Y-70044064D01*
X133921281Y-69983096D01*
X133948979Y-69949497D01*
X134006405Y-69911966D01*
X134074527Y-69893006D01*
X134144947Y-69894507D01*
X134209267Y-69918355D01*
X134223426Y-69927513D01*
X134255904Y-69955849D01*
X134278116Y-69991695D01*
X134291804Y-70040384D01*
X134298715Y-70107249D01*
X134299628Y-70151247D01*
X134300590Y-70197622D01*
G36*
X134300590Y-70197622D02*
G01*
X134300307Y-70236305D01*
X134296762Y-70312521D01*
X134287483Y-70368294D01*
X134270375Y-70409613D01*
X134243344Y-70442467D01*
X134204292Y-70472846D01*
X134179445Y-70486660D01*
X134139615Y-70495965D01*
X134083665Y-70495230D01*
X134052385Y-70492283D01*
X134014653Y-70483283D01*
X133984494Y-70463720D01*
X133949408Y-70427267D01*
X133944720Y-70421943D01*
X133913177Y-70380969D01*
X133898128Y-70345283D01*
X133894286Y-70302966D01*
X133894286Y-70240779D01*
X133937742Y-70257182D01*
X133969424Y-70276356D01*
X133996962Y-70321347D01*
X134002711Y-70335752D01*
X134034855Y-70376546D01*
X134078611Y-70397081D01*
X134126254Y-70395235D01*
X134170057Y-70368886D01*
X134185111Y-70352455D01*
X134198763Y-70327667D01*
X134194493Y-70305144D01*
X134169916Y-70281964D01*
X134122651Y-70255202D01*
X134050314Y-70221934D01*
X133901543Y-70156816D01*
X133897595Y-70092308D01*
X133899079Y-70051220D01*
X133996010Y-70051220D01*
X134003368Y-70076657D01*
X134036848Y-70103814D01*
X134097614Y-70134714D01*
X134107669Y-70139190D01*
X134155751Y-70160017D01*
X134191726Y-70174665D01*
X134208444Y-70180200D01*
X134210977Y-70176126D01*
X134211993Y-70151247D01*
X134208369Y-70111257D01*
X134199242Y-70072152D01*
X134170773Y-70022884D01*
X134129678Y-69995122D01*
X134080590Y-69991364D01*
X134028144Y-70014109D01*
X134013609Y-70025481D01*
X133996010Y-70051220D01*
X133899079Y-70051220D01*
X133899338Y-70044064D01*
X133921281Y-69983096D01*
X133948979Y-69949497D01*
X134006405Y-69911966D01*
X134074527Y-69893006D01*
X134144947Y-69894507D01*
X134209267Y-69918355D01*
X134223426Y-69927513D01*
X134255904Y-69955849D01*
X134278116Y-69991695D01*
X134291804Y-70040384D01*
X134298715Y-70107249D01*
X134299628Y-70151247D01*
X134300590Y-70197622D01*
G37*
X136390698Y-70194714D02*
X136389537Y-70251313D01*
X136381345Y-70328462D01*
X136363519Y-70386276D01*
X136333975Y-70430422D01*
X136290625Y-70466568D01*
X136249332Y-70487463D01*
X136179987Y-70499090D01*
X136110736Y-70486377D01*
X136048145Y-70450945D01*
X135998779Y-70394418D01*
X135992818Y-70383995D01*
X135984945Y-70365733D01*
X135979106Y-70342429D01*
X135974999Y-70310085D01*
X135972325Y-70264704D01*
X135970781Y-70202287D01*
X135970734Y-70196748D01*
X136071429Y-70196748D01*
X136071772Y-70249577D01*
X136073942Y-70297362D01*
X136079307Y-70328209D01*
X136089217Y-70348935D01*
X136105021Y-70366356D01*
X136108724Y-70369705D01*
X136156299Y-70394419D01*
X136206635Y-70391890D01*
X136253517Y-70362288D01*
X136267477Y-70346953D01*
X136279160Y-70326622D01*
X136285686Y-70298514D01*
X136288524Y-70255550D01*
X136289143Y-70190647D01*
X136288837Y-70141122D01*
X136286722Y-70092782D01*
X136281390Y-70061587D01*
X136271460Y-70040647D01*
X136255550Y-70023073D01*
X136246204Y-70015159D01*
X136197776Y-69993843D01*
X136147040Y-69997198D01*
X136102987Y-70025107D01*
X136093504Y-70036173D01*
X136081939Y-70057009D01*
X136075252Y-70086106D01*
X136072173Y-70130381D01*
X136071429Y-70196748D01*
X135970734Y-70196748D01*
X135970067Y-70118837D01*
X135969883Y-70010358D01*
X135969829Y-69673601D01*
X136017000Y-69693362D01*
X136029472Y-69698770D01*
X136049324Y-69710985D01*
X136060687Y-69729482D01*
X136066933Y-69761829D01*
X136071429Y-69815593D01*
X136075535Y-69863866D01*
X136080963Y-69895557D01*
X136088739Y-69907383D01*
X136100457Y-69904212D01*
X136130318Y-69893067D01*
X136183684Y-69890304D01*
X136241093Y-69900625D01*
X136290625Y-69922861D01*
X136317876Y-69943443D01*
X136352865Y-69983600D01*
X136375274Y-70035086D01*
X136387190Y-70103568D01*
X136390542Y-70190647D01*
X136390698Y-70194714D01*
G36*
X136390698Y-70194714D02*
G01*
X136389537Y-70251313D01*
X136381345Y-70328462D01*
X136363519Y-70386276D01*
X136333975Y-70430422D01*
X136290625Y-70466568D01*
X136249332Y-70487463D01*
X136179987Y-70499090D01*
X136110736Y-70486377D01*
X136048145Y-70450945D01*
X135998779Y-70394418D01*
X135992818Y-70383995D01*
X135984945Y-70365733D01*
X135979106Y-70342429D01*
X135974999Y-70310085D01*
X135972325Y-70264704D01*
X135970781Y-70202287D01*
X135970734Y-70196748D01*
X136071429Y-70196748D01*
X136071772Y-70249577D01*
X136073942Y-70297362D01*
X136079307Y-70328209D01*
X136089217Y-70348935D01*
X136105021Y-70366356D01*
X136108724Y-70369705D01*
X136156299Y-70394419D01*
X136206635Y-70391890D01*
X136253517Y-70362288D01*
X136267477Y-70346953D01*
X136279160Y-70326622D01*
X136285686Y-70298514D01*
X136288524Y-70255550D01*
X136289143Y-70190647D01*
X136288837Y-70141122D01*
X136286722Y-70092782D01*
X136281390Y-70061587D01*
X136271460Y-70040647D01*
X136255550Y-70023073D01*
X136246204Y-70015159D01*
X136197776Y-69993843D01*
X136147040Y-69997198D01*
X136102987Y-70025107D01*
X136093504Y-70036173D01*
X136081939Y-70057009D01*
X136075252Y-70086106D01*
X136072173Y-70130381D01*
X136071429Y-70196748D01*
X135970734Y-70196748D01*
X135970067Y-70118837D01*
X135969883Y-70010358D01*
X135969829Y-69673601D01*
X136017000Y-69693362D01*
X136029472Y-69698770D01*
X136049324Y-69710985D01*
X136060687Y-69729482D01*
X136066933Y-69761829D01*
X136071429Y-69815593D01*
X136075535Y-69863866D01*
X136080963Y-69895557D01*
X136088739Y-69907383D01*
X136100457Y-69904212D01*
X136130318Y-69893067D01*
X136183684Y-69890304D01*
X136241093Y-69900625D01*
X136290625Y-69922861D01*
X136317876Y-69943443D01*
X136352865Y-69983600D01*
X136375274Y-70035086D01*
X136387190Y-70103568D01*
X136390542Y-70190647D01*
X136390698Y-70194714D01*
G37*
X139322299Y-70139055D02*
X139317684Y-70249078D01*
X139315078Y-70272387D01*
X139295660Y-70355352D01*
X139260573Y-70418448D01*
X139207212Y-70466808D01*
X139204196Y-70468804D01*
X139136362Y-70497185D01*
X139065535Y-70499711D01*
X138997289Y-70478097D01*
X138937196Y-70434062D01*
X138890829Y-70369322D01*
X138890050Y-70367761D01*
X138874643Y-70327558D01*
X138863357Y-70281866D01*
X138857370Y-70238972D01*
X138857861Y-70207160D01*
X138866007Y-70194714D01*
X138873244Y-70195471D01*
X138907851Y-70209235D01*
X138947078Y-70234546D01*
X138980448Y-70263845D01*
X138997483Y-70289572D01*
X139015192Y-70324471D01*
X139051485Y-70356212D01*
X139093630Y-70368886D01*
X139109077Y-70365221D01*
X139139569Y-70346774D01*
X139166128Y-70321166D01*
X139177486Y-70297934D01*
X139177482Y-70297848D01*
X139164596Y-70287179D01*
X139130241Y-70267933D01*
X139079593Y-70242813D01*
X139017829Y-70214524D01*
X139017489Y-70214374D01*
X138950388Y-70184498D01*
X138905411Y-70162973D01*
X138878145Y-70146437D01*
X138864178Y-70131531D01*
X138859097Y-70114893D01*
X138858490Y-70093162D01*
X138862712Y-70052013D01*
X139006000Y-70052013D01*
X139020791Y-70064949D01*
X139057644Y-70084333D01*
X139058725Y-70084881D01*
X139102205Y-70105587D01*
X139141102Y-70122105D01*
X139165778Y-70129093D01*
X139175676Y-70119753D01*
X139177486Y-70087748D01*
X139169966Y-70047915D01*
X139143897Y-70011717D01*
X139106154Y-69992950D01*
X139064077Y-69994845D01*
X139025005Y-70020632D01*
X139009647Y-70038451D01*
X139006000Y-70052013D01*
X138862712Y-70052013D01*
X138863833Y-70041086D01*
X138890251Y-69970335D01*
X138934473Y-69914735D01*
X138991697Y-69876239D01*
X139057120Y-69856797D01*
X139125937Y-69858359D01*
X139193347Y-69882878D01*
X139254544Y-69932302D01*
X139288450Y-69981212D01*
X139312806Y-70051027D01*
X139316767Y-70087748D01*
X139322299Y-70139055D01*
G36*
X139322299Y-70139055D02*
G01*
X139317684Y-70249078D01*
X139315078Y-70272387D01*
X139295660Y-70355352D01*
X139260573Y-70418448D01*
X139207212Y-70466808D01*
X139204196Y-70468804D01*
X139136362Y-70497185D01*
X139065535Y-70499711D01*
X138997289Y-70478097D01*
X138937196Y-70434062D01*
X138890829Y-70369322D01*
X138890050Y-70367761D01*
X138874643Y-70327558D01*
X138863357Y-70281866D01*
X138857370Y-70238972D01*
X138857861Y-70207160D01*
X138866007Y-70194714D01*
X138873244Y-70195471D01*
X138907851Y-70209235D01*
X138947078Y-70234546D01*
X138980448Y-70263845D01*
X138997483Y-70289572D01*
X139015192Y-70324471D01*
X139051485Y-70356212D01*
X139093630Y-70368886D01*
X139109077Y-70365221D01*
X139139569Y-70346774D01*
X139166128Y-70321166D01*
X139177486Y-70297934D01*
X139177482Y-70297848D01*
X139164596Y-70287179D01*
X139130241Y-70267933D01*
X139079593Y-70242813D01*
X139017829Y-70214524D01*
X139017489Y-70214374D01*
X138950388Y-70184498D01*
X138905411Y-70162973D01*
X138878145Y-70146437D01*
X138864178Y-70131531D01*
X138859097Y-70114893D01*
X138858490Y-70093162D01*
X138862712Y-70052013D01*
X139006000Y-70052013D01*
X139020791Y-70064949D01*
X139057644Y-70084333D01*
X139058725Y-70084881D01*
X139102205Y-70105587D01*
X139141102Y-70122105D01*
X139165778Y-70129093D01*
X139175676Y-70119753D01*
X139177486Y-70087748D01*
X139169966Y-70047915D01*
X139143897Y-70011717D01*
X139106154Y-69992950D01*
X139064077Y-69994845D01*
X139025005Y-70020632D01*
X139009647Y-70038451D01*
X139006000Y-70052013D01*
X138862712Y-70052013D01*
X138863833Y-70041086D01*
X138890251Y-69970335D01*
X138934473Y-69914735D01*
X138991697Y-69876239D01*
X139057120Y-69856797D01*
X139125937Y-69858359D01*
X139193347Y-69882878D01*
X139254544Y-69932302D01*
X139288450Y-69981212D01*
X139312806Y-70051027D01*
X139316767Y-70087748D01*
X139322299Y-70139055D01*
G37*
X137249483Y-69905569D02*
X137299376Y-69934661D01*
X137321325Y-69957327D01*
X137363504Y-70025082D01*
X137377714Y-70098950D01*
X137377714Y-70149770D01*
X137330999Y-70130128D01*
X137298692Y-70110308D01*
X137273231Y-70069160D01*
X137270616Y-70060675D01*
X137242478Y-70017451D01*
X137200067Y-69994103D01*
X137151370Y-69993100D01*
X137104373Y-70016914D01*
X137097357Y-70023056D01*
X137073893Y-70049745D01*
X137070019Y-70073014D01*
X137087768Y-70095862D01*
X137129179Y-70121287D01*
X137196286Y-70152288D01*
X137200824Y-70154252D01*
X137275322Y-70188990D01*
X137326203Y-70219763D01*
X137357525Y-70250488D01*
X137373343Y-70285082D01*
X137377714Y-70327462D01*
X137371986Y-70374446D01*
X137343062Y-70434585D01*
X137292178Y-70477788D01*
X137255374Y-70490759D01*
X137203434Y-70497856D01*
X137152999Y-70496340D01*
X137116983Y-70485632D01*
X137113158Y-70482966D01*
X137102998Y-70464337D01*
X137110048Y-70431505D01*
X137122297Y-70405735D01*
X137141939Y-70395006D01*
X137179191Y-70395539D01*
X137230908Y-70392462D01*
X137264701Y-70371212D01*
X137276114Y-70331877D01*
X137276104Y-70330747D01*
X137269187Y-70307913D01*
X137245659Y-70286963D01*
X137199914Y-70262815D01*
X137137704Y-70233741D01*
X137096499Y-70217925D01*
X137072712Y-70218944D01*
X137061597Y-70239837D01*
X137058408Y-70283641D01*
X137058400Y-70353393D01*
X137058044Y-70396452D01*
X137056413Y-70449626D01*
X137053761Y-70486022D01*
X137050422Y-70499514D01*
X137049530Y-70499423D01*
X137030237Y-70492110D01*
X136998284Y-70476678D01*
X136954124Y-70453842D01*
X136959371Y-70248078D01*
X136959736Y-70234432D01*
X136963904Y-70138651D01*
X136971268Y-70066462D01*
X136983330Y-70013058D01*
X137001593Y-69973633D01*
X137027560Y-69943380D01*
X137062733Y-69917493D01*
X137063384Y-69917087D01*
X137120256Y-69895968D01*
X137186033Y-69892400D01*
X137249483Y-69905569D01*
G36*
X137249483Y-69905569D02*
G01*
X137299376Y-69934661D01*
X137321325Y-69957327D01*
X137363504Y-70025082D01*
X137377714Y-70098950D01*
X137377714Y-70149770D01*
X137330999Y-70130128D01*
X137298692Y-70110308D01*
X137273231Y-70069160D01*
X137270616Y-70060675D01*
X137242478Y-70017451D01*
X137200067Y-69994103D01*
X137151370Y-69993100D01*
X137104373Y-70016914D01*
X137097357Y-70023056D01*
X137073893Y-70049745D01*
X137070019Y-70073014D01*
X137087768Y-70095862D01*
X137129179Y-70121287D01*
X137196286Y-70152288D01*
X137200824Y-70154252D01*
X137275322Y-70188990D01*
X137326203Y-70219763D01*
X137357525Y-70250488D01*
X137373343Y-70285082D01*
X137377714Y-70327462D01*
X137371986Y-70374446D01*
X137343062Y-70434585D01*
X137292178Y-70477788D01*
X137255374Y-70490759D01*
X137203434Y-70497856D01*
X137152999Y-70496340D01*
X137116983Y-70485632D01*
X137113158Y-70482966D01*
X137102998Y-70464337D01*
X137110048Y-70431505D01*
X137122297Y-70405735D01*
X137141939Y-70395006D01*
X137179191Y-70395539D01*
X137230908Y-70392462D01*
X137264701Y-70371212D01*
X137276114Y-70331877D01*
X137276104Y-70330747D01*
X137269187Y-70307913D01*
X137245659Y-70286963D01*
X137199914Y-70262815D01*
X137137704Y-70233741D01*
X137096499Y-70217925D01*
X137072712Y-70218944D01*
X137061597Y-70239837D01*
X137058408Y-70283641D01*
X137058400Y-70353393D01*
X137058044Y-70396452D01*
X137056413Y-70449626D01*
X137053761Y-70486022D01*
X137050422Y-70499514D01*
X137049530Y-70499423D01*
X137030237Y-70492110D01*
X136998284Y-70476678D01*
X136954124Y-70453842D01*
X136959371Y-70248078D01*
X136959736Y-70234432D01*
X136963904Y-70138651D01*
X136971268Y-70066462D01*
X136983330Y-70013058D01*
X137001593Y-69973633D01*
X137027560Y-69943380D01*
X137062733Y-69917493D01*
X137063384Y-69917087D01*
X137120256Y-69895968D01*
X137186033Y-69892400D01*
X137249483Y-69905569D01*
G37*
X135127495Y-69891220D02*
X135158599Y-69899121D01*
X135187559Y-69918817D01*
X135224831Y-69955484D01*
X135248801Y-69981378D01*
X135273770Y-70014997D01*
X135285031Y-70046506D01*
X135287657Y-70086485D01*
X135287657Y-70151917D01*
X135243035Y-70128842D01*
X135207673Y-70100724D01*
X135183451Y-70062848D01*
X135179291Y-70052551D01*
X135147594Y-70012637D01*
X135103554Y-69992624D01*
X135055531Y-69994572D01*
X135011886Y-70020543D01*
X134993420Y-70041635D01*
X134982663Y-70068619D01*
X134994178Y-70092634D01*
X135029981Y-70116791D01*
X135092090Y-70144199D01*
X135101515Y-70147985D01*
X135158058Y-70172759D01*
X135206580Y-70197189D01*
X135237451Y-70216486D01*
X135268371Y-70250953D01*
X135288927Y-70305957D01*
X135286744Y-70364983D01*
X135262424Y-70420845D01*
X135216568Y-70466355D01*
X135179438Y-70485727D01*
X135107711Y-70499292D01*
X135067852Y-70497462D01*
X135030953Y-70487568D01*
X135016797Y-70466806D01*
X135022091Y-70432613D01*
X135023631Y-70428092D01*
X135035842Y-70404116D01*
X135056174Y-70395042D01*
X135094908Y-70395649D01*
X135122257Y-70396474D01*
X135154257Y-70389392D01*
X135176182Y-70368219D01*
X135188670Y-70342152D01*
X135190062Y-70314845D01*
X135189998Y-70314685D01*
X135173807Y-70299930D01*
X135139155Y-70278457D01*
X135094321Y-70254458D01*
X135047582Y-70232125D01*
X135007217Y-70215652D01*
X134981504Y-70209229D01*
X134977679Y-70215518D01*
X134972864Y-70245115D01*
X134969566Y-70293447D01*
X134968343Y-70354372D01*
X134968058Y-70396542D01*
X134966718Y-70449653D01*
X134964528Y-70486025D01*
X134961769Y-70499514D01*
X134947344Y-70494981D01*
X134918226Y-70482670D01*
X134881257Y-70465826D01*
X134881257Y-70249721D01*
X134881493Y-70194327D01*
X134883729Y-70110207D01*
X134889423Y-70047800D01*
X134899903Y-70002358D01*
X134916497Y-69969133D01*
X134940531Y-69943378D01*
X134973333Y-69920344D01*
X135015124Y-69901335D01*
X135092287Y-69889914D01*
X135127495Y-69891220D01*
G36*
X135127495Y-69891220D02*
G01*
X135158599Y-69899121D01*
X135187559Y-69918817D01*
X135224831Y-69955484D01*
X135248801Y-69981378D01*
X135273770Y-70014997D01*
X135285031Y-70046506D01*
X135287657Y-70086485D01*
X135287657Y-70151917D01*
X135243035Y-70128842D01*
X135207673Y-70100724D01*
X135183451Y-70062848D01*
X135179291Y-70052551D01*
X135147594Y-70012637D01*
X135103554Y-69992624D01*
X135055531Y-69994572D01*
X135011886Y-70020543D01*
X134993420Y-70041635D01*
X134982663Y-70068619D01*
X134994178Y-70092634D01*
X135029981Y-70116791D01*
X135092090Y-70144199D01*
X135101515Y-70147985D01*
X135158058Y-70172759D01*
X135206580Y-70197189D01*
X135237451Y-70216486D01*
X135268371Y-70250953D01*
X135288927Y-70305957D01*
X135286744Y-70364983D01*
X135262424Y-70420845D01*
X135216568Y-70466355D01*
X135179438Y-70485727D01*
X135107711Y-70499292D01*
X135067852Y-70497462D01*
X135030953Y-70487568D01*
X135016797Y-70466806D01*
X135022091Y-70432613D01*
X135023631Y-70428092D01*
X135035842Y-70404116D01*
X135056174Y-70395042D01*
X135094908Y-70395649D01*
X135122257Y-70396474D01*
X135154257Y-70389392D01*
X135176182Y-70368219D01*
X135188670Y-70342152D01*
X135190062Y-70314845D01*
X135189998Y-70314685D01*
X135173807Y-70299930D01*
X135139155Y-70278457D01*
X135094321Y-70254458D01*
X135047582Y-70232125D01*
X135007217Y-70215652D01*
X134981504Y-70209229D01*
X134977679Y-70215518D01*
X134972864Y-70245115D01*
X134969566Y-70293447D01*
X134968343Y-70354372D01*
X134968058Y-70396542D01*
X134966718Y-70449653D01*
X134964528Y-70486025D01*
X134961769Y-70499514D01*
X134947344Y-70494981D01*
X134918226Y-70482670D01*
X134881257Y-70465826D01*
X134881257Y-70249721D01*
X134881493Y-70194327D01*
X134883729Y-70110207D01*
X134889423Y-70047800D01*
X134899903Y-70002358D01*
X134916497Y-69969133D01*
X134940531Y-69943378D01*
X134973333Y-69920344D01*
X135015124Y-69901335D01*
X135092287Y-69889914D01*
X135127495Y-69891220D01*
G37*
X139869815Y-70246524D02*
X139871252Y-70358000D01*
X139871651Y-70390339D01*
X139872929Y-70498455D01*
X139873185Y-70581186D01*
X139871634Y-70641426D01*
X139867490Y-70682073D01*
X139859964Y-70706023D01*
X139848271Y-70716171D01*
X139831624Y-70715414D01*
X139809236Y-70706648D01*
X139780321Y-70692769D01*
X139774142Y-70689808D01*
X139748413Y-70675311D01*
X139734976Y-70658065D01*
X139729834Y-70629308D01*
X139728990Y-70580283D01*
X139728952Y-70492257D01*
X139638276Y-70492257D01*
X139582498Y-70489815D01*
X139538640Y-70479908D01*
X139502218Y-70459886D01*
X139499503Y-70457929D01*
X139462546Y-70424869D01*
X139436826Y-70384931D01*
X139420606Y-70332657D01*
X139412148Y-70262588D01*
X139410083Y-70183430D01*
X139554857Y-70183430D01*
X139554882Y-70196697D01*
X139556261Y-70256584D01*
X139560687Y-70295732D01*
X139569461Y-70321153D01*
X139583886Y-70339857D01*
X139584784Y-70340750D01*
X139620237Y-70364952D01*
X139654596Y-70362567D01*
X139693403Y-70333260D01*
X139702895Y-70323244D01*
X139716876Y-70302708D01*
X139724760Y-70275997D01*
X139728245Y-70235499D01*
X139729029Y-70173603D01*
X139728350Y-70136130D01*
X139720983Y-70067980D01*
X139704168Y-70023330D01*
X139676234Y-69998926D01*
X139635509Y-69991514D01*
X139618350Y-69993094D01*
X139588660Y-70008766D01*
X139569031Y-70043691D01*
X139558188Y-70100901D01*
X139554857Y-70183430D01*
X139410083Y-70183430D01*
X139409714Y-70169267D01*
X139410253Y-70101169D01*
X139412707Y-70049587D01*
X139418158Y-70013816D01*
X139427686Y-69987015D01*
X139442371Y-69962338D01*
X139455852Y-69943480D01*
X139504799Y-69892568D01*
X139560256Y-69864918D01*
X139629928Y-69856165D01*
X139709664Y-69864890D01*
X139778595Y-69896185D01*
X139833113Y-69951381D01*
X139837223Y-69957224D01*
X139846808Y-69972753D01*
X139854151Y-69990498D01*
X139859612Y-70014290D01*
X139863550Y-70047958D01*
X139866323Y-70095333D01*
X139868292Y-70160245D01*
X139868528Y-70173603D01*
X139869815Y-70246524D01*
G36*
X139869815Y-70246524D02*
G01*
X139871252Y-70358000D01*
X139871651Y-70390339D01*
X139872929Y-70498455D01*
X139873185Y-70581186D01*
X139871634Y-70641426D01*
X139867490Y-70682073D01*
X139859964Y-70706023D01*
X139848271Y-70716171D01*
X139831624Y-70715414D01*
X139809236Y-70706648D01*
X139780321Y-70692769D01*
X139774142Y-70689808D01*
X139748413Y-70675311D01*
X139734976Y-70658065D01*
X139729834Y-70629308D01*
X139728990Y-70580283D01*
X139728952Y-70492257D01*
X139638276Y-70492257D01*
X139582498Y-70489815D01*
X139538640Y-70479908D01*
X139502218Y-70459886D01*
X139499503Y-70457929D01*
X139462546Y-70424869D01*
X139436826Y-70384931D01*
X139420606Y-70332657D01*
X139412148Y-70262588D01*
X139410083Y-70183430D01*
X139554857Y-70183430D01*
X139554882Y-70196697D01*
X139556261Y-70256584D01*
X139560687Y-70295732D01*
X139569461Y-70321153D01*
X139583886Y-70339857D01*
X139584784Y-70340750D01*
X139620237Y-70364952D01*
X139654596Y-70362567D01*
X139693403Y-70333260D01*
X139702895Y-70323244D01*
X139716876Y-70302708D01*
X139724760Y-70275997D01*
X139728245Y-70235499D01*
X139729029Y-70173603D01*
X139728350Y-70136130D01*
X139720983Y-70067980D01*
X139704168Y-70023330D01*
X139676234Y-69998926D01*
X139635509Y-69991514D01*
X139618350Y-69993094D01*
X139588660Y-70008766D01*
X139569031Y-70043691D01*
X139558188Y-70100901D01*
X139554857Y-70183430D01*
X139410083Y-70183430D01*
X139409714Y-70169267D01*
X139410253Y-70101169D01*
X139412707Y-70049587D01*
X139418158Y-70013816D01*
X139427686Y-69987015D01*
X139442371Y-69962338D01*
X139455852Y-69943480D01*
X139504799Y-69892568D01*
X139560256Y-69864918D01*
X139629928Y-69856165D01*
X139709664Y-69864890D01*
X139778595Y-69896185D01*
X139833113Y-69951381D01*
X139837223Y-69957224D01*
X139846808Y-69972753D01*
X139854151Y-69990498D01*
X139859612Y-70014290D01*
X139863550Y-70047958D01*
X139866323Y-70095333D01*
X139868292Y-70160245D01*
X139868528Y-70173603D01*
X139869815Y-70246524D01*
G37*
X137273933Y-65187371D02*
X137349856Y-65187865D01*
X137404491Y-65189135D01*
X137441500Y-65191547D01*
X137464547Y-65195467D01*
X137477296Y-65201262D01*
X137483411Y-65209299D01*
X137486556Y-65219943D01*
X137486646Y-65220325D01*
X137491814Y-65245347D01*
X137501209Y-65293681D01*
X137513867Y-65360260D01*
X137528825Y-65440014D01*
X137545119Y-65527875D01*
X137546448Y-65535064D01*
X137562691Y-65620340D01*
X137577805Y-65695242D01*
X137590808Y-65755219D01*
X137600715Y-65795717D01*
X137606544Y-65812184D01*
X137606575Y-65812210D01*
X137624943Y-65821320D01*
X137662640Y-65836457D01*
X137711543Y-65854358D01*
X137714297Y-65855330D01*
X137776817Y-65878959D01*
X137849543Y-65908595D01*
X137917294Y-65938062D01*
X138028703Y-65988626D01*
X138275399Y-65820160D01*
X138292775Y-65808311D01*
X138367202Y-65757947D01*
X138433614Y-65713612D01*
X138488039Y-65677916D01*
X138526506Y-65653471D01*
X138545042Y-65642889D01*
X138557743Y-65645315D01*
X138586579Y-65664110D01*
X138631143Y-65701330D01*
X138692670Y-65758020D01*
X138772398Y-65835227D01*
X138779532Y-65842255D01*
X138842796Y-65905222D01*
X138898990Y-65962268D01*
X138944677Y-66009817D01*
X138976414Y-66044297D01*
X138990764Y-66062131D01*
X138990810Y-66062217D01*
X138992633Y-66075795D01*
X138985910Y-66097820D01*
X138968946Y-66131304D01*
X138940044Y-66179261D01*
X138897508Y-66244704D01*
X138839644Y-66330645D01*
X138829783Y-66345151D01*
X138779913Y-66418635D01*
X138735905Y-66483687D01*
X138700380Y-66536417D01*
X138675959Y-66572936D01*
X138665264Y-66589356D01*
X138664458Y-66592834D01*
X138669518Y-66618785D01*
X138684677Y-66661159D01*
X138707463Y-66712728D01*
X138738429Y-66780170D01*
X138773004Y-66860195D01*
X138802366Y-66932629D01*
X138809645Y-66951377D01*
X138828710Y-66999246D01*
X138842715Y-67032596D01*
X138849041Y-67045114D01*
X138856025Y-67046050D01*
X138887413Y-67051461D01*
X138938787Y-67060806D01*
X139004802Y-67073069D01*
X139080113Y-67087232D01*
X139159375Y-67102280D01*
X139237243Y-67117195D01*
X139308370Y-67130961D01*
X139367412Y-67142562D01*
X139409022Y-67150980D01*
X139427857Y-67155199D01*
X139430980Y-67156389D01*
X139438591Y-67162805D01*
X139444254Y-67176465D01*
X139448251Y-67200999D01*
X139450866Y-67240038D01*
X139452384Y-67297213D01*
X139453086Y-67376154D01*
X139453257Y-67480492D01*
X139453257Y-67797799D01*
X139377057Y-67812839D01*
X139367840Y-67814642D01*
X139318891Y-67823980D01*
X139251205Y-67836669D01*
X139172478Y-67851273D01*
X139090400Y-67866355D01*
X139058078Y-67872422D01*
X138985855Y-67887181D01*
X138925666Y-67901137D01*
X138883040Y-67912952D01*
X138863510Y-67921287D01*
X138854660Y-67934905D01*
X138838548Y-67970938D01*
X138822065Y-68017572D01*
X138816263Y-68035034D01*
X138794906Y-68092358D01*
X138767359Y-68160201D01*
X138738107Y-68227355D01*
X138722463Y-68262430D01*
X138700174Y-68314822D01*
X138684857Y-68354058D01*
X138679162Y-68373563D01*
X138679478Y-68375036D01*
X138690281Y-68395729D01*
X138714638Y-68435665D01*
X138750081Y-68490972D01*
X138794136Y-68557781D01*
X138844332Y-68632220D01*
X139009501Y-68874623D01*
X138792503Y-69091983D01*
X138771516Y-69112899D01*
X138707342Y-69175505D01*
X138649990Y-69229495D01*
X138602820Y-69271826D01*
X138569192Y-69299457D01*
X138552467Y-69309343D01*
X138534303Y-69301821D01*
X138496265Y-69280227D01*
X138442726Y-69247151D01*
X138377884Y-69205191D01*
X138305940Y-69156943D01*
X138235275Y-69109291D01*
X138171526Y-69067328D01*
X138119513Y-69034165D01*
X138083279Y-69012378D01*
X138066867Y-69004543D01*
X138065905Y-69004614D01*
X138044103Y-69012338D01*
X138005440Y-69030323D01*
X137957612Y-69055013D01*
X137957110Y-69055284D01*
X137893587Y-69087099D01*
X137850060Y-69102642D01*
X137823052Y-69102685D01*
X137809090Y-69088000D01*
X137803180Y-69073544D01*
X137787229Y-69034831D01*
X137762660Y-68975316D01*
X137730779Y-68898165D01*
X137692893Y-68806541D01*
X137650310Y-68703607D01*
X137604337Y-68592526D01*
X137562667Y-68491472D01*
X137520268Y-68387780D01*
X137482756Y-68295119D01*
X137451388Y-68216642D01*
X137427425Y-68155500D01*
X137412123Y-68114843D01*
X137406743Y-68097825D01*
X137417018Y-68082219D01*
X137445563Y-68056162D01*
X137485971Y-68025887D01*
X137582979Y-67946684D01*
X137669793Y-67845475D01*
X137733322Y-67734116D01*
X137773177Y-67615893D01*
X137788965Y-67494095D01*
X137780296Y-67372010D01*
X137746778Y-67252925D01*
X137688021Y-67140129D01*
X137603632Y-67036911D01*
X137559631Y-66996713D01*
X137454211Y-66925638D01*
X137341410Y-66879301D01*
X137224525Y-66856599D01*
X137106853Y-66856428D01*
X136991690Y-66877687D01*
X136882335Y-66919270D01*
X136782083Y-66980076D01*
X136694233Y-67059001D01*
X136622080Y-67154941D01*
X136568922Y-67266795D01*
X136538057Y-67393457D01*
X136532392Y-67454507D01*
X136540185Y-67586776D01*
X136575284Y-67712266D01*
X136636649Y-67828759D01*
X136723243Y-67934039D01*
X136834029Y-68025887D01*
X136872931Y-68054930D01*
X136902104Y-68081272D01*
X136913257Y-68097800D01*
X136908810Y-68112209D01*
X136894378Y-68150815D01*
X136871173Y-68210201D01*
X136840452Y-68287215D01*
X136803474Y-68378703D01*
X136761496Y-68481516D01*
X136715778Y-68592502D01*
X136674178Y-68693072D01*
X136631222Y-68796947D01*
X136592829Y-68889819D01*
X136560305Y-68968525D01*
X136534958Y-69029899D01*
X136518095Y-69070779D01*
X136511025Y-69088000D01*
X136510943Y-69088204D01*
X136496798Y-69102745D01*
X136469659Y-69102579D01*
X136426023Y-69086927D01*
X136362388Y-69055013D01*
X136357379Y-69052326D01*
X136310125Y-69028150D01*
X136272811Y-69011037D01*
X136253133Y-69004543D01*
X136237005Y-69012218D01*
X136200959Y-69033871D01*
X136149092Y-69066928D01*
X136085445Y-69108810D01*
X136014060Y-69156943D01*
X135943724Y-69204131D01*
X135878670Y-69246267D01*
X135824820Y-69279578D01*
X135786374Y-69301469D01*
X135767534Y-69309343D01*
X135764325Y-69308343D01*
X135741954Y-69292584D01*
X135703733Y-69260033D01*
X135653021Y-69213733D01*
X135593181Y-69156726D01*
X135527571Y-69092058D01*
X135310648Y-68874772D01*
X135479601Y-68626253D01*
X135648553Y-68377733D01*
X135597183Y-68266595D01*
X135597031Y-68266266D01*
X135566183Y-68195418D01*
X135534661Y-68116523D01*
X135509266Y-68046600D01*
X135505423Y-68035322D01*
X135486047Y-67982967D01*
X135468574Y-67942283D01*
X135456388Y-67921287D01*
X135451426Y-67918322D01*
X135421634Y-67908375D01*
X135371047Y-67895505D01*
X135305194Y-67881053D01*
X135229600Y-67866355D01*
X135206957Y-67862210D01*
X135125038Y-67847116D01*
X135048600Y-67832899D01*
X134985337Y-67820995D01*
X134942943Y-67812839D01*
X134866743Y-67797799D01*
X134866743Y-67480492D01*
X134866760Y-67441476D01*
X134867082Y-67346292D01*
X134868033Y-67275255D01*
X134869896Y-67224734D01*
X134872955Y-67191098D01*
X134877494Y-67170718D01*
X134883795Y-67159962D01*
X134892143Y-67155199D01*
X134900224Y-67153270D01*
X134933172Y-67146445D01*
X134985736Y-67136022D01*
X135052569Y-67123018D01*
X135128328Y-67108449D01*
X135207665Y-67093333D01*
X135285237Y-67078685D01*
X135355698Y-67065523D01*
X135413702Y-67054863D01*
X135453904Y-67047721D01*
X135470959Y-67045114D01*
X135472112Y-67043541D01*
X135481385Y-67023119D01*
X135497432Y-66984045D01*
X135517635Y-66932629D01*
X135545672Y-66863353D01*
X135580186Y-66783290D01*
X135612538Y-66712728D01*
X135619952Y-66696889D01*
X135640755Y-66647293D01*
X135653219Y-66609038D01*
X135654863Y-66589356D01*
X135654015Y-66587962D01*
X135640548Y-66567420D01*
X135613850Y-66527516D01*
X135576539Y-66472140D01*
X135531234Y-66405177D01*
X135480552Y-66330517D01*
X135423445Y-66245692D01*
X135380607Y-66179800D01*
X135351460Y-66131478D01*
X135334317Y-66097733D01*
X135327495Y-66075572D01*
X135329306Y-66062002D01*
X135329915Y-66060984D01*
X135346297Y-66041210D01*
X135379695Y-66005175D01*
X135426671Y-65956451D01*
X135483786Y-65898612D01*
X135547603Y-65835227D01*
X135613802Y-65770905D01*
X135678648Y-65710447D01*
X135726299Y-65669655D01*
X135757990Y-65647484D01*
X135774958Y-65642889D01*
X135777175Y-65643921D01*
X135800524Y-65657837D01*
X135842912Y-65685030D01*
X135900369Y-65722889D01*
X135968923Y-65768803D01*
X136044601Y-65820160D01*
X136291298Y-65988626D01*
X136402706Y-65938062D01*
X136405943Y-65936597D01*
X136474343Y-65906965D01*
X136546907Y-65877493D01*
X136608457Y-65854358D01*
X136608729Y-65854262D01*
X136657595Y-65836367D01*
X136695212Y-65821253D01*
X136713457Y-65812184D01*
X136713752Y-65811855D01*
X136719946Y-65793282D01*
X136730139Y-65751045D01*
X136743348Y-65689696D01*
X136758590Y-65613789D01*
X136774881Y-65527875D01*
X136775449Y-65524796D01*
X136791713Y-65437128D01*
X136806608Y-65357741D01*
X136819171Y-65291701D01*
X136828438Y-65244079D01*
X136833444Y-65219943D01*
X136833764Y-65218605D01*
X136837060Y-65208273D01*
X136843738Y-65200506D01*
X136857462Y-65194940D01*
X136881895Y-65191207D01*
X136920702Y-65188942D01*
X136977546Y-65187778D01*
X137056090Y-65187348D01*
X137160000Y-65187286D01*
X137173056Y-65187286D01*
X137273933Y-65187371D01*
G36*
X137273933Y-65187371D02*
G01*
X137349856Y-65187865D01*
X137404491Y-65189135D01*
X137441500Y-65191547D01*
X137464547Y-65195467D01*
X137477296Y-65201262D01*
X137483411Y-65209299D01*
X137486556Y-65219943D01*
X137486646Y-65220325D01*
X137491814Y-65245347D01*
X137501209Y-65293681D01*
X137513867Y-65360260D01*
X137528825Y-65440014D01*
X137545119Y-65527875D01*
X137546448Y-65535064D01*
X137562691Y-65620340D01*
X137577805Y-65695242D01*
X137590808Y-65755219D01*
X137600715Y-65795717D01*
X137606544Y-65812184D01*
X137606575Y-65812210D01*
X137624943Y-65821320D01*
X137662640Y-65836457D01*
X137711543Y-65854358D01*
X137714297Y-65855330D01*
X137776817Y-65878959D01*
X137849543Y-65908595D01*
X137917294Y-65938062D01*
X138028703Y-65988626D01*
X138275399Y-65820160D01*
X138292775Y-65808311D01*
X138367202Y-65757947D01*
X138433614Y-65713612D01*
X138488039Y-65677916D01*
X138526506Y-65653471D01*
X138545042Y-65642889D01*
X138557743Y-65645315D01*
X138586579Y-65664110D01*
X138631143Y-65701330D01*
X138692670Y-65758020D01*
X138772398Y-65835227D01*
X138779532Y-65842255D01*
X138842796Y-65905222D01*
X138898990Y-65962268D01*
X138944677Y-66009817D01*
X138976414Y-66044297D01*
X138990764Y-66062131D01*
X138990810Y-66062217D01*
X138992633Y-66075795D01*
X138985910Y-66097820D01*
X138968946Y-66131304D01*
X138940044Y-66179261D01*
X138897508Y-66244704D01*
X138839644Y-66330645D01*
X138829783Y-66345151D01*
X138779913Y-66418635D01*
X138735905Y-66483687D01*
X138700380Y-66536417D01*
X138675959Y-66572936D01*
X138665264Y-66589356D01*
X138664458Y-66592834D01*
X138669518Y-66618785D01*
X138684677Y-66661159D01*
X138707463Y-66712728D01*
X138738429Y-66780170D01*
X138773004Y-66860195D01*
X138802366Y-66932629D01*
X138809645Y-66951377D01*
X138828710Y-66999246D01*
X138842715Y-67032596D01*
X138849041Y-67045114D01*
X138856025Y-67046050D01*
X138887413Y-67051461D01*
X138938787Y-67060806D01*
X139004802Y-67073069D01*
X139080113Y-67087232D01*
X139159375Y-67102280D01*
X139237243Y-67117195D01*
X139308370Y-67130961D01*
X139367412Y-67142562D01*
X139409022Y-67150980D01*
X139427857Y-67155199D01*
X139430980Y-67156389D01*
X139438591Y-67162805D01*
X139444254Y-67176465D01*
X139448251Y-67200999D01*
X139450866Y-67240038D01*
X139452384Y-67297213D01*
X139453086Y-67376154D01*
X139453257Y-67480492D01*
X139453257Y-67797799D01*
X139377057Y-67812839D01*
X139367840Y-67814642D01*
X139318891Y-67823980D01*
X139251205Y-67836669D01*
X139172478Y-67851273D01*
X139090400Y-67866355D01*
X139058078Y-67872422D01*
X138985855Y-67887181D01*
X138925666Y-67901137D01*
X138883040Y-67912952D01*
X138863510Y-67921287D01*
X138854660Y-67934905D01*
X138838548Y-67970938D01*
X138822065Y-68017572D01*
X138816263Y-68035034D01*
X138794906Y-68092358D01*
X138767359Y-68160201D01*
X138738107Y-68227355D01*
X138722463Y-68262430D01*
X138700174Y-68314822D01*
X138684857Y-68354058D01*
X138679162Y-68373563D01*
X138679478Y-68375036D01*
X138690281Y-68395729D01*
X138714638Y-68435665D01*
X138750081Y-68490972D01*
X138794136Y-68557781D01*
X138844332Y-68632220D01*
X139009501Y-68874623D01*
X138792503Y-69091983D01*
X138771516Y-69112899D01*
X138707342Y-69175505D01*
X138649990Y-69229495D01*
X138602820Y-69271826D01*
X138569192Y-69299457D01*
X138552467Y-69309343D01*
X138534303Y-69301821D01*
X138496265Y-69280227D01*
X138442726Y-69247151D01*
X138377884Y-69205191D01*
X138305940Y-69156943D01*
X138235275Y-69109291D01*
X138171526Y-69067328D01*
X138119513Y-69034165D01*
X138083279Y-69012378D01*
X138066867Y-69004543D01*
X138065905Y-69004614D01*
X138044103Y-69012338D01*
X138005440Y-69030323D01*
X137957612Y-69055013D01*
X137957110Y-69055284D01*
X137893587Y-69087099D01*
X137850060Y-69102642D01*
X137823052Y-69102685D01*
X137809090Y-69088000D01*
X137803180Y-69073544D01*
X137787229Y-69034831D01*
X137762660Y-68975316D01*
X137730779Y-68898165D01*
X137692893Y-68806541D01*
X137650310Y-68703607D01*
X137604337Y-68592526D01*
X137562667Y-68491472D01*
X137520268Y-68387780D01*
X137482756Y-68295119D01*
X137451388Y-68216642D01*
X137427425Y-68155500D01*
X137412123Y-68114843D01*
X137406743Y-68097825D01*
X137417018Y-68082219D01*
X137445563Y-68056162D01*
X137485971Y-68025887D01*
X137582979Y-67946684D01*
X137669793Y-67845475D01*
X137733322Y-67734116D01*
X137773177Y-67615893D01*
X137788965Y-67494095D01*
X137780296Y-67372010D01*
X137746778Y-67252925D01*
X137688021Y-67140129D01*
X137603632Y-67036911D01*
X137559631Y-66996713D01*
X137454211Y-66925638D01*
X137341410Y-66879301D01*
X137224525Y-66856599D01*
X137106853Y-66856428D01*
X136991690Y-66877687D01*
X136882335Y-66919270D01*
X136782083Y-66980076D01*
X136694233Y-67059001D01*
X136622080Y-67154941D01*
X136568922Y-67266795D01*
X136538057Y-67393457D01*
X136532392Y-67454507D01*
X136540185Y-67586776D01*
X136575284Y-67712266D01*
X136636649Y-67828759D01*
X136723243Y-67934039D01*
X136834029Y-68025887D01*
X136872931Y-68054930D01*
X136902104Y-68081272D01*
X136913257Y-68097800D01*
X136908810Y-68112209D01*
X136894378Y-68150815D01*
X136871173Y-68210201D01*
X136840452Y-68287215D01*
X136803474Y-68378703D01*
X136761496Y-68481516D01*
X136715778Y-68592502D01*
X136674178Y-68693072D01*
X136631222Y-68796947D01*
X136592829Y-68889819D01*
X136560305Y-68968525D01*
X136534958Y-69029899D01*
X136518095Y-69070779D01*
X136511025Y-69088000D01*
X136510943Y-69088204D01*
X136496798Y-69102745D01*
X136469659Y-69102579D01*
X136426023Y-69086927D01*
X136362388Y-69055013D01*
X136357379Y-69052326D01*
X136310125Y-69028150D01*
X136272811Y-69011037D01*
X136253133Y-69004543D01*
X136237005Y-69012218D01*
X136200959Y-69033871D01*
X136149092Y-69066928D01*
X136085445Y-69108810D01*
X136014060Y-69156943D01*
X135943724Y-69204131D01*
X135878670Y-69246267D01*
X135824820Y-69279578D01*
X135786374Y-69301469D01*
X135767534Y-69309343D01*
X135764325Y-69308343D01*
X135741954Y-69292584D01*
X135703733Y-69260033D01*
X135653021Y-69213733D01*
X135593181Y-69156726D01*
X135527571Y-69092058D01*
X135310648Y-68874772D01*
X135479601Y-68626253D01*
X135648553Y-68377733D01*
X135597183Y-68266595D01*
X135597031Y-68266266D01*
X135566183Y-68195418D01*
X135534661Y-68116523D01*
X135509266Y-68046600D01*
X135505423Y-68035322D01*
X135486047Y-67982967D01*
X135468574Y-67942283D01*
X135456388Y-67921287D01*
X135451426Y-67918322D01*
X135421634Y-67908375D01*
X135371047Y-67895505D01*
X135305194Y-67881053D01*
X135229600Y-67866355D01*
X135206957Y-67862210D01*
X135125038Y-67847116D01*
X135048600Y-67832899D01*
X134985337Y-67820995D01*
X134942943Y-67812839D01*
X134866743Y-67797799D01*
X134866743Y-67480492D01*
X134866760Y-67441476D01*
X134867082Y-67346292D01*
X134868033Y-67275255D01*
X134869896Y-67224734D01*
X134872955Y-67191098D01*
X134877494Y-67170718D01*
X134883795Y-67159962D01*
X134892143Y-67155199D01*
X134900224Y-67153270D01*
X134933172Y-67146445D01*
X134985736Y-67136022D01*
X135052569Y-67123018D01*
X135128328Y-67108449D01*
X135207665Y-67093333D01*
X135285237Y-67078685D01*
X135355698Y-67065523D01*
X135413702Y-67054863D01*
X135453904Y-67047721D01*
X135470959Y-67045114D01*
X135472112Y-67043541D01*
X135481385Y-67023119D01*
X135497432Y-66984045D01*
X135517635Y-66932629D01*
X135545672Y-66863353D01*
X135580186Y-66783290D01*
X135612538Y-66712728D01*
X135619952Y-66696889D01*
X135640755Y-66647293D01*
X135653219Y-66609038D01*
X135654863Y-66589356D01*
X135654015Y-66587962D01*
X135640548Y-66567420D01*
X135613850Y-66527516D01*
X135576539Y-66472140D01*
X135531234Y-66405177D01*
X135480552Y-66330517D01*
X135423445Y-66245692D01*
X135380607Y-66179800D01*
X135351460Y-66131478D01*
X135334317Y-66097733D01*
X135327495Y-66075572D01*
X135329306Y-66062002D01*
X135329915Y-66060984D01*
X135346297Y-66041210D01*
X135379695Y-66005175D01*
X135426671Y-65956451D01*
X135483786Y-65898612D01*
X135547603Y-65835227D01*
X135613802Y-65770905D01*
X135678648Y-65710447D01*
X135726299Y-65669655D01*
X135757990Y-65647484D01*
X135774958Y-65642889D01*
X135777175Y-65643921D01*
X135800524Y-65657837D01*
X135842912Y-65685030D01*
X135900369Y-65722889D01*
X135968923Y-65768803D01*
X136044601Y-65820160D01*
X136291298Y-65988626D01*
X136402706Y-65938062D01*
X136405943Y-65936597D01*
X136474343Y-65906965D01*
X136546907Y-65877493D01*
X136608457Y-65854358D01*
X136608729Y-65854262D01*
X136657595Y-65836367D01*
X136695212Y-65821253D01*
X136713457Y-65812184D01*
X136713752Y-65811855D01*
X136719946Y-65793282D01*
X136730139Y-65751045D01*
X136743348Y-65689696D01*
X136758590Y-65613789D01*
X136774881Y-65527875D01*
X136775449Y-65524796D01*
X136791713Y-65437128D01*
X136806608Y-65357741D01*
X136819171Y-65291701D01*
X136828438Y-65244079D01*
X136833444Y-65219943D01*
X136833764Y-65218605D01*
X136837060Y-65208273D01*
X136843738Y-65200506D01*
X136857462Y-65194940D01*
X136881895Y-65191207D01*
X136920702Y-65188942D01*
X136977546Y-65187778D01*
X137056090Y-65187348D01*
X137160000Y-65187286D01*
X137173056Y-65187286D01*
X137273933Y-65187371D01*
G37*
G04 #@! TD*
%LPC*%
D15*
X113800000Y-78999649D02*
X195260000Y-78999649D01*
X195260000Y-82459649D01*
X113800000Y-82459649D01*
X113800000Y-78999649D01*
G36*
X113800000Y-78999649D02*
G01*
X195260000Y-78999649D01*
X195260000Y-82459649D01*
X113800000Y-82459649D01*
X113800000Y-78999649D01*
G37*
X113539297Y-43439297D02*
X195200000Y-43439297D01*
X195200000Y-46900000D01*
X113539297Y-46900000D01*
X113539297Y-43439297D01*
G36*
X113539297Y-43439297D02*
G01*
X195200000Y-43439297D01*
X195200000Y-46900000D01*
X113539297Y-46900000D01*
X113539297Y-43439297D01*
G37*
D16*
G04 #@! TO.C,D1*
X116000000Y-54460000D03*
D17*
X116000000Y-57000000D03*
G04 #@! TD*
D18*
G04 #@! TO.C,J9*
X192250000Y-66807500D03*
X192250000Y-73792500D03*
G04 #@! TD*
D16*
G04 #@! TO.C,D2*
X116000000Y-49525000D03*
D17*
X116000000Y-52065000D03*
G04 #@! TD*
D19*
G04 #@! TO.C,J6*
X126873000Y-76700000D03*
D20*
X129413000Y-76700000D03*
X131953000Y-76700000D03*
X134493000Y-76700000D03*
X137033000Y-76700000D03*
X139573000Y-76700000D03*
X142113000Y-76700000D03*
G04 #@! TD*
D19*
G04 #@! TO.C,J3*
X130540000Y-49350000D03*
D20*
X128000000Y-49350000D03*
X125460000Y-49350000D03*
X122920000Y-49350000D03*
X120380000Y-49350000D03*
G04 #@! TD*
D21*
G04 #@! TO.C,J1*
X118880000Y-60390000D03*
X118880000Y-66170000D03*
D22*
X119380000Y-58960000D03*
X119380000Y-67600000D03*
D23*
X115200000Y-58960000D03*
X115200000Y-67600000D03*
G04 #@! TD*
D24*
G04 #@! TO.C,REF\u002A\u002A*
X154600000Y-73900000D03*
X176900000Y-50400000D03*
G04 #@! TD*
D18*
G04 #@! TO.C,J10*
X192250000Y-52107500D03*
X192250000Y-59092500D03*
G04 #@! TD*
D19*
G04 #@! TO.C,J7*
X148717000Y-76700000D03*
D20*
X151257000Y-76700000D03*
X153797000Y-76700000D03*
G04 #@! TD*
D19*
G04 #@! TO.C,J2*
X128000000Y-53250000D03*
D20*
X125460000Y-53250000D03*
X122920000Y-53250000D03*
X120380000Y-53250000D03*
G04 #@! TD*
D19*
G04 #@! TO.C,J4*
X123320000Y-73100000D03*
D20*
X125860000Y-73100000D03*
X128400000Y-73100000D03*
X130940000Y-73100000D03*
X133480000Y-73100000D03*
G04 #@! TD*
D16*
G04 #@! TO.C,D3*
X116000000Y-72800000D03*
D17*
X116000000Y-75340000D03*
G04 #@! TD*
D25*
G04 #@! TO.C,J5*
X121750000Y-66250000D03*
X121750000Y-64250000D03*
X121750000Y-62250000D03*
X121750000Y-60250000D03*
G04 #@! TD*
%LPD*%
M02*
