M48
; DRILL file {KiCad 8.0.4} date 2024-11-17T23:13:56+0100
; FORMAT={-:-/ absolute / metric / decimal}
; #@! TF.CreationDate,2024-11-17T23:13:56+01:00
; #@! TF.GenerationSoftware,Kicad,Pcbnew,8.0.4
; #@! TF.FileFunction,Plated,1,2,PTH
FMAT,2
METRIC
; #@! TA.AperFunction,Plated,PTH,ViaDrill
T1C0.300
; #@! TA.AperFunction,Plated,PTH,ComponentDrill
T2C0.460
; #@! TA.AperFunction,Plated,PTH,ComponentDrill
T3C0.600
; #@! TA.AperFunction,Plated,PTH,ComponentDrill
T4C0.800
; #@! TA.AperFunction,Plated,PTH,ComponentDrill
T5C0.900
; #@! TA.AperFunction,Plated,PTH,ComponentDrill
T6C1.000
; #@! TA.AperFunction,Plated,PTH,ViaDrill
T7C2.600
%
G90
G05
T1
X117.7Y-58.2
X117.8Y-68.3
X119.5Y-80.3
X119.55Y-45.6
X120.3Y-69.177
X120.3Y-70.373
X120.4Y-80.3
X120.45Y-45.6
X121.1Y-59.5
X121.1Y-67.3
X121.3Y-80.3
X121.35Y-45.6
X121.6Y-70.373
X121.65Y-48.5
X121.75Y-62.25
X121.75Y-64.25
X122.2Y-58.6
X122.2Y-80.3
X122.25Y-45.6
X122.75Y-61.2
X123.1Y-80.3
X123.15Y-45.6
X123.4Y-59.7
X123.9Y-58.8
X123.902Y-67.4
X124.0Y-66.1
X124.05Y-45.6
X124.05Y-80.3
X124.1Y-55.8
X124.15Y-64.1
X124.2Y-48.5
X124.2Y-61.5
X124.5Y-57.5
X124.95Y-45.6
X124.95Y-80.3
X125.097Y-67.4
X125.1Y-58.8
X125.85Y-45.6
X125.85Y-61.5
X125.85Y-64.1
X125.85Y-80.3
X126.45Y-71.875
X126.7Y-48.5
X126.75Y-45.6
X126.75Y-80.3
X126.85Y-62.8
X126.95Y-61.5
X126.95Y-64.1
X127.2Y-58.0
X127.2Y-68.2
X127.65Y-45.6
X127.65Y-80.3
X128.0Y-64.1
X128.02Y-61.5
X128.55Y-45.6
X128.55Y-80.3
X129.0Y-60.8
X129.1Y-70.5
X129.15Y-48.5
X129.2Y-54.8
X129.3Y-64.8
X129.45Y-45.6
X129.45Y-80.3
X130.35Y-45.6
X130.35Y-80.3
X130.6Y-68.3
X130.6Y-70.5
X131.25Y-45.6
X131.25Y-80.3
X132.05Y-48.45
X132.075Y-51.15
X132.15Y-45.6
X132.15Y-80.3
X132.2Y-65.3
X132.2Y-66.5
X133.05Y-45.6
X133.05Y-80.3
X133.15Y-57.7
X133.35Y-71.7
X133.85Y-65.3
X133.85Y-66.5
X133.95Y-45.6
X133.95Y-80.3
X134.3Y-70.8
X134.3Y-71.7
X134.4Y-54.8
X134.4Y-55.7
X134.55Y-59.8
X134.55Y-61.3
X134.55Y-62.8
X134.85Y-45.6
X134.85Y-80.3
X135.3Y-54.8
X135.3Y-55.7
X135.75Y-45.6
X135.75Y-80.3
X135.8Y-48.45
X135.8Y-49.35
X135.8Y-50.25
X135.8Y-64.65
X135.825Y-51.15
X136.2Y-53.0
X136.2Y-53.9
X136.2Y-54.8
X136.2Y-55.7
X136.3Y-59.5
X136.3Y-60.65
X136.3Y-62.0
X136.65Y-45.6
X136.65Y-80.3
X137.1Y-53.0
X137.1Y-53.9
X137.1Y-54.8
X137.1Y-55.7
X137.15Y-60.05
X137.15Y-61.1
X137.15Y-58.875
X137.3Y-64.65
X137.4Y-62.0
X137.55Y-45.6
X137.55Y-80.3
X137.8Y-49.95
X137.8Y-51.1
X138.0Y-53.0
X138.0Y-53.9
X138.0Y-54.8
X138.0Y-55.7
X138.075Y-61.125
X138.4Y-73.675
X138.45Y-45.6
X138.45Y-80.3
X138.5Y-62.0
X138.55Y-58.9
X138.8Y-64.65
X138.8Y-71.0
X138.9Y-53.0
X138.9Y-53.9
X138.9Y-54.8
X138.9Y-55.7
X139.2Y-59.616
X139.2Y-60.6
X139.25Y-68.3
X139.35Y-45.6
X139.35Y-80.3
X139.4Y-71.95
X139.55Y-62.0
X139.8Y-52.1
X139.8Y-53.0
X139.8Y-53.9
X139.8Y-54.8
X139.8Y-55.7
X139.85Y-58.9
X140.0Y-62.8
X140.247Y-59.786
X140.25Y-45.6
X140.25Y-80.3
X140.452Y-47.75
X140.7Y-52.1
X140.7Y-53.0
X140.7Y-53.9
X140.7Y-54.8
X140.7Y-55.7
X140.9Y-57.3
X140.9Y-66.7
X141.15Y-45.6
X141.15Y-80.3
X141.6Y-52.1
X141.6Y-53.0
X141.6Y-53.9
X141.6Y-54.8
X141.6Y-55.7
X141.6Y-67.3
X141.647Y-47.75
X141.8Y-58.2
X142.05Y-45.6
X142.05Y-80.3
X142.1Y-69.4
X142.1Y-70.83
X142.2Y-65.4
X142.4Y-56.3
X142.5Y-52.1
X142.85Y-58.1
X142.85Y-64.1
X142.95Y-45.6
X142.95Y-80.3
X143.2Y-57.0
X143.75Y-60.35
X143.75Y-61.727
X143.85Y-45.6
X143.85Y-80.3
X144.0Y-56.3
X144.3Y-49.95
X144.3Y-51.0
X144.3Y-52.1
X144.3Y-66.6
X144.3Y-67.75
X144.3Y-69.35
X144.3Y-70.8
X144.3Y-72.2
X144.3Y-73.5
X144.3Y-75.1
X144.75Y-45.6
X144.75Y-80.3
X145.5Y-60.35
X145.5Y-61.727
X145.55Y-54.25
X145.55Y-55.15
X145.65Y-45.6
X145.65Y-80.3
X146.1Y-50.2
X146.2Y-63.1
X146.2Y-64.7
X146.45Y-54.25
X146.45Y-55.15
X146.55Y-45.6
X146.55Y-80.3
X146.6Y-68.1
X147.0Y-50.2
X147.2Y-63.1
X147.2Y-64.7
X147.3Y-55.6
X147.35Y-60.35
X147.35Y-61.727
X147.45Y-45.6
X147.45Y-80.3
X148.0Y-56.3
X148.35Y-45.6
X148.35Y-80.3
X148.9Y-68.8
X149.25Y-45.6
X149.25Y-80.3
X149.704Y-52.074
X149.714Y-53.051
X149.714Y-54.0
X149.751Y-56.75
X149.755Y-58.879
X149.757Y-60.351
X149.757Y-71.65
X149.762Y-62.322
X149.762Y-63.822
X149.762Y-65.322
X150.142Y-51.192
X150.15Y-45.6
X150.15Y-80.3
X150.291Y-73.467
X150.9Y-68.3
X150.9Y-69.7
X150.9Y-71.15
X150.978Y-50.574
X151.0Y-63.35
X151.0Y-65.0
X151.025Y-58.1
X151.025Y-59.6
X151.025Y-61.1
X151.05Y-45.6
X151.05Y-80.3
X151.1Y-53.2
X151.1Y-54.5
X151.385Y-73.82
X151.9Y-51.8
X151.95Y-45.6
X151.95Y-80.3
X152.001Y-50.384
X152.428Y-73.891
X152.5Y-71.65
X152.7Y-57.4
X152.75Y-58.875
X152.75Y-60.37
X152.85Y-45.6
X152.85Y-80.3
X153.001Y-50.384
X153.4Y-51.8
X153.75Y-45.6
X153.75Y-80.3
X154.001Y-50.384
X154.35Y-69.7
X154.45Y-71.0
X154.5Y-67.05
X154.6Y-56.7
X154.6Y-62.1
X154.6Y-63.1
X154.6Y-64.9
X154.65Y-45.6
X154.65Y-80.3
X155.0Y-58.1
X155.001Y-50.384
X155.3Y-59.4
X155.55Y-45.6
X155.55Y-80.3
X155.7Y-62.367
X156.0Y-56.7
X156.001Y-50.384
X156.1Y-75.9
X156.1Y-77.6
X156.45Y-45.6
X156.45Y-80.3
X156.6Y-58.3
X156.75Y-59.8
X156.798Y-64.751
X157.001Y-50.384
X157.112Y-53.6
X157.206Y-73.9
X157.35Y-45.6
X157.35Y-80.3
X157.6Y-56.7
X157.6Y-67.7
X157.8Y-71.755
X157.925Y-61.0
X157.975Y-62.45
X157.975Y-63.45
X158.001Y-50.384
X158.1Y-55.7
X158.25Y-45.6
X158.25Y-80.3
X158.5Y-75.1
X158.825Y-67.275
X158.875Y-62.45
X158.875Y-63.45
X159.001Y-50.384
X159.1Y-55.7
X159.15Y-45.6
X159.15Y-80.3
X159.25Y-71.75
X159.325Y-61.05
X159.7Y-56.7
X159.7Y-76.3
X159.925Y-66.125
X160.001Y-50.384
X160.05Y-45.6
X160.05Y-80.3
X160.225Y-61.05
X160.275Y-62.35
X160.275Y-63.25
X160.7Y-54.7
X160.771Y-65.729
X160.8Y-71.755
X160.95Y-45.6
X160.95Y-80.3
X161.001Y-50.384
X161.1Y-67.6
X161.4Y-56.7
X161.524Y-73.871
X161.85Y-45.6
X161.85Y-80.3
X161.9Y-59.762
X162.001Y-50.384
X162.025Y-65.8
X162.2Y-53.8
X162.524Y-73.871
X162.625Y-71.775
X162.75Y-45.6
X162.75Y-80.3
X163.001Y-50.384
X163.006Y-65.768
X163.1Y-60.412
X163.5Y-56.7
X163.524Y-73.871
X163.65Y-45.6
X163.65Y-80.3
X163.825Y-62.65
X164.001Y-50.384
X164.1Y-57.8
X164.3Y-71.75
X164.524Y-73.871
X164.55Y-45.6
X164.55Y-80.3
X164.8Y-66.904
X165.0Y-53.3
X165.001Y-50.384
X165.2Y-60.8
X165.45Y-45.6
X165.45Y-80.3
X165.524Y-73.871
X165.625Y-57.3
X165.625Y-58.8
X165.625Y-62.65
X165.975Y-71.725
X166.001Y-50.384
X166.35Y-45.6
X166.35Y-80.3
X166.454Y-70.746
X166.524Y-73.871
X166.7Y-66.1
X167.001Y-50.384
X167.225Y-58.1
X167.25Y-45.6
X167.25Y-80.3
X167.3Y-69.748
X167.524Y-73.871
X168.001Y-50.384
X168.05Y-54.75
X168.05Y-66.1
X168.15Y-45.6
X168.15Y-80.3
X168.367Y-69.748
X168.524Y-73.871
X168.825Y-58.1
X168.825Y-59.7
X168.825Y-61.3
X168.825Y-62.9
X168.825Y-64.5
X169.001Y-50.384
X169.05Y-45.6
X169.05Y-80.3
X169.383Y-69.748
X169.524Y-73.871
X169.55Y-55.3
X169.95Y-45.6
X169.95Y-80.3
X170.001Y-50.384
X170.2Y-56.9
X170.399Y-69.748
X170.45Y-55.3
X170.524Y-73.871
X170.85Y-45.6
X170.85Y-80.3
X171.0Y-71.6
X171.001Y-50.384
X171.1Y-53.45
X171.35Y-55.325
X171.415Y-69.748
X171.524Y-73.871
X171.75Y-45.6
X171.75Y-80.3
X171.8Y-58.1
X171.8Y-59.7
X171.8Y-61.3
X171.8Y-62.9
X171.8Y-64.5
X172.001Y-50.384
X172.281Y-55.325
X172.431Y-69.748
X172.524Y-73.871
X172.65Y-45.6
X172.65Y-80.3
X173.001Y-50.384
X173.447Y-69.748
X173.5Y-64.7
X173.524Y-73.871
X173.55Y-45.6
X173.55Y-80.3
X174.001Y-50.384
X174.075Y-58.0
X174.075Y-58.931
X174.1Y-56.2
X174.1Y-57.1
X174.45Y-45.6
X174.45Y-80.3
X174.463Y-69.748
X174.524Y-73.871
X175.0Y-62.35
X175.001Y-50.384
X175.15Y-53.15
X175.15Y-54.15
X175.15Y-55.2
X175.35Y-45.6
X175.35Y-80.3
X175.4Y-65.036
X175.4Y-66.052
X175.4Y-67.068
X175.4Y-68.084
X175.4Y-69.1
X175.5Y-61.05
X175.524Y-73.871
X175.55Y-60.05
X175.7Y-71.4
X175.95Y-61.85
X176.0Y-72.5
X176.05Y-64.3
X176.25Y-45.6
X176.25Y-80.3
X176.5Y-60.05
X176.5Y-61.05
X176.524Y-73.871
X177.15Y-45.6
X177.15Y-59.4
X177.15Y-80.3
X177.2Y-66.85
X177.203Y-63.062
X177.4Y-69.15
X177.4Y-70.45
X177.4Y-71.85
X177.524Y-73.871
X177.8Y-58.75
X177.85Y-67.5
X177.9Y-54.2
X178.0Y-65.15
X178.05Y-45.6
X178.05Y-80.3
X178.3Y-61.8
X178.45Y-58.1
X178.5Y-64.4
X178.5Y-68.15
X178.524Y-73.871
X178.8Y-60.7
X178.85Y-65.55
X178.9Y-51.9
X178.95Y-45.6
X178.95Y-80.3
X179.0Y-50.4
X179.0Y-62.45
X179.0Y-63.65
X179.15Y-68.8
X179.197Y-57.404
X179.524Y-73.871
X179.85Y-56.75
X179.9Y-45.6
X179.9Y-80.3
X179.906Y-69.495
X179.95Y-59.69
X179.95Y-66.6
X180.0Y-50.4
X180.456Y-73.607
X180.5Y-56.1
X180.5Y-63.1
X180.594Y-59.055
X180.6Y-67.25
X180.65Y-70.25
X180.7Y-49.5
X180.8Y-45.6
X180.8Y-80.3
X181.2Y-55.404
X181.35Y-72.964
X181.356Y-58.166
X181.356Y-67.945
X181.4Y-71.0
X181.65Y-48.632
X181.683Y-52.0
X181.697Y-59.579
X181.697Y-60.579
X181.697Y-61.579
X181.697Y-62.579
X181.697Y-63.579
X181.697Y-64.579
X181.697Y-65.579
X181.697Y-66.579
X181.7Y-45.6
X181.7Y-53.2
X181.7Y-80.3
X182.0Y-54.6
X182.1Y-68.7
X182.118Y-57.404
X182.6Y-45.6
X182.6Y-80.3
X182.658Y-51.173
X182.713Y-48.203
X182.9Y-71.4
X183.0Y-56.7
X183.0Y-69.2
X183.1Y-54.356
X183.5Y-45.6
X183.5Y-80.3
X183.8Y-48.006
X183.8Y-50.8
X184.1Y-53.6
X184.1Y-56.7
X184.1Y-69.2
X184.1Y-72.2
X184.4Y-45.6
X184.4Y-80.3
X184.7Y-50.8
X184.8Y-48.006
X185.2Y-56.7
X185.2Y-69.2
X185.3Y-45.6
X185.3Y-54.4
X185.3Y-71.4
X185.3Y-80.3
X186.2Y-45.6
X186.2Y-80.3
X186.3Y-54.4
X186.3Y-56.7
X186.3Y-69.2
X186.3Y-71.4
X187.1Y-45.6
X187.1Y-80.3
X187.4Y-54.4
X187.4Y-56.7
X187.4Y-69.2
X187.4Y-71.4
X187.8Y-48.8
X187.8Y-51.8
X188.0Y-45.6
X188.0Y-80.3
X188.5Y-54.4
X188.5Y-56.7
X188.5Y-69.2
X188.5Y-71.4
X188.9Y-45.6
X188.9Y-80.3
X189.6Y-54.4
X189.6Y-56.7
X189.6Y-69.2
X189.6Y-71.4
T2
X189.515Y-52.107
X189.515Y-59.092
X189.515Y-66.807
X189.515Y-73.792
T5
X116.0Y-49.525
X116.0Y-52.065
X116.0Y-54.46
X116.0Y-57.0
X116.0Y-72.8
X116.0Y-75.34
T6
X120.38Y-49.35
X120.38Y-53.25
X122.92Y-49.35
X122.92Y-53.25
X123.32Y-73.1
X125.46Y-49.35
X125.46Y-53.25
X125.86Y-73.1
X126.873Y-76.7
X128.0Y-49.35
X128.0Y-53.25
X128.4Y-73.1
X129.413Y-76.7
X130.54Y-49.35
X130.94Y-73.1
X131.953Y-76.7
X133.48Y-73.1
X134.493Y-76.7
X137.033Y-76.7
X139.573Y-76.7
X142.113Y-76.7
X148.717Y-76.7
X151.257Y-76.7
X153.797Y-76.7
T7
X117.0Y-46.5
X117.0Y-79.3
X191.5Y-79.2
X191.6Y-46.6
T3
G00X115.6Y-58.96
M15
G01X114.8Y-58.96
M16
G05
G00X115.6Y-67.6
M15
G01X114.8Y-67.6
M16
G05
G00X119.93Y-58.96
M15
G01X118.83Y-58.96
M16
G05
G00X119.93Y-67.6
M15
G01X118.83Y-67.6
M16
G05
T4
G00X154.1Y-73.9
M15
G01X155.1Y-73.9
M16
G05
G00X176.4Y-50.4
M15
G01X177.4Y-50.4
M16
G05
M30
