G04 #@! TF.GenerationSoftware,KiCad,Pcbnew,8.0.4*
G04 #@! TF.CreationDate,2024-11-17T23:13:56+01:00*
G04 #@! TF.ProjectId,TEF6687,54454636-3638-4372-9e6b-696361645f70,v1.1*
G04 #@! TF.SameCoordinates,Original*
G04 #@! TF.FileFunction,Soldermask,Bot*
G04 #@! TF.FilePolarity,Negative*
%FSLAX46Y46*%
G04 Gerber Fmt 4.6, Leading zero omitted, Abs format (unit mm)*
G04 Created by KiCad (PCBNEW 8.0.4) date 2024-11-17 23:13:56*
%MOMM*%
%LPD*%
G01*
G04 APERTURE LIST*
G04 Aperture macros list*
%AMRoundRect*
0 Rectangle with rounded corners*
0 $1 Rounding radius*
0 $2 $3 $4 $5 $6 $7 $8 $9 X,Y pos of 4 corners*
0 Add a 4 corners polygon primitive as box body*
4,1,4,$2,$3,$4,$5,$6,$7,$8,$9,$2,$3,0*
0 Add four circle primitives for the rounded corners*
1,1,$1+$1,$2,$3*
1,1,$1+$1,$4,$5*
1,1,$1+$1,$6,$7*
1,1,$1+$1,$8,$9*
0 Add four rect primitives between the rounded corners*
20,1,$1+$1,$2,$3,$4,$5,0*
20,1,$1+$1,$4,$5,$6,$7,0*
20,1,$1+$1,$6,$7,$8,$9,0*
20,1,$1+$1,$8,$9,$2,$3,0*%
G04 Aperture macros list end*
%ADD10C,0.200000*%
%ADD11R,1.800000X1.800000*%
%ADD12C,1.800000*%
%ADD13RoundRect,0.250000X-1.595000X-1.082500X1.595000X-1.082500X1.595000X1.082500X-1.595000X1.082500X0*%
%ADD14R,1.700000X1.700000*%
%ADD15O,1.700000X1.700000*%
%ADD16C,0.650000*%
%ADD17O,2.100000X1.050000*%
%ADD18O,1.800000X0.900000*%
%ADD19R,2.286000X1.500000*%
%ADD20RoundRect,0.250000X1.500000X-0.250000X1.500000X0.250000X-1.500000X0.250000X-1.500000X-0.250000X0*%
G04 APERTURE END LIST*
D10*
X113800000Y-78999649D02*
X195260000Y-78999649D01*
X195260000Y-82459649D01*
X113800000Y-82459649D01*
X113800000Y-78999649D01*
G36*
X113800000Y-78999649D02*
G01*
X195260000Y-78999649D01*
X195260000Y-82459649D01*
X113800000Y-82459649D01*
X113800000Y-78999649D01*
G37*
X113539297Y-43439297D02*
X195200000Y-43439297D01*
X195200000Y-46900000D01*
X113539297Y-46900000D01*
X113539297Y-43439297D01*
G36*
X113539297Y-43439297D02*
G01*
X195200000Y-43439297D01*
X195200000Y-46900000D01*
X113539297Y-46900000D01*
X113539297Y-43439297D01*
G37*
D11*
G04 #@! TO.C,D1*
X116000000Y-54460000D03*
D12*
X116000000Y-57000000D03*
G04 #@! TD*
D13*
G04 #@! TO.C,J9*
X192250000Y-66807500D03*
X192250000Y-73792500D03*
G04 #@! TD*
D11*
G04 #@! TO.C,D2*
X116000000Y-49525000D03*
D12*
X116000000Y-52065000D03*
G04 #@! TD*
D14*
G04 #@! TO.C,J6*
X126873000Y-76700000D03*
D15*
X129413000Y-76700000D03*
X131953000Y-76700000D03*
X134493000Y-76700000D03*
X137033000Y-76700000D03*
X139573000Y-76700000D03*
X142113000Y-76700000D03*
G04 #@! TD*
D14*
G04 #@! TO.C,J3*
X130540000Y-49350000D03*
D15*
X128000000Y-49350000D03*
X125460000Y-49350000D03*
X122920000Y-49350000D03*
X120380000Y-49350000D03*
G04 #@! TD*
D16*
G04 #@! TO.C,J1*
X118880000Y-60390000D03*
X118880000Y-66170000D03*
D17*
X119380000Y-58960000D03*
X119380000Y-67600000D03*
D18*
X115200000Y-58960000D03*
X115200000Y-67600000D03*
G04 #@! TD*
D19*
G04 #@! TO.C,REF\u002A\u002A*
X154600000Y-73900000D03*
X176900000Y-50400000D03*
G04 #@! TD*
D13*
G04 #@! TO.C,J10*
X192250000Y-52107500D03*
X192250000Y-59092500D03*
G04 #@! TD*
D14*
G04 #@! TO.C,J7*
X148717000Y-76700000D03*
D15*
X151257000Y-76700000D03*
X153797000Y-76700000D03*
G04 #@! TD*
D14*
G04 #@! TO.C,J2*
X128000000Y-53250000D03*
D15*
X125460000Y-53250000D03*
X122920000Y-53250000D03*
X120380000Y-53250000D03*
G04 #@! TD*
D14*
G04 #@! TO.C,J4*
X123320000Y-73100000D03*
D15*
X125860000Y-73100000D03*
X128400000Y-73100000D03*
X130940000Y-73100000D03*
X133480000Y-73100000D03*
G04 #@! TD*
D11*
G04 #@! TO.C,D3*
X116000000Y-72800000D03*
D12*
X116000000Y-75340000D03*
G04 #@! TD*
D20*
G04 #@! TO.C,J5*
X121750000Y-66250000D03*
X121750000Y-64250000D03*
X121750000Y-62250000D03*
X121750000Y-60250000D03*
G04 #@! TD*
M02*
